G04 #@! TF.GenerationSoftware,KiCad,Pcbnew,(6.0.9)*
G04 #@! TF.CreationDate,2023-02-01T21:25:14-07:00*
G04 #@! TF.ProjectId,AutoDischarger,4175746f-4469-4736-9368-61726765722e,rev?*
G04 #@! TF.SameCoordinates,Original*
G04 #@! TF.FileFunction,Legend,Top*
G04 #@! TF.FilePolarity,Positive*
%FSLAX46Y46*%
G04 Gerber Fmt 4.6, Leading zero omitted, Abs format (unit mm)*
G04 Created by KiCad (PCBNEW (6.0.9)) date 2023-02-01 21:25:14*
%MOMM*%
%LPD*%
G01*
G04 APERTURE LIST*
G04 Aperture macros list*
%AMRoundRect*
0 Rectangle with rounded corners*
0 $1 Rounding radius*
0 $2 $3 $4 $5 $6 $7 $8 $9 X,Y pos of 4 corners*
0 Add a 4 corners polygon primitive as box body*
4,1,4,$2,$3,$4,$5,$6,$7,$8,$9,$2,$3,0*
0 Add four circle primitives for the rounded corners*
1,1,$1+$1,$2,$3*
1,1,$1+$1,$4,$5*
1,1,$1+$1,$6,$7*
1,1,$1+$1,$8,$9*
0 Add four rect primitives between the rounded corners*
20,1,$1+$1,$2,$3,$4,$5,0*
20,1,$1+$1,$4,$5,$6,$7,0*
20,1,$1+$1,$6,$7,$8,$9,0*
20,1,$1+$1,$8,$9,$2,$3,0*%
%AMFreePoly0*
4,1,22,0.550000,-0.750000,0.000000,-0.750000,0.000000,-0.745033,-0.079941,-0.743568,-0.215256,-0.701293,-0.333266,-0.622738,-0.424486,-0.514219,-0.481581,-0.384460,-0.499164,-0.250000,-0.500000,-0.250000,-0.500000,0.250000,-0.499164,0.250000,-0.499963,0.256109,-0.478152,0.396186,-0.417904,0.524511,-0.324060,0.630769,-0.204165,0.706417,-0.067858,0.745374,0.000000,0.744959,0.000000,0.750000,
0.550000,0.750000,0.550000,-0.750000,0.550000,-0.750000,$1*%
%AMFreePoly1*
4,1,20,0.000000,0.744959,0.073905,0.744508,0.209726,0.703889,0.328688,0.626782,0.421226,0.519385,0.479903,0.390333,0.500000,0.250000,0.500000,-0.250000,0.499851,-0.262216,0.476331,-0.402017,0.414519,-0.529596,0.319384,-0.634700,0.198574,-0.708877,0.061801,-0.746166,0.000000,-0.745033,0.000000,-0.750000,-0.550000,-0.750000,-0.550000,0.750000,0.000000,0.750000,0.000000,0.744959,
0.000000,0.744959,$1*%
G04 Aperture macros list end*
%ADD10C,0.160000*%
%ADD11C,0.200000*%
%ADD12C,0.150000*%
%ADD13C,0.254000*%
%ADD14C,0.120000*%
%ADD15C,0.100000*%
%ADD16RoundRect,0.150000X-0.587500X-0.150000X0.587500X-0.150000X0.587500X0.150000X-0.587500X0.150000X0*%
%ADD17FreePoly0,0.000000*%
%ADD18R,1.000000X1.500000*%
%ADD19FreePoly1,0.000000*%
%ADD20RoundRect,0.200000X0.275000X-0.200000X0.275000X0.200000X-0.275000X0.200000X-0.275000X-0.200000X0*%
%ADD21RoundRect,0.225000X-0.250000X0.225000X-0.250000X-0.225000X0.250000X-0.225000X0.250000X0.225000X0*%
%ADD22RoundRect,0.250000X-0.312500X-0.625000X0.312500X-0.625000X0.312500X0.625000X-0.312500X0.625000X0*%
%ADD23RoundRect,0.200000X-0.275000X0.200000X-0.275000X-0.200000X0.275000X-0.200000X0.275000X0.200000X0*%
%ADD24RoundRect,0.200000X-0.200000X-0.275000X0.200000X-0.275000X0.200000X0.275000X-0.200000X0.275000X0*%
%ADD25RoundRect,0.200000X0.200000X0.275000X-0.200000X0.275000X-0.200000X-0.275000X0.200000X-0.275000X0*%
%ADD26RoundRect,0.225000X-0.225000X-0.250000X0.225000X-0.250000X0.225000X0.250000X-0.225000X0.250000X0*%
%ADD27R,1.150000X0.600000*%
%ADD28R,0.300000X1.400000*%
%ADD29RoundRect,0.225000X0.225000X0.250000X-0.225000X0.250000X-0.225000X-0.250000X0.225000X-0.250000X0*%
%ADD30R,1.700000X1.700000*%
%ADD31O,1.700000X1.700000*%
%ADD32RoundRect,0.150000X0.587500X0.150000X-0.587500X0.150000X-0.587500X-0.150000X0.587500X-0.150000X0*%
%ADD33R,0.450000X1.800000*%
%ADD34RoundRect,0.250000X-0.725000X0.600000X-0.725000X-0.600000X0.725000X-0.600000X0.725000X0.600000X0*%
%ADD35O,1.950000X1.700000*%
%ADD36RoundRect,0.218750X0.256250X-0.218750X0.256250X0.218750X-0.256250X0.218750X-0.256250X-0.218750X0*%
%ADD37R,1.550000X1.000000*%
G04 APERTURE END LIST*
D10*
G36*
X109600000Y-88800000D02*
G01*
X107900000Y-90300000D01*
X107900000Y-87300000D01*
X109600000Y-88800000D01*
G37*
X109600000Y-88800000D02*
X107900000Y-90300000D01*
X107900000Y-87300000D01*
X109600000Y-88800000D01*
D11*
X131500000Y-94100000D02*
X132500000Y-94900000D01*
D12*
X155804761Y-98547619D02*
X155709523Y-98500000D01*
X155614285Y-98404761D01*
X155471428Y-98261904D01*
X155376190Y-98214285D01*
X155280952Y-98214285D01*
X155328571Y-98452380D02*
X155233333Y-98404761D01*
X155138095Y-98309523D01*
X155090476Y-98119047D01*
X155090476Y-97785714D01*
X155138095Y-97595238D01*
X155233333Y-97500000D01*
X155328571Y-97452380D01*
X155519047Y-97452380D01*
X155614285Y-97500000D01*
X155709523Y-97595238D01*
X155757142Y-97785714D01*
X155757142Y-98119047D01*
X155709523Y-98309523D01*
X155614285Y-98404761D01*
X155519047Y-98452380D01*
X155328571Y-98452380D01*
X156328571Y-97880952D02*
X156233333Y-97833333D01*
X156185714Y-97785714D01*
X156138095Y-97690476D01*
X156138095Y-97642857D01*
X156185714Y-97547619D01*
X156233333Y-97500000D01*
X156328571Y-97452380D01*
X156519047Y-97452380D01*
X156614285Y-97500000D01*
X156661904Y-97547619D01*
X156709523Y-97642857D01*
X156709523Y-97690476D01*
X156661904Y-97785714D01*
X156614285Y-97833333D01*
X156519047Y-97880952D01*
X156328571Y-97880952D01*
X156233333Y-97928571D01*
X156185714Y-97976190D01*
X156138095Y-98071428D01*
X156138095Y-98261904D01*
X156185714Y-98357142D01*
X156233333Y-98404761D01*
X156328571Y-98452380D01*
X156519047Y-98452380D01*
X156614285Y-98404761D01*
X156661904Y-98357142D01*
X156709523Y-98261904D01*
X156709523Y-98071428D01*
X156661904Y-97976190D01*
X156614285Y-97928571D01*
X156519047Y-97880952D01*
X121266666Y-132052380D02*
X121266666Y-132766666D01*
X121219047Y-132909523D01*
X121123809Y-133004761D01*
X120980952Y-133052380D01*
X120885714Y-133052380D01*
X121742857Y-133052380D02*
X121742857Y-132052380D01*
X122123809Y-132052380D01*
X122219047Y-132100000D01*
X122266666Y-132147619D01*
X122314285Y-132242857D01*
X122314285Y-132385714D01*
X122266666Y-132480952D01*
X122219047Y-132528571D01*
X122123809Y-132576190D01*
X121742857Y-132576190D01*
X123266666Y-133052380D02*
X122695238Y-133052380D01*
X122980952Y-133052380D02*
X122980952Y-132052380D01*
X122885714Y-132195238D01*
X122790476Y-132290476D01*
X122695238Y-132338095D01*
X127916666Y-130502380D02*
X128535714Y-130502380D01*
X128202380Y-130883333D01*
X128345238Y-130883333D01*
X128440476Y-130930952D01*
X128488095Y-130978571D01*
X128535714Y-131073809D01*
X128535714Y-131311904D01*
X128488095Y-131407142D01*
X128440476Y-131454761D01*
X128345238Y-131502380D01*
X128059523Y-131502380D01*
X127964285Y-131454761D01*
X127916666Y-131407142D01*
X123335714Y-131502380D02*
X122764285Y-131502380D01*
X123050000Y-131502380D02*
X123050000Y-130502380D01*
X122954761Y-130645238D01*
X122859523Y-130740476D01*
X122764285Y-130788095D01*
X133652380Y-90042857D02*
X133176190Y-90376190D01*
X133652380Y-90614285D02*
X132652380Y-90614285D01*
X132652380Y-90233333D01*
X132700000Y-90138095D01*
X132747619Y-90090476D01*
X132842857Y-90042857D01*
X132985714Y-90042857D01*
X133080952Y-90090476D01*
X133128571Y-90138095D01*
X133176190Y-90233333D01*
X133176190Y-90614285D01*
X132747619Y-89661904D02*
X132700000Y-89614285D01*
X132652380Y-89519047D01*
X132652380Y-89280952D01*
X132700000Y-89185714D01*
X132747619Y-89138095D01*
X132842857Y-89090476D01*
X132938095Y-89090476D01*
X133080952Y-89138095D01*
X133652380Y-89709523D01*
X133652380Y-89090476D01*
X132652380Y-88757142D02*
X132652380Y-88090476D01*
X133652380Y-88519047D01*
X125633333Y-124557142D02*
X125585714Y-124604761D01*
X125442857Y-124652380D01*
X125347619Y-124652380D01*
X125204761Y-124604761D01*
X125109523Y-124509523D01*
X125061904Y-124414285D01*
X125014285Y-124223809D01*
X125014285Y-124080952D01*
X125061904Y-123890476D01*
X125109523Y-123795238D01*
X125204761Y-123700000D01*
X125347619Y-123652380D01*
X125442857Y-123652380D01*
X125585714Y-123700000D01*
X125633333Y-123747619D01*
X126490476Y-123985714D02*
X126490476Y-124652380D01*
X126252380Y-123604761D02*
X126014285Y-124319047D01*
X126633333Y-124319047D01*
X140802261Y-96997619D02*
X140707023Y-96950000D01*
X140611785Y-96854761D01*
X140468928Y-96711904D01*
X140373690Y-96664285D01*
X140278452Y-96664285D01*
X140326071Y-96902380D02*
X140230833Y-96854761D01*
X140135595Y-96759523D01*
X140087976Y-96569047D01*
X140087976Y-96235714D01*
X140135595Y-96045238D01*
X140230833Y-95950000D01*
X140326071Y-95902380D01*
X140516547Y-95902380D01*
X140611785Y-95950000D01*
X140707023Y-96045238D01*
X140754642Y-96235714D01*
X140754642Y-96569047D01*
X140707023Y-96759523D01*
X140611785Y-96854761D01*
X140516547Y-96902380D01*
X140326071Y-96902380D01*
X141135595Y-95997619D02*
X141183214Y-95950000D01*
X141278452Y-95902380D01*
X141516547Y-95902380D01*
X141611785Y-95950000D01*
X141659404Y-95997619D01*
X141707023Y-96092857D01*
X141707023Y-96188095D01*
X141659404Y-96330952D01*
X141087976Y-96902380D01*
X141707023Y-96902380D01*
X141657142Y-121152380D02*
X141323809Y-120676190D01*
X141085714Y-121152380D02*
X141085714Y-120152380D01*
X141466666Y-120152380D01*
X141561904Y-120200000D01*
X141609523Y-120247619D01*
X141657142Y-120342857D01*
X141657142Y-120485714D01*
X141609523Y-120580952D01*
X141561904Y-120628571D01*
X141466666Y-120676190D01*
X141085714Y-120676190D01*
X142514285Y-120485714D02*
X142514285Y-121152380D01*
X142276190Y-120104761D02*
X142038095Y-120819047D01*
X142657142Y-120819047D01*
X143180952Y-120580952D02*
X143085714Y-120533333D01*
X143038095Y-120485714D01*
X142990476Y-120390476D01*
X142990476Y-120342857D01*
X143038095Y-120247619D01*
X143085714Y-120200000D01*
X143180952Y-120152380D01*
X143371428Y-120152380D01*
X143466666Y-120200000D01*
X143514285Y-120247619D01*
X143561904Y-120342857D01*
X143561904Y-120390476D01*
X143514285Y-120485714D01*
X143466666Y-120533333D01*
X143371428Y-120580952D01*
X143180952Y-120580952D01*
X143085714Y-120628571D01*
X143038095Y-120676190D01*
X142990476Y-120771428D01*
X142990476Y-120961904D01*
X143038095Y-121057142D01*
X143085714Y-121104761D01*
X143180952Y-121152380D01*
X143371428Y-121152380D01*
X143466666Y-121104761D01*
X143514285Y-121057142D01*
X143561904Y-120961904D01*
X143561904Y-120771428D01*
X143514285Y-120676190D01*
X143466666Y-120628571D01*
X143371428Y-120580952D01*
X144404761Y-102147619D02*
X144309523Y-102100000D01*
X144214285Y-102004761D01*
X144071428Y-101861904D01*
X143976190Y-101814285D01*
X143880952Y-101814285D01*
X143928571Y-102052380D02*
X143833333Y-102004761D01*
X143738095Y-101909523D01*
X143690476Y-101719047D01*
X143690476Y-101385714D01*
X143738095Y-101195238D01*
X143833333Y-101100000D01*
X143928571Y-101052380D01*
X144119047Y-101052380D01*
X144214285Y-101100000D01*
X144309523Y-101195238D01*
X144357142Y-101385714D01*
X144357142Y-101719047D01*
X144309523Y-101909523D01*
X144214285Y-102004761D01*
X144119047Y-102052380D01*
X143928571Y-102052380D01*
X144690476Y-101052380D02*
X145357142Y-101052380D01*
X144928571Y-102052380D01*
X133852380Y-118266666D02*
X133376190Y-118600000D01*
X133852380Y-118838095D02*
X132852380Y-118838095D01*
X132852380Y-118457142D01*
X132900000Y-118361904D01*
X132947619Y-118314285D01*
X133042857Y-118266666D01*
X133185714Y-118266666D01*
X133280952Y-118314285D01*
X133328571Y-118361904D01*
X133376190Y-118457142D01*
X133376190Y-118838095D01*
X132852380Y-117409523D02*
X132852380Y-117600000D01*
X132900000Y-117695238D01*
X132947619Y-117742857D01*
X133090476Y-117838095D01*
X133280952Y-117885714D01*
X133661904Y-117885714D01*
X133757142Y-117838095D01*
X133804761Y-117790476D01*
X133852380Y-117695238D01*
X133852380Y-117504761D01*
X133804761Y-117409523D01*
X133757142Y-117361904D01*
X133661904Y-117314285D01*
X133423809Y-117314285D01*
X133328571Y-117361904D01*
X133280952Y-117409523D01*
X133233333Y-117504761D01*
X133233333Y-117695238D01*
X133280952Y-117790476D01*
X133328571Y-117838095D01*
X133423809Y-117885714D01*
X123606666Y-112492380D02*
X123606666Y-113206666D01*
X123559047Y-113349523D01*
X123463809Y-113444761D01*
X123320952Y-113492380D01*
X123225714Y-113492380D01*
X124082857Y-113492380D02*
X124082857Y-112492380D01*
X124463809Y-112492380D01*
X124559047Y-112540000D01*
X124606666Y-112587619D01*
X124654285Y-112682857D01*
X124654285Y-112825714D01*
X124606666Y-112920952D01*
X124559047Y-112968571D01*
X124463809Y-113016190D01*
X124082857Y-113016190D01*
X125035238Y-112587619D02*
X125082857Y-112540000D01*
X125178095Y-112492380D01*
X125416190Y-112492380D01*
X125511428Y-112540000D01*
X125559047Y-112587619D01*
X125606666Y-112682857D01*
X125606666Y-112778095D01*
X125559047Y-112920952D01*
X124987619Y-113492380D01*
X125606666Y-113492380D01*
X126706666Y-114292380D02*
X127325714Y-114292380D01*
X126992380Y-114673333D01*
X127135238Y-114673333D01*
X127230476Y-114720952D01*
X127278095Y-114768571D01*
X127325714Y-114863809D01*
X127325714Y-115101904D01*
X127278095Y-115197142D01*
X127230476Y-115244761D01*
X127135238Y-115292380D01*
X126849523Y-115292380D01*
X126754285Y-115244761D01*
X126706666Y-115197142D01*
X122125714Y-115292380D02*
X121554285Y-115292380D01*
X121840000Y-115292380D02*
X121840000Y-114292380D01*
X121744761Y-114435238D01*
X121649523Y-114530476D01*
X121554285Y-114578095D01*
X133357142Y-95452380D02*
X133023809Y-94976190D01*
X132785714Y-95452380D02*
X132785714Y-94452380D01*
X133166666Y-94452380D01*
X133261904Y-94500000D01*
X133309523Y-94547619D01*
X133357142Y-94642857D01*
X133357142Y-94785714D01*
X133309523Y-94880952D01*
X133261904Y-94928571D01*
X133166666Y-94976190D01*
X132785714Y-94976190D01*
X133738095Y-94547619D02*
X133785714Y-94500000D01*
X133880952Y-94452380D01*
X134119047Y-94452380D01*
X134214285Y-94500000D01*
X134261904Y-94547619D01*
X134309523Y-94642857D01*
X134309523Y-94738095D01*
X134261904Y-94880952D01*
X133690476Y-95452380D01*
X134309523Y-95452380D01*
X135166666Y-94452380D02*
X134976190Y-94452380D01*
X134880952Y-94500000D01*
X134833333Y-94547619D01*
X134738095Y-94690476D01*
X134690476Y-94880952D01*
X134690476Y-95261904D01*
X134738095Y-95357142D01*
X134785714Y-95404761D01*
X134880952Y-95452380D01*
X135071428Y-95452380D01*
X135166666Y-95404761D01*
X135214285Y-95357142D01*
X135261904Y-95261904D01*
X135261904Y-95023809D01*
X135214285Y-94928571D01*
X135166666Y-94880952D01*
X135071428Y-94833333D01*
X134880952Y-94833333D01*
X134785714Y-94880952D01*
X134738095Y-94928571D01*
X134690476Y-95023809D01*
X116822380Y-120366666D02*
X116346190Y-120700000D01*
X116822380Y-120938095D02*
X115822380Y-120938095D01*
X115822380Y-120557142D01*
X115870000Y-120461904D01*
X115917619Y-120414285D01*
X116012857Y-120366666D01*
X116155714Y-120366666D01*
X116250952Y-120414285D01*
X116298571Y-120461904D01*
X116346190Y-120557142D01*
X116346190Y-120938095D01*
X116822380Y-119414285D02*
X116822380Y-119985714D01*
X116822380Y-119700000D02*
X115822380Y-119700000D01*
X115965238Y-119795238D01*
X116060476Y-119890476D01*
X116108095Y-119985714D01*
X134117142Y-124292380D02*
X133783809Y-123816190D01*
X133545714Y-124292380D02*
X133545714Y-123292380D01*
X133926666Y-123292380D01*
X134021904Y-123340000D01*
X134069523Y-123387619D01*
X134117142Y-123482857D01*
X134117142Y-123625714D01*
X134069523Y-123720952D01*
X134021904Y-123768571D01*
X133926666Y-123816190D01*
X133545714Y-123816190D01*
X134498095Y-123387619D02*
X134545714Y-123340000D01*
X134640952Y-123292380D01*
X134879047Y-123292380D01*
X134974285Y-123340000D01*
X135021904Y-123387619D01*
X135069523Y-123482857D01*
X135069523Y-123578095D01*
X135021904Y-123720952D01*
X134450476Y-124292380D01*
X135069523Y-124292380D01*
X135688571Y-123292380D02*
X135783809Y-123292380D01*
X135879047Y-123340000D01*
X135926666Y-123387619D01*
X135974285Y-123482857D01*
X136021904Y-123673333D01*
X136021904Y-123911428D01*
X135974285Y-124101904D01*
X135926666Y-124197142D01*
X135879047Y-124244761D01*
X135783809Y-124292380D01*
X135688571Y-124292380D01*
X135593333Y-124244761D01*
X135545714Y-124197142D01*
X135498095Y-124101904D01*
X135450476Y-123911428D01*
X135450476Y-123673333D01*
X135498095Y-123482857D01*
X135545714Y-123387619D01*
X135593333Y-123340000D01*
X135688571Y-123292380D01*
X144702380Y-91992857D02*
X144226190Y-92326190D01*
X144702380Y-92564285D02*
X143702380Y-92564285D01*
X143702380Y-92183333D01*
X143750000Y-92088095D01*
X143797619Y-92040476D01*
X143892857Y-91992857D01*
X144035714Y-91992857D01*
X144130952Y-92040476D01*
X144178571Y-92088095D01*
X144226190Y-92183333D01*
X144226190Y-92564285D01*
X143702380Y-91659523D02*
X143702380Y-91040476D01*
X144083333Y-91373809D01*
X144083333Y-91230952D01*
X144130952Y-91135714D01*
X144178571Y-91088095D01*
X144273809Y-91040476D01*
X144511904Y-91040476D01*
X144607142Y-91088095D01*
X144654761Y-91135714D01*
X144702380Y-91230952D01*
X144702380Y-91516666D01*
X144654761Y-91611904D01*
X144607142Y-91659523D01*
X143702380Y-90707142D02*
X143702380Y-90088095D01*
X144083333Y-90421428D01*
X144083333Y-90278571D01*
X144130952Y-90183333D01*
X144178571Y-90135714D01*
X144273809Y-90088095D01*
X144511904Y-90088095D01*
X144607142Y-90135714D01*
X144654761Y-90183333D01*
X144702380Y-90278571D01*
X144702380Y-90564285D01*
X144654761Y-90659523D01*
X144607142Y-90707142D01*
X126133333Y-134752380D02*
X125800000Y-134276190D01*
X125561904Y-134752380D02*
X125561904Y-133752380D01*
X125942857Y-133752380D01*
X126038095Y-133800000D01*
X126085714Y-133847619D01*
X126133333Y-133942857D01*
X126133333Y-134085714D01*
X126085714Y-134180952D01*
X126038095Y-134228571D01*
X125942857Y-134276190D01*
X125561904Y-134276190D01*
X126990476Y-134085714D02*
X126990476Y-134752380D01*
X126752380Y-133704761D02*
X126514285Y-134419047D01*
X127133333Y-134419047D01*
X146557142Y-131352380D02*
X146223809Y-130876190D01*
X145985714Y-131352380D02*
X145985714Y-130352380D01*
X146366666Y-130352380D01*
X146461904Y-130400000D01*
X146509523Y-130447619D01*
X146557142Y-130542857D01*
X146557142Y-130685714D01*
X146509523Y-130780952D01*
X146461904Y-130828571D01*
X146366666Y-130876190D01*
X145985714Y-130876190D01*
X147414285Y-130685714D02*
X147414285Y-131352380D01*
X147176190Y-130304761D02*
X146938095Y-131019047D01*
X147557142Y-131019047D01*
X148461904Y-131352380D02*
X147890476Y-131352380D01*
X148176190Y-131352380D02*
X148176190Y-130352380D01*
X148080952Y-130495238D01*
X147985714Y-130590476D01*
X147890476Y-130638095D01*
X149257142Y-95052380D02*
X148923809Y-94576190D01*
X148685714Y-95052380D02*
X148685714Y-94052380D01*
X149066666Y-94052380D01*
X149161904Y-94100000D01*
X149209523Y-94147619D01*
X149257142Y-94242857D01*
X149257142Y-94385714D01*
X149209523Y-94480952D01*
X149161904Y-94528571D01*
X149066666Y-94576190D01*
X148685714Y-94576190D01*
X149590476Y-94052380D02*
X150209523Y-94052380D01*
X149876190Y-94433333D01*
X150019047Y-94433333D01*
X150114285Y-94480952D01*
X150161904Y-94528571D01*
X150209523Y-94623809D01*
X150209523Y-94861904D01*
X150161904Y-94957142D01*
X150114285Y-95004761D01*
X150019047Y-95052380D01*
X149733333Y-95052380D01*
X149638095Y-95004761D01*
X149590476Y-94957142D01*
X151114285Y-94052380D02*
X150638095Y-94052380D01*
X150590476Y-94528571D01*
X150638095Y-94480952D01*
X150733333Y-94433333D01*
X150971428Y-94433333D01*
X151066666Y-94480952D01*
X151114285Y-94528571D01*
X151161904Y-94623809D01*
X151161904Y-94861904D01*
X151114285Y-94957142D01*
X151066666Y-95004761D01*
X150971428Y-95052380D01*
X150733333Y-95052380D01*
X150638095Y-95004761D01*
X150590476Y-94957142D01*
X109133333Y-114327142D02*
X109085714Y-114374761D01*
X108942857Y-114422380D01*
X108847619Y-114422380D01*
X108704761Y-114374761D01*
X108609523Y-114279523D01*
X108561904Y-114184285D01*
X108514285Y-113993809D01*
X108514285Y-113850952D01*
X108561904Y-113660476D01*
X108609523Y-113565238D01*
X108704761Y-113470000D01*
X108847619Y-113422380D01*
X108942857Y-113422380D01*
X109085714Y-113470000D01*
X109133333Y-113517619D01*
X110085714Y-114422380D02*
X109514285Y-114422380D01*
X109800000Y-114422380D02*
X109800000Y-113422380D01*
X109704761Y-113565238D01*
X109609523Y-113660476D01*
X109514285Y-113708095D01*
X135652380Y-118266666D02*
X135176190Y-118600000D01*
X135652380Y-118838095D02*
X134652380Y-118838095D01*
X134652380Y-118457142D01*
X134700000Y-118361904D01*
X134747619Y-118314285D01*
X134842857Y-118266666D01*
X134985714Y-118266666D01*
X135080952Y-118314285D01*
X135128571Y-118361904D01*
X135176190Y-118457142D01*
X135176190Y-118838095D01*
X134652380Y-117933333D02*
X134652380Y-117266666D01*
X135652380Y-117695238D01*
X126957142Y-118052380D02*
X126623809Y-117576190D01*
X126385714Y-118052380D02*
X126385714Y-117052380D01*
X126766666Y-117052380D01*
X126861904Y-117100000D01*
X126909523Y-117147619D01*
X126957142Y-117242857D01*
X126957142Y-117385714D01*
X126909523Y-117480952D01*
X126861904Y-117528571D01*
X126766666Y-117576190D01*
X126385714Y-117576190D01*
X127909523Y-118052380D02*
X127338095Y-118052380D01*
X127623809Y-118052380D02*
X127623809Y-117052380D01*
X127528571Y-117195238D01*
X127433333Y-117290476D01*
X127338095Y-117338095D01*
X128290476Y-117147619D02*
X128338095Y-117100000D01*
X128433333Y-117052380D01*
X128671428Y-117052380D01*
X128766666Y-117100000D01*
X128814285Y-117147619D01*
X128861904Y-117242857D01*
X128861904Y-117338095D01*
X128814285Y-117480952D01*
X128242857Y-118052380D01*
X128861904Y-118052380D01*
X109057142Y-94422380D02*
X108723809Y-93946190D01*
X108485714Y-94422380D02*
X108485714Y-93422380D01*
X108866666Y-93422380D01*
X108961904Y-93470000D01*
X109009523Y-93517619D01*
X109057142Y-93612857D01*
X109057142Y-93755714D01*
X109009523Y-93850952D01*
X108961904Y-93898571D01*
X108866666Y-93946190D01*
X108485714Y-93946190D01*
X109914285Y-93755714D02*
X109914285Y-94422380D01*
X109676190Y-93374761D02*
X109438095Y-94089047D01*
X110057142Y-94089047D01*
X110485714Y-94422380D02*
X110676190Y-94422380D01*
X110771428Y-94374761D01*
X110819047Y-94327142D01*
X110914285Y-94184285D01*
X110961904Y-93993809D01*
X110961904Y-93612857D01*
X110914285Y-93517619D01*
X110866666Y-93470000D01*
X110771428Y-93422380D01*
X110580952Y-93422380D01*
X110485714Y-93470000D01*
X110438095Y-93517619D01*
X110390476Y-93612857D01*
X110390476Y-93850952D01*
X110438095Y-93946190D01*
X110485714Y-93993809D01*
X110580952Y-94041428D01*
X110771428Y-94041428D01*
X110866666Y-93993809D01*
X110914285Y-93946190D01*
X110961904Y-93850952D01*
X127257142Y-121952380D02*
X126923809Y-121476190D01*
X126685714Y-121952380D02*
X126685714Y-120952380D01*
X127066666Y-120952380D01*
X127161904Y-121000000D01*
X127209523Y-121047619D01*
X127257142Y-121142857D01*
X127257142Y-121285714D01*
X127209523Y-121380952D01*
X127161904Y-121428571D01*
X127066666Y-121476190D01*
X126685714Y-121476190D01*
X128209523Y-121952380D02*
X127638095Y-121952380D01*
X127923809Y-121952380D02*
X127923809Y-120952380D01*
X127828571Y-121095238D01*
X127733333Y-121190476D01*
X127638095Y-121238095D01*
X129066666Y-121285714D02*
X129066666Y-121952380D01*
X128828571Y-120904761D02*
X128590476Y-121619047D01*
X129209523Y-121619047D01*
X134752380Y-132942857D02*
X134276190Y-133276190D01*
X134752380Y-133514285D02*
X133752380Y-133514285D01*
X133752380Y-133133333D01*
X133800000Y-133038095D01*
X133847619Y-132990476D01*
X133942857Y-132942857D01*
X134085714Y-132942857D01*
X134180952Y-132990476D01*
X134228571Y-133038095D01*
X134276190Y-133133333D01*
X134276190Y-133514285D01*
X133752380Y-132609523D02*
X133752380Y-131990476D01*
X134133333Y-132323809D01*
X134133333Y-132180952D01*
X134180952Y-132085714D01*
X134228571Y-132038095D01*
X134323809Y-131990476D01*
X134561904Y-131990476D01*
X134657142Y-132038095D01*
X134704761Y-132085714D01*
X134752380Y-132180952D01*
X134752380Y-132466666D01*
X134704761Y-132561904D01*
X134657142Y-132609523D01*
X133752380Y-131133333D02*
X133752380Y-131323809D01*
X133800000Y-131419047D01*
X133847619Y-131466666D01*
X133990476Y-131561904D01*
X134180952Y-131609523D01*
X134561904Y-131609523D01*
X134657142Y-131561904D01*
X134704761Y-131514285D01*
X134752380Y-131419047D01*
X134752380Y-131228571D01*
X134704761Y-131133333D01*
X134657142Y-131085714D01*
X134561904Y-131038095D01*
X134323809Y-131038095D01*
X134228571Y-131085714D01*
X134180952Y-131133333D01*
X134133333Y-131228571D01*
X134133333Y-131419047D01*
X134180952Y-131514285D01*
X134228571Y-131561904D01*
X134323809Y-131609523D01*
X137857142Y-124452380D02*
X137523809Y-123976190D01*
X137285714Y-124452380D02*
X137285714Y-123452380D01*
X137666666Y-123452380D01*
X137761904Y-123500000D01*
X137809523Y-123547619D01*
X137857142Y-123642857D01*
X137857142Y-123785714D01*
X137809523Y-123880952D01*
X137761904Y-123928571D01*
X137666666Y-123976190D01*
X137285714Y-123976190D01*
X138238095Y-123547619D02*
X138285714Y-123500000D01*
X138380952Y-123452380D01*
X138619047Y-123452380D01*
X138714285Y-123500000D01*
X138761904Y-123547619D01*
X138809523Y-123642857D01*
X138809523Y-123738095D01*
X138761904Y-123880952D01*
X138190476Y-124452380D01*
X138809523Y-124452380D01*
X139714285Y-123452380D02*
X139238095Y-123452380D01*
X139190476Y-123928571D01*
X139238095Y-123880952D01*
X139333333Y-123833333D01*
X139571428Y-123833333D01*
X139666666Y-123880952D01*
X139714285Y-123928571D01*
X139761904Y-124023809D01*
X139761904Y-124261904D01*
X139714285Y-124357142D01*
X139666666Y-124404761D01*
X139571428Y-124452380D01*
X139333333Y-124452380D01*
X139238095Y-124404761D01*
X139190476Y-124357142D01*
X141557142Y-107952380D02*
X141223809Y-107476190D01*
X140985714Y-107952380D02*
X140985714Y-106952380D01*
X141366666Y-106952380D01*
X141461904Y-107000000D01*
X141509523Y-107047619D01*
X141557142Y-107142857D01*
X141557142Y-107285714D01*
X141509523Y-107380952D01*
X141461904Y-107428571D01*
X141366666Y-107476190D01*
X140985714Y-107476190D01*
X142414285Y-107285714D02*
X142414285Y-107952380D01*
X142176190Y-106904761D02*
X141938095Y-107619047D01*
X142557142Y-107619047D01*
X143366666Y-107285714D02*
X143366666Y-107952380D01*
X143128571Y-106904761D02*
X142890476Y-107619047D01*
X143509523Y-107619047D01*
X129533333Y-133252380D02*
X129200000Y-132776190D01*
X128961904Y-133252380D02*
X128961904Y-132252380D01*
X129342857Y-132252380D01*
X129438095Y-132300000D01*
X129485714Y-132347619D01*
X129533333Y-132442857D01*
X129533333Y-132585714D01*
X129485714Y-132680952D01*
X129438095Y-132728571D01*
X129342857Y-132776190D01*
X128961904Y-132776190D01*
X130104761Y-132680952D02*
X130009523Y-132633333D01*
X129961904Y-132585714D01*
X129914285Y-132490476D01*
X129914285Y-132442857D01*
X129961904Y-132347619D01*
X130009523Y-132300000D01*
X130104761Y-132252380D01*
X130295238Y-132252380D01*
X130390476Y-132300000D01*
X130438095Y-132347619D01*
X130485714Y-132442857D01*
X130485714Y-132490476D01*
X130438095Y-132585714D01*
X130390476Y-132633333D01*
X130295238Y-132680952D01*
X130104761Y-132680952D01*
X130009523Y-132728571D01*
X129961904Y-132776190D01*
X129914285Y-132871428D01*
X129914285Y-133061904D01*
X129961904Y-133157142D01*
X130009523Y-133204761D01*
X130104761Y-133252380D01*
X130295238Y-133252380D01*
X130390476Y-133204761D01*
X130438095Y-133157142D01*
X130485714Y-133061904D01*
X130485714Y-132871428D01*
X130438095Y-132776190D01*
X130390476Y-132728571D01*
X130295238Y-132680952D01*
X124957142Y-127452380D02*
X124623809Y-126976190D01*
X124385714Y-127452380D02*
X124385714Y-126452380D01*
X124766666Y-126452380D01*
X124861904Y-126500000D01*
X124909523Y-126547619D01*
X124957142Y-126642857D01*
X124957142Y-126785714D01*
X124909523Y-126880952D01*
X124861904Y-126928571D01*
X124766666Y-126976190D01*
X124385714Y-126976190D01*
X125909523Y-127452380D02*
X125338095Y-127452380D01*
X125623809Y-127452380D02*
X125623809Y-126452380D01*
X125528571Y-126595238D01*
X125433333Y-126690476D01*
X125338095Y-126738095D01*
X126861904Y-127452380D02*
X126290476Y-127452380D01*
X126576190Y-127452380D02*
X126576190Y-126452380D01*
X126480952Y-126595238D01*
X126385714Y-126690476D01*
X126290476Y-126738095D01*
X131457142Y-102952380D02*
X131123809Y-102476190D01*
X130885714Y-102952380D02*
X130885714Y-101952380D01*
X131266666Y-101952380D01*
X131361904Y-102000000D01*
X131409523Y-102047619D01*
X131457142Y-102142857D01*
X131457142Y-102285714D01*
X131409523Y-102380952D01*
X131361904Y-102428571D01*
X131266666Y-102476190D01*
X130885714Y-102476190D01*
X132409523Y-102952380D02*
X131838095Y-102952380D01*
X132123809Y-102952380D02*
X132123809Y-101952380D01*
X132028571Y-102095238D01*
X131933333Y-102190476D01*
X131838095Y-102238095D01*
X132885714Y-102952380D02*
X133076190Y-102952380D01*
X133171428Y-102904761D01*
X133219047Y-102857142D01*
X133314285Y-102714285D01*
X133361904Y-102523809D01*
X133361904Y-102142857D01*
X133314285Y-102047619D01*
X133266666Y-102000000D01*
X133171428Y-101952380D01*
X132980952Y-101952380D01*
X132885714Y-102000000D01*
X132838095Y-102047619D01*
X132790476Y-102142857D01*
X132790476Y-102380952D01*
X132838095Y-102476190D01*
X132885714Y-102523809D01*
X132980952Y-102571428D01*
X133171428Y-102571428D01*
X133266666Y-102523809D01*
X133314285Y-102476190D01*
X133361904Y-102380952D01*
X144754642Y-94972380D02*
X144421309Y-94496190D01*
X144183214Y-94972380D02*
X144183214Y-93972380D01*
X144564166Y-93972380D01*
X144659404Y-94020000D01*
X144707023Y-94067619D01*
X144754642Y-94162857D01*
X144754642Y-94305714D01*
X144707023Y-94400952D01*
X144659404Y-94448571D01*
X144564166Y-94496190D01*
X144183214Y-94496190D01*
X145087976Y-93972380D02*
X145707023Y-93972380D01*
X145373690Y-94353333D01*
X145516547Y-94353333D01*
X145611785Y-94400952D01*
X145659404Y-94448571D01*
X145707023Y-94543809D01*
X145707023Y-94781904D01*
X145659404Y-94877142D01*
X145611785Y-94924761D01*
X145516547Y-94972380D01*
X145230833Y-94972380D01*
X145135595Y-94924761D01*
X145087976Y-94877142D01*
X146183214Y-94972380D02*
X146373690Y-94972380D01*
X146468928Y-94924761D01*
X146516547Y-94877142D01*
X146611785Y-94734285D01*
X146659404Y-94543809D01*
X146659404Y-94162857D01*
X146611785Y-94067619D01*
X146564166Y-94020000D01*
X146468928Y-93972380D01*
X146278452Y-93972380D01*
X146183214Y-94020000D01*
X146135595Y-94067619D01*
X146087976Y-94162857D01*
X146087976Y-94400952D01*
X146135595Y-94496190D01*
X146183214Y-94543809D01*
X146278452Y-94591428D01*
X146468928Y-94591428D01*
X146564166Y-94543809D01*
X146611785Y-94496190D01*
X146659404Y-94400952D01*
X148204761Y-102047619D02*
X148109523Y-102000000D01*
X148014285Y-101904761D01*
X147871428Y-101761904D01*
X147776190Y-101714285D01*
X147680952Y-101714285D01*
X147728571Y-101952380D02*
X147633333Y-101904761D01*
X147538095Y-101809523D01*
X147490476Y-101619047D01*
X147490476Y-101285714D01*
X147538095Y-101095238D01*
X147633333Y-101000000D01*
X147728571Y-100952380D01*
X147919047Y-100952380D01*
X148014285Y-101000000D01*
X148109523Y-101095238D01*
X148157142Y-101285714D01*
X148157142Y-101619047D01*
X148109523Y-101809523D01*
X148014285Y-101904761D01*
X147919047Y-101952380D01*
X147728571Y-101952380D01*
X148490476Y-100952380D02*
X149109523Y-100952380D01*
X148776190Y-101333333D01*
X148919047Y-101333333D01*
X149014285Y-101380952D01*
X149061904Y-101428571D01*
X149109523Y-101523809D01*
X149109523Y-101761904D01*
X149061904Y-101857142D01*
X149014285Y-101904761D01*
X148919047Y-101952380D01*
X148633333Y-101952380D01*
X148538095Y-101904761D01*
X148490476Y-101857142D01*
X141757142Y-114552380D02*
X141423809Y-114076190D01*
X141185714Y-114552380D02*
X141185714Y-113552380D01*
X141566666Y-113552380D01*
X141661904Y-113600000D01*
X141709523Y-113647619D01*
X141757142Y-113742857D01*
X141757142Y-113885714D01*
X141709523Y-113980952D01*
X141661904Y-114028571D01*
X141566666Y-114076190D01*
X141185714Y-114076190D01*
X142614285Y-113885714D02*
X142614285Y-114552380D01*
X142376190Y-113504761D02*
X142138095Y-114219047D01*
X142757142Y-114219047D01*
X143566666Y-113552380D02*
X143376190Y-113552380D01*
X143280952Y-113600000D01*
X143233333Y-113647619D01*
X143138095Y-113790476D01*
X143090476Y-113980952D01*
X143090476Y-114361904D01*
X143138095Y-114457142D01*
X143185714Y-114504761D01*
X143280952Y-114552380D01*
X143471428Y-114552380D01*
X143566666Y-114504761D01*
X143614285Y-114457142D01*
X143661904Y-114361904D01*
X143661904Y-114123809D01*
X143614285Y-114028571D01*
X143566666Y-113980952D01*
X143471428Y-113933333D01*
X143280952Y-113933333D01*
X143185714Y-113980952D01*
X143138095Y-114028571D01*
X143090476Y-114123809D01*
X136657142Y-109552380D02*
X136323809Y-109076190D01*
X136085714Y-109552380D02*
X136085714Y-108552380D01*
X136466666Y-108552380D01*
X136561904Y-108600000D01*
X136609523Y-108647619D01*
X136657142Y-108742857D01*
X136657142Y-108885714D01*
X136609523Y-108980952D01*
X136561904Y-109028571D01*
X136466666Y-109076190D01*
X136085714Y-109076190D01*
X137038095Y-108647619D02*
X137085714Y-108600000D01*
X137180952Y-108552380D01*
X137419047Y-108552380D01*
X137514285Y-108600000D01*
X137561904Y-108647619D01*
X137609523Y-108742857D01*
X137609523Y-108838095D01*
X137561904Y-108980952D01*
X136990476Y-109552380D01*
X137609523Y-109552380D01*
X138085714Y-109552380D02*
X138276190Y-109552380D01*
X138371428Y-109504761D01*
X138419047Y-109457142D01*
X138514285Y-109314285D01*
X138561904Y-109123809D01*
X138561904Y-108742857D01*
X138514285Y-108647619D01*
X138466666Y-108600000D01*
X138371428Y-108552380D01*
X138180952Y-108552380D01*
X138085714Y-108600000D01*
X138038095Y-108647619D01*
X137990476Y-108742857D01*
X137990476Y-108980952D01*
X138038095Y-109076190D01*
X138085714Y-109123809D01*
X138180952Y-109171428D01*
X138371428Y-109171428D01*
X138466666Y-109123809D01*
X138514285Y-109076190D01*
X138561904Y-108980952D01*
D13*
X107660238Y-121974523D02*
X107660238Y-120704523D01*
X108990714Y-121853571D02*
X108930238Y-121914047D01*
X108748809Y-121974523D01*
X108627857Y-121974523D01*
X108446428Y-121914047D01*
X108325476Y-121793095D01*
X108265000Y-121672142D01*
X108204523Y-121430238D01*
X108204523Y-121248809D01*
X108265000Y-121006904D01*
X108325476Y-120885952D01*
X108446428Y-120765000D01*
X108627857Y-120704523D01*
X108748809Y-120704523D01*
X108930238Y-120765000D01*
X108990714Y-120825476D01*
X110200238Y-121974523D02*
X109474523Y-121974523D01*
X109837380Y-121974523D02*
X109837380Y-120704523D01*
X109716428Y-120885952D01*
X109595476Y-121006904D01*
X109474523Y-121067380D01*
D12*
X147857142Y-87752380D02*
X147523809Y-87276190D01*
X147285714Y-87752380D02*
X147285714Y-86752380D01*
X147666666Y-86752380D01*
X147761904Y-86800000D01*
X147809523Y-86847619D01*
X147857142Y-86942857D01*
X147857142Y-87085714D01*
X147809523Y-87180952D01*
X147761904Y-87228571D01*
X147666666Y-87276190D01*
X147285714Y-87276190D01*
X148190476Y-86752380D02*
X148809523Y-86752380D01*
X148476190Y-87133333D01*
X148619047Y-87133333D01*
X148714285Y-87180952D01*
X148761904Y-87228571D01*
X148809523Y-87323809D01*
X148809523Y-87561904D01*
X148761904Y-87657142D01*
X148714285Y-87704761D01*
X148619047Y-87752380D01*
X148333333Y-87752380D01*
X148238095Y-87704761D01*
X148190476Y-87657142D01*
X149380952Y-87180952D02*
X149285714Y-87133333D01*
X149238095Y-87085714D01*
X149190476Y-86990476D01*
X149190476Y-86942857D01*
X149238095Y-86847619D01*
X149285714Y-86800000D01*
X149380952Y-86752380D01*
X149571428Y-86752380D01*
X149666666Y-86800000D01*
X149714285Y-86847619D01*
X149761904Y-86942857D01*
X149761904Y-86990476D01*
X149714285Y-87085714D01*
X149666666Y-87133333D01*
X149571428Y-87180952D01*
X149380952Y-87180952D01*
X149285714Y-87228571D01*
X149238095Y-87276190D01*
X149190476Y-87371428D01*
X149190476Y-87561904D01*
X149238095Y-87657142D01*
X149285714Y-87704761D01*
X149380952Y-87752380D01*
X149571428Y-87752380D01*
X149666666Y-87704761D01*
X149714285Y-87657142D01*
X149761904Y-87561904D01*
X149761904Y-87371428D01*
X149714285Y-87276190D01*
X149666666Y-87228571D01*
X149571428Y-87180952D01*
X125157142Y-120242380D02*
X124823809Y-119766190D01*
X124585714Y-120242380D02*
X124585714Y-119242380D01*
X124966666Y-119242380D01*
X125061904Y-119290000D01*
X125109523Y-119337619D01*
X125157142Y-119432857D01*
X125157142Y-119575714D01*
X125109523Y-119670952D01*
X125061904Y-119718571D01*
X124966666Y-119766190D01*
X124585714Y-119766190D01*
X126109523Y-120242380D02*
X125538095Y-120242380D01*
X125823809Y-120242380D02*
X125823809Y-119242380D01*
X125728571Y-119385238D01*
X125633333Y-119480476D01*
X125538095Y-119528095D01*
X126442857Y-119242380D02*
X127061904Y-119242380D01*
X126728571Y-119623333D01*
X126871428Y-119623333D01*
X126966666Y-119670952D01*
X127014285Y-119718571D01*
X127061904Y-119813809D01*
X127061904Y-120051904D01*
X127014285Y-120147142D01*
X126966666Y-120194761D01*
X126871428Y-120242380D01*
X126585714Y-120242380D01*
X126490476Y-120194761D01*
X126442857Y-120147142D01*
X132052380Y-118266666D02*
X131576190Y-118600000D01*
X132052380Y-118838095D02*
X131052380Y-118838095D01*
X131052380Y-118457142D01*
X131100000Y-118361904D01*
X131147619Y-118314285D01*
X131242857Y-118266666D01*
X131385714Y-118266666D01*
X131480952Y-118314285D01*
X131528571Y-118361904D01*
X131576190Y-118457142D01*
X131576190Y-118838095D01*
X131052380Y-117361904D02*
X131052380Y-117838095D01*
X131528571Y-117885714D01*
X131480952Y-117838095D01*
X131433333Y-117742857D01*
X131433333Y-117504761D01*
X131480952Y-117409523D01*
X131528571Y-117361904D01*
X131623809Y-117314285D01*
X131861904Y-117314285D01*
X131957142Y-117361904D01*
X132004761Y-117409523D01*
X132052380Y-117504761D01*
X132052380Y-117742857D01*
X132004761Y-117838095D01*
X131957142Y-117885714D01*
X124006666Y-102602380D02*
X124006666Y-103316666D01*
X123959047Y-103459523D01*
X123863809Y-103554761D01*
X123720952Y-103602380D01*
X123625714Y-103602380D01*
X124482857Y-103602380D02*
X124482857Y-102602380D01*
X124863809Y-102602380D01*
X124959047Y-102650000D01*
X125006666Y-102697619D01*
X125054285Y-102792857D01*
X125054285Y-102935714D01*
X125006666Y-103030952D01*
X124959047Y-103078571D01*
X124863809Y-103126190D01*
X124482857Y-103126190D01*
X125387619Y-102602380D02*
X126006666Y-102602380D01*
X125673333Y-102983333D01*
X125816190Y-102983333D01*
X125911428Y-103030952D01*
X125959047Y-103078571D01*
X126006666Y-103173809D01*
X126006666Y-103411904D01*
X125959047Y-103507142D01*
X125911428Y-103554761D01*
X125816190Y-103602380D01*
X125530476Y-103602380D01*
X125435238Y-103554761D01*
X125387619Y-103507142D01*
X127106666Y-104402380D02*
X127725714Y-104402380D01*
X127392380Y-104783333D01*
X127535238Y-104783333D01*
X127630476Y-104830952D01*
X127678095Y-104878571D01*
X127725714Y-104973809D01*
X127725714Y-105211904D01*
X127678095Y-105307142D01*
X127630476Y-105354761D01*
X127535238Y-105402380D01*
X127249523Y-105402380D01*
X127154285Y-105354761D01*
X127106666Y-105307142D01*
X122525714Y-105402380D02*
X121954285Y-105402380D01*
X122240000Y-105402380D02*
X122240000Y-104402380D01*
X122144761Y-104545238D01*
X122049523Y-104640476D01*
X121954285Y-104688095D01*
X123216666Y-91802380D02*
X123216666Y-92516666D01*
X123169047Y-92659523D01*
X123073809Y-92754761D01*
X122930952Y-92802380D01*
X122835714Y-92802380D01*
X123692857Y-92802380D02*
X123692857Y-91802380D01*
X124073809Y-91802380D01*
X124169047Y-91850000D01*
X124216666Y-91897619D01*
X124264285Y-91992857D01*
X124264285Y-92135714D01*
X124216666Y-92230952D01*
X124169047Y-92278571D01*
X124073809Y-92326190D01*
X123692857Y-92326190D01*
X125121428Y-92135714D02*
X125121428Y-92802380D01*
X124883333Y-91754761D02*
X124645238Y-92469047D01*
X125264285Y-92469047D01*
X121735714Y-94602380D02*
X121164285Y-94602380D01*
X121450000Y-94602380D02*
X121450000Y-93602380D01*
X121354761Y-93745238D01*
X121259523Y-93840476D01*
X121164285Y-93888095D01*
X126316666Y-93602380D02*
X126935714Y-93602380D01*
X126602380Y-93983333D01*
X126745238Y-93983333D01*
X126840476Y-94030952D01*
X126888095Y-94078571D01*
X126935714Y-94173809D01*
X126935714Y-94411904D01*
X126888095Y-94507142D01*
X126840476Y-94554761D01*
X126745238Y-94602380D01*
X126459523Y-94602380D01*
X126364285Y-94554761D01*
X126316666Y-94507142D01*
D10*
X129673809Y-126152380D02*
X129673809Y-125152380D01*
X130721428Y-126057142D02*
X130673809Y-126104761D01*
X130530952Y-126152380D01*
X130435714Y-126152380D01*
X130292857Y-126104761D01*
X130197619Y-126009523D01*
X130150000Y-125914285D01*
X130102380Y-125723809D01*
X130102380Y-125580952D01*
X130150000Y-125390476D01*
X130197619Y-125295238D01*
X130292857Y-125200000D01*
X130435714Y-125152380D01*
X130530952Y-125152380D01*
X130673809Y-125200000D01*
X130721428Y-125247619D01*
X131054761Y-125152380D02*
X131673809Y-125152380D01*
X131340476Y-125533333D01*
X131483333Y-125533333D01*
X131578571Y-125580952D01*
X131626190Y-125628571D01*
X131673809Y-125723809D01*
X131673809Y-125961904D01*
X131626190Y-126057142D01*
X131578571Y-126104761D01*
X131483333Y-126152380D01*
X131197619Y-126152380D01*
X131102380Y-126104761D01*
X131054761Y-126057142D01*
D12*
X145704761Y-129547619D02*
X145609523Y-129500000D01*
X145514285Y-129404761D01*
X145371428Y-129261904D01*
X145276190Y-129214285D01*
X145180952Y-129214285D01*
X145228571Y-129452380D02*
X145133333Y-129404761D01*
X145038095Y-129309523D01*
X144990476Y-129119047D01*
X144990476Y-128785714D01*
X145038095Y-128595238D01*
X145133333Y-128500000D01*
X145228571Y-128452380D01*
X145419047Y-128452380D01*
X145514285Y-128500000D01*
X145609523Y-128595238D01*
X145657142Y-128785714D01*
X145657142Y-129119047D01*
X145609523Y-129309523D01*
X145514285Y-129404761D01*
X145419047Y-129452380D01*
X145228571Y-129452380D01*
X146561904Y-128452380D02*
X146085714Y-128452380D01*
X146038095Y-128928571D01*
X146085714Y-128880952D01*
X146180952Y-128833333D01*
X146419047Y-128833333D01*
X146514285Y-128880952D01*
X146561904Y-128928571D01*
X146609523Y-129023809D01*
X146609523Y-129261904D01*
X146561904Y-129357142D01*
X146514285Y-129404761D01*
X146419047Y-129452380D01*
X146180952Y-129452380D01*
X146085714Y-129404761D01*
X146038095Y-129357142D01*
D10*
X129523809Y-98452380D02*
X129523809Y-97452380D01*
X130571428Y-98357142D02*
X130523809Y-98404761D01*
X130380952Y-98452380D01*
X130285714Y-98452380D01*
X130142857Y-98404761D01*
X130047619Y-98309523D01*
X130000000Y-98214285D01*
X129952380Y-98023809D01*
X129952380Y-97880952D01*
X130000000Y-97690476D01*
X130047619Y-97595238D01*
X130142857Y-97500000D01*
X130285714Y-97452380D01*
X130380952Y-97452380D01*
X130523809Y-97500000D01*
X130571428Y-97547619D01*
X131428571Y-97785714D02*
X131428571Y-98452380D01*
X131190476Y-97404761D02*
X130952380Y-98119047D01*
X131571428Y-98119047D01*
D12*
X134557142Y-121052380D02*
X134223809Y-120576190D01*
X133985714Y-121052380D02*
X133985714Y-120052380D01*
X134366666Y-120052380D01*
X134461904Y-120100000D01*
X134509523Y-120147619D01*
X134557142Y-120242857D01*
X134557142Y-120385714D01*
X134509523Y-120480952D01*
X134461904Y-120528571D01*
X134366666Y-120576190D01*
X133985714Y-120576190D01*
X135509523Y-121052380D02*
X134938095Y-121052380D01*
X135223809Y-121052380D02*
X135223809Y-120052380D01*
X135128571Y-120195238D01*
X135033333Y-120290476D01*
X134938095Y-120338095D01*
X136414285Y-120052380D02*
X135938095Y-120052380D01*
X135890476Y-120528571D01*
X135938095Y-120480952D01*
X136033333Y-120433333D01*
X136271428Y-120433333D01*
X136366666Y-120480952D01*
X136414285Y-120528571D01*
X136461904Y-120623809D01*
X136461904Y-120861904D01*
X136414285Y-120957142D01*
X136366666Y-121004761D01*
X136271428Y-121052380D01*
X136033333Y-121052380D01*
X135938095Y-121004761D01*
X135890476Y-120957142D01*
X130552380Y-118266666D02*
X130076190Y-118600000D01*
X130552380Y-118838095D02*
X129552380Y-118838095D01*
X129552380Y-118457142D01*
X129600000Y-118361904D01*
X129647619Y-118314285D01*
X129742857Y-118266666D01*
X129885714Y-118266666D01*
X129980952Y-118314285D01*
X130028571Y-118361904D01*
X130076190Y-118457142D01*
X130076190Y-118838095D01*
X130552380Y-117790476D02*
X130552380Y-117600000D01*
X130504761Y-117504761D01*
X130457142Y-117457142D01*
X130314285Y-117361904D01*
X130123809Y-117314285D01*
X129742857Y-117314285D01*
X129647619Y-117361904D01*
X129600000Y-117409523D01*
X129552380Y-117504761D01*
X129552380Y-117695238D01*
X129600000Y-117790476D01*
X129647619Y-117838095D01*
X129742857Y-117885714D01*
X129980952Y-117885714D01*
X130076190Y-117838095D01*
X130123809Y-117790476D01*
X130171428Y-117695238D01*
X130171428Y-117504761D01*
X130123809Y-117409523D01*
X130076190Y-117361904D01*
X129980952Y-117314285D01*
X141657142Y-111252380D02*
X141323809Y-110776190D01*
X141085714Y-111252380D02*
X141085714Y-110252380D01*
X141466666Y-110252380D01*
X141561904Y-110300000D01*
X141609523Y-110347619D01*
X141657142Y-110442857D01*
X141657142Y-110585714D01*
X141609523Y-110680952D01*
X141561904Y-110728571D01*
X141466666Y-110776190D01*
X141085714Y-110776190D01*
X142514285Y-110585714D02*
X142514285Y-111252380D01*
X142276190Y-110204761D02*
X142038095Y-110919047D01*
X142657142Y-110919047D01*
X143514285Y-110252380D02*
X143038095Y-110252380D01*
X142990476Y-110728571D01*
X143038095Y-110680952D01*
X143133333Y-110633333D01*
X143371428Y-110633333D01*
X143466666Y-110680952D01*
X143514285Y-110728571D01*
X143561904Y-110823809D01*
X143561904Y-111061904D01*
X143514285Y-111157142D01*
X143466666Y-111204761D01*
X143371428Y-111252380D01*
X143133333Y-111252380D01*
X143038095Y-111204761D01*
X142990476Y-111157142D01*
X125733333Y-109357142D02*
X125685714Y-109404761D01*
X125542857Y-109452380D01*
X125447619Y-109452380D01*
X125304761Y-109404761D01*
X125209523Y-109309523D01*
X125161904Y-109214285D01*
X125114285Y-109023809D01*
X125114285Y-108880952D01*
X125161904Y-108690476D01*
X125209523Y-108595238D01*
X125304761Y-108500000D01*
X125447619Y-108452380D01*
X125542857Y-108452380D01*
X125685714Y-108500000D01*
X125733333Y-108547619D01*
X126638095Y-108452380D02*
X126161904Y-108452380D01*
X126114285Y-108928571D01*
X126161904Y-108880952D01*
X126257142Y-108833333D01*
X126495238Y-108833333D01*
X126590476Y-108880952D01*
X126638095Y-108928571D01*
X126685714Y-109023809D01*
X126685714Y-109261904D01*
X126638095Y-109357142D01*
X126590476Y-109404761D01*
X126495238Y-109452380D01*
X126257142Y-109452380D01*
X126161904Y-109404761D01*
X126114285Y-109357142D01*
X111833333Y-111957142D02*
X111785714Y-112004761D01*
X111642857Y-112052380D01*
X111547619Y-112052380D01*
X111404761Y-112004761D01*
X111309523Y-111909523D01*
X111261904Y-111814285D01*
X111214285Y-111623809D01*
X111214285Y-111480952D01*
X111261904Y-111290476D01*
X111309523Y-111195238D01*
X111404761Y-111100000D01*
X111547619Y-111052380D01*
X111642857Y-111052380D01*
X111785714Y-111100000D01*
X111833333Y-111147619D01*
X112166666Y-111052380D02*
X112785714Y-111052380D01*
X112452380Y-111433333D01*
X112595238Y-111433333D01*
X112690476Y-111480952D01*
X112738095Y-111528571D01*
X112785714Y-111623809D01*
X112785714Y-111861904D01*
X112738095Y-111957142D01*
X112690476Y-112004761D01*
X112595238Y-112052380D01*
X112309523Y-112052380D01*
X112214285Y-112004761D01*
X112166666Y-111957142D01*
X153228571Y-131747619D02*
X153133333Y-131700000D01*
X153038095Y-131604761D01*
X152895238Y-131461904D01*
X152800000Y-131414285D01*
X152704761Y-131414285D01*
X152752380Y-131652380D02*
X152657142Y-131604761D01*
X152561904Y-131509523D01*
X152514285Y-131319047D01*
X152514285Y-130985714D01*
X152561904Y-130795238D01*
X152657142Y-130700000D01*
X152752380Y-130652380D01*
X152942857Y-130652380D01*
X153038095Y-130700000D01*
X153133333Y-130795238D01*
X153180952Y-130985714D01*
X153180952Y-131319047D01*
X153133333Y-131509523D01*
X153038095Y-131604761D01*
X152942857Y-131652380D01*
X152752380Y-131652380D01*
X154133333Y-131652380D02*
X153561904Y-131652380D01*
X153847619Y-131652380D02*
X153847619Y-130652380D01*
X153752380Y-130795238D01*
X153657142Y-130890476D01*
X153561904Y-130938095D01*
X155085714Y-131652380D02*
X154514285Y-131652380D01*
X154800000Y-131652380D02*
X154800000Y-130652380D01*
X154704761Y-130795238D01*
X154609523Y-130890476D01*
X154514285Y-130938095D01*
X139004761Y-130647619D02*
X138909523Y-130600000D01*
X138814285Y-130504761D01*
X138671428Y-130361904D01*
X138576190Y-130314285D01*
X138480952Y-130314285D01*
X138528571Y-130552380D02*
X138433333Y-130504761D01*
X138338095Y-130409523D01*
X138290476Y-130219047D01*
X138290476Y-129885714D01*
X138338095Y-129695238D01*
X138433333Y-129600000D01*
X138528571Y-129552380D01*
X138719047Y-129552380D01*
X138814285Y-129600000D01*
X138909523Y-129695238D01*
X138957142Y-129885714D01*
X138957142Y-130219047D01*
X138909523Y-130409523D01*
X138814285Y-130504761D01*
X138719047Y-130552380D01*
X138528571Y-130552380D01*
X139814285Y-129885714D02*
X139814285Y-130552380D01*
X139576190Y-129504761D02*
X139338095Y-130219047D01*
X139957142Y-130219047D01*
X153907142Y-95172380D02*
X153573809Y-94696190D01*
X153335714Y-95172380D02*
X153335714Y-94172380D01*
X153716666Y-94172380D01*
X153811904Y-94220000D01*
X153859523Y-94267619D01*
X153907142Y-94362857D01*
X153907142Y-94505714D01*
X153859523Y-94600952D01*
X153811904Y-94648571D01*
X153716666Y-94696190D01*
X153335714Y-94696190D01*
X154764285Y-94505714D02*
X154764285Y-95172380D01*
X154526190Y-94124761D02*
X154288095Y-94839047D01*
X154907142Y-94839047D01*
X155478571Y-94172380D02*
X155573809Y-94172380D01*
X155669047Y-94220000D01*
X155716666Y-94267619D01*
X155764285Y-94362857D01*
X155811904Y-94553333D01*
X155811904Y-94791428D01*
X155764285Y-94981904D01*
X155716666Y-95077142D01*
X155669047Y-95124761D01*
X155573809Y-95172380D01*
X155478571Y-95172380D01*
X155383333Y-95124761D01*
X155335714Y-95077142D01*
X155288095Y-94981904D01*
X155240476Y-94791428D01*
X155240476Y-94553333D01*
X155288095Y-94362857D01*
X155335714Y-94267619D01*
X155383333Y-94220000D01*
X155478571Y-94172380D01*
X136657142Y-111252380D02*
X136323809Y-110776190D01*
X136085714Y-111252380D02*
X136085714Y-110252380D01*
X136466666Y-110252380D01*
X136561904Y-110300000D01*
X136609523Y-110347619D01*
X136657142Y-110442857D01*
X136657142Y-110585714D01*
X136609523Y-110680952D01*
X136561904Y-110728571D01*
X136466666Y-110776190D01*
X136085714Y-110776190D01*
X136990476Y-110252380D02*
X137609523Y-110252380D01*
X137276190Y-110633333D01*
X137419047Y-110633333D01*
X137514285Y-110680952D01*
X137561904Y-110728571D01*
X137609523Y-110823809D01*
X137609523Y-111061904D01*
X137561904Y-111157142D01*
X137514285Y-111204761D01*
X137419047Y-111252380D01*
X137133333Y-111252380D01*
X137038095Y-111204761D01*
X136990476Y-111157142D01*
X138228571Y-110252380D02*
X138323809Y-110252380D01*
X138419047Y-110300000D01*
X138466666Y-110347619D01*
X138514285Y-110442857D01*
X138561904Y-110633333D01*
X138561904Y-110871428D01*
X138514285Y-111061904D01*
X138466666Y-111157142D01*
X138419047Y-111204761D01*
X138323809Y-111252380D01*
X138228571Y-111252380D01*
X138133333Y-111204761D01*
X138085714Y-111157142D01*
X138038095Y-111061904D01*
X137990476Y-110871428D01*
X137990476Y-110633333D01*
X138038095Y-110442857D01*
X138085714Y-110347619D01*
X138133333Y-110300000D01*
X138228571Y-110252380D01*
X113633333Y-117357142D02*
X113585714Y-117404761D01*
X113442857Y-117452380D01*
X113347619Y-117452380D01*
X113204761Y-117404761D01*
X113109523Y-117309523D01*
X113061904Y-117214285D01*
X113014285Y-117023809D01*
X113014285Y-116880952D01*
X113061904Y-116690476D01*
X113109523Y-116595238D01*
X113204761Y-116500000D01*
X113347619Y-116452380D01*
X113442857Y-116452380D01*
X113585714Y-116500000D01*
X113633333Y-116547619D01*
X114014285Y-116547619D02*
X114061904Y-116500000D01*
X114157142Y-116452380D01*
X114395238Y-116452380D01*
X114490476Y-116500000D01*
X114538095Y-116547619D01*
X114585714Y-116642857D01*
X114585714Y-116738095D01*
X114538095Y-116880952D01*
X113966666Y-117452380D01*
X114585714Y-117452380D01*
X113866666Y-91252380D02*
X113866666Y-91966666D01*
X113819047Y-92109523D01*
X113723809Y-92204761D01*
X113580952Y-92252380D01*
X113485714Y-92252380D01*
X114866666Y-92252380D02*
X114295238Y-92252380D01*
X114580952Y-92252380D02*
X114580952Y-91252380D01*
X114485714Y-91395238D01*
X114390476Y-91490476D01*
X114295238Y-91538095D01*
X128357142Y-103052380D02*
X128023809Y-102576190D01*
X127785714Y-103052380D02*
X127785714Y-102052380D01*
X128166666Y-102052380D01*
X128261904Y-102100000D01*
X128309523Y-102147619D01*
X128357142Y-102242857D01*
X128357142Y-102385714D01*
X128309523Y-102480952D01*
X128261904Y-102528571D01*
X128166666Y-102576190D01*
X127785714Y-102576190D01*
X129309523Y-103052380D02*
X128738095Y-103052380D01*
X129023809Y-103052380D02*
X129023809Y-102052380D01*
X128928571Y-102195238D01*
X128833333Y-102290476D01*
X128738095Y-102338095D01*
X129880952Y-102480952D02*
X129785714Y-102433333D01*
X129738095Y-102385714D01*
X129690476Y-102290476D01*
X129690476Y-102242857D01*
X129738095Y-102147619D01*
X129785714Y-102100000D01*
X129880952Y-102052380D01*
X130071428Y-102052380D01*
X130166666Y-102100000D01*
X130214285Y-102147619D01*
X130261904Y-102242857D01*
X130261904Y-102290476D01*
X130214285Y-102385714D01*
X130166666Y-102433333D01*
X130071428Y-102480952D01*
X129880952Y-102480952D01*
X129785714Y-102528571D01*
X129738095Y-102576190D01*
X129690476Y-102671428D01*
X129690476Y-102861904D01*
X129738095Y-102957142D01*
X129785714Y-103004761D01*
X129880952Y-103052380D01*
X130071428Y-103052380D01*
X130166666Y-103004761D01*
X130214285Y-102957142D01*
X130261904Y-102861904D01*
X130261904Y-102671428D01*
X130214285Y-102576190D01*
X130166666Y-102528571D01*
X130071428Y-102480952D01*
X144557142Y-126472380D02*
X144223809Y-125996190D01*
X143985714Y-126472380D02*
X143985714Y-125472380D01*
X144366666Y-125472380D01*
X144461904Y-125520000D01*
X144509523Y-125567619D01*
X144557142Y-125662857D01*
X144557142Y-125805714D01*
X144509523Y-125900952D01*
X144461904Y-125948571D01*
X144366666Y-125996190D01*
X143985714Y-125996190D01*
X144890476Y-125472380D02*
X145509523Y-125472380D01*
X145176190Y-125853333D01*
X145319047Y-125853333D01*
X145414285Y-125900952D01*
X145461904Y-125948571D01*
X145509523Y-126043809D01*
X145509523Y-126281904D01*
X145461904Y-126377142D01*
X145414285Y-126424761D01*
X145319047Y-126472380D01*
X145033333Y-126472380D01*
X144938095Y-126424761D01*
X144890476Y-126377142D01*
X145842857Y-125472380D02*
X146509523Y-125472380D01*
X146080952Y-126472380D01*
X128652380Y-93142857D02*
X128176190Y-93476190D01*
X128652380Y-93714285D02*
X127652380Y-93714285D01*
X127652380Y-93333333D01*
X127700000Y-93238095D01*
X127747619Y-93190476D01*
X127842857Y-93142857D01*
X127985714Y-93142857D01*
X128080952Y-93190476D01*
X128128571Y-93238095D01*
X128176190Y-93333333D01*
X128176190Y-93714285D01*
X127747619Y-92761904D02*
X127700000Y-92714285D01*
X127652380Y-92619047D01*
X127652380Y-92380952D01*
X127700000Y-92285714D01*
X127747619Y-92238095D01*
X127842857Y-92190476D01*
X127938095Y-92190476D01*
X128080952Y-92238095D01*
X128652380Y-92809523D01*
X128652380Y-92190476D01*
X128652380Y-91238095D02*
X128652380Y-91809523D01*
X128652380Y-91523809D02*
X127652380Y-91523809D01*
X127795238Y-91619047D01*
X127890476Y-91714285D01*
X127938095Y-91809523D01*
X141557142Y-104652380D02*
X141223809Y-104176190D01*
X140985714Y-104652380D02*
X140985714Y-103652380D01*
X141366666Y-103652380D01*
X141461904Y-103700000D01*
X141509523Y-103747619D01*
X141557142Y-103842857D01*
X141557142Y-103985714D01*
X141509523Y-104080952D01*
X141461904Y-104128571D01*
X141366666Y-104176190D01*
X140985714Y-104176190D01*
X142414285Y-103985714D02*
X142414285Y-104652380D01*
X142176190Y-103604761D02*
X141938095Y-104319047D01*
X142557142Y-104319047D01*
X142842857Y-103652380D02*
X143461904Y-103652380D01*
X143128571Y-104033333D01*
X143271428Y-104033333D01*
X143366666Y-104080952D01*
X143414285Y-104128571D01*
X143461904Y-104223809D01*
X143461904Y-104461904D01*
X143414285Y-104557142D01*
X143366666Y-104604761D01*
X143271428Y-104652380D01*
X142985714Y-104652380D01*
X142890476Y-104604761D01*
X142842857Y-104557142D01*
X134107142Y-127412380D02*
X133773809Y-126936190D01*
X133535714Y-127412380D02*
X133535714Y-126412380D01*
X133916666Y-126412380D01*
X134011904Y-126460000D01*
X134059523Y-126507619D01*
X134107142Y-126602857D01*
X134107142Y-126745714D01*
X134059523Y-126840952D01*
X134011904Y-126888571D01*
X133916666Y-126936190D01*
X133535714Y-126936190D01*
X134488095Y-126507619D02*
X134535714Y-126460000D01*
X134630952Y-126412380D01*
X134869047Y-126412380D01*
X134964285Y-126460000D01*
X135011904Y-126507619D01*
X135059523Y-126602857D01*
X135059523Y-126698095D01*
X135011904Y-126840952D01*
X134440476Y-127412380D01*
X135059523Y-127412380D01*
X135392857Y-126412380D02*
X136011904Y-126412380D01*
X135678571Y-126793333D01*
X135821428Y-126793333D01*
X135916666Y-126840952D01*
X135964285Y-126888571D01*
X136011904Y-126983809D01*
X136011904Y-127221904D01*
X135964285Y-127317142D01*
X135916666Y-127364761D01*
X135821428Y-127412380D01*
X135535714Y-127412380D01*
X135440476Y-127364761D01*
X135392857Y-127317142D01*
X129907142Y-88602380D02*
X129573809Y-88126190D01*
X129335714Y-88602380D02*
X129335714Y-87602380D01*
X129716666Y-87602380D01*
X129811904Y-87650000D01*
X129859523Y-87697619D01*
X129907142Y-87792857D01*
X129907142Y-87935714D01*
X129859523Y-88030952D01*
X129811904Y-88078571D01*
X129716666Y-88126190D01*
X129335714Y-88126190D01*
X130859523Y-88602380D02*
X130288095Y-88602380D01*
X130573809Y-88602380D02*
X130573809Y-87602380D01*
X130478571Y-87745238D01*
X130383333Y-87840476D01*
X130288095Y-87888095D01*
X131192857Y-87602380D02*
X131859523Y-87602380D01*
X131430952Y-88602380D01*
X131833333Y-133252380D02*
X131500000Y-132776190D01*
X131261904Y-133252380D02*
X131261904Y-132252380D01*
X131642857Y-132252380D01*
X131738095Y-132300000D01*
X131785714Y-132347619D01*
X131833333Y-132442857D01*
X131833333Y-132585714D01*
X131785714Y-132680952D01*
X131738095Y-132728571D01*
X131642857Y-132776190D01*
X131261904Y-132776190D01*
X132214285Y-132347619D02*
X132261904Y-132300000D01*
X132357142Y-132252380D01*
X132595238Y-132252380D01*
X132690476Y-132300000D01*
X132738095Y-132347619D01*
X132785714Y-132442857D01*
X132785714Y-132538095D01*
X132738095Y-132680952D01*
X132166666Y-133252380D01*
X132785714Y-133252380D01*
X143104761Y-130747619D02*
X143009523Y-130700000D01*
X142914285Y-130604761D01*
X142771428Y-130461904D01*
X142676190Y-130414285D01*
X142580952Y-130414285D01*
X142628571Y-130652380D02*
X142533333Y-130604761D01*
X142438095Y-130509523D01*
X142390476Y-130319047D01*
X142390476Y-129985714D01*
X142438095Y-129795238D01*
X142533333Y-129700000D01*
X142628571Y-129652380D01*
X142819047Y-129652380D01*
X142914285Y-129700000D01*
X143009523Y-129795238D01*
X143057142Y-129985714D01*
X143057142Y-130319047D01*
X143009523Y-130509523D01*
X142914285Y-130604761D01*
X142819047Y-130652380D01*
X142628571Y-130652380D01*
X143533333Y-130652380D02*
X143723809Y-130652380D01*
X143819047Y-130604761D01*
X143866666Y-130557142D01*
X143961904Y-130414285D01*
X144009523Y-130223809D01*
X144009523Y-129842857D01*
X143961904Y-129747619D01*
X143914285Y-129700000D01*
X143819047Y-129652380D01*
X143628571Y-129652380D01*
X143533333Y-129700000D01*
X143485714Y-129747619D01*
X143438095Y-129842857D01*
X143438095Y-130080952D01*
X143485714Y-130176190D01*
X143533333Y-130223809D01*
X143628571Y-130271428D01*
X143819047Y-130271428D01*
X143914285Y-130223809D01*
X143961904Y-130176190D01*
X144009523Y-130080952D01*
X153528571Y-126447619D02*
X153433333Y-126400000D01*
X153338095Y-126304761D01*
X153195238Y-126161904D01*
X153100000Y-126114285D01*
X153004761Y-126114285D01*
X153052380Y-126352380D02*
X152957142Y-126304761D01*
X152861904Y-126209523D01*
X152814285Y-126019047D01*
X152814285Y-125685714D01*
X152861904Y-125495238D01*
X152957142Y-125400000D01*
X153052380Y-125352380D01*
X153242857Y-125352380D01*
X153338095Y-125400000D01*
X153433333Y-125495238D01*
X153480952Y-125685714D01*
X153480952Y-126019047D01*
X153433333Y-126209523D01*
X153338095Y-126304761D01*
X153242857Y-126352380D01*
X153052380Y-126352380D01*
X154433333Y-126352380D02*
X153861904Y-126352380D01*
X154147619Y-126352380D02*
X154147619Y-125352380D01*
X154052380Y-125495238D01*
X153957142Y-125590476D01*
X153861904Y-125638095D01*
X155052380Y-125352380D02*
X155147619Y-125352380D01*
X155242857Y-125400000D01*
X155290476Y-125447619D01*
X155338095Y-125542857D01*
X155385714Y-125733333D01*
X155385714Y-125971428D01*
X155338095Y-126161904D01*
X155290476Y-126257142D01*
X155242857Y-126304761D01*
X155147619Y-126352380D01*
X155052380Y-126352380D01*
X154957142Y-126304761D01*
X154909523Y-126257142D01*
X154861904Y-126161904D01*
X154814285Y-125971428D01*
X154814285Y-125733333D01*
X154861904Y-125542857D01*
X154909523Y-125447619D01*
X154957142Y-125400000D01*
X155052380Y-125352380D01*
X148744761Y-89647619D02*
X148649523Y-89600000D01*
X148554285Y-89504761D01*
X148411428Y-89361904D01*
X148316190Y-89314285D01*
X148220952Y-89314285D01*
X148268571Y-89552380D02*
X148173333Y-89504761D01*
X148078095Y-89409523D01*
X148030476Y-89219047D01*
X148030476Y-88885714D01*
X148078095Y-88695238D01*
X148173333Y-88600000D01*
X148268571Y-88552380D01*
X148459047Y-88552380D01*
X148554285Y-88600000D01*
X148649523Y-88695238D01*
X148697142Y-88885714D01*
X148697142Y-89219047D01*
X148649523Y-89409523D01*
X148554285Y-89504761D01*
X148459047Y-89552380D01*
X148268571Y-89552380D01*
X149649523Y-89552380D02*
X149078095Y-89552380D01*
X149363809Y-89552380D02*
X149363809Y-88552380D01*
X149268571Y-88695238D01*
X149173333Y-88790476D01*
X149078095Y-88838095D01*
X125377142Y-89882380D02*
X125043809Y-89406190D01*
X124805714Y-89882380D02*
X124805714Y-88882380D01*
X125186666Y-88882380D01*
X125281904Y-88930000D01*
X125329523Y-88977619D01*
X125377142Y-89072857D01*
X125377142Y-89215714D01*
X125329523Y-89310952D01*
X125281904Y-89358571D01*
X125186666Y-89406190D01*
X124805714Y-89406190D01*
X126329523Y-89882380D02*
X125758095Y-89882380D01*
X126043809Y-89882380D02*
X126043809Y-88882380D01*
X125948571Y-89025238D01*
X125853333Y-89120476D01*
X125758095Y-89168095D01*
X127186666Y-88882380D02*
X126996190Y-88882380D01*
X126900952Y-88930000D01*
X126853333Y-88977619D01*
X126758095Y-89120476D01*
X126710476Y-89310952D01*
X126710476Y-89691904D01*
X126758095Y-89787142D01*
X126805714Y-89834761D01*
X126900952Y-89882380D01*
X127091428Y-89882380D01*
X127186666Y-89834761D01*
X127234285Y-89787142D01*
X127281904Y-89691904D01*
X127281904Y-89453809D01*
X127234285Y-89358571D01*
X127186666Y-89310952D01*
X127091428Y-89263333D01*
X126900952Y-89263333D01*
X126805714Y-89310952D01*
X126758095Y-89358571D01*
X126710476Y-89453809D01*
X141657142Y-117952380D02*
X141323809Y-117476190D01*
X141085714Y-117952380D02*
X141085714Y-116952380D01*
X141466666Y-116952380D01*
X141561904Y-117000000D01*
X141609523Y-117047619D01*
X141657142Y-117142857D01*
X141657142Y-117285714D01*
X141609523Y-117380952D01*
X141561904Y-117428571D01*
X141466666Y-117476190D01*
X141085714Y-117476190D01*
X142514285Y-117285714D02*
X142514285Y-117952380D01*
X142276190Y-116904761D02*
X142038095Y-117619047D01*
X142657142Y-117619047D01*
X142942857Y-116952380D02*
X143609523Y-116952380D01*
X143180952Y-117952380D01*
D13*
X114974523Y-107039761D02*
X113704523Y-107039761D01*
X114853571Y-105709285D02*
X114914047Y-105769761D01*
X114974523Y-105951190D01*
X114974523Y-106072142D01*
X114914047Y-106253571D01*
X114793095Y-106374523D01*
X114672142Y-106435000D01*
X114430238Y-106495476D01*
X114248809Y-106495476D01*
X114006904Y-106435000D01*
X113885952Y-106374523D01*
X113765000Y-106253571D01*
X113704523Y-106072142D01*
X113704523Y-105951190D01*
X113765000Y-105769761D01*
X113825476Y-105709285D01*
X113825476Y-105225476D02*
X113765000Y-105165000D01*
X113704523Y-105044047D01*
X113704523Y-104741666D01*
X113765000Y-104620714D01*
X113825476Y-104560238D01*
X113946428Y-104499761D01*
X114067380Y-104499761D01*
X114248809Y-104560238D01*
X114974523Y-105285952D01*
X114974523Y-104499761D01*
D12*
X134333333Y-135552380D02*
X134000000Y-135076190D01*
X133761904Y-135552380D02*
X133761904Y-134552380D01*
X134142857Y-134552380D01*
X134238095Y-134600000D01*
X134285714Y-134647619D01*
X134333333Y-134742857D01*
X134333333Y-134885714D01*
X134285714Y-134980952D01*
X134238095Y-135028571D01*
X134142857Y-135076190D01*
X133761904Y-135076190D01*
X134666666Y-134552380D02*
X135285714Y-134552380D01*
X134952380Y-134933333D01*
X135095238Y-134933333D01*
X135190476Y-134980952D01*
X135238095Y-135028571D01*
X135285714Y-135123809D01*
X135285714Y-135361904D01*
X135238095Y-135457142D01*
X135190476Y-135504761D01*
X135095238Y-135552380D01*
X134809523Y-135552380D01*
X134714285Y-135504761D01*
X134666666Y-135457142D01*
X135252380Y-90142857D02*
X134776190Y-90476190D01*
X135252380Y-90714285D02*
X134252380Y-90714285D01*
X134252380Y-90333333D01*
X134300000Y-90238095D01*
X134347619Y-90190476D01*
X134442857Y-90142857D01*
X134585714Y-90142857D01*
X134680952Y-90190476D01*
X134728571Y-90238095D01*
X134776190Y-90333333D01*
X134776190Y-90714285D01*
X134347619Y-89761904D02*
X134300000Y-89714285D01*
X134252380Y-89619047D01*
X134252380Y-89380952D01*
X134300000Y-89285714D01*
X134347619Y-89238095D01*
X134442857Y-89190476D01*
X134538095Y-89190476D01*
X134680952Y-89238095D01*
X135252380Y-89809523D01*
X135252380Y-89190476D01*
X134680952Y-88619047D02*
X134633333Y-88714285D01*
X134585714Y-88761904D01*
X134490476Y-88809523D01*
X134442857Y-88809523D01*
X134347619Y-88761904D01*
X134300000Y-88714285D01*
X134252380Y-88619047D01*
X134252380Y-88428571D01*
X134300000Y-88333333D01*
X134347619Y-88285714D01*
X134442857Y-88238095D01*
X134490476Y-88238095D01*
X134585714Y-88285714D01*
X134633333Y-88333333D01*
X134680952Y-88428571D01*
X134680952Y-88619047D01*
X134728571Y-88714285D01*
X134776190Y-88761904D01*
X134871428Y-88809523D01*
X135061904Y-88809523D01*
X135157142Y-88761904D01*
X135204761Y-88714285D01*
X135252380Y-88619047D01*
X135252380Y-88428571D01*
X135204761Y-88333333D01*
X135157142Y-88285714D01*
X135061904Y-88238095D01*
X134871428Y-88238095D01*
X134776190Y-88285714D01*
X134728571Y-88333333D01*
X134680952Y-88428571D01*
X148957142Y-124622380D02*
X148623809Y-124146190D01*
X148385714Y-124622380D02*
X148385714Y-123622380D01*
X148766666Y-123622380D01*
X148861904Y-123670000D01*
X148909523Y-123717619D01*
X148957142Y-123812857D01*
X148957142Y-123955714D01*
X148909523Y-124050952D01*
X148861904Y-124098571D01*
X148766666Y-124146190D01*
X148385714Y-124146190D01*
X149814285Y-123955714D02*
X149814285Y-124622380D01*
X149576190Y-123574761D02*
X149338095Y-124289047D01*
X149957142Y-124289047D01*
X150290476Y-123717619D02*
X150338095Y-123670000D01*
X150433333Y-123622380D01*
X150671428Y-123622380D01*
X150766666Y-123670000D01*
X150814285Y-123717619D01*
X150861904Y-123812857D01*
X150861904Y-123908095D01*
X150814285Y-124050952D01*
X150242857Y-124622380D01*
X150861904Y-124622380D01*
X125833333Y-96657142D02*
X125785714Y-96704761D01*
X125642857Y-96752380D01*
X125547619Y-96752380D01*
X125404761Y-96704761D01*
X125309523Y-96609523D01*
X125261904Y-96514285D01*
X125214285Y-96323809D01*
X125214285Y-96180952D01*
X125261904Y-95990476D01*
X125309523Y-95895238D01*
X125404761Y-95800000D01*
X125547619Y-95752380D01*
X125642857Y-95752380D01*
X125785714Y-95800000D01*
X125833333Y-95847619D01*
X126690476Y-95752380D02*
X126500000Y-95752380D01*
X126404761Y-95800000D01*
X126357142Y-95847619D01*
X126261904Y-95990476D01*
X126214285Y-96180952D01*
X126214285Y-96561904D01*
X126261904Y-96657142D01*
X126309523Y-96704761D01*
X126404761Y-96752380D01*
X126595238Y-96752380D01*
X126690476Y-96704761D01*
X126738095Y-96657142D01*
X126785714Y-96561904D01*
X126785714Y-96323809D01*
X126738095Y-96228571D01*
X126690476Y-96180952D01*
X126595238Y-96133333D01*
X126404761Y-96133333D01*
X126309523Y-96180952D01*
X126261904Y-96228571D01*
X126214285Y-96323809D01*
X136657142Y-112852380D02*
X136323809Y-112376190D01*
X136085714Y-112852380D02*
X136085714Y-111852380D01*
X136466666Y-111852380D01*
X136561904Y-111900000D01*
X136609523Y-111947619D01*
X136657142Y-112042857D01*
X136657142Y-112185714D01*
X136609523Y-112280952D01*
X136561904Y-112328571D01*
X136466666Y-112376190D01*
X136085714Y-112376190D01*
X136990476Y-111852380D02*
X137609523Y-111852380D01*
X137276190Y-112233333D01*
X137419047Y-112233333D01*
X137514285Y-112280952D01*
X137561904Y-112328571D01*
X137609523Y-112423809D01*
X137609523Y-112661904D01*
X137561904Y-112757142D01*
X137514285Y-112804761D01*
X137419047Y-112852380D01*
X137133333Y-112852380D01*
X137038095Y-112804761D01*
X136990476Y-112757142D01*
X138561904Y-112852380D02*
X137990476Y-112852380D01*
X138276190Y-112852380D02*
X138276190Y-111852380D01*
X138180952Y-111995238D01*
X138085714Y-112090476D01*
X137990476Y-112138095D01*
X138147142Y-127462380D02*
X137813809Y-126986190D01*
X137575714Y-127462380D02*
X137575714Y-126462380D01*
X137956666Y-126462380D01*
X138051904Y-126510000D01*
X138099523Y-126557619D01*
X138147142Y-126652857D01*
X138147142Y-126795714D01*
X138099523Y-126890952D01*
X138051904Y-126938571D01*
X137956666Y-126986190D01*
X137575714Y-126986190D01*
X138528095Y-126557619D02*
X138575714Y-126510000D01*
X138670952Y-126462380D01*
X138909047Y-126462380D01*
X139004285Y-126510000D01*
X139051904Y-126557619D01*
X139099523Y-126652857D01*
X139099523Y-126748095D01*
X139051904Y-126890952D01*
X138480476Y-127462380D01*
X139099523Y-127462380D01*
X139956666Y-126795714D02*
X139956666Y-127462380D01*
X139718571Y-126414761D02*
X139480476Y-127129047D01*
X140099523Y-127129047D01*
X150652380Y-112433333D02*
X151366666Y-112433333D01*
X151509523Y-112480952D01*
X151604761Y-112576190D01*
X151652380Y-112719047D01*
X151652380Y-112814285D01*
X150747619Y-112004761D02*
X150700000Y-111957142D01*
X150652380Y-111861904D01*
X150652380Y-111623809D01*
X150700000Y-111528571D01*
X150747619Y-111480952D01*
X150842857Y-111433333D01*
X150938095Y-111433333D01*
X151080952Y-111480952D01*
X151652380Y-112052380D01*
X151652380Y-111433333D01*
D10*
X129323809Y-110752380D02*
X129323809Y-109752380D01*
X130371428Y-110657142D02*
X130323809Y-110704761D01*
X130180952Y-110752380D01*
X130085714Y-110752380D01*
X129942857Y-110704761D01*
X129847619Y-110609523D01*
X129800000Y-110514285D01*
X129752380Y-110323809D01*
X129752380Y-110180952D01*
X129800000Y-109990476D01*
X129847619Y-109895238D01*
X129942857Y-109800000D01*
X130085714Y-109752380D01*
X130180952Y-109752380D01*
X130323809Y-109800000D01*
X130371428Y-109847619D01*
X131276190Y-109752380D02*
X130800000Y-109752380D01*
X130752380Y-110228571D01*
X130800000Y-110180952D01*
X130895238Y-110133333D01*
X131133333Y-110133333D01*
X131228571Y-110180952D01*
X131276190Y-110228571D01*
X131323809Y-110323809D01*
X131323809Y-110561904D01*
X131276190Y-110657142D01*
X131228571Y-110704761D01*
X131133333Y-110752380D01*
X130895238Y-110752380D01*
X130800000Y-110704761D01*
X130752380Y-110657142D01*
D12*
X121057142Y-129352380D02*
X120723809Y-128876190D01*
X120485714Y-129352380D02*
X120485714Y-128352380D01*
X120866666Y-128352380D01*
X120961904Y-128400000D01*
X121009523Y-128447619D01*
X121057142Y-128542857D01*
X121057142Y-128685714D01*
X121009523Y-128780952D01*
X120961904Y-128828571D01*
X120866666Y-128876190D01*
X120485714Y-128876190D01*
X122009523Y-129352380D02*
X121438095Y-129352380D01*
X121723809Y-129352380D02*
X121723809Y-128352380D01*
X121628571Y-128495238D01*
X121533333Y-128590476D01*
X121438095Y-128638095D01*
X122628571Y-128352380D02*
X122723809Y-128352380D01*
X122819047Y-128400000D01*
X122866666Y-128447619D01*
X122914285Y-128542857D01*
X122961904Y-128733333D01*
X122961904Y-128971428D01*
X122914285Y-129161904D01*
X122866666Y-129257142D01*
X122819047Y-129304761D01*
X122723809Y-129352380D01*
X122628571Y-129352380D01*
X122533333Y-129304761D01*
X122485714Y-129257142D01*
X122438095Y-129161904D01*
X122390476Y-128971428D01*
X122390476Y-128733333D01*
X122438095Y-128542857D01*
X122485714Y-128447619D01*
X122533333Y-128400000D01*
X122628571Y-128352380D01*
X149557142Y-131622380D02*
X149223809Y-131146190D01*
X148985714Y-131622380D02*
X148985714Y-130622380D01*
X149366666Y-130622380D01*
X149461904Y-130670000D01*
X149509523Y-130717619D01*
X149557142Y-130812857D01*
X149557142Y-130955714D01*
X149509523Y-131050952D01*
X149461904Y-131098571D01*
X149366666Y-131146190D01*
X148985714Y-131146190D01*
X149890476Y-130622380D02*
X150509523Y-130622380D01*
X150176190Y-131003333D01*
X150319047Y-131003333D01*
X150414285Y-131050952D01*
X150461904Y-131098571D01*
X150509523Y-131193809D01*
X150509523Y-131431904D01*
X150461904Y-131527142D01*
X150414285Y-131574761D01*
X150319047Y-131622380D01*
X150033333Y-131622380D01*
X149938095Y-131574761D01*
X149890476Y-131527142D01*
X150890476Y-130717619D02*
X150938095Y-130670000D01*
X151033333Y-130622380D01*
X151271428Y-130622380D01*
X151366666Y-130670000D01*
X151414285Y-130717619D01*
X151461904Y-130812857D01*
X151461904Y-130908095D01*
X151414285Y-131050952D01*
X150842857Y-131622380D01*
X151461904Y-131622380D01*
X136657142Y-107752380D02*
X136323809Y-107276190D01*
X136085714Y-107752380D02*
X136085714Y-106752380D01*
X136466666Y-106752380D01*
X136561904Y-106800000D01*
X136609523Y-106847619D01*
X136657142Y-106942857D01*
X136657142Y-107085714D01*
X136609523Y-107180952D01*
X136561904Y-107228571D01*
X136466666Y-107276190D01*
X136085714Y-107276190D01*
X137038095Y-106847619D02*
X137085714Y-106800000D01*
X137180952Y-106752380D01*
X137419047Y-106752380D01*
X137514285Y-106800000D01*
X137561904Y-106847619D01*
X137609523Y-106942857D01*
X137609523Y-107038095D01*
X137561904Y-107180952D01*
X136990476Y-107752380D01*
X137609523Y-107752380D01*
X137990476Y-106847619D02*
X138038095Y-106800000D01*
X138133333Y-106752380D01*
X138371428Y-106752380D01*
X138466666Y-106800000D01*
X138514285Y-106847619D01*
X138561904Y-106942857D01*
X138561904Y-107038095D01*
X138514285Y-107180952D01*
X137942857Y-107752380D01*
X138561904Y-107752380D01*
X136719880Y-99442857D02*
X136243690Y-99776190D01*
X136719880Y-100014285D02*
X135719880Y-100014285D01*
X135719880Y-99633333D01*
X135767500Y-99538095D01*
X135815119Y-99490476D01*
X135910357Y-99442857D01*
X136053214Y-99442857D01*
X136148452Y-99490476D01*
X136196071Y-99538095D01*
X136243690Y-99633333D01*
X136243690Y-100014285D01*
X135719880Y-99109523D02*
X135719880Y-98490476D01*
X136100833Y-98823809D01*
X136100833Y-98680952D01*
X136148452Y-98585714D01*
X136196071Y-98538095D01*
X136291309Y-98490476D01*
X136529404Y-98490476D01*
X136624642Y-98538095D01*
X136672261Y-98585714D01*
X136719880Y-98680952D01*
X136719880Y-98966666D01*
X136672261Y-99061904D01*
X136624642Y-99109523D01*
X136053214Y-97633333D02*
X136719880Y-97633333D01*
X135672261Y-97871428D02*
X136386547Y-98109523D01*
X136386547Y-97490476D01*
X154404761Y-89747619D02*
X154309523Y-89700000D01*
X154214285Y-89604761D01*
X154071428Y-89461904D01*
X153976190Y-89414285D01*
X153880952Y-89414285D01*
X153928571Y-89652380D02*
X153833333Y-89604761D01*
X153738095Y-89509523D01*
X153690476Y-89319047D01*
X153690476Y-88985714D01*
X153738095Y-88795238D01*
X153833333Y-88700000D01*
X153928571Y-88652380D01*
X154119047Y-88652380D01*
X154214285Y-88700000D01*
X154309523Y-88795238D01*
X154357142Y-88985714D01*
X154357142Y-89319047D01*
X154309523Y-89509523D01*
X154214285Y-89604761D01*
X154119047Y-89652380D01*
X153928571Y-89652380D01*
X155214285Y-88652380D02*
X155023809Y-88652380D01*
X154928571Y-88700000D01*
X154880952Y-88747619D01*
X154785714Y-88890476D01*
X154738095Y-89080952D01*
X154738095Y-89461904D01*
X154785714Y-89557142D01*
X154833333Y-89604761D01*
X154928571Y-89652380D01*
X155119047Y-89652380D01*
X155214285Y-89604761D01*
X155261904Y-89557142D01*
X155309523Y-89461904D01*
X155309523Y-89223809D01*
X155261904Y-89128571D01*
X155214285Y-89080952D01*
X155119047Y-89033333D01*
X154928571Y-89033333D01*
X154833333Y-89080952D01*
X154785714Y-89128571D01*
X154738095Y-89223809D01*
X116822380Y-123938095D02*
X115822380Y-123938095D01*
X115822380Y-123700000D01*
X115870000Y-123557142D01*
X115965238Y-123461904D01*
X116060476Y-123414285D01*
X116250952Y-123366666D01*
X116393809Y-123366666D01*
X116584285Y-123414285D01*
X116679523Y-123461904D01*
X116774761Y-123557142D01*
X116822380Y-123700000D01*
X116822380Y-123938095D01*
X116822380Y-122414285D02*
X116822380Y-122985714D01*
X116822380Y-122700000D02*
X115822380Y-122700000D01*
X115965238Y-122795238D01*
X116060476Y-122890476D01*
X116108095Y-122985714D01*
D13*
X112607380Y-130514047D02*
X112788809Y-130574523D01*
X113091190Y-130574523D01*
X113212142Y-130514047D01*
X113272619Y-130453571D01*
X113333095Y-130332619D01*
X113333095Y-130211666D01*
X113272619Y-130090714D01*
X113212142Y-130030238D01*
X113091190Y-129969761D01*
X112849285Y-129909285D01*
X112728333Y-129848809D01*
X112667857Y-129788333D01*
X112607380Y-129667380D01*
X112607380Y-129546428D01*
X112667857Y-129425476D01*
X112728333Y-129365000D01*
X112849285Y-129304523D01*
X113151666Y-129304523D01*
X113333095Y-129365000D01*
X114542619Y-130574523D02*
X113816904Y-130574523D01*
X114179761Y-130574523D02*
X114179761Y-129304523D01*
X114058809Y-129485952D01*
X113937857Y-129606904D01*
X113816904Y-129667380D01*
D14*
X154200000Y-97540000D02*
X152525000Y-97540000D01*
X154200000Y-97540000D02*
X154850000Y-97540000D01*
X154200000Y-100660000D02*
X154850000Y-100660000D01*
X154200000Y-100660000D02*
X153550000Y-100660000D01*
X124250000Y-130050000D02*
X127050000Y-130050000D01*
X123600000Y-131350000D02*
X123600000Y-130750000D01*
X127700000Y-130750000D02*
X127700000Y-131350000D01*
X127050000Y-132050000D02*
X124250000Y-132050000D01*
X123600000Y-131350000D02*
G75*
G03*
X124300000Y-132050000I699999J-1D01*
G01*
X124300000Y-130050000D02*
G75*
G03*
X123600000Y-130750000I-1J-699999D01*
G01*
X127700000Y-130750000D02*
G75*
G03*
X127000000Y-130050000I-700000J0D01*
G01*
X127000000Y-132050000D02*
G75*
G03*
X127700000Y-131350000I0J700000D01*
G01*
X132577500Y-92817258D02*
X132577500Y-92342742D01*
X133622500Y-92817258D02*
X133622500Y-92342742D01*
X127190000Y-124159420D02*
X127190000Y-124440580D01*
X128210000Y-124159420D02*
X128210000Y-124440580D01*
X140897500Y-100410000D02*
X141547500Y-100410000D01*
X140897500Y-97290000D02*
X141547500Y-97290000D01*
X140897500Y-100410000D02*
X140247500Y-100410000D01*
X140897500Y-97290000D02*
X139222500Y-97290000D01*
X145472936Y-121510000D02*
X146927064Y-121510000D01*
X145472936Y-119690000D02*
X146927064Y-119690000D01*
X145377500Y-100460000D02*
X146027500Y-100460000D01*
X145377500Y-100460000D02*
X144727500Y-100460000D01*
X145377500Y-97340000D02*
X143702500Y-97340000D01*
X145377500Y-97340000D02*
X146027500Y-97340000D01*
X132817500Y-115292742D02*
X132817500Y-115767258D01*
X133862500Y-115292742D02*
X133862500Y-115767258D01*
X123040000Y-113840000D02*
X125840000Y-113840000D01*
X126490000Y-114540000D02*
X126490000Y-115140000D01*
X125840000Y-115840000D02*
X123040000Y-115840000D01*
X122390000Y-115140000D02*
X122390000Y-114540000D01*
X125790000Y-115840000D02*
G75*
G03*
X126490000Y-115140000I0J700000D01*
G01*
X122390000Y-115140000D02*
G75*
G03*
X123090000Y-115840000I699999J-1D01*
G01*
X123090000Y-113840000D02*
G75*
G03*
X122390000Y-114540000I-1J-699999D01*
G01*
X126490000Y-114540000D02*
G75*
G03*
X125790000Y-113840000I-700000J0D01*
G01*
X131952500Y-92817258D02*
X131952500Y-92342742D01*
X130907500Y-92817258D02*
X130907500Y-92342742D01*
X117277500Y-120437258D02*
X117277500Y-119962742D01*
X118322500Y-120437258D02*
X118322500Y-119962742D01*
X134522742Y-125792500D02*
X134997258Y-125792500D01*
X134522742Y-124747500D02*
X134997258Y-124747500D01*
X145157500Y-91587258D02*
X145157500Y-91112742D01*
X146202500Y-91587258D02*
X146202500Y-91112742D01*
X129137258Y-134622500D02*
X128662742Y-134622500D01*
X129137258Y-133577500D02*
X128662742Y-133577500D01*
X147472500Y-133137258D02*
X147472500Y-132662742D01*
X146427500Y-133137258D02*
X146427500Y-132662742D01*
X149612742Y-96772500D02*
X150087258Y-96772500D01*
X149612742Y-95727500D02*
X150087258Y-95727500D01*
X109159420Y-115910000D02*
X109440580Y-115910000D01*
X109159420Y-114890000D02*
X109440580Y-114890000D01*
X134517500Y-115332742D02*
X134517500Y-115807258D01*
X135562500Y-115332742D02*
X135562500Y-115807258D01*
X127827500Y-115272742D02*
X127827500Y-115747258D01*
X128872500Y-115272742D02*
X128872500Y-115747258D01*
X109362742Y-95922500D02*
X109837258Y-95922500D01*
X109362742Y-94877500D02*
X109837258Y-94877500D01*
X130812742Y-120917500D02*
X131287258Y-120917500D01*
X130812742Y-121962500D02*
X131287258Y-121962500D01*
X136192500Y-132167742D02*
X136192500Y-132642258D01*
X135147500Y-132167742D02*
X135147500Y-132642258D01*
X138262742Y-125952500D02*
X138737258Y-125952500D01*
X138262742Y-124907500D02*
X138737258Y-124907500D01*
X145472936Y-106490000D02*
X146927064Y-106490000D01*
X145472936Y-108310000D02*
X146927064Y-108310000D01*
X129427500Y-130512742D02*
X129427500Y-130987258D01*
X130472500Y-130512742D02*
X130472500Y-130987258D01*
X127077500Y-128137258D02*
X127077500Y-127662742D01*
X128122500Y-128137258D02*
X128122500Y-127662742D01*
X131457500Y-104957258D02*
X131457500Y-104482742D01*
X132502500Y-104957258D02*
X132502500Y-104482742D01*
X145160242Y-96472500D02*
X145634758Y-96472500D01*
X145160242Y-95427500D02*
X145634758Y-95427500D01*
X150000000Y-97540000D02*
X148325000Y-97540000D01*
X150000000Y-97540000D02*
X150650000Y-97540000D01*
X150000000Y-100660000D02*
X149350000Y-100660000D01*
X150000000Y-100660000D02*
X150650000Y-100660000D01*
X145472936Y-113090000D02*
X146927064Y-113090000D01*
X145472936Y-114910000D02*
X146927064Y-114910000D01*
X134032742Y-108517500D02*
X134507258Y-108517500D01*
X134032742Y-109562500D02*
X134507258Y-109562500D01*
D11*
X110275000Y-116700000D02*
X110275000Y-119700000D01*
X110275000Y-119700000D02*
X109525000Y-119700000D01*
X109525000Y-119700000D02*
X109525000Y-116700000D01*
X109525000Y-116700000D02*
X110275000Y-116700000D01*
X108025000Y-116700000D02*
X109175000Y-116700000D01*
D14*
X151777258Y-88792500D02*
X151302742Y-88792500D01*
X151777258Y-87747500D02*
X151302742Y-87747500D01*
X128662742Y-119177500D02*
X129137258Y-119177500D01*
X128662742Y-120222500D02*
X129137258Y-120222500D01*
X132102500Y-115282742D02*
X132102500Y-115757258D01*
X131057500Y-115282742D02*
X131057500Y-115757258D01*
X123440000Y-103950000D02*
X126240000Y-103950000D01*
X126240000Y-105950000D02*
X123440000Y-105950000D01*
X126890000Y-104650000D02*
X126890000Y-105250000D01*
X122790000Y-105250000D02*
X122790000Y-104650000D01*
X126190000Y-105950000D02*
G75*
G03*
X126890000Y-105250000I0J700000D01*
G01*
X126890000Y-104650000D02*
G75*
G03*
X126190000Y-103950000I-700000J0D01*
G01*
X123490000Y-103950000D02*
G75*
G03*
X122790000Y-104650000I-1J-699999D01*
G01*
X122790000Y-105250000D02*
G75*
G03*
X123490000Y-105950000I699999J-1D01*
G01*
X122000000Y-94450000D02*
X122000000Y-93850000D01*
X126100000Y-93850000D02*
X126100000Y-94450000D01*
X125450000Y-95150000D02*
X122650000Y-95150000D01*
X122650000Y-93150000D02*
X125450000Y-93150000D01*
X122700000Y-93150000D02*
G75*
G03*
X122000000Y-93850000I-1J-699999D01*
G01*
X126100000Y-93850000D02*
G75*
G03*
X125400000Y-93150000I-700000J0D01*
G01*
X125400000Y-95150000D02*
G75*
G03*
X126100000Y-94450000I0J700000D01*
G01*
X122000000Y-94450000D02*
G75*
G03*
X122700000Y-95150000I699999J-1D01*
G01*
D11*
X129150000Y-128600000D02*
X129150000Y-127200000D01*
X132150000Y-126850000D02*
X129150000Y-126850000D01*
X132150000Y-124550000D02*
X132150000Y-126850000D01*
X129150000Y-124550000D02*
X132150000Y-124550000D01*
X129150000Y-126850000D02*
X129150000Y-124550000D01*
D14*
X148800000Y-126890000D02*
X147125000Y-126890000D01*
X148800000Y-126890000D02*
X149450000Y-126890000D01*
X148800000Y-130010000D02*
X149450000Y-130010000D01*
X148800000Y-130010000D02*
X148150000Y-130010000D01*
D11*
X128920000Y-100920000D02*
X128920000Y-99520000D01*
X128920000Y-96870000D02*
X131920000Y-96870000D01*
X131920000Y-99170000D02*
X128920000Y-99170000D01*
X128920000Y-99170000D02*
X128920000Y-96870000D01*
X131920000Y-96870000D02*
X131920000Y-99170000D01*
D14*
X134962742Y-121507500D02*
X135437258Y-121507500D01*
X134962742Y-122552500D02*
X135437258Y-122552500D01*
X130492500Y-115262742D02*
X130492500Y-115737258D01*
X129447500Y-115262742D02*
X129447500Y-115737258D01*
X145472936Y-111610000D02*
X146927064Y-111610000D01*
X145472936Y-109790000D02*
X146927064Y-109790000D01*
X127120000Y-108549420D02*
X127120000Y-108830580D01*
X128140000Y-108549420D02*
X128140000Y-108830580D01*
X109740580Y-111910000D02*
X109459420Y-111910000D01*
X109740580Y-110890000D02*
X109459420Y-110890000D01*
X153800000Y-132040000D02*
X154450000Y-132040000D01*
X153800000Y-135160000D02*
X153150000Y-135160000D01*
X153800000Y-135160000D02*
X154450000Y-135160000D01*
X153800000Y-132040000D02*
X152125000Y-132040000D01*
X138770000Y-134065000D02*
X139420000Y-134065000D01*
X138770000Y-130945000D02*
X139420000Y-130945000D01*
X138770000Y-130945000D02*
X137095000Y-130945000D01*
X138770000Y-134065000D02*
X138120000Y-134065000D01*
X154312742Y-96672500D02*
X154787258Y-96672500D01*
X154312742Y-95627500D02*
X154787258Y-95627500D01*
X134022742Y-110127500D02*
X134497258Y-110127500D01*
X134022742Y-111172500D02*
X134497258Y-111172500D01*
X112559420Y-115910000D02*
X112840580Y-115910000D01*
X112559420Y-114890000D02*
X112840580Y-114890000D01*
X110925000Y-90330000D02*
X109595000Y-90330000D01*
X112195000Y-90330000D02*
X112195000Y-87670000D01*
X122415000Y-90330000D02*
X122415000Y-87670000D01*
X112195000Y-90330000D02*
X122415000Y-90330000D01*
X112195000Y-87670000D02*
X122415000Y-87670000D01*
X109595000Y-90330000D02*
X109595000Y-89000000D01*
X130022500Y-105007258D02*
X130022500Y-104532742D01*
X128977500Y-105007258D02*
X128977500Y-104532742D01*
X144962742Y-126927500D02*
X145437258Y-126927500D01*
X144962742Y-127972500D02*
X145437258Y-127972500D01*
X129257500Y-92827258D02*
X129257500Y-92352742D01*
X130302500Y-92827258D02*
X130302500Y-92352742D01*
X145472936Y-103190000D02*
X146927064Y-103190000D01*
X145472936Y-105010000D02*
X146927064Y-105010000D01*
X134512742Y-127867500D02*
X134987258Y-127867500D01*
X134512742Y-128912500D02*
X134987258Y-128912500D01*
X130312742Y-90102500D02*
X130787258Y-90102500D01*
X130312742Y-89057500D02*
X130787258Y-89057500D01*
X131077500Y-130512742D02*
X131077500Y-130987258D01*
X132122500Y-130512742D02*
X132122500Y-130987258D01*
X143370000Y-131045000D02*
X142720000Y-131045000D01*
X143370000Y-134165000D02*
X145045000Y-134165000D01*
X143370000Y-134165000D02*
X142720000Y-134165000D01*
X143370000Y-131045000D02*
X144020000Y-131045000D01*
X153600000Y-126940000D02*
X152950000Y-126940000D01*
X153600000Y-126940000D02*
X154250000Y-126940000D01*
X153600000Y-130060000D02*
X155275000Y-130060000D01*
X153600000Y-130060000D02*
X152950000Y-130060000D01*
X148840000Y-89940000D02*
X149490000Y-89940000D01*
X148840000Y-89940000D02*
X147165000Y-89940000D01*
X148840000Y-93060000D02*
X148190000Y-93060000D01*
X148840000Y-93060000D02*
X149490000Y-93060000D01*
X125782742Y-90337500D02*
X126257258Y-90337500D01*
X125782742Y-91382500D02*
X126257258Y-91382500D01*
X145472936Y-116390000D02*
X146927064Y-116390000D01*
X145472936Y-118210000D02*
X146927064Y-118210000D01*
D11*
X110900000Y-110250000D02*
X110900000Y-108450000D01*
X118000000Y-103500000D02*
X118000000Y-108100000D01*
X110800000Y-108100000D02*
X110800000Y-103500000D01*
X110800000Y-103500000D02*
X118000000Y-103500000D01*
X118000000Y-108100000D02*
X110800000Y-108100000D01*
D14*
X131812742Y-133577500D02*
X132287258Y-133577500D01*
X131812742Y-134622500D02*
X132287258Y-134622500D01*
X134207500Y-92767258D02*
X134207500Y-92292742D01*
X135252500Y-92767258D02*
X135252500Y-92292742D01*
X149362742Y-125077500D02*
X149837258Y-125077500D01*
X149362742Y-126122500D02*
X149837258Y-126122500D01*
X127240000Y-96169420D02*
X127240000Y-96450580D01*
X128260000Y-96169420D02*
X128260000Y-96450580D01*
X134002742Y-111887500D02*
X134477258Y-111887500D01*
X134002742Y-112932500D02*
X134477258Y-112932500D01*
X138552742Y-128962500D02*
X139027258Y-128962500D01*
X138552742Y-127917500D02*
X139027258Y-127917500D01*
X149490000Y-122060000D02*
X155460000Y-122060000D01*
X154700000Y-122050000D02*
X155450000Y-122050000D01*
X155460000Y-122060000D02*
X155460000Y-101940000D01*
X154700000Y-118750000D02*
X155450000Y-118750000D01*
X155450000Y-105250000D02*
X154700000Y-105250000D01*
X155750000Y-102900000D02*
X155750000Y-101650000D01*
X150250000Y-102700000D02*
X150250000Y-112000000D01*
X155750000Y-101650000D02*
X154500000Y-101650000D01*
X153200000Y-102700000D02*
X150250000Y-102700000D01*
X155450000Y-122050000D02*
X155450000Y-120250000D01*
X150250000Y-121300000D02*
X150250000Y-112000000D01*
X155450000Y-118750000D02*
X155450000Y-105250000D01*
X153200000Y-101950000D02*
X153200000Y-102700000D01*
X155450000Y-120250000D02*
X154700000Y-120250000D01*
X153200000Y-122050000D02*
X153200000Y-121300000D01*
X149490000Y-101940000D02*
X149490000Y-122060000D01*
X155460000Y-101940000D02*
X149490000Y-101940000D01*
X155450000Y-103750000D02*
X155450000Y-101950000D01*
X154700000Y-120250000D02*
X154700000Y-122050000D01*
X154700000Y-105250000D02*
X154700000Y-118750000D01*
X155450000Y-101950000D02*
X154700000Y-101950000D01*
X154700000Y-101950000D02*
X154700000Y-103750000D01*
X153200000Y-121300000D02*
X150250000Y-121300000D01*
X154700000Y-103750000D02*
X155450000Y-103750000D01*
D11*
X131860000Y-109170000D02*
X131860000Y-111470000D01*
X128860000Y-113220000D02*
X128860000Y-111820000D01*
X131860000Y-111470000D02*
X128860000Y-111470000D01*
X128860000Y-109170000D02*
X131860000Y-109170000D01*
X128860000Y-111470000D02*
X128860000Y-109170000D01*
D14*
X124512742Y-128227500D02*
X124987258Y-128227500D01*
X124512742Y-129272500D02*
X124987258Y-129272500D01*
X149962742Y-133122500D02*
X150437258Y-133122500D01*
X149962742Y-132077500D02*
X150437258Y-132077500D01*
X134032742Y-106887500D02*
X134507258Y-106887500D01*
X134032742Y-107932500D02*
X134507258Y-107932500D01*
X138220000Y-99037258D02*
X138220000Y-98562742D01*
X137175000Y-99037258D02*
X137175000Y-98562742D01*
X153540000Y-89940000D02*
X151865000Y-89940000D01*
X153540000Y-93060000D02*
X152890000Y-93060000D01*
X153540000Y-93060000D02*
X154190000Y-93060000D01*
X153540000Y-89940000D02*
X154190000Y-89940000D01*
X117065000Y-124685000D02*
X118535000Y-124685000D01*
X118535000Y-124685000D02*
X118535000Y-122400000D01*
X117065000Y-122400000D02*
X117065000Y-124685000D01*
D15*
X111650000Y-129100000D02*
X111650000Y-130900000D01*
X112100000Y-127750000D02*
X115700000Y-127750000D01*
X112100000Y-132250000D02*
X115700000Y-132250000D01*
X109900000Y-128300000D02*
X109900000Y-128300000D01*
X109900000Y-128200000D02*
X109900000Y-128200000D01*
X116150000Y-129100000D02*
X116150000Y-130900000D01*
X109900000Y-128300000D02*
G75*
G03*
X109900000Y-128200000I0J50000D01*
G01*
X109900000Y-128200000D02*
G75*
G03*
X109900000Y-128300000I0J-50000D01*
G01*
%LPC*%
D16*
X153262500Y-98150000D03*
X153262500Y-100050000D03*
X155137500Y-99100000D03*
D17*
X124350000Y-131050000D03*
D18*
X125650000Y-131050000D03*
D19*
X126950000Y-131050000D03*
D20*
X133100000Y-93405000D03*
X133100000Y-91755000D03*
D21*
X127700000Y-123525000D03*
X127700000Y-125075000D03*
D16*
X139960000Y-97900000D03*
X139960000Y-99800000D03*
X141835000Y-98850000D03*
D22*
X144737500Y-120600000D03*
X147662500Y-120600000D03*
D16*
X144440000Y-97950000D03*
X144440000Y-99850000D03*
X146315000Y-98900000D03*
D23*
X133340000Y-114705000D03*
X133340000Y-116355000D03*
D17*
X123140000Y-114840000D03*
D18*
X124440000Y-114840000D03*
D19*
X125740000Y-114840000D03*
D20*
X131430000Y-93405000D03*
X131430000Y-91755000D03*
X117800000Y-121025000D03*
X117800000Y-119375000D03*
D24*
X133935000Y-125270000D03*
X135585000Y-125270000D03*
D20*
X145680000Y-92175000D03*
X145680000Y-90525000D03*
D25*
X129725000Y-134100000D03*
X128075000Y-134100000D03*
D20*
X146950000Y-133725000D03*
X146950000Y-132075000D03*
D24*
X149025000Y-96250000D03*
X150675000Y-96250000D03*
D26*
X108525000Y-115400000D03*
X110075000Y-115400000D03*
D23*
X135040000Y-114745000D03*
X135040000Y-116395000D03*
X128350000Y-114685000D03*
X128350000Y-116335000D03*
D24*
X108775000Y-95400000D03*
X110425000Y-95400000D03*
X130225000Y-121440000D03*
X131875000Y-121440000D03*
D23*
X135670000Y-131580000D03*
X135670000Y-133230000D03*
D24*
X137675000Y-125430000D03*
X139325000Y-125430000D03*
D22*
X144737500Y-107400000D03*
X147662500Y-107400000D03*
D23*
X129950000Y-129925000D03*
X129950000Y-131575000D03*
D20*
X127600000Y-128725000D03*
X127600000Y-127075000D03*
X131980000Y-105545000D03*
X131980000Y-103895000D03*
D24*
X144572500Y-95950000D03*
X146222500Y-95950000D03*
D16*
X149062500Y-98150000D03*
X149062500Y-100050000D03*
X150937500Y-99100000D03*
D22*
X144737500Y-114000000D03*
X147662500Y-114000000D03*
D24*
X133445000Y-109040000D03*
X135095000Y-109040000D03*
D27*
X108600000Y-117250000D03*
X108600000Y-118200000D03*
X108600000Y-119150000D03*
X111200000Y-119150000D03*
X111200000Y-117250000D03*
D25*
X152365000Y-88270000D03*
X150715000Y-88270000D03*
D24*
X128075000Y-119700000D03*
X129725000Y-119700000D03*
D23*
X131580000Y-114695000D03*
X131580000Y-116345000D03*
D17*
X123540000Y-104950000D03*
D18*
X124840000Y-104950000D03*
D19*
X126140000Y-104950000D03*
D17*
X122750000Y-94150000D03*
D18*
X124050000Y-94150000D03*
D19*
X125350000Y-94150000D03*
D28*
X129650000Y-127900000D03*
X130150000Y-127900000D03*
X130650000Y-127900000D03*
X131150000Y-127900000D03*
X131650000Y-127900000D03*
X131650000Y-123500000D03*
X131150000Y-123500000D03*
X130650000Y-123500000D03*
X130150000Y-123500000D03*
X129650000Y-123500000D03*
D16*
X147862500Y-127500000D03*
X147862500Y-129400000D03*
X149737500Y-128450000D03*
D28*
X129420000Y-100220000D03*
X129920000Y-100220000D03*
X130420000Y-100220000D03*
X130920000Y-100220000D03*
X131420000Y-100220000D03*
X131420000Y-95820000D03*
X130920000Y-95820000D03*
X130420000Y-95820000D03*
X129920000Y-95820000D03*
X129420000Y-95820000D03*
D24*
X134375000Y-122030000D03*
X136025000Y-122030000D03*
D23*
X129970000Y-114675000D03*
X129970000Y-116325000D03*
D22*
X144737500Y-110700000D03*
X147662500Y-110700000D03*
D21*
X127630000Y-107915000D03*
X127630000Y-109465000D03*
D29*
X110375000Y-111400000D03*
X108825000Y-111400000D03*
D16*
X152862500Y-132650000D03*
X152862500Y-134550000D03*
X154737500Y-133600000D03*
X137832500Y-131555000D03*
X137832500Y-133455000D03*
X139707500Y-132505000D03*
D24*
X153725000Y-96150000D03*
X155375000Y-96150000D03*
X133435000Y-110650000D03*
X135085000Y-110650000D03*
D26*
X111925000Y-115400000D03*
X113475000Y-115400000D03*
D30*
X110925000Y-89000000D03*
D31*
X113465000Y-89000000D03*
X116005000Y-89000000D03*
X118545000Y-89000000D03*
X121085000Y-89000000D03*
D20*
X129500000Y-105595000D03*
X129500000Y-103945000D03*
D24*
X144375000Y-127450000D03*
X146025000Y-127450000D03*
D20*
X129780000Y-93415000D03*
X129780000Y-91765000D03*
D22*
X144737500Y-104100000D03*
X147662500Y-104100000D03*
D24*
X133925000Y-128390000D03*
X135575000Y-128390000D03*
X129725000Y-89580000D03*
X131375000Y-89580000D03*
D23*
X131600000Y-129925000D03*
X131600000Y-131575000D03*
D32*
X144307500Y-133555000D03*
X144307500Y-131655000D03*
X142432500Y-132605000D03*
X154537500Y-129450000D03*
X154537500Y-127550000D03*
X152662500Y-128500000D03*
D16*
X147902500Y-90550000D03*
X147902500Y-92450000D03*
X149777500Y-91500000D03*
D24*
X125195000Y-90860000D03*
X126845000Y-90860000D03*
D22*
X144737500Y-117300000D03*
X147662500Y-117300000D03*
D33*
X111475000Y-109350000D03*
X112125000Y-109350000D03*
X112775000Y-109350000D03*
X113425000Y-109350000D03*
X114075000Y-109350000D03*
X114725000Y-109350000D03*
X115375000Y-109350000D03*
X116025000Y-109350000D03*
X116675000Y-109350000D03*
X117325000Y-109350000D03*
X117325000Y-102250000D03*
X116675000Y-102250000D03*
X116025000Y-102250000D03*
X115375000Y-102250000D03*
X114725000Y-102250000D03*
X114075000Y-102250000D03*
X113425000Y-102250000D03*
X112775000Y-102250000D03*
X112125000Y-102250000D03*
X111475000Y-102250000D03*
D24*
X131225000Y-134100000D03*
X132875000Y-134100000D03*
D20*
X134730000Y-93355000D03*
X134730000Y-91705000D03*
D24*
X148775000Y-125600000D03*
X150425000Y-125600000D03*
D21*
X127750000Y-95535000D03*
X127750000Y-97085000D03*
D24*
X133415000Y-112410000D03*
X135065000Y-112410000D03*
X137965000Y-128440000D03*
X139615000Y-128440000D03*
D34*
X153000000Y-104500000D03*
D35*
X153000000Y-107000000D03*
X153000000Y-109500000D03*
X153000000Y-112000000D03*
X153000000Y-114500000D03*
X153000000Y-117000000D03*
X153000000Y-119500000D03*
D28*
X129360000Y-112520000D03*
X129860000Y-112520000D03*
X130360000Y-112520000D03*
X130860000Y-112520000D03*
X131360000Y-112520000D03*
X131360000Y-108120000D03*
X130860000Y-108120000D03*
X130360000Y-108120000D03*
X129860000Y-108120000D03*
X129360000Y-108120000D03*
D24*
X123925000Y-128750000D03*
X125575000Y-128750000D03*
X149375000Y-132600000D03*
X151025000Y-132600000D03*
X133445000Y-107410000D03*
X135095000Y-107410000D03*
D20*
X137697500Y-99625000D03*
X137697500Y-97975000D03*
D16*
X152602500Y-90550000D03*
X152602500Y-92450000D03*
X154477500Y-91500000D03*
D36*
X117800000Y-123987500D03*
X117800000Y-122412500D03*
D37*
X111275000Y-128400000D03*
X116525000Y-128400000D03*
X111275000Y-131600000D03*
X116525000Y-131600000D03*
M02*
