G04 #@! TF.GenerationSoftware,KiCad,Pcbnew,(6.0.9)*
G04 #@! TF.CreationDate,2023-03-12T19:51:39-06:00*
G04 #@! TF.ProjectId,AutoDischarger,4175746f-4469-4736-9368-61726765722e,rev?*
G04 #@! TF.SameCoordinates,Original*
G04 #@! TF.FileFunction,Copper,L3,Inr*
G04 #@! TF.FilePolarity,Positive*
%FSLAX46Y46*%
G04 Gerber Fmt 4.6, Leading zero omitted, Abs format (unit mm)*
G04 Created by KiCad (PCBNEW (6.0.9)) date 2023-03-12 19:51:39*
%MOMM*%
%LPD*%
G01*
G04 APERTURE LIST*
G04 Aperture macros list*
%AMRoundRect*
0 Rectangle with rounded corners*
0 $1 Rounding radius*
0 $2 $3 $4 $5 $6 $7 $8 $9 X,Y pos of 4 corners*
0 Add a 4 corners polygon primitive as box body*
4,1,4,$2,$3,$4,$5,$6,$7,$8,$9,$2,$3,0*
0 Add four circle primitives for the rounded corners*
1,1,$1+$1,$2,$3*
1,1,$1+$1,$4,$5*
1,1,$1+$1,$6,$7*
1,1,$1+$1,$8,$9*
0 Add four rect primitives between the rounded corners*
20,1,$1+$1,$2,$3,$4,$5,0*
20,1,$1+$1,$4,$5,$6,$7,0*
20,1,$1+$1,$6,$7,$8,$9,0*
20,1,$1+$1,$8,$9,$2,$3,0*%
G04 Aperture macros list end*
G04 #@! TA.AperFunction,ComponentPad*
%ADD10R,1.700000X1.700000*%
G04 #@! TD*
G04 #@! TA.AperFunction,ComponentPad*
%ADD11O,1.700000X1.700000*%
G04 #@! TD*
G04 #@! TA.AperFunction,ComponentPad*
%ADD12RoundRect,0.250000X-0.725000X0.600000X-0.725000X-0.600000X0.725000X-0.600000X0.725000X0.600000X0*%
G04 #@! TD*
G04 #@! TA.AperFunction,ComponentPad*
%ADD13O,1.950000X1.700000*%
G04 #@! TD*
G04 #@! TA.AperFunction,ViaPad*
%ADD14C,0.600000*%
G04 #@! TD*
G04 APERTURE END LIST*
D10*
X110925000Y-89000000D03*
D11*
X113465000Y-89000000D03*
X116005000Y-89000000D03*
X118545000Y-89000000D03*
X121085000Y-89000000D03*
D12*
X153000000Y-104500000D03*
D13*
X153000000Y-107000000D03*
X153000000Y-109500000D03*
X153000000Y-112000000D03*
X153000000Y-114500000D03*
X153000000Y-117000000D03*
X153000000Y-119500000D03*
D14*
X128904043Y-123462287D03*
X128585000Y-107915000D03*
X128665000Y-95535000D03*
X154200000Y-125500000D03*
X136700000Y-128600000D03*
X108300000Y-114400000D03*
X108525000Y-120175000D03*
X129950000Y-132350000D03*
X144284459Y-130747967D03*
X130800000Y-126300000D03*
X132200000Y-88500000D03*
X140700000Y-128800000D03*
X137832500Y-134567500D03*
X123300000Y-103100000D03*
X127000000Y-133800000D03*
X124350000Y-133250000D03*
X109800000Y-118200000D03*
X108825000Y-112375000D03*
X130800000Y-118900000D03*
X122500000Y-113200000D03*
X133000000Y-103900000D03*
X127600000Y-126200000D03*
X141400000Y-100100000D03*
X151400000Y-134600000D03*
X135800000Y-91604500D03*
X133700000Y-134100000D03*
X150500000Y-100500000D03*
X111475000Y-103925000D03*
X113900000Y-131600000D03*
X130300000Y-98717508D03*
X130500000Y-111000000D03*
X117800000Y-125000000D03*
X120500000Y-94200000D03*
X136095000Y-116395000D03*
X127630000Y-110400000D03*
X137139751Y-122181507D03*
X149200000Y-92900000D03*
X126800000Y-97100000D03*
X112050000Y-119150000D03*
X136200000Y-112400000D03*
X114500000Y-115900000D03*
X147800000Y-130200000D03*
X109600000Y-92800000D03*
X112200000Y-111300000D03*
X135300000Y-123875500D03*
X145100000Y-124000000D03*
X120600000Y-120500000D03*
X112800000Y-112600000D03*
X114075000Y-98025000D03*
X143020799Y-92225500D03*
X136400000Y-100800000D03*
X115700000Y-104200000D03*
X147800000Y-96900000D03*
X115100000Y-99100000D03*
X114075000Y-112375000D03*
X135300000Y-130400000D03*
X120400000Y-115700000D03*
X144400000Y-126100000D03*
X115000000Y-112000000D03*
X149100000Y-133900000D03*
X131360000Y-110240000D03*
X132300000Y-123200000D03*
X114400000Y-105500000D03*
X131400000Y-102500000D03*
X138300000Y-94700000D03*
X140250000Y-92750000D03*
X144900000Y-104200000D03*
X150750000Y-90050000D03*
X138900000Y-107200000D03*
X145100000Y-107100000D03*
X154750000Y-94150000D03*
X136910000Y-107410000D03*
X144700000Y-111800000D03*
X138950000Y-109450000D03*
X144800000Y-116100000D03*
X137800000Y-117700000D03*
X142700000Y-123400000D03*
X154400000Y-92600000D03*
X142000000Y-103500000D03*
X153600000Y-99200000D03*
X143200000Y-110800000D03*
X144400000Y-120300000D03*
X152600000Y-127400000D03*
X144150000Y-122650000D03*
X154800000Y-132400000D03*
G04 #@! TA.AperFunction,Conductor*
G36*
X154150547Y-86508478D02*
G01*
X154169872Y-86509978D01*
X154184158Y-86512202D01*
X154193724Y-86513691D01*
X154210923Y-86511442D01*
X154234863Y-86510609D01*
X154468603Y-86524748D01*
X154483707Y-86526582D01*
X154740894Y-86573713D01*
X154755667Y-86577354D01*
X155005308Y-86655145D01*
X155019526Y-86660537D01*
X155257962Y-86767850D01*
X155271431Y-86774919D01*
X155495197Y-86910190D01*
X155507720Y-86918833D01*
X155713552Y-87080092D01*
X155724940Y-87090182D01*
X155909818Y-87275060D01*
X155919908Y-87286448D01*
X156081167Y-87492280D01*
X156089810Y-87504803D01*
X156225081Y-87728569D01*
X156232150Y-87742038D01*
X156338138Y-87977530D01*
X156339461Y-87980470D01*
X156344855Y-87994692D01*
X156392130Y-88146403D01*
X156422646Y-88244333D01*
X156426287Y-88259106D01*
X156473418Y-88516293D01*
X156475252Y-88531397D01*
X156488953Y-88757904D01*
X156487692Y-88784721D01*
X156487690Y-88784852D01*
X156486309Y-88793724D01*
X156487473Y-88802626D01*
X156487473Y-88802628D01*
X156490436Y-88825283D01*
X156491500Y-88841621D01*
X156491500Y-133150633D01*
X156490000Y-133170018D01*
X156487690Y-133184851D01*
X156487690Y-133184855D01*
X156486309Y-133193724D01*
X156488136Y-133207692D01*
X156488558Y-133210919D01*
X156489391Y-133234863D01*
X156475252Y-133468603D01*
X156473418Y-133483707D01*
X156426287Y-133740894D01*
X156422646Y-133755667D01*
X156354037Y-133975844D01*
X156344857Y-134005303D01*
X156339463Y-134019526D01*
X156233436Y-134255106D01*
X156232152Y-134257959D01*
X156225081Y-134271431D01*
X156089810Y-134495197D01*
X156081167Y-134507720D01*
X155919908Y-134713552D01*
X155909818Y-134724940D01*
X155724940Y-134909818D01*
X155713552Y-134919908D01*
X155507720Y-135081167D01*
X155495197Y-135089810D01*
X155271431Y-135225081D01*
X155257962Y-135232150D01*
X155019526Y-135339463D01*
X155005308Y-135344855D01*
X154878211Y-135384460D01*
X154755667Y-135422646D01*
X154740894Y-135426287D01*
X154483707Y-135473418D01*
X154468603Y-135475252D01*
X154242096Y-135488953D01*
X154215279Y-135487692D01*
X154215148Y-135487690D01*
X154206276Y-135486309D01*
X154197374Y-135487473D01*
X154197372Y-135487473D01*
X154182707Y-135489391D01*
X154174714Y-135490436D01*
X154158379Y-135491500D01*
X151940993Y-135491500D01*
X151872872Y-135471498D01*
X151826379Y-135417842D01*
X151816275Y-135347568D01*
X151845769Y-135282988D01*
X151876474Y-135257272D01*
X151885860Y-135251677D01*
X151885862Y-135251676D01*
X151891912Y-135248069D01*
X152023266Y-135122982D01*
X152123643Y-134971902D01*
X152188055Y-134802338D01*
X152191698Y-134776420D01*
X152212748Y-134626639D01*
X152212748Y-134626636D01*
X152213299Y-134622717D01*
X152213616Y-134600000D01*
X152193397Y-134419745D01*
X152191080Y-134413091D01*
X152136064Y-134255106D01*
X152136062Y-134255103D01*
X152133745Y-134248448D01*
X152037626Y-134094624D01*
X152028835Y-134085771D01*
X151914778Y-133970915D01*
X151914774Y-133970912D01*
X151909815Y-133965918D01*
X151898697Y-133958862D01*
X151847921Y-133926639D01*
X151756666Y-133868727D01*
X151676008Y-133840006D01*
X151592425Y-133810243D01*
X151592420Y-133810242D01*
X151585790Y-133807881D01*
X151578802Y-133807048D01*
X151578799Y-133807047D01*
X151424431Y-133788640D01*
X151405680Y-133786404D01*
X151398677Y-133787140D01*
X151398676Y-133787140D01*
X151232288Y-133804628D01*
X151232286Y-133804629D01*
X151225288Y-133805364D01*
X151053579Y-133863818D01*
X151024600Y-133881646D01*
X150905095Y-133955166D01*
X150905092Y-133955168D01*
X150899088Y-133958862D01*
X150894053Y-133963793D01*
X150894050Y-133963795D01*
X150779630Y-134075844D01*
X150769493Y-134085771D01*
X150671235Y-134238238D01*
X150668826Y-134244858D01*
X150668824Y-134244861D01*
X150611606Y-134402066D01*
X150609197Y-134408685D01*
X150586463Y-134588640D01*
X150604163Y-134769160D01*
X150661418Y-134941273D01*
X150665065Y-134947295D01*
X150665066Y-134947297D01*
X150748226Y-135084611D01*
X150755380Y-135096424D01*
X150881382Y-135226902D01*
X150887278Y-135230760D01*
X150932065Y-135260068D01*
X150978114Y-135314105D01*
X150987637Y-135384460D01*
X150957612Y-135448795D01*
X150897572Y-135486685D01*
X150863072Y-135491500D01*
X138318973Y-135491500D01*
X138250852Y-135471498D01*
X138204359Y-135417842D01*
X138194255Y-135347568D01*
X138223749Y-135282988D01*
X138254456Y-135257271D01*
X138318360Y-135219177D01*
X138318362Y-135219176D01*
X138324412Y-135215569D01*
X138455766Y-135090482D01*
X138556143Y-134939402D01*
X138620555Y-134769838D01*
X138621635Y-134762151D01*
X138645248Y-134594139D01*
X138645248Y-134594136D01*
X138645799Y-134590217D01*
X138646116Y-134567500D01*
X138625897Y-134387245D01*
X138623580Y-134380591D01*
X138568564Y-134222606D01*
X138568562Y-134222603D01*
X138566245Y-134215948D01*
X138534606Y-134165314D01*
X138473859Y-134068098D01*
X138470126Y-134062124D01*
X138455105Y-134046998D01*
X138347278Y-133938415D01*
X138347274Y-133938412D01*
X138342315Y-133933418D01*
X138331799Y-133926744D01*
X138278959Y-133893211D01*
X138271756Y-133888640D01*
X148286463Y-133888640D01*
X148304163Y-134069160D01*
X148361418Y-134241273D01*
X148365065Y-134247295D01*
X148365066Y-134247297D01*
X148407347Y-134317111D01*
X148455380Y-134396424D01*
X148460269Y-134401487D01*
X148460270Y-134401488D01*
X148521907Y-134465314D01*
X148581382Y-134526902D01*
X148643422Y-134567500D01*
X148693088Y-134600000D01*
X148733159Y-134626222D01*
X148739763Y-134628678D01*
X148739765Y-134628679D01*
X148896558Y-134686990D01*
X148896560Y-134686990D01*
X148903168Y-134689448D01*
X148986995Y-134700633D01*
X149075980Y-134712507D01*
X149075984Y-134712507D01*
X149082961Y-134713438D01*
X149089972Y-134712800D01*
X149089976Y-134712800D01*
X149232459Y-134699832D01*
X149263600Y-134696998D01*
X149270302Y-134694820D01*
X149270304Y-134694820D01*
X149429409Y-134643124D01*
X149429412Y-134643123D01*
X149436108Y-134640947D01*
X149559316Y-134567500D01*
X149585860Y-134551677D01*
X149585862Y-134551676D01*
X149591912Y-134548069D01*
X149723266Y-134422982D01*
X149823643Y-134271902D01*
X149865423Y-134161917D01*
X149885555Y-134108920D01*
X149885556Y-134108918D01*
X149888055Y-134102338D01*
X149889551Y-134091693D01*
X149912748Y-133926639D01*
X149912748Y-133926636D01*
X149913299Y-133922717D01*
X149913616Y-133900000D01*
X149893397Y-133719745D01*
X149891080Y-133713091D01*
X149836064Y-133555106D01*
X149836062Y-133555103D01*
X149833745Y-133548448D01*
X149788606Y-133476210D01*
X149741359Y-133400598D01*
X149737626Y-133394624D01*
X149709561Y-133366362D01*
X149614778Y-133270915D01*
X149614774Y-133270912D01*
X149609815Y-133265918D01*
X149598697Y-133258862D01*
X149518065Y-133207692D01*
X149456666Y-133168727D01*
X149405852Y-133150633D01*
X149292425Y-133110243D01*
X149292420Y-133110242D01*
X149285790Y-133107881D01*
X149278802Y-133107048D01*
X149278799Y-133107047D01*
X149155698Y-133092368D01*
X149105680Y-133086404D01*
X149098677Y-133087140D01*
X149098676Y-133087140D01*
X148932288Y-133104628D01*
X148932286Y-133104629D01*
X148925288Y-133105364D01*
X148820763Y-133140947D01*
X148763332Y-133160498D01*
X148753579Y-133163818D01*
X148739457Y-133172506D01*
X148605095Y-133255166D01*
X148605092Y-133255168D01*
X148599088Y-133258862D01*
X148594053Y-133263793D01*
X148594050Y-133263795D01*
X148474525Y-133380843D01*
X148469493Y-133385771D01*
X148371235Y-133538238D01*
X148368826Y-133544858D01*
X148368824Y-133544861D01*
X148311606Y-133702066D01*
X148309197Y-133708685D01*
X148286463Y-133888640D01*
X138271756Y-133888640D01*
X138189166Y-133836227D01*
X138151225Y-133822717D01*
X138024925Y-133777743D01*
X138024920Y-133777742D01*
X138018290Y-133775381D01*
X138011302Y-133774548D01*
X138011299Y-133774547D01*
X137888198Y-133759868D01*
X137838180Y-133753904D01*
X137831177Y-133754640D01*
X137831176Y-133754640D01*
X137664788Y-133772128D01*
X137664786Y-133772129D01*
X137657788Y-133772864D01*
X137486079Y-133831318D01*
X137480075Y-133835012D01*
X137337595Y-133922666D01*
X137337592Y-133922668D01*
X137331588Y-133926362D01*
X137326553Y-133931293D01*
X137326550Y-133931295D01*
X137207746Y-134047637D01*
X137201993Y-134053271D01*
X137103735Y-134205738D01*
X137101326Y-134212358D01*
X137101324Y-134212361D01*
X137063198Y-134317111D01*
X137041697Y-134376185D01*
X137018963Y-134556140D01*
X137036663Y-134736660D01*
X137093918Y-134908773D01*
X137097565Y-134914795D01*
X137097566Y-134914797D01*
X137135706Y-134977773D01*
X137187880Y-135063924D01*
X137313882Y-135194402D01*
X137319774Y-135198257D01*
X137319778Y-135198261D01*
X137414230Y-135260068D01*
X137460279Y-135314105D01*
X137469802Y-135384460D01*
X137439777Y-135448795D01*
X137379737Y-135486685D01*
X137345237Y-135491500D01*
X109849367Y-135491500D01*
X109829982Y-135490000D01*
X109815149Y-135487690D01*
X109815145Y-135487690D01*
X109806276Y-135486309D01*
X109789077Y-135488558D01*
X109765137Y-135489391D01*
X109531397Y-135475252D01*
X109516293Y-135473418D01*
X109259106Y-135426287D01*
X109244333Y-135422646D01*
X109121789Y-135384460D01*
X108994692Y-135344855D01*
X108980474Y-135339463D01*
X108742038Y-135232150D01*
X108728569Y-135225081D01*
X108504803Y-135089810D01*
X108492280Y-135081167D01*
X108286448Y-134919908D01*
X108275060Y-134909818D01*
X108090182Y-134724940D01*
X108080092Y-134713552D01*
X107918833Y-134507720D01*
X107910190Y-134495197D01*
X107774919Y-134271431D01*
X107767848Y-134257959D01*
X107766564Y-134255106D01*
X107660537Y-134019526D01*
X107655143Y-134005303D01*
X107645964Y-133975844D01*
X107577354Y-133755667D01*
X107573713Y-133740894D01*
X107526582Y-133483707D01*
X107524748Y-133468603D01*
X107511269Y-133245768D01*
X107511648Y-133238640D01*
X123536463Y-133238640D01*
X123554163Y-133419160D01*
X123611418Y-133591273D01*
X123615065Y-133597295D01*
X123615066Y-133597297D01*
X123696834Y-133732312D01*
X123705380Y-133746424D01*
X123710269Y-133751487D01*
X123710270Y-133751488D01*
X123744699Y-133787140D01*
X123831382Y-133876902D01*
X123869242Y-133901677D01*
X123964169Y-133963795D01*
X123983159Y-133976222D01*
X123989763Y-133978678D01*
X123989765Y-133978679D01*
X124146558Y-134036990D01*
X124146560Y-134036990D01*
X124153168Y-134039448D01*
X124219832Y-134048343D01*
X124325980Y-134062507D01*
X124325984Y-134062507D01*
X124332961Y-134063438D01*
X124339972Y-134062800D01*
X124339976Y-134062800D01*
X124498821Y-134048343D01*
X124513600Y-134046998D01*
X124520302Y-134044820D01*
X124520304Y-134044820D01*
X124679409Y-133993124D01*
X124679412Y-133993123D01*
X124686108Y-133990947D01*
X124793809Y-133926744D01*
X124835860Y-133901677D01*
X124835862Y-133901676D01*
X124841912Y-133898069D01*
X124956824Y-133788640D01*
X126186463Y-133788640D01*
X126204163Y-133969160D01*
X126261418Y-134141273D01*
X126265065Y-134147295D01*
X126265066Y-134147297D01*
X126344085Y-134277773D01*
X126355380Y-134296424D01*
X126481382Y-134426902D01*
X126633159Y-134526222D01*
X126639763Y-134528678D01*
X126639765Y-134528679D01*
X126796558Y-134586990D01*
X126796560Y-134586990D01*
X126803168Y-134589448D01*
X126882250Y-134600000D01*
X126975980Y-134612507D01*
X126975984Y-134612507D01*
X126982961Y-134613438D01*
X126989972Y-134612800D01*
X126989976Y-134612800D01*
X127132459Y-134599832D01*
X127163600Y-134596998D01*
X127170302Y-134594820D01*
X127170304Y-134594820D01*
X127329409Y-134543124D01*
X127329412Y-134543123D01*
X127336108Y-134540947D01*
X127451932Y-134471902D01*
X127485860Y-134451677D01*
X127485862Y-134451676D01*
X127491912Y-134448069D01*
X127623266Y-134322982D01*
X127723643Y-134171902D01*
X127755272Y-134088640D01*
X132886463Y-134088640D01*
X132904163Y-134269160D01*
X132961418Y-134441273D01*
X132965065Y-134447295D01*
X132965066Y-134447297D01*
X133051720Y-134590380D01*
X133055380Y-134596424D01*
X133060269Y-134601487D01*
X133060270Y-134601488D01*
X133094892Y-134637340D01*
X133181382Y-134726902D01*
X133333159Y-134826222D01*
X133339763Y-134828678D01*
X133339765Y-134828679D01*
X133496558Y-134886990D01*
X133496560Y-134886990D01*
X133503168Y-134889448D01*
X133586995Y-134900633D01*
X133675980Y-134912507D01*
X133675984Y-134912507D01*
X133682961Y-134913438D01*
X133689972Y-134912800D01*
X133689976Y-134912800D01*
X133832459Y-134899832D01*
X133863600Y-134896998D01*
X133870302Y-134894820D01*
X133870304Y-134894820D01*
X134029409Y-134843124D01*
X134029412Y-134843123D01*
X134036108Y-134840947D01*
X134167090Y-134762866D01*
X134185860Y-134751677D01*
X134185862Y-134751676D01*
X134191912Y-134748069D01*
X134323266Y-134622982D01*
X134423643Y-134471902D01*
X134488055Y-134302338D01*
X134489733Y-134290401D01*
X134512748Y-134126639D01*
X134512748Y-134126636D01*
X134513299Y-134122717D01*
X134513616Y-134100000D01*
X134493397Y-133919745D01*
X134491080Y-133913091D01*
X134436064Y-133755106D01*
X134436062Y-133755103D01*
X134433745Y-133748448D01*
X134337626Y-133594624D01*
X134298383Y-133555106D01*
X134214778Y-133470915D01*
X134214774Y-133470912D01*
X134209815Y-133465918D01*
X134198697Y-133458862D01*
X134125091Y-133412151D01*
X134056666Y-133368727D01*
X134027463Y-133358328D01*
X133892425Y-133310243D01*
X133892420Y-133310242D01*
X133885790Y-133307881D01*
X133878802Y-133307048D01*
X133878799Y-133307047D01*
X133755698Y-133292368D01*
X133705680Y-133286404D01*
X133698677Y-133287140D01*
X133698676Y-133287140D01*
X133532288Y-133304628D01*
X133532286Y-133304629D01*
X133525288Y-133305364D01*
X133353579Y-133363818D01*
X133317895Y-133385771D01*
X133205095Y-133455166D01*
X133205092Y-133455168D01*
X133199088Y-133458862D01*
X133194053Y-133463793D01*
X133194050Y-133463795D01*
X133109792Y-133546307D01*
X133069493Y-133585771D01*
X132971235Y-133738238D01*
X132968826Y-133744858D01*
X132968824Y-133744861D01*
X132922610Y-133871834D01*
X132909197Y-133908685D01*
X132886463Y-134088640D01*
X127755272Y-134088640D01*
X127771090Y-134046998D01*
X127785555Y-134008920D01*
X127785556Y-134008918D01*
X127788055Y-134002338D01*
X127791380Y-133978679D01*
X127812748Y-133826639D01*
X127812748Y-133826636D01*
X127813299Y-133822717D01*
X127813506Y-133807881D01*
X127813561Y-133803962D01*
X127813561Y-133803957D01*
X127813616Y-133800000D01*
X127793397Y-133619745D01*
X127791080Y-133613091D01*
X127736064Y-133455106D01*
X127736062Y-133455103D01*
X127733745Y-133448448D01*
X127683171Y-133367512D01*
X127641359Y-133300598D01*
X127637626Y-133294624D01*
X127632664Y-133289627D01*
X127514778Y-133170915D01*
X127514774Y-133170912D01*
X127509815Y-133165918D01*
X127502928Y-133161547D01*
X127413237Y-133104628D01*
X127356666Y-133068727D01*
X127327463Y-133058328D01*
X127192425Y-133010243D01*
X127192420Y-133010242D01*
X127185790Y-133007881D01*
X127178802Y-133007048D01*
X127178799Y-133007047D01*
X127055698Y-132992368D01*
X127005680Y-132986404D01*
X126998677Y-132987140D01*
X126998676Y-132987140D01*
X126832288Y-133004628D01*
X126832286Y-133004629D01*
X126825288Y-133005364D01*
X126653579Y-133063818D01*
X126616866Y-133086404D01*
X126505095Y-133155166D01*
X126505092Y-133155168D01*
X126499088Y-133158862D01*
X126494053Y-133163793D01*
X126494050Y-133163795D01*
X126393621Y-133262143D01*
X126369493Y-133285771D01*
X126271235Y-133438238D01*
X126268826Y-133444858D01*
X126268824Y-133444861D01*
X126214315Y-133594624D01*
X126209197Y-133608685D01*
X126186463Y-133788640D01*
X124956824Y-133788640D01*
X124973266Y-133772982D01*
X125073643Y-133621902D01*
X125130998Y-133470915D01*
X125135555Y-133458920D01*
X125135556Y-133458918D01*
X125138055Y-133452338D01*
X125140037Y-133438238D01*
X125162748Y-133276639D01*
X125162748Y-133276636D01*
X125163299Y-133272717D01*
X125163616Y-133250000D01*
X125143397Y-133069745D01*
X125140542Y-133061547D01*
X125086064Y-132905106D01*
X125086062Y-132905103D01*
X125083745Y-132898448D01*
X124987626Y-132744624D01*
X124973941Y-132730843D01*
X124864778Y-132620915D01*
X124864774Y-132620912D01*
X124859815Y-132615918D01*
X124848697Y-132608862D01*
X124775091Y-132562151D01*
X124706666Y-132518727D01*
X124677463Y-132508328D01*
X124542425Y-132460243D01*
X124542420Y-132460242D01*
X124535790Y-132457881D01*
X124528802Y-132457048D01*
X124528799Y-132457047D01*
X124405698Y-132442368D01*
X124355680Y-132436404D01*
X124348677Y-132437140D01*
X124348676Y-132437140D01*
X124182288Y-132454628D01*
X124182286Y-132454629D01*
X124175288Y-132455364D01*
X124003579Y-132513818D01*
X123997575Y-132517512D01*
X123855095Y-132605166D01*
X123855092Y-132605168D01*
X123849088Y-132608862D01*
X123844053Y-132613793D01*
X123844050Y-132613795D01*
X123724525Y-132730843D01*
X123719493Y-132735771D01*
X123621235Y-132888238D01*
X123618826Y-132894858D01*
X123618824Y-132894861D01*
X123572610Y-133021834D01*
X123559197Y-133058685D01*
X123536463Y-133238640D01*
X107511648Y-133238640D01*
X107512520Y-133222218D01*
X107512334Y-133222201D01*
X107512769Y-133217348D01*
X107513576Y-133212552D01*
X107513729Y-133200000D01*
X107509752Y-133172227D01*
X107508480Y-133154423D01*
X107507771Y-131588640D01*
X113086463Y-131588640D01*
X113104163Y-131769160D01*
X113161418Y-131941273D01*
X113165065Y-131947295D01*
X113165066Y-131947297D01*
X113224153Y-132044861D01*
X113255380Y-132096424D01*
X113381382Y-132226902D01*
X113533159Y-132326222D01*
X113539763Y-132328678D01*
X113539765Y-132328679D01*
X113696558Y-132386990D01*
X113696560Y-132386990D01*
X113703168Y-132389448D01*
X113782250Y-132400000D01*
X113875980Y-132412507D01*
X113875984Y-132412507D01*
X113882961Y-132413438D01*
X113889972Y-132412800D01*
X113889976Y-132412800D01*
X114032459Y-132399832D01*
X114063600Y-132396998D01*
X114070302Y-132394820D01*
X114070304Y-132394820D01*
X114089324Y-132388640D01*
X153986463Y-132388640D01*
X154004163Y-132569160D01*
X154061418Y-132741273D01*
X154065065Y-132747295D01*
X154065066Y-132747297D01*
X154146834Y-132882312D01*
X154155380Y-132896424D01*
X154281382Y-133026902D01*
X154287278Y-133030760D01*
X154408741Y-133110243D01*
X154433159Y-133126222D01*
X154439763Y-133128678D01*
X154439765Y-133128679D01*
X154596558Y-133186990D01*
X154596560Y-133186990D01*
X154603168Y-133189448D01*
X154682250Y-133200000D01*
X154775980Y-133212507D01*
X154775984Y-133212507D01*
X154782961Y-133213438D01*
X154789972Y-133212800D01*
X154789976Y-133212800D01*
X154932459Y-133199832D01*
X154963600Y-133196998D01*
X154970302Y-133194820D01*
X154970304Y-133194820D01*
X155129409Y-133143124D01*
X155129412Y-133143123D01*
X155136108Y-133140947D01*
X155259296Y-133067512D01*
X155285860Y-133051677D01*
X155285862Y-133051676D01*
X155291912Y-133048069D01*
X155423266Y-132922982D01*
X155523643Y-132771902D01*
X155580998Y-132620915D01*
X155585555Y-132608920D01*
X155585556Y-132608918D01*
X155588055Y-132602338D01*
X155589035Y-132595366D01*
X155612748Y-132426639D01*
X155612748Y-132426636D01*
X155613299Y-132422717D01*
X155613616Y-132400000D01*
X155593397Y-132219745D01*
X155591080Y-132213091D01*
X155536064Y-132055106D01*
X155536062Y-132055103D01*
X155533745Y-132048448D01*
X155437626Y-131894624D01*
X155423941Y-131880843D01*
X155314778Y-131770915D01*
X155314774Y-131770912D01*
X155309815Y-131765918D01*
X155298697Y-131758862D01*
X155250538Y-131728300D01*
X155156666Y-131668727D01*
X155127463Y-131658328D01*
X154992425Y-131610243D01*
X154992420Y-131610242D01*
X154985790Y-131607881D01*
X154978802Y-131607048D01*
X154978799Y-131607047D01*
X154824431Y-131588640D01*
X154805680Y-131586404D01*
X154798677Y-131587140D01*
X154798676Y-131587140D01*
X154632288Y-131604628D01*
X154632286Y-131604629D01*
X154625288Y-131605364D01*
X154453579Y-131663818D01*
X154447575Y-131667512D01*
X154305095Y-131755166D01*
X154305092Y-131755168D01*
X154299088Y-131758862D01*
X154294053Y-131763793D01*
X154294050Y-131763795D01*
X154174525Y-131880843D01*
X154169493Y-131885771D01*
X154071235Y-132038238D01*
X154068826Y-132044858D01*
X154068824Y-132044861D01*
X154038622Y-132127841D01*
X154009197Y-132208685D01*
X153986463Y-132388640D01*
X114089324Y-132388640D01*
X114229409Y-132343124D01*
X114229412Y-132343123D01*
X114236108Y-132340947D01*
X114391912Y-132248069D01*
X114523266Y-132122982D01*
X114623643Y-131971902D01*
X114688055Y-131802338D01*
X114689035Y-131795366D01*
X114712748Y-131626639D01*
X114712748Y-131626636D01*
X114713299Y-131622717D01*
X114713506Y-131607881D01*
X114713561Y-131603962D01*
X114713561Y-131603957D01*
X114713616Y-131600000D01*
X114693397Y-131419745D01*
X114691080Y-131413091D01*
X114636064Y-131255106D01*
X114636062Y-131255103D01*
X114633745Y-131248448D01*
X114558906Y-131128679D01*
X114541359Y-131100598D01*
X114537626Y-131094624D01*
X114486571Y-131043211D01*
X114414778Y-130970915D01*
X114414774Y-130970912D01*
X114409815Y-130965918D01*
X114398697Y-130958862D01*
X114308289Y-130901488D01*
X114256666Y-130868727D01*
X114208784Y-130851677D01*
X114092425Y-130810243D01*
X114092420Y-130810242D01*
X114085790Y-130807881D01*
X114078802Y-130807048D01*
X114078799Y-130807047D01*
X113955698Y-130792368D01*
X113905680Y-130786404D01*
X113898677Y-130787140D01*
X113898676Y-130787140D01*
X113732288Y-130804628D01*
X113732286Y-130804629D01*
X113725288Y-130805364D01*
X113553579Y-130863818D01*
X113547575Y-130867512D01*
X113405095Y-130955166D01*
X113405092Y-130955168D01*
X113399088Y-130958862D01*
X113394053Y-130963793D01*
X113394050Y-130963795D01*
X113274525Y-131080843D01*
X113269493Y-131085771D01*
X113171235Y-131238238D01*
X113168826Y-131244858D01*
X113168824Y-131244861D01*
X113111606Y-131402066D01*
X113109197Y-131408685D01*
X113086463Y-131588640D01*
X107507771Y-131588640D01*
X107507228Y-130388640D01*
X134486463Y-130388640D01*
X134504163Y-130569160D01*
X134561418Y-130741273D01*
X134565065Y-130747295D01*
X134565066Y-130747297D01*
X134615613Y-130830760D01*
X134655380Y-130896424D01*
X134660269Y-130901487D01*
X134660270Y-130901488D01*
X134720440Y-130963795D01*
X134781382Y-131026902D01*
X134933159Y-131126222D01*
X134939763Y-131128678D01*
X134939765Y-131128679D01*
X135096558Y-131186990D01*
X135096560Y-131186990D01*
X135103168Y-131189448D01*
X135186995Y-131200633D01*
X135275980Y-131212507D01*
X135275984Y-131212507D01*
X135282961Y-131213438D01*
X135289972Y-131212800D01*
X135289976Y-131212800D01*
X135432459Y-131199832D01*
X135463600Y-131196998D01*
X135470302Y-131194820D01*
X135470304Y-131194820D01*
X135629409Y-131143124D01*
X135629412Y-131143123D01*
X135636108Y-131140947D01*
X135791912Y-131048069D01*
X135923266Y-130922982D01*
X136023643Y-130771902D01*
X136088055Y-130602338D01*
X136089035Y-130595366D01*
X136112748Y-130426639D01*
X136112748Y-130426636D01*
X136113299Y-130422717D01*
X136113616Y-130400000D01*
X136093397Y-130219745D01*
X136091080Y-130213091D01*
X136082565Y-130188640D01*
X146986463Y-130188640D01*
X147004163Y-130369160D01*
X147061418Y-130541273D01*
X147065065Y-130547295D01*
X147065066Y-130547297D01*
X147094178Y-130595366D01*
X147155380Y-130696424D01*
X147281382Y-130826902D01*
X147433159Y-130926222D01*
X147439763Y-130928678D01*
X147439765Y-130928679D01*
X147596558Y-130986990D01*
X147596560Y-130986990D01*
X147603168Y-130989448D01*
X147686995Y-131000633D01*
X147775980Y-131012507D01*
X147775984Y-131012507D01*
X147782961Y-131013438D01*
X147789972Y-131012800D01*
X147789976Y-131012800D01*
X147932459Y-130999832D01*
X147963600Y-130996998D01*
X147970302Y-130994820D01*
X147970304Y-130994820D01*
X148129409Y-130943124D01*
X148129412Y-130943123D01*
X148136108Y-130940947D01*
X148259296Y-130867512D01*
X148285860Y-130851677D01*
X148285862Y-130851676D01*
X148291912Y-130848069D01*
X148423266Y-130722982D01*
X148523643Y-130571902D01*
X148588055Y-130402338D01*
X148590963Y-130381646D01*
X148612748Y-130226639D01*
X148612748Y-130226636D01*
X148613299Y-130222717D01*
X148613616Y-130200000D01*
X148593397Y-130019745D01*
X148591080Y-130013091D01*
X148536064Y-129855106D01*
X148536062Y-129855103D01*
X148533745Y-129848448D01*
X148523662Y-129832312D01*
X148441359Y-129700598D01*
X148437626Y-129694624D01*
X148409561Y-129666362D01*
X148314778Y-129570915D01*
X148314774Y-129570912D01*
X148309815Y-129565918D01*
X148298697Y-129558862D01*
X148241185Y-129522364D01*
X148156666Y-129468727D01*
X148108784Y-129451677D01*
X147992425Y-129410243D01*
X147992420Y-129410242D01*
X147985790Y-129407881D01*
X147978802Y-129407048D01*
X147978799Y-129407047D01*
X147855698Y-129392368D01*
X147805680Y-129386404D01*
X147798677Y-129387140D01*
X147798676Y-129387140D01*
X147632288Y-129404628D01*
X147632286Y-129404629D01*
X147625288Y-129405364D01*
X147453579Y-129463818D01*
X147447575Y-129467512D01*
X147305095Y-129555166D01*
X147305092Y-129555168D01*
X147299088Y-129558862D01*
X147294053Y-129563793D01*
X147294050Y-129563795D01*
X147174525Y-129680843D01*
X147169493Y-129685771D01*
X147071235Y-129838238D01*
X147068826Y-129844858D01*
X147068824Y-129844861D01*
X147011606Y-130002066D01*
X147009197Y-130008685D01*
X146986463Y-130188640D01*
X136082565Y-130188640D01*
X136036064Y-130055106D01*
X136036062Y-130055103D01*
X136033745Y-130048448D01*
X135937626Y-129894624D01*
X135898383Y-129855106D01*
X135814778Y-129770915D01*
X135814774Y-129770912D01*
X135809815Y-129765918D01*
X135798697Y-129758862D01*
X135750538Y-129728300D01*
X135656666Y-129668727D01*
X135627463Y-129658328D01*
X135492425Y-129610243D01*
X135492420Y-129610242D01*
X135485790Y-129607881D01*
X135478802Y-129607048D01*
X135478799Y-129607047D01*
X135339023Y-129590380D01*
X135305680Y-129586404D01*
X135298677Y-129587140D01*
X135298676Y-129587140D01*
X135132288Y-129604628D01*
X135132286Y-129604629D01*
X135125288Y-129605364D01*
X134953579Y-129663818D01*
X134917895Y-129685771D01*
X134805095Y-129755166D01*
X134805092Y-129755168D01*
X134799088Y-129758862D01*
X134794053Y-129763793D01*
X134794050Y-129763795D01*
X134707606Y-129848448D01*
X134669493Y-129885771D01*
X134571235Y-130038238D01*
X134568826Y-130044858D01*
X134568824Y-130044861D01*
X134519038Y-130181646D01*
X134509197Y-130208685D01*
X134486463Y-130388640D01*
X107507228Y-130388640D01*
X107506504Y-128788640D01*
X139886463Y-128788640D01*
X139904163Y-128969160D01*
X139961418Y-129141273D01*
X139965065Y-129147295D01*
X139965066Y-129147297D01*
X139975978Y-129165314D01*
X140055380Y-129296424D01*
X140181382Y-129426902D01*
X140333159Y-129526222D01*
X140339763Y-129528678D01*
X140339765Y-129528679D01*
X140496558Y-129586990D01*
X140496560Y-129586990D01*
X140503168Y-129589448D01*
X140586995Y-129600633D01*
X140675980Y-129612507D01*
X140675984Y-129612507D01*
X140682961Y-129613438D01*
X140689972Y-129612800D01*
X140689976Y-129612800D01*
X140832459Y-129599832D01*
X140863600Y-129596998D01*
X140870302Y-129594820D01*
X140870304Y-129594820D01*
X141029409Y-129543124D01*
X141029412Y-129543123D01*
X141036108Y-129540947D01*
X141159296Y-129467512D01*
X141185860Y-129451677D01*
X141185862Y-129451676D01*
X141191912Y-129448069D01*
X141323266Y-129322982D01*
X141423643Y-129171902D01*
X141488055Y-129002338D01*
X141489035Y-128995366D01*
X141512748Y-128826639D01*
X141512748Y-128826636D01*
X141513299Y-128822717D01*
X141513616Y-128800000D01*
X141493397Y-128619745D01*
X141491080Y-128613091D01*
X141436064Y-128455106D01*
X141436062Y-128455103D01*
X141433745Y-128448448D01*
X141337626Y-128294624D01*
X141257005Y-128213438D01*
X141214778Y-128170915D01*
X141214774Y-128170912D01*
X141209815Y-128165918D01*
X141198697Y-128158862D01*
X141141185Y-128122364D01*
X141056666Y-128068727D01*
X141008784Y-128051677D01*
X140892425Y-128010243D01*
X140892420Y-128010242D01*
X140885790Y-128007881D01*
X140878802Y-128007048D01*
X140878799Y-128007047D01*
X140755698Y-127992368D01*
X140705680Y-127986404D01*
X140698677Y-127987140D01*
X140698676Y-127987140D01*
X140532288Y-128004628D01*
X140532286Y-128004629D01*
X140525288Y-128005364D01*
X140353579Y-128063818D01*
X140347575Y-128067512D01*
X140205095Y-128155166D01*
X140205092Y-128155168D01*
X140199088Y-128158862D01*
X140194053Y-128163793D01*
X140194050Y-128163795D01*
X140074525Y-128280843D01*
X140069493Y-128285771D01*
X139971235Y-128438238D01*
X139968826Y-128444858D01*
X139968824Y-128444861D01*
X139911606Y-128602066D01*
X139909197Y-128608685D01*
X139886463Y-128788640D01*
X107506504Y-128788640D01*
X107505871Y-127388640D01*
X151786463Y-127388640D01*
X151804163Y-127569160D01*
X151861418Y-127741273D01*
X151865065Y-127747295D01*
X151865066Y-127747297D01*
X151875978Y-127765314D01*
X151955380Y-127896424D01*
X152081382Y-128026902D01*
X152233159Y-128126222D01*
X152239763Y-128128678D01*
X152239765Y-128128679D01*
X152396558Y-128186990D01*
X152396560Y-128186990D01*
X152403168Y-128189448D01*
X152486995Y-128200633D01*
X152575980Y-128212507D01*
X152575984Y-128212507D01*
X152582961Y-128213438D01*
X152589972Y-128212800D01*
X152589976Y-128212800D01*
X152732459Y-128199832D01*
X152763600Y-128196998D01*
X152770302Y-128194820D01*
X152770304Y-128194820D01*
X152929409Y-128143124D01*
X152929412Y-128143123D01*
X152936108Y-128140947D01*
X153059296Y-128067512D01*
X153085860Y-128051677D01*
X153085862Y-128051676D01*
X153091912Y-128048069D01*
X153223266Y-127922982D01*
X153323643Y-127771902D01*
X153388055Y-127602338D01*
X153389035Y-127595366D01*
X153412748Y-127426639D01*
X153412748Y-127426636D01*
X153413299Y-127422717D01*
X153413616Y-127400000D01*
X153393397Y-127219745D01*
X153391080Y-127213091D01*
X153336064Y-127055106D01*
X153336062Y-127055103D01*
X153333745Y-127048448D01*
X153257795Y-126926902D01*
X153241359Y-126900598D01*
X153237626Y-126894624D01*
X153186571Y-126843211D01*
X153114778Y-126770915D01*
X153114774Y-126770912D01*
X153109815Y-126765918D01*
X153098697Y-126758862D01*
X153042158Y-126722982D01*
X152956666Y-126668727D01*
X152927463Y-126658328D01*
X152792425Y-126610243D01*
X152792420Y-126610242D01*
X152785790Y-126607881D01*
X152778802Y-126607048D01*
X152778799Y-126607047D01*
X152655698Y-126592368D01*
X152605680Y-126586404D01*
X152598677Y-126587140D01*
X152598676Y-126587140D01*
X152432288Y-126604628D01*
X152432286Y-126604629D01*
X152425288Y-126605364D01*
X152253579Y-126663818D01*
X152247575Y-126667512D01*
X152105095Y-126755166D01*
X152105092Y-126755168D01*
X152099088Y-126758862D01*
X152094053Y-126763793D01*
X152094050Y-126763795D01*
X151974525Y-126880843D01*
X151969493Y-126885771D01*
X151871235Y-127038238D01*
X151868826Y-127044858D01*
X151868824Y-127044861D01*
X151849848Y-127096998D01*
X151809197Y-127208685D01*
X151786463Y-127388640D01*
X107505871Y-127388640D01*
X107505712Y-127037340D01*
X107505328Y-126188640D01*
X126786463Y-126188640D01*
X126804163Y-126369160D01*
X126861418Y-126541273D01*
X126865065Y-126547295D01*
X126865066Y-126547297D01*
X126944085Y-126677773D01*
X126955380Y-126696424D01*
X126960269Y-126701487D01*
X126960270Y-126701488D01*
X127020440Y-126763795D01*
X127081382Y-126826902D01*
X127087278Y-126830760D01*
X127189477Y-126897637D01*
X127233159Y-126926222D01*
X127239763Y-126928678D01*
X127239765Y-126928679D01*
X127396558Y-126986990D01*
X127396560Y-126986990D01*
X127403168Y-126989448D01*
X127486995Y-127000633D01*
X127575980Y-127012507D01*
X127575984Y-127012507D01*
X127582961Y-127013438D01*
X127589972Y-127012800D01*
X127589976Y-127012800D01*
X127732459Y-126999832D01*
X127763600Y-126996998D01*
X127770302Y-126994820D01*
X127770304Y-126994820D01*
X127929409Y-126943124D01*
X127929412Y-126943123D01*
X127936108Y-126940947D01*
X128091912Y-126848069D01*
X128223266Y-126722982D01*
X128323643Y-126571902D01*
X128365423Y-126461917D01*
X128385555Y-126408920D01*
X128385556Y-126408918D01*
X128388055Y-126402338D01*
X128389035Y-126395366D01*
X128404034Y-126288640D01*
X129986463Y-126288640D01*
X130004163Y-126469160D01*
X130061418Y-126641273D01*
X130065065Y-126647295D01*
X130065066Y-126647297D01*
X130132632Y-126758862D01*
X130155380Y-126796424D01*
X130160269Y-126801487D01*
X130160270Y-126801488D01*
X130236903Y-126880843D01*
X130281382Y-126926902D01*
X130287278Y-126930760D01*
X130389477Y-126997637D01*
X130433159Y-127026222D01*
X130439763Y-127028678D01*
X130439765Y-127028679D01*
X130596558Y-127086990D01*
X130596560Y-127086990D01*
X130603168Y-127089448D01*
X130686995Y-127100633D01*
X130775980Y-127112507D01*
X130775984Y-127112507D01*
X130782961Y-127113438D01*
X130789972Y-127112800D01*
X130789976Y-127112800D01*
X130932459Y-127099832D01*
X130963600Y-127096998D01*
X130970302Y-127094820D01*
X130970304Y-127094820D01*
X131129409Y-127043124D01*
X131129412Y-127043123D01*
X131136108Y-127040947D01*
X131291912Y-126948069D01*
X131423266Y-126822982D01*
X131523643Y-126671902D01*
X131565423Y-126561917D01*
X131585555Y-126508920D01*
X131585556Y-126508918D01*
X131588055Y-126502338D01*
X131589035Y-126495366D01*
X131612748Y-126326639D01*
X131612748Y-126326636D01*
X131613299Y-126322717D01*
X131613616Y-126300000D01*
X131593397Y-126119745D01*
X131591080Y-126113091D01*
X131582565Y-126088640D01*
X143586463Y-126088640D01*
X143604163Y-126269160D01*
X143661418Y-126441273D01*
X143665065Y-126447295D01*
X143665066Y-126447297D01*
X143749817Y-126587238D01*
X143755380Y-126596424D01*
X143760269Y-126601487D01*
X143760270Y-126601488D01*
X143766204Y-126607633D01*
X143881382Y-126726902D01*
X144033159Y-126826222D01*
X144039763Y-126828678D01*
X144039765Y-126828679D01*
X144196558Y-126886990D01*
X144196560Y-126886990D01*
X144203168Y-126889448D01*
X144286732Y-126900598D01*
X144375980Y-126912507D01*
X144375984Y-126912507D01*
X144382961Y-126913438D01*
X144389972Y-126912800D01*
X144389976Y-126912800D01*
X144532459Y-126899832D01*
X144563600Y-126896998D01*
X144570302Y-126894820D01*
X144570304Y-126894820D01*
X144729409Y-126843124D01*
X144729412Y-126843123D01*
X144736108Y-126840947D01*
X144861970Y-126765918D01*
X144885860Y-126751677D01*
X144885862Y-126751676D01*
X144891912Y-126748069D01*
X145023266Y-126622982D01*
X145123643Y-126471902D01*
X145188055Y-126302338D01*
X145190963Y-126281646D01*
X145212748Y-126126639D01*
X145212748Y-126126636D01*
X145213299Y-126122717D01*
X145213616Y-126100000D01*
X145193397Y-125919745D01*
X145191080Y-125913091D01*
X145136064Y-125755106D01*
X145136062Y-125755103D01*
X145133745Y-125748448D01*
X145091501Y-125680843D01*
X145041359Y-125600598D01*
X145037626Y-125594624D01*
X145009120Y-125565918D01*
X144914778Y-125470915D01*
X144914774Y-125470912D01*
X144909815Y-125465918D01*
X144902928Y-125461547D01*
X144813237Y-125404628D01*
X144756666Y-125368727D01*
X144727463Y-125358328D01*
X144592425Y-125310243D01*
X144592420Y-125310242D01*
X144585790Y-125307881D01*
X144578802Y-125307048D01*
X144578799Y-125307047D01*
X144455698Y-125292368D01*
X144405680Y-125286404D01*
X144398677Y-125287140D01*
X144398676Y-125287140D01*
X144232288Y-125304628D01*
X144232286Y-125304629D01*
X144225288Y-125305364D01*
X144053579Y-125363818D01*
X144047575Y-125367512D01*
X143905095Y-125455166D01*
X143905092Y-125455168D01*
X143899088Y-125458862D01*
X143894053Y-125463793D01*
X143894050Y-125463795D01*
X143774525Y-125580843D01*
X143769493Y-125585771D01*
X143671235Y-125738238D01*
X143668826Y-125744858D01*
X143668824Y-125744861D01*
X143628698Y-125855106D01*
X143609197Y-125908685D01*
X143586463Y-126088640D01*
X131582565Y-126088640D01*
X131536064Y-125955106D01*
X131536062Y-125955103D01*
X131533745Y-125948448D01*
X131437626Y-125794624D01*
X131398383Y-125755106D01*
X131314778Y-125670915D01*
X131314774Y-125670912D01*
X131309815Y-125665918D01*
X131298697Y-125658862D01*
X131248335Y-125626902D01*
X131156666Y-125568727D01*
X131118582Y-125555166D01*
X130992425Y-125510243D01*
X130992420Y-125510242D01*
X130985790Y-125507881D01*
X130978802Y-125507048D01*
X130978799Y-125507047D01*
X130855698Y-125492368D01*
X130805680Y-125486404D01*
X130798677Y-125487140D01*
X130798676Y-125487140D01*
X130632288Y-125504628D01*
X130632286Y-125504629D01*
X130625288Y-125505364D01*
X130453579Y-125563818D01*
X130417895Y-125585771D01*
X130305095Y-125655166D01*
X130305092Y-125655168D01*
X130299088Y-125658862D01*
X130294053Y-125663793D01*
X130294050Y-125663795D01*
X130207606Y-125748448D01*
X130169493Y-125785771D01*
X130071235Y-125938238D01*
X130068826Y-125944858D01*
X130068824Y-125944861D01*
X130039021Y-126026744D01*
X130009197Y-126108685D01*
X129986463Y-126288640D01*
X128404034Y-126288640D01*
X128412748Y-126226639D01*
X128412748Y-126226636D01*
X128413299Y-126222717D01*
X128413616Y-126200000D01*
X128393397Y-126019745D01*
X128391080Y-126013091D01*
X128336064Y-125855106D01*
X128336062Y-125855103D01*
X128333745Y-125848448D01*
X128258906Y-125728679D01*
X128241359Y-125700598D01*
X128237626Y-125694624D01*
X128209120Y-125665918D01*
X128114778Y-125570915D01*
X128114774Y-125570912D01*
X128109815Y-125565918D01*
X128102928Y-125561547D01*
X128008289Y-125501488D01*
X127956666Y-125468727D01*
X127918582Y-125455166D01*
X127792425Y-125410243D01*
X127792420Y-125410242D01*
X127785790Y-125407881D01*
X127778802Y-125407048D01*
X127778799Y-125407047D01*
X127655698Y-125392368D01*
X127605680Y-125386404D01*
X127598677Y-125387140D01*
X127598676Y-125387140D01*
X127432288Y-125404628D01*
X127432286Y-125404629D01*
X127425288Y-125405364D01*
X127253579Y-125463818D01*
X127247575Y-125467512D01*
X127105095Y-125555166D01*
X127105092Y-125555168D01*
X127099088Y-125558862D01*
X127094053Y-125563793D01*
X127094050Y-125563795D01*
X126993621Y-125662143D01*
X126969493Y-125685771D01*
X126871235Y-125838238D01*
X126868826Y-125844858D01*
X126868824Y-125844861D01*
X126828698Y-125955106D01*
X126809197Y-126008685D01*
X126786463Y-126188640D01*
X107505328Y-126188640D01*
X107504785Y-124988640D01*
X116986463Y-124988640D01*
X117004163Y-125169160D01*
X117061418Y-125341273D01*
X117065065Y-125347295D01*
X117065066Y-125347297D01*
X117149817Y-125487238D01*
X117155380Y-125496424D01*
X117160269Y-125501487D01*
X117160270Y-125501488D01*
X117220440Y-125563795D01*
X117281382Y-125626902D01*
X117433159Y-125726222D01*
X117439763Y-125728678D01*
X117439765Y-125728679D01*
X117596558Y-125786990D01*
X117596560Y-125786990D01*
X117603168Y-125789448D01*
X117686732Y-125800598D01*
X117775980Y-125812507D01*
X117775984Y-125812507D01*
X117782961Y-125813438D01*
X117789972Y-125812800D01*
X117789976Y-125812800D01*
X117932459Y-125799832D01*
X117963600Y-125796998D01*
X117970302Y-125794820D01*
X117970304Y-125794820D01*
X118129409Y-125743124D01*
X118129412Y-125743123D01*
X118136108Y-125740947D01*
X118261970Y-125665918D01*
X118285860Y-125651677D01*
X118285862Y-125651676D01*
X118291912Y-125648069D01*
X118423266Y-125522982D01*
X118523643Y-125371902D01*
X118588055Y-125202338D01*
X118589035Y-125195366D01*
X118612748Y-125026639D01*
X118612748Y-125026636D01*
X118613299Y-125022717D01*
X118613616Y-125000000D01*
X118593397Y-124819745D01*
X118591080Y-124813091D01*
X118536064Y-124655106D01*
X118536062Y-124655103D01*
X118533745Y-124648448D01*
X118437626Y-124494624D01*
X118342153Y-124398482D01*
X118314778Y-124370915D01*
X118314774Y-124370912D01*
X118309815Y-124365918D01*
X118298697Y-124358862D01*
X118250538Y-124328300D01*
X118156666Y-124268727D01*
X118113266Y-124253273D01*
X117992425Y-124210243D01*
X117992420Y-124210242D01*
X117985790Y-124207881D01*
X117978802Y-124207048D01*
X117978799Y-124207047D01*
X117839023Y-124190380D01*
X117805680Y-124186404D01*
X117798677Y-124187140D01*
X117798676Y-124187140D01*
X117632288Y-124204628D01*
X117632286Y-124204629D01*
X117625288Y-124205364D01*
X117453579Y-124263818D01*
X117447575Y-124267512D01*
X117305095Y-124355166D01*
X117305092Y-124355168D01*
X117299088Y-124358862D01*
X117294053Y-124363793D01*
X117294050Y-124363795D01*
X117174525Y-124480843D01*
X117169493Y-124485771D01*
X117071235Y-124638238D01*
X117068826Y-124644858D01*
X117068824Y-124644861D01*
X117014243Y-124794820D01*
X117009197Y-124808685D01*
X116986463Y-124988640D01*
X107504785Y-124988640D01*
X107503970Y-123188640D01*
X131486463Y-123188640D01*
X131504163Y-123369160D01*
X131561418Y-123541273D01*
X131565065Y-123547295D01*
X131565066Y-123547297D01*
X131647968Y-123684185D01*
X131655380Y-123696424D01*
X131781382Y-123826902D01*
X131933159Y-123926222D01*
X131939763Y-123928678D01*
X131939765Y-123928679D01*
X132096558Y-123986990D01*
X132096560Y-123986990D01*
X132103168Y-123989448D01*
X132182250Y-124000000D01*
X132275980Y-124012507D01*
X132275984Y-124012507D01*
X132282961Y-124013438D01*
X132289972Y-124012800D01*
X132289976Y-124012800D01*
X132432459Y-123999832D01*
X132463600Y-123996998D01*
X132470302Y-123994820D01*
X132470304Y-123994820D01*
X132629409Y-123943124D01*
X132629412Y-123943123D01*
X132636108Y-123940947D01*
X132764953Y-123864140D01*
X134486463Y-123864140D01*
X134504163Y-124044660D01*
X134561418Y-124216773D01*
X134565065Y-124222795D01*
X134565066Y-124222797D01*
X134575978Y-124240814D01*
X134655380Y-124371924D01*
X134781382Y-124502402D01*
X134933159Y-124601722D01*
X134939763Y-124604178D01*
X134939765Y-124604179D01*
X135096558Y-124662490D01*
X135096560Y-124662490D01*
X135103168Y-124664948D01*
X135186995Y-124676133D01*
X135275980Y-124688007D01*
X135275984Y-124688007D01*
X135282961Y-124688938D01*
X135289972Y-124688300D01*
X135289976Y-124688300D01*
X135432459Y-124675332D01*
X135463600Y-124672498D01*
X135470302Y-124670320D01*
X135470304Y-124670320D01*
X135629409Y-124618624D01*
X135629412Y-124618623D01*
X135636108Y-124616447D01*
X135791912Y-124523569D01*
X135923266Y-124398482D01*
X136023643Y-124247402D01*
X136068742Y-124128679D01*
X136085555Y-124084420D01*
X136085556Y-124084418D01*
X136088055Y-124077838D01*
X136091732Y-124051677D01*
X136112748Y-123902139D01*
X136112748Y-123902136D01*
X136113299Y-123898217D01*
X136113616Y-123875500D01*
X136093397Y-123695245D01*
X136091080Y-123688591D01*
X136036064Y-123530606D01*
X136036062Y-123530603D01*
X136033745Y-123523948D01*
X135972932Y-123426626D01*
X135949196Y-123388640D01*
X141886463Y-123388640D01*
X141904163Y-123569160D01*
X141961418Y-123741273D01*
X141965065Y-123747295D01*
X141965066Y-123747297D01*
X142045108Y-123879462D01*
X142055380Y-123896424D01*
X142060269Y-123901487D01*
X142060270Y-123901488D01*
X142094892Y-123937340D01*
X142181382Y-124026902D01*
X142333159Y-124126222D01*
X142339763Y-124128678D01*
X142339765Y-124128679D01*
X142496558Y-124186990D01*
X142496560Y-124186990D01*
X142503168Y-124189448D01*
X142586995Y-124200633D01*
X142675980Y-124212507D01*
X142675984Y-124212507D01*
X142682961Y-124213438D01*
X142689972Y-124212800D01*
X142689976Y-124212800D01*
X142832459Y-124199832D01*
X142863600Y-124196998D01*
X142870302Y-124194820D01*
X142870304Y-124194820D01*
X143029409Y-124143124D01*
X143029412Y-124143123D01*
X143036108Y-124140947D01*
X143191912Y-124048069D01*
X143323266Y-123922982D01*
X143423643Y-123771902D01*
X143488055Y-123602338D01*
X143490514Y-123584841D01*
X143512750Y-123426626D01*
X143512750Y-123426620D01*
X143513299Y-123422717D01*
X143513310Y-123421934D01*
X143538230Y-123356208D01*
X143595295Y-123313970D01*
X143666137Y-123309288D01*
X143707676Y-123326828D01*
X143783159Y-123376222D01*
X143789763Y-123378678D01*
X143789765Y-123378679D01*
X143946558Y-123436990D01*
X143946560Y-123436990D01*
X143953168Y-123439448D01*
X144036995Y-123450633D01*
X144125980Y-123462507D01*
X144125984Y-123462507D01*
X144132961Y-123463438D01*
X144139972Y-123462800D01*
X144139976Y-123462800D01*
X144230691Y-123454544D01*
X144249782Y-123452806D01*
X144319435Y-123466551D01*
X144370600Y-123515772D01*
X144387031Y-123584841D01*
X144374263Y-123633539D01*
X144371235Y-123638238D01*
X144368827Y-123644854D01*
X144368825Y-123644858D01*
X144324983Y-123765314D01*
X144309197Y-123808685D01*
X144286463Y-123988640D01*
X144304163Y-124169160D01*
X144361418Y-124341273D01*
X144365065Y-124347295D01*
X144365066Y-124347297D01*
X144451264Y-124489627D01*
X144455380Y-124496424D01*
X144460269Y-124501487D01*
X144460270Y-124501488D01*
X144475357Y-124517111D01*
X144581382Y-124626902D01*
X144733159Y-124726222D01*
X144739763Y-124728678D01*
X144739765Y-124728679D01*
X144896558Y-124786990D01*
X144896560Y-124786990D01*
X144903168Y-124789448D01*
X144986995Y-124800633D01*
X145075980Y-124812507D01*
X145075984Y-124812507D01*
X145082961Y-124813438D01*
X145089972Y-124812800D01*
X145089976Y-124812800D01*
X145232459Y-124799832D01*
X145263600Y-124796998D01*
X145270302Y-124794820D01*
X145270304Y-124794820D01*
X145429409Y-124743124D01*
X145429412Y-124743123D01*
X145436108Y-124740947D01*
X145562034Y-124665880D01*
X145585860Y-124651677D01*
X145585862Y-124651676D01*
X145591912Y-124648069D01*
X145723266Y-124522982D01*
X145823643Y-124371902D01*
X145882572Y-124216773D01*
X145885555Y-124208920D01*
X145885556Y-124208918D01*
X145888055Y-124202338D01*
X145890212Y-124186990D01*
X145912748Y-124026639D01*
X145912748Y-124026636D01*
X145913299Y-124022717D01*
X145913616Y-124000000D01*
X145893397Y-123819745D01*
X145891080Y-123813091D01*
X145836064Y-123655106D01*
X145836062Y-123655103D01*
X145833745Y-123648448D01*
X145760110Y-123530606D01*
X145741359Y-123500598D01*
X145737626Y-123494624D01*
X145728835Y-123485771D01*
X145614778Y-123370915D01*
X145614774Y-123370912D01*
X145609815Y-123365918D01*
X145602493Y-123361271D01*
X145520580Y-123309288D01*
X145456666Y-123268727D01*
X145427463Y-123258328D01*
X145292425Y-123210243D01*
X145292420Y-123210242D01*
X145285790Y-123207881D01*
X145278802Y-123207048D01*
X145278799Y-123207047D01*
X145124431Y-123188640D01*
X145105680Y-123186404D01*
X145098677Y-123187140D01*
X145098675Y-123187140D01*
X145001846Y-123197317D01*
X144932008Y-123184545D01*
X144880161Y-123136043D01*
X144862767Y-123067210D01*
X144874555Y-123022248D01*
X144873643Y-123021902D01*
X144935555Y-122858920D01*
X144935556Y-122858918D01*
X144938055Y-122852338D01*
X144940747Y-122833184D01*
X144962748Y-122676639D01*
X144962748Y-122676636D01*
X144963299Y-122672717D01*
X144963616Y-122650000D01*
X144943397Y-122469745D01*
X144940542Y-122461547D01*
X144886064Y-122305106D01*
X144886062Y-122305103D01*
X144883745Y-122298448D01*
X144787626Y-122144624D01*
X144773941Y-122130843D01*
X144664778Y-122020915D01*
X144664774Y-122020912D01*
X144659815Y-122015918D01*
X144648697Y-122008862D01*
X144600538Y-121978300D01*
X144506666Y-121918727D01*
X144477463Y-121908328D01*
X144342425Y-121860243D01*
X144342420Y-121860242D01*
X144335790Y-121857881D01*
X144328802Y-121857048D01*
X144328799Y-121857047D01*
X144205698Y-121842368D01*
X144155680Y-121836404D01*
X144148677Y-121837140D01*
X144148676Y-121837140D01*
X143982288Y-121854628D01*
X143982286Y-121854629D01*
X143975288Y-121855364D01*
X143803579Y-121913818D01*
X143797575Y-121917512D01*
X143655095Y-122005166D01*
X143655092Y-122005168D01*
X143649088Y-122008862D01*
X143644053Y-122013793D01*
X143644050Y-122013795D01*
X143524525Y-122130843D01*
X143519493Y-122135771D01*
X143421235Y-122288238D01*
X143418826Y-122294858D01*
X143418824Y-122294861D01*
X143361606Y-122452066D01*
X143359197Y-122458685D01*
X143340051Y-122610243D01*
X143337062Y-122633901D01*
X143308680Y-122698978D01*
X143249621Y-122738379D01*
X143178634Y-122739596D01*
X143144543Y-122724495D01*
X143062618Y-122672504D01*
X143062616Y-122672503D01*
X143056666Y-122668727D01*
X143015201Y-122653962D01*
X142892425Y-122610243D01*
X142892420Y-122610242D01*
X142885790Y-122607881D01*
X142878802Y-122607048D01*
X142878799Y-122607047D01*
X142755698Y-122592368D01*
X142705680Y-122586404D01*
X142698677Y-122587140D01*
X142698676Y-122587140D01*
X142532288Y-122604628D01*
X142532286Y-122604629D01*
X142525288Y-122605364D01*
X142353579Y-122663818D01*
X142317895Y-122685771D01*
X142205095Y-122755166D01*
X142205092Y-122755168D01*
X142199088Y-122758862D01*
X142194053Y-122763793D01*
X142194050Y-122763795D01*
X142100807Y-122855106D01*
X142069493Y-122885771D01*
X141971235Y-123038238D01*
X141968826Y-123044858D01*
X141968824Y-123044861D01*
X141912358Y-123200000D01*
X141909197Y-123208685D01*
X141886463Y-123388640D01*
X135949196Y-123388640D01*
X135941359Y-123376098D01*
X135937626Y-123370124D01*
X135932664Y-123365127D01*
X135814778Y-123246415D01*
X135814774Y-123246412D01*
X135809815Y-123241418D01*
X135798697Y-123234362D01*
X135726650Y-123188640D01*
X135656666Y-123144227D01*
X135627463Y-123133828D01*
X135492425Y-123085743D01*
X135492420Y-123085742D01*
X135485790Y-123083381D01*
X135478802Y-123082548D01*
X135478799Y-123082547D01*
X135350177Y-123067210D01*
X135305680Y-123061904D01*
X135298677Y-123062640D01*
X135298676Y-123062640D01*
X135132288Y-123080128D01*
X135132286Y-123080129D01*
X135125288Y-123080864D01*
X134953579Y-123139318D01*
X134939457Y-123148006D01*
X134805095Y-123230666D01*
X134805092Y-123230668D01*
X134799088Y-123234362D01*
X134794053Y-123239293D01*
X134794050Y-123239295D01*
X134722576Y-123309288D01*
X134669493Y-123361271D01*
X134571235Y-123513738D01*
X134568826Y-123520358D01*
X134568824Y-123520361D01*
X134525920Y-123638238D01*
X134509197Y-123684185D01*
X134486463Y-123864140D01*
X132764953Y-123864140D01*
X132785860Y-123851677D01*
X132785862Y-123851676D01*
X132791912Y-123848069D01*
X132923266Y-123722982D01*
X133023643Y-123571902D01*
X133088055Y-123402338D01*
X133091380Y-123378679D01*
X133112748Y-123226639D01*
X133112748Y-123226636D01*
X133113299Y-123222717D01*
X133113616Y-123200000D01*
X133093397Y-123019745D01*
X133091080Y-123013091D01*
X133036064Y-122855106D01*
X133036062Y-122855103D01*
X133033745Y-122848448D01*
X132977766Y-122758862D01*
X132941359Y-122700598D01*
X132937626Y-122694624D01*
X132919766Y-122676639D01*
X132814778Y-122570915D01*
X132814774Y-122570912D01*
X132809815Y-122565918D01*
X132799356Y-122559280D01*
X132731309Y-122516097D01*
X132656666Y-122468727D01*
X132627463Y-122458328D01*
X132492425Y-122410243D01*
X132492420Y-122410242D01*
X132485790Y-122407881D01*
X132478802Y-122407048D01*
X132478799Y-122407047D01*
X132355698Y-122392368D01*
X132305680Y-122386404D01*
X132298677Y-122387140D01*
X132298676Y-122387140D01*
X132132288Y-122404628D01*
X132132286Y-122404629D01*
X132125288Y-122405364D01*
X131953579Y-122463818D01*
X131891109Y-122502250D01*
X131805095Y-122555166D01*
X131805092Y-122555168D01*
X131799088Y-122558862D01*
X131794053Y-122563793D01*
X131794050Y-122563795D01*
X131682823Y-122672717D01*
X131669493Y-122685771D01*
X131571235Y-122838238D01*
X131568826Y-122844858D01*
X131568824Y-122844861D01*
X131522590Y-122971887D01*
X131509197Y-123008685D01*
X131486463Y-123188640D01*
X107503970Y-123188640D01*
X107503509Y-122170147D01*
X136326214Y-122170147D01*
X136343914Y-122350667D01*
X136401169Y-122522780D01*
X136404816Y-122528802D01*
X136404817Y-122528804D01*
X136488125Y-122666362D01*
X136495131Y-122677931D01*
X136621133Y-122808409D01*
X136646056Y-122824718D01*
X136739355Y-122885771D01*
X136772910Y-122907729D01*
X136779514Y-122910185D01*
X136779516Y-122910186D01*
X136936309Y-122968497D01*
X136936311Y-122968497D01*
X136942919Y-122970955D01*
X137026746Y-122982140D01*
X137115731Y-122994014D01*
X137115735Y-122994014D01*
X137122712Y-122994945D01*
X137129723Y-122994307D01*
X137129727Y-122994307D01*
X137272210Y-122981339D01*
X137303351Y-122978505D01*
X137310053Y-122976327D01*
X137310055Y-122976327D01*
X137469160Y-122924631D01*
X137469163Y-122924630D01*
X137475859Y-122922454D01*
X137588836Y-122855106D01*
X137625611Y-122833184D01*
X137625613Y-122833183D01*
X137631663Y-122829576D01*
X137763017Y-122704489D01*
X137863394Y-122553409D01*
X137917778Y-122410243D01*
X137925306Y-122390427D01*
X137925307Y-122390425D01*
X137927806Y-122383845D01*
X137928786Y-122376873D01*
X137952499Y-122208146D01*
X137952499Y-122208143D01*
X137953050Y-122204224D01*
X137953367Y-122181507D01*
X137933148Y-122001252D01*
X137930831Y-121994598D01*
X137875815Y-121836613D01*
X137875813Y-121836610D01*
X137873496Y-121829955D01*
X137777377Y-121676131D01*
X137763692Y-121662350D01*
X137654529Y-121552422D01*
X137654525Y-121552419D01*
X137649566Y-121547425D01*
X137638448Y-121540369D01*
X137590289Y-121509807D01*
X137496417Y-121450234D01*
X137467214Y-121439835D01*
X137332176Y-121391750D01*
X137332171Y-121391749D01*
X137325541Y-121389388D01*
X137318553Y-121388555D01*
X137318550Y-121388554D01*
X137195449Y-121373875D01*
X137145431Y-121367911D01*
X137138428Y-121368647D01*
X137138427Y-121368647D01*
X136972039Y-121386135D01*
X136972037Y-121386136D01*
X136965039Y-121386871D01*
X136793330Y-121445325D01*
X136787326Y-121449019D01*
X136644846Y-121536673D01*
X136644843Y-121536675D01*
X136638839Y-121540369D01*
X136633804Y-121545300D01*
X136633801Y-121545302D01*
X136514276Y-121662350D01*
X136509244Y-121667278D01*
X136410986Y-121819745D01*
X136408577Y-121826365D01*
X136408575Y-121826368D01*
X136374959Y-121918727D01*
X136348948Y-121990192D01*
X136326214Y-122170147D01*
X107503509Y-122170147D01*
X107502748Y-120488640D01*
X119786463Y-120488640D01*
X119804163Y-120669160D01*
X119861418Y-120841273D01*
X119865065Y-120847295D01*
X119865066Y-120847297D01*
X119915613Y-120930760D01*
X119955380Y-120996424D01*
X119960269Y-121001487D01*
X119960270Y-121001488D01*
X119994892Y-121037340D01*
X120081382Y-121126902D01*
X120233159Y-121226222D01*
X120239763Y-121228678D01*
X120239765Y-121228679D01*
X120396558Y-121286990D01*
X120396560Y-121286990D01*
X120403168Y-121289448D01*
X120486995Y-121300633D01*
X120575980Y-121312507D01*
X120575984Y-121312507D01*
X120582961Y-121313438D01*
X120589972Y-121312800D01*
X120589976Y-121312800D01*
X120732459Y-121299832D01*
X120763600Y-121296998D01*
X120770302Y-121294820D01*
X120770304Y-121294820D01*
X120929409Y-121243124D01*
X120929412Y-121243123D01*
X120936108Y-121240947D01*
X121091912Y-121148069D01*
X121223266Y-121022982D01*
X121323643Y-120871902D01*
X121365423Y-120761917D01*
X121385555Y-120708920D01*
X121385556Y-120708918D01*
X121388055Y-120702338D01*
X121390024Y-120688327D01*
X121412748Y-120526639D01*
X121412748Y-120526636D01*
X121413299Y-120522717D01*
X121413616Y-120500000D01*
X121393397Y-120319745D01*
X121391080Y-120313091D01*
X121382565Y-120288640D01*
X143586463Y-120288640D01*
X143604163Y-120469160D01*
X143661418Y-120641273D01*
X143665065Y-120647295D01*
X143665066Y-120647297D01*
X143749068Y-120786001D01*
X143755380Y-120796424D01*
X143760269Y-120801487D01*
X143760270Y-120801488D01*
X143821907Y-120865314D01*
X143881382Y-120926902D01*
X144033159Y-121026222D01*
X144039763Y-121028678D01*
X144039765Y-121028679D01*
X144196558Y-121086990D01*
X144196560Y-121086990D01*
X144203168Y-121089448D01*
X144286995Y-121100633D01*
X144375980Y-121112507D01*
X144375984Y-121112507D01*
X144382961Y-121113438D01*
X144389972Y-121112800D01*
X144389976Y-121112800D01*
X144532459Y-121099832D01*
X144563600Y-121096998D01*
X144570302Y-121094820D01*
X144570304Y-121094820D01*
X144729409Y-121043124D01*
X144729412Y-121043123D01*
X144736108Y-121040947D01*
X144891912Y-120948069D01*
X145023266Y-120822982D01*
X145123643Y-120671902D01*
X145188055Y-120502338D01*
X145190963Y-120481646D01*
X145212748Y-120326639D01*
X145212748Y-120326636D01*
X145213299Y-120322717D01*
X145213495Y-120308685D01*
X145213561Y-120303962D01*
X145213561Y-120303957D01*
X145213616Y-120300000D01*
X145193397Y-120119745D01*
X145190276Y-120110783D01*
X145136064Y-119955106D01*
X145136062Y-119955103D01*
X145133745Y-119948448D01*
X145086203Y-119872364D01*
X145041359Y-119800598D01*
X145037626Y-119794624D01*
X145023941Y-119780843D01*
X144914778Y-119670915D01*
X144914774Y-119670912D01*
X144909815Y-119665918D01*
X144898697Y-119658862D01*
X144841185Y-119622364D01*
X144756666Y-119568727D01*
X144708784Y-119551677D01*
X144592425Y-119510243D01*
X144592420Y-119510242D01*
X144585790Y-119507881D01*
X144578802Y-119507048D01*
X144578799Y-119507047D01*
X144446512Y-119491273D01*
X144405680Y-119486404D01*
X144398677Y-119487140D01*
X144398676Y-119487140D01*
X144232288Y-119504628D01*
X144232286Y-119504629D01*
X144225288Y-119505364D01*
X144053579Y-119563818D01*
X144039457Y-119572506D01*
X143905095Y-119655166D01*
X143905092Y-119655168D01*
X143899088Y-119658862D01*
X143894053Y-119663793D01*
X143894050Y-119663795D01*
X143774610Y-119780760D01*
X143769493Y-119785771D01*
X143671235Y-119938238D01*
X143668826Y-119944858D01*
X143668824Y-119944861D01*
X143611901Y-120101256D01*
X143609197Y-120108685D01*
X143586463Y-120288640D01*
X121382565Y-120288640D01*
X121336064Y-120155106D01*
X121336062Y-120155103D01*
X121333745Y-120148448D01*
X121304763Y-120102066D01*
X121241359Y-120000598D01*
X121237626Y-119994624D01*
X121206657Y-119963438D01*
X121114778Y-119870915D01*
X121114774Y-119870912D01*
X121109815Y-119865918D01*
X121098697Y-119858862D01*
X121008587Y-119801677D01*
X120956666Y-119768727D01*
X120927463Y-119758328D01*
X120792425Y-119710243D01*
X120792420Y-119710242D01*
X120785790Y-119707881D01*
X120778802Y-119707048D01*
X120778799Y-119707047D01*
X120639023Y-119690380D01*
X120605680Y-119686404D01*
X120598677Y-119687140D01*
X120598676Y-119687140D01*
X120432288Y-119704628D01*
X120432286Y-119704629D01*
X120425288Y-119705364D01*
X120253579Y-119763818D01*
X120217895Y-119785771D01*
X120105095Y-119855166D01*
X120105092Y-119855168D01*
X120099088Y-119858862D01*
X120094053Y-119863793D01*
X120094050Y-119863795D01*
X119974525Y-119980843D01*
X119969493Y-119985771D01*
X119871235Y-120138238D01*
X119868826Y-120144858D01*
X119868824Y-120144861D01*
X119812358Y-120300000D01*
X119809197Y-120308685D01*
X119786463Y-120488640D01*
X107502748Y-120488640D01*
X107502137Y-119138640D01*
X111236463Y-119138640D01*
X111254163Y-119319160D01*
X111311418Y-119491273D01*
X111315065Y-119497295D01*
X111315066Y-119497297D01*
X111399879Y-119637340D01*
X111405380Y-119646424D01*
X111410269Y-119651487D01*
X111410270Y-119651488D01*
X111444554Y-119686990D01*
X111531382Y-119776902D01*
X111569242Y-119801677D01*
X111664169Y-119863795D01*
X111683159Y-119876222D01*
X111689763Y-119878678D01*
X111689765Y-119878679D01*
X111846558Y-119936990D01*
X111846560Y-119936990D01*
X111853168Y-119939448D01*
X111936995Y-119950633D01*
X112025980Y-119962507D01*
X112025984Y-119962507D01*
X112032961Y-119963438D01*
X112039972Y-119962800D01*
X112039976Y-119962800D01*
X112182459Y-119949832D01*
X112213600Y-119946998D01*
X112220302Y-119944820D01*
X112220304Y-119944820D01*
X112379409Y-119893124D01*
X112379412Y-119893123D01*
X112386108Y-119890947D01*
X112541912Y-119798069D01*
X112673266Y-119672982D01*
X112773643Y-119521902D01*
X112815423Y-119411917D01*
X112835555Y-119358920D01*
X112835556Y-119358918D01*
X112838055Y-119352338D01*
X112839905Y-119339173D01*
X112862748Y-119176639D01*
X112862748Y-119176636D01*
X112863299Y-119172717D01*
X112863616Y-119150000D01*
X112843397Y-118969745D01*
X112841080Y-118963091D01*
X112815154Y-118888640D01*
X129986463Y-118888640D01*
X130004163Y-119069160D01*
X130061418Y-119241273D01*
X130065065Y-119247295D01*
X130065066Y-119247297D01*
X130128681Y-119352338D01*
X130155380Y-119396424D01*
X130281382Y-119526902D01*
X130433159Y-119626222D01*
X130439763Y-119628678D01*
X130439765Y-119628679D01*
X130596558Y-119686990D01*
X130596560Y-119686990D01*
X130603168Y-119689448D01*
X130686995Y-119700633D01*
X130775980Y-119712507D01*
X130775984Y-119712507D01*
X130782961Y-119713438D01*
X130789972Y-119712800D01*
X130789976Y-119712800D01*
X130932459Y-119699832D01*
X130963600Y-119696998D01*
X130970302Y-119694820D01*
X130970304Y-119694820D01*
X131129409Y-119643124D01*
X131129412Y-119643123D01*
X131136108Y-119640947D01*
X131259296Y-119567512D01*
X131285860Y-119551677D01*
X131285862Y-119551676D01*
X131291912Y-119548069D01*
X131409833Y-119435774D01*
X151513102Y-119435774D01*
X151513302Y-119441103D01*
X151513302Y-119441105D01*
X151515778Y-119507047D01*
X151521751Y-119666158D01*
X151569093Y-119891791D01*
X151571051Y-119896750D01*
X151571052Y-119896752D01*
X151607731Y-119989627D01*
X151653776Y-120106221D01*
X151656543Y-120110780D01*
X151656544Y-120110783D01*
X151669608Y-120132312D01*
X151773377Y-120303317D01*
X151776874Y-120307347D01*
X151917288Y-120469160D01*
X151924477Y-120477445D01*
X151966030Y-120511516D01*
X152098627Y-120620240D01*
X152098633Y-120620244D01*
X152102755Y-120623624D01*
X152107391Y-120626263D01*
X152107394Y-120626265D01*
X152170437Y-120662151D01*
X152303114Y-120737675D01*
X152519825Y-120816337D01*
X152525074Y-120817286D01*
X152525077Y-120817287D01*
X152742608Y-120856623D01*
X152742615Y-120856624D01*
X152746692Y-120857361D01*
X152764414Y-120858197D01*
X152769356Y-120858430D01*
X152769363Y-120858430D01*
X152770844Y-120858500D01*
X153182890Y-120858500D01*
X153249809Y-120852822D01*
X153349409Y-120844371D01*
X153349413Y-120844370D01*
X153354720Y-120843920D01*
X153359875Y-120842582D01*
X153359881Y-120842581D01*
X153572703Y-120787343D01*
X153572707Y-120787342D01*
X153577872Y-120786001D01*
X153582738Y-120783809D01*
X153582741Y-120783808D01*
X153783202Y-120693507D01*
X153788075Y-120691312D01*
X153979319Y-120562559D01*
X154146135Y-120403424D01*
X154283754Y-120218458D01*
X154388240Y-120012949D01*
X154394841Y-119991693D01*
X154455024Y-119797871D01*
X154456607Y-119792773D01*
X154458199Y-119780760D01*
X154486198Y-119569511D01*
X154486198Y-119569506D01*
X154486898Y-119564226D01*
X154486292Y-119548069D01*
X154481375Y-119417111D01*
X154478249Y-119333842D01*
X154430907Y-119108209D01*
X154428948Y-119103248D01*
X154348185Y-118898744D01*
X154348184Y-118898742D01*
X154346224Y-118893779D01*
X154318487Y-118848069D01*
X154229390Y-118701243D01*
X154226623Y-118696683D01*
X154177113Y-118639627D01*
X154079023Y-118526588D01*
X154079021Y-118526586D01*
X154075523Y-118522555D01*
X153978650Y-118443124D01*
X153901373Y-118379760D01*
X153901367Y-118379756D01*
X153897245Y-118376376D01*
X153865750Y-118358448D01*
X153816445Y-118307368D01*
X153802583Y-118237738D01*
X153828566Y-118171667D01*
X153857716Y-118144427D01*
X153908491Y-118110243D01*
X153979319Y-118062559D01*
X154001633Y-118041273D01*
X154072769Y-117973412D01*
X154146135Y-117903424D01*
X154283754Y-117718458D01*
X154291125Y-117703962D01*
X154343342Y-117601256D01*
X154388240Y-117512949D01*
X154391620Y-117502066D01*
X154455024Y-117297871D01*
X154456607Y-117292773D01*
X154468824Y-117200598D01*
X154486198Y-117069511D01*
X154486198Y-117069506D01*
X154486898Y-117064226D01*
X154478249Y-116833842D01*
X154430907Y-116608209D01*
X154423874Y-116590401D01*
X154348185Y-116398744D01*
X154348184Y-116398742D01*
X154346224Y-116393779D01*
X154340072Y-116383640D01*
X154235114Y-116210675D01*
X154226623Y-116196683D01*
X154159003Y-116118757D01*
X154079023Y-116026588D01*
X154079021Y-116026586D01*
X154075523Y-116022555D01*
X154033970Y-115988484D01*
X153901373Y-115879760D01*
X153901367Y-115879756D01*
X153897245Y-115876376D01*
X153892602Y-115873733D01*
X153865265Y-115858171D01*
X153815959Y-115807088D01*
X153802098Y-115737458D01*
X153828082Y-115671387D01*
X153857232Y-115644149D01*
X153974578Y-115565148D01*
X153982870Y-115558481D01*
X154141900Y-115406772D01*
X154148941Y-115398814D01*
X154280141Y-115222475D01*
X154285745Y-115213438D01*
X154385357Y-115017516D01*
X154389357Y-115007665D01*
X154454534Y-114797760D01*
X154456817Y-114787376D01*
X154458861Y-114771957D01*
X154456665Y-114757793D01*
X154443478Y-114754000D01*
X151558808Y-114754000D01*
X151545277Y-114757973D01*
X151543752Y-114768580D01*
X151568477Y-114886421D01*
X151571537Y-114896617D01*
X151652263Y-115101029D01*
X151656994Y-115110561D01*
X151771016Y-115298462D01*
X151777280Y-115307052D01*
X151921327Y-115473052D01*
X151928958Y-115480472D01*
X152098911Y-115619826D01*
X152107674Y-115625848D01*
X152134711Y-115641238D01*
X152184018Y-115692320D01*
X152197880Y-115761951D01*
X152171897Y-115828022D01*
X152142747Y-115855261D01*
X152096060Y-115886693D01*
X152020681Y-115937441D01*
X151853865Y-116096576D01*
X151716246Y-116281542D01*
X151713830Y-116286293D01*
X151713828Y-116286297D01*
X151667893Y-116376646D01*
X151611760Y-116487051D01*
X151610178Y-116492145D01*
X151610177Y-116492148D01*
X151571375Y-116617111D01*
X151543393Y-116707227D01*
X151542692Y-116712516D01*
X151516147Y-116912800D01*
X151513102Y-116935774D01*
X151513302Y-116941103D01*
X151513302Y-116941105D01*
X151514155Y-116963818D01*
X151521751Y-117166158D01*
X151569093Y-117391791D01*
X151571051Y-117396750D01*
X151571052Y-117396752D01*
X151636369Y-117562143D01*
X151653776Y-117606221D01*
X151656543Y-117610780D01*
X151656544Y-117610783D01*
X151711045Y-117700598D01*
X151773377Y-117803317D01*
X151776874Y-117807347D01*
X151863438Y-117907103D01*
X151924477Y-117977445D01*
X151962577Y-118008685D01*
X152098627Y-118120240D01*
X152098633Y-118120244D01*
X152102755Y-118123624D01*
X152134250Y-118141552D01*
X152183555Y-118192632D01*
X152197417Y-118262262D01*
X152171434Y-118328333D01*
X152142284Y-118355573D01*
X152020681Y-118437441D01*
X152016824Y-118441120D01*
X152016822Y-118441122D01*
X151949687Y-118505166D01*
X151853865Y-118596576D01*
X151716246Y-118781542D01*
X151713830Y-118786293D01*
X151713828Y-118786297D01*
X151665351Y-118881646D01*
X151611760Y-118987051D01*
X151610178Y-118992145D01*
X151610177Y-118992148D01*
X151566862Y-119131646D01*
X151543393Y-119207227D01*
X151542692Y-119212516D01*
X151515576Y-119417111D01*
X151513102Y-119435774D01*
X131409833Y-119435774D01*
X131423266Y-119422982D01*
X131523643Y-119271902D01*
X131576922Y-119131646D01*
X131585555Y-119108920D01*
X131585556Y-119108918D01*
X131588055Y-119102338D01*
X131589035Y-119095366D01*
X131612748Y-118926639D01*
X131612748Y-118926636D01*
X131613299Y-118922717D01*
X131613616Y-118900000D01*
X131593397Y-118719745D01*
X131591080Y-118713091D01*
X131536064Y-118555106D01*
X131536062Y-118555103D01*
X131533745Y-118548448D01*
X131523662Y-118532312D01*
X131441359Y-118400598D01*
X131437626Y-118394624D01*
X131423941Y-118380843D01*
X131314778Y-118270915D01*
X131314774Y-118270912D01*
X131309815Y-118265918D01*
X131298697Y-118258862D01*
X131232907Y-118217111D01*
X131156666Y-118168727D01*
X131127463Y-118158328D01*
X130992425Y-118110243D01*
X130992420Y-118110242D01*
X130985790Y-118107881D01*
X130978802Y-118107048D01*
X130978799Y-118107047D01*
X130855698Y-118092368D01*
X130805680Y-118086404D01*
X130798677Y-118087140D01*
X130798676Y-118087140D01*
X130632288Y-118104628D01*
X130632286Y-118104629D01*
X130625288Y-118105364D01*
X130453579Y-118163818D01*
X130406743Y-118192632D01*
X130305095Y-118255166D01*
X130305092Y-118255168D01*
X130299088Y-118258862D01*
X130294053Y-118263793D01*
X130294050Y-118263795D01*
X130179630Y-118375844D01*
X130169493Y-118385771D01*
X130071235Y-118538238D01*
X130068826Y-118544858D01*
X130068824Y-118544861D01*
X130011606Y-118702066D01*
X130009197Y-118708685D01*
X129986463Y-118888640D01*
X112815154Y-118888640D01*
X112786064Y-118805106D01*
X112786062Y-118805103D01*
X112783745Y-118798448D01*
X112734566Y-118719745D01*
X112691359Y-118650598D01*
X112687626Y-118644624D01*
X112673941Y-118630843D01*
X112564778Y-118520915D01*
X112564774Y-118520912D01*
X112559815Y-118515918D01*
X112548697Y-118508862D01*
X112500538Y-118478300D01*
X112406666Y-118418727D01*
X112355754Y-118400598D01*
X112242425Y-118360243D01*
X112242420Y-118360242D01*
X112235790Y-118357881D01*
X112228802Y-118357048D01*
X112228799Y-118357047D01*
X112105698Y-118342368D01*
X112055680Y-118336404D01*
X112048677Y-118337140D01*
X112048676Y-118337140D01*
X111882288Y-118354628D01*
X111882286Y-118354629D01*
X111875288Y-118355364D01*
X111703579Y-118413818D01*
X111665345Y-118437340D01*
X111555095Y-118505166D01*
X111555092Y-118505168D01*
X111549088Y-118508862D01*
X111544053Y-118513793D01*
X111544050Y-118513795D01*
X111455149Y-118600854D01*
X111419493Y-118635771D01*
X111321235Y-118788238D01*
X111318826Y-118794858D01*
X111318824Y-118794861D01*
X111270861Y-118926639D01*
X111259197Y-118958685D01*
X111236463Y-119138640D01*
X107502137Y-119138640D01*
X107501707Y-118188640D01*
X108986463Y-118188640D01*
X109004163Y-118369160D01*
X109061418Y-118541273D01*
X109065065Y-118547295D01*
X109065066Y-118547297D01*
X109120983Y-118639627D01*
X109155380Y-118696424D01*
X109160269Y-118701487D01*
X109160270Y-118701488D01*
X109175357Y-118717111D01*
X109281382Y-118826902D01*
X109287278Y-118830760D01*
X109393088Y-118900000D01*
X109433159Y-118926222D01*
X109439763Y-118928678D01*
X109439765Y-118928679D01*
X109596558Y-118986990D01*
X109596560Y-118986990D01*
X109603168Y-118989448D01*
X109686995Y-119000633D01*
X109775980Y-119012507D01*
X109775984Y-119012507D01*
X109782961Y-119013438D01*
X109789972Y-119012800D01*
X109789976Y-119012800D01*
X109932459Y-118999832D01*
X109963600Y-118996998D01*
X109970302Y-118994820D01*
X109970304Y-118994820D01*
X110129409Y-118943124D01*
X110129412Y-118943123D01*
X110136108Y-118940947D01*
X110291912Y-118848069D01*
X110423266Y-118722982D01*
X110523643Y-118571902D01*
X110573389Y-118440947D01*
X110585555Y-118408920D01*
X110585556Y-118408918D01*
X110588055Y-118402338D01*
X110589551Y-118391693D01*
X110612748Y-118226639D01*
X110612748Y-118226636D01*
X110613299Y-118222717D01*
X110613616Y-118200000D01*
X110593397Y-118019745D01*
X110591080Y-118013091D01*
X110536064Y-117855106D01*
X110536062Y-117855103D01*
X110533745Y-117848448D01*
X110523662Y-117832312D01*
X110441359Y-117700598D01*
X110437626Y-117694624D01*
X110431684Y-117688640D01*
X136986463Y-117688640D01*
X137004163Y-117869160D01*
X137061418Y-118041273D01*
X137065065Y-118047295D01*
X137065066Y-118047297D01*
X137140387Y-118171667D01*
X137155380Y-118196424D01*
X137160269Y-118201487D01*
X137160270Y-118201488D01*
X137218959Y-118262262D01*
X137281382Y-118326902D01*
X137335248Y-118362151D01*
X137419849Y-118417512D01*
X137433159Y-118426222D01*
X137439763Y-118428678D01*
X137439765Y-118428679D01*
X137596558Y-118486990D01*
X137596560Y-118486990D01*
X137603168Y-118489448D01*
X137686995Y-118500633D01*
X137775980Y-118512507D01*
X137775984Y-118512507D01*
X137782961Y-118513438D01*
X137789972Y-118512800D01*
X137789976Y-118512800D01*
X137932459Y-118499832D01*
X137963600Y-118496998D01*
X137970302Y-118494820D01*
X137970304Y-118494820D01*
X138129409Y-118443124D01*
X138129412Y-118443123D01*
X138136108Y-118440947D01*
X138256532Y-118369160D01*
X138285860Y-118351677D01*
X138285862Y-118351676D01*
X138291912Y-118348069D01*
X138423266Y-118222982D01*
X138523643Y-118071902D01*
X138588055Y-117902338D01*
X138589035Y-117895366D01*
X138612748Y-117726639D01*
X138612748Y-117726636D01*
X138613299Y-117722717D01*
X138613616Y-117700000D01*
X138593397Y-117519745D01*
X138591080Y-117513091D01*
X138536064Y-117355106D01*
X138536062Y-117355103D01*
X138533745Y-117348448D01*
X138437626Y-117194624D01*
X138428835Y-117185771D01*
X138314778Y-117070915D01*
X138314774Y-117070912D01*
X138309815Y-117065918D01*
X138298749Y-117058895D01*
X138232471Y-117016834D01*
X138156666Y-116968727D01*
X138127463Y-116958328D01*
X137992425Y-116910243D01*
X137992420Y-116910242D01*
X137985790Y-116907881D01*
X137978802Y-116907048D01*
X137978799Y-116907047D01*
X137855698Y-116892368D01*
X137805680Y-116886404D01*
X137798677Y-116887140D01*
X137798676Y-116887140D01*
X137632288Y-116904628D01*
X137632286Y-116904629D01*
X137625288Y-116905364D01*
X137453579Y-116963818D01*
X137447575Y-116967512D01*
X137305095Y-117055166D01*
X137305092Y-117055168D01*
X137299088Y-117058862D01*
X137294053Y-117063793D01*
X137294050Y-117063795D01*
X137174525Y-117180843D01*
X137169493Y-117185771D01*
X137071235Y-117338238D01*
X137068826Y-117344858D01*
X137068824Y-117344861D01*
X137022365Y-117472506D01*
X137009197Y-117508685D01*
X136986463Y-117688640D01*
X110431684Y-117688640D01*
X110428835Y-117685771D01*
X110314778Y-117570915D01*
X110314774Y-117570912D01*
X110309815Y-117565918D01*
X110298697Y-117558862D01*
X110230644Y-117515675D01*
X110156666Y-117468727D01*
X110127463Y-117458328D01*
X109992425Y-117410243D01*
X109992420Y-117410242D01*
X109985790Y-117407881D01*
X109978802Y-117407048D01*
X109978799Y-117407047D01*
X109850856Y-117391791D01*
X109805680Y-117386404D01*
X109798677Y-117387140D01*
X109798676Y-117387140D01*
X109632288Y-117404628D01*
X109632286Y-117404629D01*
X109625288Y-117405364D01*
X109453579Y-117463818D01*
X109447575Y-117467512D01*
X109305095Y-117555166D01*
X109305092Y-117555168D01*
X109299088Y-117558862D01*
X109294053Y-117563793D01*
X109294050Y-117563795D01*
X109246068Y-117610783D01*
X109169493Y-117685771D01*
X109071235Y-117838238D01*
X109068826Y-117844858D01*
X109068824Y-117844861D01*
X109022035Y-117973412D01*
X109009197Y-118008685D01*
X108986463Y-118188640D01*
X107501707Y-118188640D01*
X107500666Y-115888640D01*
X113686463Y-115888640D01*
X113704163Y-116069160D01*
X113761418Y-116241273D01*
X113765065Y-116247295D01*
X113765066Y-116247297D01*
X113847638Y-116383640D01*
X113855380Y-116396424D01*
X113860269Y-116401487D01*
X113860270Y-116401488D01*
X113892237Y-116434590D01*
X113981382Y-116526902D01*
X114057271Y-116576562D01*
X114113608Y-116613428D01*
X114133159Y-116626222D01*
X114139763Y-116628678D01*
X114139765Y-116628679D01*
X114296558Y-116686990D01*
X114296560Y-116686990D01*
X114303168Y-116689448D01*
X114386995Y-116700633D01*
X114475980Y-116712507D01*
X114475984Y-116712507D01*
X114482961Y-116713438D01*
X114489972Y-116712800D01*
X114489976Y-116712800D01*
X114632459Y-116699832D01*
X114663600Y-116696998D01*
X114670302Y-116694820D01*
X114670304Y-116694820D01*
X114829409Y-116643124D01*
X114829412Y-116643123D01*
X114836108Y-116640947D01*
X114991912Y-116548069D01*
X115123266Y-116422982D01*
X115223643Y-116271902D01*
X115288055Y-116102338D01*
X115290963Y-116081646D01*
X115312748Y-115926639D01*
X115312748Y-115926636D01*
X115313299Y-115922717D01*
X115313616Y-115900000D01*
X115293397Y-115719745D01*
X115291080Y-115713091D01*
X115282565Y-115688640D01*
X119586463Y-115688640D01*
X119604163Y-115869160D01*
X119661418Y-116041273D01*
X119665065Y-116047295D01*
X119665066Y-116047297D01*
X119708344Y-116118757D01*
X119755380Y-116196424D01*
X119760269Y-116201487D01*
X119760270Y-116201488D01*
X119775357Y-116217111D01*
X119881382Y-116326902D01*
X120033159Y-116426222D01*
X120039763Y-116428678D01*
X120039765Y-116428679D01*
X120196558Y-116486990D01*
X120196560Y-116486990D01*
X120203168Y-116489448D01*
X120286995Y-116500633D01*
X120375980Y-116512507D01*
X120375984Y-116512507D01*
X120382961Y-116513438D01*
X120389972Y-116512800D01*
X120389976Y-116512800D01*
X120532459Y-116499832D01*
X120563600Y-116496998D01*
X120570302Y-116494820D01*
X120570304Y-116494820D01*
X120729409Y-116443124D01*
X120729412Y-116443123D01*
X120736108Y-116440947D01*
X120832241Y-116383640D01*
X135281463Y-116383640D01*
X135299163Y-116564160D01*
X135356418Y-116736273D01*
X135360065Y-116742295D01*
X135360066Y-116742297D01*
X135421129Y-116843124D01*
X135450380Y-116891424D01*
X135455269Y-116896487D01*
X135455270Y-116896488D01*
X135532121Y-116976068D01*
X135576382Y-117021902D01*
X135728159Y-117121222D01*
X135734763Y-117123678D01*
X135734765Y-117123679D01*
X135891558Y-117181990D01*
X135891560Y-117181990D01*
X135898168Y-117184448D01*
X135974432Y-117194624D01*
X136070980Y-117207507D01*
X136070984Y-117207507D01*
X136077961Y-117208438D01*
X136084972Y-117207800D01*
X136084976Y-117207800D01*
X136229746Y-117194624D01*
X136258600Y-117191998D01*
X136265302Y-117189820D01*
X136265304Y-117189820D01*
X136424409Y-117138124D01*
X136424412Y-117138123D01*
X136431108Y-117135947D01*
X136586912Y-117043069D01*
X136718266Y-116917982D01*
X136818643Y-116766902D01*
X136873314Y-116622982D01*
X136880555Y-116603920D01*
X136880556Y-116603918D01*
X136883055Y-116597338D01*
X136884035Y-116590366D01*
X136907748Y-116421639D01*
X136907748Y-116421636D01*
X136908299Y-116417717D01*
X136908452Y-116406738D01*
X136908561Y-116398962D01*
X136908561Y-116398957D01*
X136908616Y-116395000D01*
X136888397Y-116214745D01*
X136886080Y-116208091D01*
X136844483Y-116088640D01*
X143986463Y-116088640D01*
X144004163Y-116269160D01*
X144061418Y-116441273D01*
X144065065Y-116447295D01*
X144065066Y-116447297D01*
X144131596Y-116557151D01*
X144155380Y-116596424D01*
X144160269Y-116601487D01*
X144160270Y-116601488D01*
X144194892Y-116637340D01*
X144281382Y-116726902D01*
X144433159Y-116826222D01*
X144439763Y-116828678D01*
X144439765Y-116828679D01*
X144596558Y-116886990D01*
X144596560Y-116886990D01*
X144603168Y-116889448D01*
X144686995Y-116900633D01*
X144775980Y-116912507D01*
X144775984Y-116912507D01*
X144782961Y-116913438D01*
X144789972Y-116912800D01*
X144789976Y-116912800D01*
X144932459Y-116899832D01*
X144963600Y-116896998D01*
X144970302Y-116894820D01*
X144970304Y-116894820D01*
X145129409Y-116843124D01*
X145129412Y-116843123D01*
X145136108Y-116840947D01*
X145250471Y-116772773D01*
X145285860Y-116751677D01*
X145285862Y-116751676D01*
X145291912Y-116748069D01*
X145423266Y-116622982D01*
X145523643Y-116471902D01*
X145572529Y-116343211D01*
X145585555Y-116308920D01*
X145585556Y-116308918D01*
X145588055Y-116302338D01*
X145589035Y-116295366D01*
X145612748Y-116126639D01*
X145612748Y-116126636D01*
X145613299Y-116122717D01*
X145613616Y-116100000D01*
X145593397Y-115919745D01*
X145591080Y-115913091D01*
X145536064Y-115755106D01*
X145536062Y-115755103D01*
X145533745Y-115748448D01*
X145479328Y-115661362D01*
X145441359Y-115600598D01*
X145437626Y-115594624D01*
X145408355Y-115565148D01*
X145314778Y-115470915D01*
X145314774Y-115470912D01*
X145309815Y-115465918D01*
X145298697Y-115458862D01*
X145250538Y-115428300D01*
X145156666Y-115368727D01*
X145099716Y-115348448D01*
X144992425Y-115310243D01*
X144992420Y-115310242D01*
X144985790Y-115307881D01*
X144978802Y-115307048D01*
X144978799Y-115307047D01*
X144855698Y-115292368D01*
X144805680Y-115286404D01*
X144798677Y-115287140D01*
X144798676Y-115287140D01*
X144632288Y-115304628D01*
X144632286Y-115304629D01*
X144625288Y-115305364D01*
X144453579Y-115363818D01*
X144417895Y-115385771D01*
X144305095Y-115455166D01*
X144305092Y-115455168D01*
X144299088Y-115458862D01*
X144294053Y-115463793D01*
X144294050Y-115463795D01*
X144190552Y-115565148D01*
X144169493Y-115585771D01*
X144071235Y-115738238D01*
X144068826Y-115744858D01*
X144068824Y-115744861D01*
X144019725Y-115879760D01*
X144009197Y-115908685D01*
X143986463Y-116088640D01*
X136844483Y-116088640D01*
X136831064Y-116050106D01*
X136831062Y-116050103D01*
X136828745Y-116043448D01*
X136732626Y-115889624D01*
X136727664Y-115884627D01*
X136609778Y-115765915D01*
X136609774Y-115765912D01*
X136604815Y-115760918D01*
X136593697Y-115753862D01*
X136544620Y-115722717D01*
X136451666Y-115663727D01*
X136422463Y-115653328D01*
X136287425Y-115605243D01*
X136287420Y-115605242D01*
X136280790Y-115602881D01*
X136273802Y-115602048D01*
X136273799Y-115602047D01*
X136137302Y-115585771D01*
X136100680Y-115581404D01*
X136093677Y-115582140D01*
X136093676Y-115582140D01*
X135927288Y-115599628D01*
X135927286Y-115599629D01*
X135920288Y-115600364D01*
X135748579Y-115658818D01*
X135711473Y-115681646D01*
X135600095Y-115750166D01*
X135600092Y-115750168D01*
X135594088Y-115753862D01*
X135589053Y-115758793D01*
X135589050Y-115758795D01*
X135471680Y-115873733D01*
X135464493Y-115880771D01*
X135366235Y-116033238D01*
X135363826Y-116039858D01*
X135363824Y-116039861D01*
X135306606Y-116197066D01*
X135304197Y-116203685D01*
X135281463Y-116383640D01*
X120832241Y-116383640D01*
X120891912Y-116348069D01*
X121023266Y-116222982D01*
X121123643Y-116071902D01*
X121173322Y-115941122D01*
X121185555Y-115908920D01*
X121185556Y-115908918D01*
X121188055Y-115902338D01*
X121191704Y-115876376D01*
X121212748Y-115726639D01*
X121212748Y-115726636D01*
X121213299Y-115722717D01*
X121213616Y-115700000D01*
X121193397Y-115519745D01*
X121191080Y-115513091D01*
X121136064Y-115355106D01*
X121136062Y-115355103D01*
X121133745Y-115348448D01*
X121106823Y-115305364D01*
X121041359Y-115200598D01*
X121037626Y-115194624D01*
X121009561Y-115166362D01*
X120914778Y-115070915D01*
X120914774Y-115070912D01*
X120909815Y-115065918D01*
X120898697Y-115058862D01*
X120833545Y-115017516D01*
X120756666Y-114968727D01*
X120727463Y-114958328D01*
X120592425Y-114910243D01*
X120592420Y-114910242D01*
X120585790Y-114907881D01*
X120578802Y-114907048D01*
X120578799Y-114907047D01*
X120455698Y-114892368D01*
X120405680Y-114886404D01*
X120398677Y-114887140D01*
X120398676Y-114887140D01*
X120232288Y-114904628D01*
X120232286Y-114904629D01*
X120225288Y-114905364D01*
X120053579Y-114963818D01*
X120047575Y-114967512D01*
X119905095Y-115055166D01*
X119905092Y-115055168D01*
X119899088Y-115058862D01*
X119894053Y-115063793D01*
X119894050Y-115063795D01*
X119774525Y-115180843D01*
X119769493Y-115185771D01*
X119671235Y-115338238D01*
X119668826Y-115344858D01*
X119668824Y-115344861D01*
X119628676Y-115455166D01*
X119609197Y-115508685D01*
X119586463Y-115688640D01*
X115282565Y-115688640D01*
X115236064Y-115555106D01*
X115236062Y-115555103D01*
X115233745Y-115548448D01*
X115186633Y-115473052D01*
X115141359Y-115400598D01*
X115137626Y-115394624D01*
X115109561Y-115366362D01*
X115014778Y-115270915D01*
X115014774Y-115270912D01*
X115009815Y-115265918D01*
X114998697Y-115258862D01*
X114950538Y-115228300D01*
X114856666Y-115168727D01*
X114827463Y-115158328D01*
X114692425Y-115110243D01*
X114692420Y-115110242D01*
X114685790Y-115107881D01*
X114678802Y-115107048D01*
X114678799Y-115107047D01*
X114555698Y-115092368D01*
X114505680Y-115086404D01*
X114498677Y-115087140D01*
X114498676Y-115087140D01*
X114332288Y-115104628D01*
X114332286Y-115104629D01*
X114325288Y-115105364D01*
X114153579Y-115163818D01*
X114117895Y-115185771D01*
X114005095Y-115255166D01*
X114005092Y-115255168D01*
X113999088Y-115258862D01*
X113994053Y-115263793D01*
X113994050Y-115263795D01*
X113874525Y-115380843D01*
X113869493Y-115385771D01*
X113771235Y-115538238D01*
X113768826Y-115544858D01*
X113768824Y-115544861D01*
X113725560Y-115663727D01*
X113709197Y-115708685D01*
X113686463Y-115888640D01*
X107500666Y-115888640D01*
X107499071Y-112363640D01*
X108011463Y-112363640D01*
X108029163Y-112544160D01*
X108086418Y-112716273D01*
X108090065Y-112722295D01*
X108090066Y-112722297D01*
X108170498Y-112855106D01*
X108180380Y-112871424D01*
X108185269Y-112876487D01*
X108185270Y-112876488D01*
X108210719Y-112902841D01*
X108306382Y-113001902D01*
X108338729Y-113023069D01*
X108441623Y-113090401D01*
X108458159Y-113101222D01*
X108464763Y-113103678D01*
X108464765Y-113103679D01*
X108621558Y-113161990D01*
X108621560Y-113161990D01*
X108628168Y-113164448D01*
X108711995Y-113175633D01*
X108800980Y-113187507D01*
X108800984Y-113187507D01*
X108807961Y-113188438D01*
X108814972Y-113187800D01*
X108814976Y-113187800D01*
X108957459Y-113174832D01*
X108988600Y-113171998D01*
X108995302Y-113169820D01*
X108995304Y-113169820D01*
X109154409Y-113118124D01*
X109154412Y-113118123D01*
X109161108Y-113115947D01*
X109274974Y-113048069D01*
X109310860Y-113026677D01*
X109310862Y-113026676D01*
X109316912Y-113023069D01*
X109448266Y-112897982D01*
X109548643Y-112746902D01*
X109599584Y-112612800D01*
X109610555Y-112583920D01*
X109610556Y-112583918D01*
X109613055Y-112577338D01*
X109614958Y-112563795D01*
X109637748Y-112401639D01*
X109637748Y-112401636D01*
X109638299Y-112397717D01*
X109638616Y-112375000D01*
X109618397Y-112194745D01*
X109616080Y-112188091D01*
X109561064Y-112030106D01*
X109561062Y-112030103D01*
X109558745Y-112023448D01*
X109544093Y-112000000D01*
X109466359Y-111875598D01*
X109462626Y-111869624D01*
X109427093Y-111833842D01*
X109339778Y-111745915D01*
X109339774Y-111745912D01*
X109334815Y-111740918D01*
X109323697Y-111733862D01*
X109273693Y-111702129D01*
X109181666Y-111643727D01*
X109133972Y-111626744D01*
X109017425Y-111585243D01*
X109017420Y-111585242D01*
X109010790Y-111582881D01*
X109003802Y-111582048D01*
X109003799Y-111582047D01*
X108880698Y-111567368D01*
X108830680Y-111561404D01*
X108823677Y-111562140D01*
X108823676Y-111562140D01*
X108657288Y-111579628D01*
X108657286Y-111579629D01*
X108650288Y-111580364D01*
X108478579Y-111638818D01*
X108441634Y-111661547D01*
X108330095Y-111730166D01*
X108330092Y-111730168D01*
X108324088Y-111733862D01*
X108319053Y-111738793D01*
X108319050Y-111738795D01*
X108240877Y-111815348D01*
X108194493Y-111860771D01*
X108096235Y-112013238D01*
X108093826Y-112019858D01*
X108093824Y-112019861D01*
X108040576Y-112166158D01*
X108034197Y-112183685D01*
X108011463Y-112363640D01*
X107499071Y-112363640D01*
X107498585Y-111288640D01*
X111386463Y-111288640D01*
X111404163Y-111469160D01*
X111461418Y-111641273D01*
X111465065Y-111647295D01*
X111465066Y-111647297D01*
X111551720Y-111790380D01*
X111555380Y-111796424D01*
X111560269Y-111801487D01*
X111560270Y-111801488D01*
X111612761Y-111855843D01*
X111681382Y-111926902D01*
X111712589Y-111947323D01*
X111803452Y-112006782D01*
X111833159Y-112026222D01*
X111993547Y-112085870D01*
X112050419Y-112128360D01*
X112075293Y-112194856D01*
X112068024Y-112247060D01*
X112011762Y-112401639D01*
X112009197Y-112408685D01*
X111986463Y-112588640D01*
X112004163Y-112769160D01*
X112061418Y-112941273D01*
X112065065Y-112947295D01*
X112065066Y-112947297D01*
X112136676Y-113065539D01*
X112155380Y-113096424D01*
X112160269Y-113101487D01*
X112160270Y-113101488D01*
X112218697Y-113161990D01*
X112281382Y-113226902D01*
X112433159Y-113326222D01*
X112439763Y-113328678D01*
X112439765Y-113328679D01*
X112596558Y-113386990D01*
X112596560Y-113386990D01*
X112603168Y-113389448D01*
X112686995Y-113400633D01*
X112775980Y-113412507D01*
X112775984Y-113412507D01*
X112782961Y-113413438D01*
X112789972Y-113412800D01*
X112789976Y-113412800D01*
X112932459Y-113399832D01*
X112963600Y-113396998D01*
X112970302Y-113394820D01*
X112970304Y-113394820D01*
X113129409Y-113343124D01*
X113129412Y-113343123D01*
X113136108Y-113340947D01*
X113232513Y-113283478D01*
X113285860Y-113251677D01*
X113285862Y-113251676D01*
X113291912Y-113248069D01*
X113354318Y-113188640D01*
X121686463Y-113188640D01*
X121704163Y-113369160D01*
X121761418Y-113541273D01*
X121765065Y-113547295D01*
X121765066Y-113547297D01*
X121775978Y-113565314D01*
X121855380Y-113696424D01*
X121860269Y-113701487D01*
X121860270Y-113701488D01*
X121875357Y-113717111D01*
X121981382Y-113826902D01*
X122133159Y-113926222D01*
X122139763Y-113928678D01*
X122139765Y-113928679D01*
X122296558Y-113986990D01*
X122296560Y-113986990D01*
X122303168Y-113989448D01*
X122386995Y-114000633D01*
X122475980Y-114012507D01*
X122475984Y-114012507D01*
X122482961Y-114013438D01*
X122489972Y-114012800D01*
X122489976Y-114012800D01*
X122632459Y-113999832D01*
X122663600Y-113996998D01*
X122670302Y-113994820D01*
X122670304Y-113994820D01*
X122829409Y-113943124D01*
X122829412Y-113943123D01*
X122836108Y-113940947D01*
X122991912Y-113848069D01*
X123123266Y-113722982D01*
X123223643Y-113571902D01*
X123275704Y-113434852D01*
X123285555Y-113408920D01*
X123285556Y-113408918D01*
X123288055Y-113402338D01*
X123291170Y-113380174D01*
X123312748Y-113226639D01*
X123312748Y-113226636D01*
X123313299Y-113222717D01*
X123313616Y-113200000D01*
X123293397Y-113019745D01*
X123291080Y-113013091D01*
X123236064Y-112855106D01*
X123236062Y-112855103D01*
X123233745Y-112848448D01*
X123211287Y-112812507D01*
X123141359Y-112700598D01*
X123137626Y-112694624D01*
X123057005Y-112613438D01*
X123014778Y-112570915D01*
X123014774Y-112570912D01*
X123009815Y-112565918D01*
X122998697Y-112558862D01*
X122918317Y-112507852D01*
X122856666Y-112468727D01*
X122808784Y-112451677D01*
X122692425Y-112410243D01*
X122692420Y-112410242D01*
X122685790Y-112407881D01*
X122678802Y-112407048D01*
X122678799Y-112407047D01*
X122524431Y-112388640D01*
X135386463Y-112388640D01*
X135404163Y-112569160D01*
X135461418Y-112741273D01*
X135465065Y-112747295D01*
X135465066Y-112747297D01*
X135540240Y-112871424D01*
X135555380Y-112896424D01*
X135560269Y-112901487D01*
X135560270Y-112901488D01*
X135575357Y-112917111D01*
X135681382Y-113026902D01*
X135735872Y-113062559D01*
X135824018Y-113120240D01*
X135833159Y-113126222D01*
X135839763Y-113128678D01*
X135839765Y-113128679D01*
X135996558Y-113186990D01*
X135996560Y-113186990D01*
X136003168Y-113189448D01*
X136082250Y-113200000D01*
X136175980Y-113212507D01*
X136175984Y-113212507D01*
X136182961Y-113213438D01*
X136189972Y-113212800D01*
X136189976Y-113212800D01*
X136332459Y-113199832D01*
X136363600Y-113196998D01*
X136370302Y-113194820D01*
X136370304Y-113194820D01*
X136529409Y-113143124D01*
X136529412Y-113143123D01*
X136536108Y-113140947D01*
X136691912Y-113048069D01*
X136823266Y-112922982D01*
X136923643Y-112771902D01*
X136972529Y-112643211D01*
X136985555Y-112608920D01*
X136985556Y-112608918D01*
X136988055Y-112602338D01*
X136990212Y-112586990D01*
X137012748Y-112426639D01*
X137012748Y-112426636D01*
X137013299Y-112422717D01*
X137013506Y-112407881D01*
X137013561Y-112403962D01*
X137013561Y-112403957D01*
X137013616Y-112400000D01*
X136993397Y-112219745D01*
X136991080Y-112213091D01*
X136936064Y-112055106D01*
X136936062Y-112055103D01*
X136933745Y-112048448D01*
X136837626Y-111894624D01*
X136823941Y-111880843D01*
X136714778Y-111770915D01*
X136714774Y-111770912D01*
X136709815Y-111765918D01*
X136698697Y-111758862D01*
X136641185Y-111722364D01*
X136556666Y-111668727D01*
X136499716Y-111648448D01*
X136392425Y-111610243D01*
X136392420Y-111610242D01*
X136385790Y-111607881D01*
X136378802Y-111607048D01*
X136378799Y-111607047D01*
X136239023Y-111590380D01*
X136205680Y-111586404D01*
X136198677Y-111587140D01*
X136198676Y-111587140D01*
X136032288Y-111604628D01*
X136032286Y-111604629D01*
X136025288Y-111605364D01*
X135853579Y-111663818D01*
X135847575Y-111667512D01*
X135705095Y-111755166D01*
X135705092Y-111755168D01*
X135699088Y-111758862D01*
X135694053Y-111763793D01*
X135694050Y-111763795D01*
X135579881Y-111875598D01*
X135569493Y-111885771D01*
X135471235Y-112038238D01*
X135468826Y-112044858D01*
X135468824Y-112044861D01*
X135415752Y-112190675D01*
X135409197Y-112208685D01*
X135386463Y-112388640D01*
X122524431Y-112388640D01*
X122505680Y-112386404D01*
X122498677Y-112387140D01*
X122498676Y-112387140D01*
X122332288Y-112404628D01*
X122332286Y-112404629D01*
X122325288Y-112405364D01*
X122153579Y-112463818D01*
X122147575Y-112467512D01*
X122005095Y-112555166D01*
X122005092Y-112555168D01*
X121999088Y-112558862D01*
X121994053Y-112563793D01*
X121994050Y-112563795D01*
X121874525Y-112680843D01*
X121869493Y-112685771D01*
X121771235Y-112838238D01*
X121768826Y-112844858D01*
X121768824Y-112844861D01*
X121723604Y-112969102D01*
X121709197Y-113008685D01*
X121686463Y-113188640D01*
X113354318Y-113188640D01*
X113423266Y-113122982D01*
X113437724Y-113101222D01*
X113450430Y-113082097D01*
X113504788Y-113036426D01*
X113575207Y-113027394D01*
X113624367Y-113046390D01*
X113708159Y-113101222D01*
X113714763Y-113103678D01*
X113714765Y-113103679D01*
X113871558Y-113161990D01*
X113871560Y-113161990D01*
X113878168Y-113164448D01*
X113961995Y-113175633D01*
X114050980Y-113187507D01*
X114050984Y-113187507D01*
X114057961Y-113188438D01*
X114064972Y-113187800D01*
X114064976Y-113187800D01*
X114207459Y-113174832D01*
X114238600Y-113171998D01*
X114245302Y-113169820D01*
X114245304Y-113169820D01*
X114404409Y-113118124D01*
X114404412Y-113118123D01*
X114411108Y-113115947D01*
X114524974Y-113048069D01*
X114560860Y-113026677D01*
X114560862Y-113026676D01*
X114566912Y-113023069D01*
X114698266Y-112897982D01*
X114729477Y-112851005D01*
X114783832Y-112805338D01*
X114851088Y-112795842D01*
X114975980Y-112812507D01*
X114975984Y-112812507D01*
X114982961Y-112813438D01*
X114989972Y-112812800D01*
X114989976Y-112812800D01*
X115132459Y-112799832D01*
X115163600Y-112796998D01*
X115170302Y-112794820D01*
X115170304Y-112794820D01*
X115329409Y-112743124D01*
X115329412Y-112743123D01*
X115336108Y-112740947D01*
X115491912Y-112648069D01*
X115623266Y-112522982D01*
X115723643Y-112371902D01*
X115782989Y-112215675D01*
X115785555Y-112208920D01*
X115785556Y-112208918D01*
X115788055Y-112202338D01*
X115790057Y-112188091D01*
X115812748Y-112026639D01*
X115812748Y-112026636D01*
X115813299Y-112022717D01*
X115813514Y-112007312D01*
X115813561Y-112003962D01*
X115813561Y-112003957D01*
X115813616Y-112000000D01*
X115793397Y-111819745D01*
X115791080Y-111813091D01*
X115736064Y-111655106D01*
X115736062Y-111655103D01*
X115733745Y-111648448D01*
X115727728Y-111638818D01*
X115641359Y-111500598D01*
X115637626Y-111494624D01*
X115594978Y-111451677D01*
X115514778Y-111370915D01*
X115514774Y-111370912D01*
X115509815Y-111365918D01*
X115498697Y-111358862D01*
X115435501Y-111318757D01*
X115356666Y-111268727D01*
X115327463Y-111258328D01*
X115192425Y-111210243D01*
X115192420Y-111210242D01*
X115185790Y-111207881D01*
X115178802Y-111207048D01*
X115178799Y-111207047D01*
X115039023Y-111190380D01*
X115005680Y-111186404D01*
X114998677Y-111187140D01*
X114998676Y-111187140D01*
X114832288Y-111204628D01*
X114832286Y-111204629D01*
X114825288Y-111205364D01*
X114653579Y-111263818D01*
X114624769Y-111281542D01*
X114505095Y-111355166D01*
X114505092Y-111355168D01*
X114499088Y-111358862D01*
X114494053Y-111363793D01*
X114494050Y-111363795D01*
X114379630Y-111475844D01*
X114369493Y-111485771D01*
X114346269Y-111521808D01*
X114292557Y-111568231D01*
X114225441Y-111578666D01*
X114080680Y-111561404D01*
X114073677Y-111562140D01*
X114073676Y-111562140D01*
X113907288Y-111579628D01*
X113907286Y-111579629D01*
X113900288Y-111580364D01*
X113728579Y-111638818D01*
X113691634Y-111661547D01*
X113580095Y-111730166D01*
X113580092Y-111730168D01*
X113574088Y-111733862D01*
X113569053Y-111738793D01*
X113569050Y-111738795D01*
X113490877Y-111815348D01*
X113444493Y-111860771D01*
X113425086Y-111890885D01*
X113371372Y-111937308D01*
X113301086Y-111947323D01*
X113251662Y-111929013D01*
X113197473Y-111894624D01*
X113156666Y-111868727D01*
X113038469Y-111826639D01*
X113006760Y-111815348D01*
X112949296Y-111773654D01*
X112923496Y-111707511D01*
X112931239Y-111651905D01*
X112932990Y-111647297D01*
X112988055Y-111502338D01*
X112989487Y-111492148D01*
X113012748Y-111326639D01*
X113012748Y-111326636D01*
X113013299Y-111322717D01*
X113013616Y-111300000D01*
X112993397Y-111119745D01*
X112991080Y-111113091D01*
X112936064Y-110955106D01*
X112936062Y-110955103D01*
X112933745Y-110948448D01*
X112888710Y-110876376D01*
X112841359Y-110800598D01*
X112837626Y-110794624D01*
X112828835Y-110785771D01*
X112714778Y-110670915D01*
X112714774Y-110670912D01*
X112709815Y-110665918D01*
X112698697Y-110658862D01*
X112630644Y-110615675D01*
X112556666Y-110568727D01*
X112527463Y-110558328D01*
X112392425Y-110510243D01*
X112392420Y-110510242D01*
X112385790Y-110507881D01*
X112378802Y-110507048D01*
X112378799Y-110507047D01*
X112255698Y-110492368D01*
X112205680Y-110486404D01*
X112198677Y-110487140D01*
X112198676Y-110487140D01*
X112032288Y-110504628D01*
X112032286Y-110504629D01*
X112025288Y-110505364D01*
X111853579Y-110563818D01*
X111847575Y-110567512D01*
X111705095Y-110655166D01*
X111705092Y-110655168D01*
X111699088Y-110658862D01*
X111694053Y-110663793D01*
X111694050Y-110663795D01*
X111577660Y-110777773D01*
X111569493Y-110785771D01*
X111471235Y-110938238D01*
X111468826Y-110944858D01*
X111468824Y-110944861D01*
X111422365Y-111072506D01*
X111409197Y-111108685D01*
X111386463Y-111288640D01*
X107498585Y-111288640D01*
X107498178Y-110388640D01*
X126816463Y-110388640D01*
X126834163Y-110569160D01*
X126891418Y-110741273D01*
X126895065Y-110747295D01*
X126895066Y-110747297D01*
X126973239Y-110876376D01*
X126985380Y-110896424D01*
X126990269Y-110901487D01*
X126990270Y-110901488D01*
X127028545Y-110941122D01*
X127111382Y-111026902D01*
X127151933Y-111053438D01*
X127243093Y-111113091D01*
X127263159Y-111126222D01*
X127269763Y-111128678D01*
X127269765Y-111128679D01*
X127426558Y-111186990D01*
X127426560Y-111186990D01*
X127433168Y-111189448D01*
X127516995Y-111200633D01*
X127605980Y-111212507D01*
X127605984Y-111212507D01*
X127612961Y-111213438D01*
X127619972Y-111212800D01*
X127619976Y-111212800D01*
X127762459Y-111199832D01*
X127793600Y-111196998D01*
X127800302Y-111194820D01*
X127800304Y-111194820D01*
X127959409Y-111143124D01*
X127959412Y-111143123D01*
X127966108Y-111140947D01*
X128089296Y-111067512D01*
X128115860Y-111051677D01*
X128115862Y-111051676D01*
X128121912Y-111048069D01*
X128184318Y-110988640D01*
X129686463Y-110988640D01*
X129704163Y-111169160D01*
X129761418Y-111341273D01*
X129765065Y-111347295D01*
X129765066Y-111347297D01*
X129851264Y-111489627D01*
X129855380Y-111496424D01*
X129860269Y-111501487D01*
X129860270Y-111501488D01*
X129894892Y-111537340D01*
X129981382Y-111626902D01*
X130012549Y-111647297D01*
X130104566Y-111707511D01*
X130133159Y-111726222D01*
X130139763Y-111728678D01*
X130139765Y-111728679D01*
X130296558Y-111786990D01*
X130296560Y-111786990D01*
X130303168Y-111789448D01*
X130382250Y-111800000D01*
X130475980Y-111812507D01*
X130475984Y-111812507D01*
X130482961Y-111813438D01*
X130489972Y-111812800D01*
X130489976Y-111812800D01*
X130632459Y-111799832D01*
X130663600Y-111796998D01*
X130670302Y-111794820D01*
X130670304Y-111794820D01*
X130829409Y-111743124D01*
X130829412Y-111743123D01*
X130836108Y-111740947D01*
X130959296Y-111667512D01*
X130985860Y-111651677D01*
X130985862Y-111651676D01*
X130991912Y-111648069D01*
X131123266Y-111522982D01*
X131223643Y-111371902D01*
X131265563Y-111261547D01*
X131285555Y-111208920D01*
X131285556Y-111208918D01*
X131288055Y-111202338D01*
X131290295Y-111186404D01*
X131294643Y-111155463D01*
X131323932Y-111090790D01*
X131383536Y-111052217D01*
X131407996Y-111047519D01*
X131523600Y-111036998D01*
X131530302Y-111034820D01*
X131530304Y-111034820D01*
X131689409Y-110983124D01*
X131689412Y-110983123D01*
X131696108Y-110980947D01*
X131803194Y-110917111D01*
X131845860Y-110891677D01*
X131845862Y-110891676D01*
X131851912Y-110888069D01*
X131956323Y-110788640D01*
X142386463Y-110788640D01*
X142404163Y-110969160D01*
X142461418Y-111141273D01*
X142465065Y-111147295D01*
X142465066Y-111147297D01*
X142551264Y-111289627D01*
X142555380Y-111296424D01*
X142560269Y-111301487D01*
X142560270Y-111301488D01*
X142620440Y-111363795D01*
X142681382Y-111426902D01*
X142705171Y-111442469D01*
X142826411Y-111521806D01*
X142833159Y-111526222D01*
X142839763Y-111528678D01*
X142839765Y-111528679D01*
X142996558Y-111586990D01*
X142996560Y-111586990D01*
X143003168Y-111589448D01*
X143086995Y-111600633D01*
X143175980Y-111612507D01*
X143175984Y-111612507D01*
X143182961Y-111613438D01*
X143189972Y-111612800D01*
X143189976Y-111612800D01*
X143332459Y-111599832D01*
X143363600Y-111596998D01*
X143370302Y-111594820D01*
X143370304Y-111594820D01*
X143529409Y-111543124D01*
X143529412Y-111543123D01*
X143536108Y-111540947D01*
X143656532Y-111469160D01*
X143685860Y-111451677D01*
X143685862Y-111451676D01*
X143691912Y-111448069D01*
X143724902Y-111416653D01*
X143788027Y-111384161D01*
X143858698Y-111390954D01*
X143914477Y-111434877D01*
X143937655Y-111501983D01*
X143930195Y-111550994D01*
X143915860Y-111590380D01*
X143909197Y-111608685D01*
X143886463Y-111788640D01*
X143904163Y-111969160D01*
X143961418Y-112141273D01*
X143965065Y-112147295D01*
X143965066Y-112147297D01*
X144049966Y-112287484D01*
X144055380Y-112296424D01*
X144181382Y-112426902D01*
X144187278Y-112430760D01*
X144312876Y-112512949D01*
X144333159Y-112526222D01*
X144339763Y-112528678D01*
X144339765Y-112528679D01*
X144496558Y-112586990D01*
X144496560Y-112586990D01*
X144503168Y-112589448D01*
X144586995Y-112600633D01*
X144675980Y-112612507D01*
X144675984Y-112612507D01*
X144682961Y-112613438D01*
X144689972Y-112612800D01*
X144689976Y-112612800D01*
X144832459Y-112599832D01*
X144863600Y-112596998D01*
X144870302Y-112594820D01*
X144870304Y-112594820D01*
X145029409Y-112543124D01*
X145029412Y-112543123D01*
X145036108Y-112540947D01*
X145159296Y-112467512D01*
X145185860Y-112451677D01*
X145185862Y-112451676D01*
X145191912Y-112448069D01*
X145323266Y-112322982D01*
X145423643Y-112171902D01*
X145477507Y-112030106D01*
X145485555Y-112008920D01*
X145485556Y-112008918D01*
X145488055Y-112002338D01*
X145489035Y-111995366D01*
X145497410Y-111935774D01*
X151513102Y-111935774D01*
X151513302Y-111941103D01*
X151513302Y-111941105D01*
X151517197Y-112044861D01*
X151521751Y-112166158D01*
X151569093Y-112391791D01*
X151571051Y-112396750D01*
X151571052Y-112396752D01*
X151650134Y-112596998D01*
X151653776Y-112606221D01*
X151773377Y-112803317D01*
X151776874Y-112807347D01*
X151893089Y-112941273D01*
X151924477Y-112977445D01*
X151959010Y-113005760D01*
X152098627Y-113120240D01*
X152098633Y-113120244D01*
X152102755Y-113123624D01*
X152107398Y-113126267D01*
X152134735Y-113141829D01*
X152184041Y-113192912D01*
X152197902Y-113262542D01*
X152171918Y-113328613D01*
X152142768Y-113355851D01*
X152025422Y-113434852D01*
X152017130Y-113441519D01*
X151858100Y-113593228D01*
X151851059Y-113601186D01*
X151719859Y-113777525D01*
X151714255Y-113786562D01*
X151614643Y-113982484D01*
X151610643Y-113992335D01*
X151545466Y-114202240D01*
X151543183Y-114212624D01*
X151541139Y-114228043D01*
X151543335Y-114242207D01*
X151556522Y-114246000D01*
X154441192Y-114246000D01*
X154454723Y-114242027D01*
X154456248Y-114231420D01*
X154431523Y-114113579D01*
X154428463Y-114103383D01*
X154347737Y-113898971D01*
X154343006Y-113889439D01*
X154228984Y-113701538D01*
X154222720Y-113692948D01*
X154078673Y-113526948D01*
X154071042Y-113519528D01*
X153901089Y-113380174D01*
X153892326Y-113374152D01*
X153865289Y-113358762D01*
X153815982Y-113307680D01*
X153802120Y-113238049D01*
X153828103Y-113171978D01*
X153857253Y-113144739D01*
X153918241Y-113103679D01*
X153979319Y-113062559D01*
X153990727Y-113051677D01*
X154106459Y-112941273D01*
X154146135Y-112903424D01*
X154283754Y-112718458D01*
X154292835Y-112700598D01*
X154350596Y-112586990D01*
X154388240Y-112512949D01*
X154401972Y-112468727D01*
X154455024Y-112297871D01*
X154456607Y-112292773D01*
X154466286Y-112219745D01*
X154486198Y-112069511D01*
X154486198Y-112069506D01*
X154486898Y-112064226D01*
X154485327Y-112022364D01*
X154480343Y-111889627D01*
X154478249Y-111833842D01*
X154430907Y-111608209D01*
X154426480Y-111596998D01*
X154348185Y-111398744D01*
X154348184Y-111398742D01*
X154346224Y-111393779D01*
X154336512Y-111377773D01*
X154231444Y-111204628D01*
X154226623Y-111196683D01*
X154172742Y-111134590D01*
X154079023Y-111026588D01*
X154079021Y-111026586D01*
X154075523Y-111022555D01*
X154031434Y-110986404D01*
X153901373Y-110879760D01*
X153901367Y-110879756D01*
X153897245Y-110876376D01*
X153865750Y-110858448D01*
X153816445Y-110807368D01*
X153802583Y-110737738D01*
X153828566Y-110671667D01*
X153857716Y-110644427D01*
X153894377Y-110619745D01*
X153979319Y-110562559D01*
X154146135Y-110403424D01*
X154151613Y-110396062D01*
X154250288Y-110263438D01*
X154283754Y-110218458D01*
X154290412Y-110205364D01*
X154353763Y-110080760D01*
X154388240Y-110012949D01*
X154390596Y-110005364D01*
X154455024Y-109797871D01*
X154456607Y-109792773D01*
X154460667Y-109762143D01*
X154486198Y-109569511D01*
X154486198Y-109569506D01*
X154486898Y-109564226D01*
X154484815Y-109508727D01*
X154478449Y-109339173D01*
X154478249Y-109333842D01*
X154430907Y-109108209D01*
X154365146Y-108941693D01*
X154348185Y-108898744D01*
X154348184Y-108898742D01*
X154346224Y-108893779D01*
X154297689Y-108813795D01*
X154239262Y-108717512D01*
X154226623Y-108696683D01*
X154195002Y-108660243D01*
X154079023Y-108526588D01*
X154079021Y-108526586D01*
X154075523Y-108522555D01*
X154033970Y-108488484D01*
X153901373Y-108379760D01*
X153901367Y-108379756D01*
X153897245Y-108376376D01*
X153865750Y-108358448D01*
X153816445Y-108307368D01*
X153802583Y-108237738D01*
X153828566Y-108171667D01*
X153857716Y-108144427D01*
X153893642Y-108120240D01*
X153979319Y-108062559D01*
X153989119Y-108053211D01*
X154055959Y-107989448D01*
X154146135Y-107903424D01*
X154156534Y-107889448D01*
X154280568Y-107722740D01*
X154283754Y-107718458D01*
X154388240Y-107512949D01*
X154412572Y-107434590D01*
X154455024Y-107297871D01*
X154456607Y-107292773D01*
X154465500Y-107225675D01*
X154486198Y-107069511D01*
X154486198Y-107069506D01*
X154486898Y-107064226D01*
X154486547Y-107054861D01*
X154478449Y-106839173D01*
X154478249Y-106833842D01*
X154463840Y-106765166D01*
X154432002Y-106613428D01*
X154430907Y-106608209D01*
X154427901Y-106600598D01*
X154348185Y-106398744D01*
X154348184Y-106398742D01*
X154346224Y-106393779D01*
X154342196Y-106387140D01*
X154229390Y-106201243D01*
X154226623Y-106196683D01*
X154169418Y-106130760D01*
X154079023Y-106026588D01*
X154079021Y-106026586D01*
X154075523Y-106022555D01*
X154039880Y-105993330D01*
X153999886Y-105934671D01*
X153997954Y-105863701D01*
X154034698Y-105802952D01*
X154053468Y-105788752D01*
X154193120Y-105702332D01*
X154199348Y-105698478D01*
X154324305Y-105573303D01*
X154371917Y-105496062D01*
X154413275Y-105428968D01*
X154413276Y-105428966D01*
X154417115Y-105422738D01*
X154453483Y-105313091D01*
X154470632Y-105261389D01*
X154470632Y-105261387D01*
X154472797Y-105254861D01*
X154483500Y-105150400D01*
X154483500Y-103849600D01*
X154483163Y-103846350D01*
X154473238Y-103750692D01*
X154473237Y-103750688D01*
X154472526Y-103743834D01*
X154466825Y-103726744D01*
X154418868Y-103583002D01*
X154416550Y-103576054D01*
X154323478Y-103425652D01*
X154317440Y-103419624D01*
X154203483Y-103305866D01*
X154198303Y-103300695D01*
X154192072Y-103296854D01*
X154053968Y-103211725D01*
X154053966Y-103211724D01*
X154047738Y-103207885D01*
X153929680Y-103168727D01*
X153886389Y-103154368D01*
X153886387Y-103154368D01*
X153879861Y-103152203D01*
X153873025Y-103151503D01*
X153873022Y-103151502D01*
X153829969Y-103147091D01*
X153775400Y-103141500D01*
X152224600Y-103141500D01*
X152221354Y-103141837D01*
X152221350Y-103141837D01*
X152125692Y-103151762D01*
X152125688Y-103151763D01*
X152118834Y-103152474D01*
X152112298Y-103154655D01*
X152112296Y-103154655D01*
X152058791Y-103172506D01*
X151951054Y-103208450D01*
X151800652Y-103301522D01*
X151675695Y-103426697D01*
X151671855Y-103432927D01*
X151671854Y-103432928D01*
X151588922Y-103567469D01*
X151582885Y-103577262D01*
X151566109Y-103627841D01*
X151529541Y-103738091D01*
X151527203Y-103745139D01*
X151516500Y-103849600D01*
X151516500Y-105150400D01*
X151527474Y-105256166D01*
X151583450Y-105423946D01*
X151676522Y-105574348D01*
X151801697Y-105699305D01*
X151947340Y-105789081D01*
X151994832Y-105841852D01*
X152006256Y-105911924D01*
X151977982Y-105977048D01*
X151968195Y-105987510D01*
X151935007Y-106019170D01*
X151853865Y-106096576D01*
X151716246Y-106281542D01*
X151713830Y-106286293D01*
X151713828Y-106286297D01*
X151700029Y-106313438D01*
X151611760Y-106487051D01*
X151610178Y-106492145D01*
X151610177Y-106492148D01*
X151551069Y-106682506D01*
X151543393Y-106707227D01*
X151542692Y-106712516D01*
X151514299Y-106926744D01*
X151513102Y-106935774D01*
X151521751Y-107166158D01*
X151569093Y-107391791D01*
X151571051Y-107396750D01*
X151571052Y-107396752D01*
X151645729Y-107585844D01*
X151653776Y-107606221D01*
X151656543Y-107610780D01*
X151656544Y-107610783D01*
X151739852Y-107748069D01*
X151773377Y-107803317D01*
X151776874Y-107807347D01*
X151892806Y-107940947D01*
X151924477Y-107977445D01*
X151945667Y-107994820D01*
X152098627Y-108120240D01*
X152098633Y-108120244D01*
X152102755Y-108123624D01*
X152134250Y-108141552D01*
X152183555Y-108192632D01*
X152197417Y-108262262D01*
X152171434Y-108328333D01*
X152142284Y-108355573D01*
X152020681Y-108437441D01*
X151853865Y-108596576D01*
X151850682Y-108600854D01*
X151810673Y-108654628D01*
X151716246Y-108781542D01*
X151713830Y-108786293D01*
X151713828Y-108786297D01*
X151664003Y-108884296D01*
X151611760Y-108987051D01*
X151610178Y-108992145D01*
X151610177Y-108992148D01*
X151548115Y-109192020D01*
X151543393Y-109207227D01*
X151542692Y-109212516D01*
X151514344Y-109426404D01*
X151513102Y-109435774D01*
X151513302Y-109441103D01*
X151513302Y-109441105D01*
X151513636Y-109450000D01*
X151521751Y-109666158D01*
X151522846Y-109671377D01*
X151543731Y-109770915D01*
X151569093Y-109891791D01*
X151571051Y-109896750D01*
X151571052Y-109896752D01*
X151650557Y-110098069D01*
X151653776Y-110106221D01*
X151656543Y-110110780D01*
X151656544Y-110110783D01*
X151715314Y-110207633D01*
X151773377Y-110303317D01*
X151776874Y-110307347D01*
X151899315Y-110448448D01*
X151924477Y-110477445D01*
X151941854Y-110491693D01*
X152098627Y-110620240D01*
X152098633Y-110620244D01*
X152102755Y-110623624D01*
X152134250Y-110641552D01*
X152183555Y-110692632D01*
X152197417Y-110762262D01*
X152171434Y-110828333D01*
X152142284Y-110855573D01*
X152020681Y-110937441D01*
X152016824Y-110941120D01*
X152016822Y-110941122D01*
X152002163Y-110955106D01*
X151853865Y-111096576D01*
X151716246Y-111281542D01*
X151713830Y-111286293D01*
X151713828Y-111286297D01*
X151675266Y-111362143D01*
X151611760Y-111487051D01*
X151610178Y-111492145D01*
X151610177Y-111492148D01*
X151560642Y-111651677D01*
X151543393Y-111707227D01*
X151542692Y-111712516D01*
X151514278Y-111926902D01*
X151513102Y-111935774D01*
X145497410Y-111935774D01*
X145512748Y-111826639D01*
X145512748Y-111826636D01*
X145513299Y-111822717D01*
X145513616Y-111800000D01*
X145493397Y-111619745D01*
X145491080Y-111613091D01*
X145436064Y-111455106D01*
X145436062Y-111455103D01*
X145433745Y-111448448D01*
X145417115Y-111421834D01*
X145341359Y-111300598D01*
X145337626Y-111294624D01*
X145328835Y-111285771D01*
X145214778Y-111170915D01*
X145214774Y-111170912D01*
X145209815Y-111165918D01*
X145198697Y-111158862D01*
X145130644Y-111115675D01*
X145056666Y-111068727D01*
X145027463Y-111058328D01*
X144892425Y-111010243D01*
X144892420Y-111010242D01*
X144885790Y-111007881D01*
X144878802Y-111007048D01*
X144878799Y-111007047D01*
X144724431Y-110988640D01*
X144705680Y-110986404D01*
X144698677Y-110987140D01*
X144698676Y-110987140D01*
X144532288Y-111004628D01*
X144532286Y-111004629D01*
X144525288Y-111005364D01*
X144353579Y-111063818D01*
X144347575Y-111067512D01*
X144205095Y-111155166D01*
X144205092Y-111155168D01*
X144199088Y-111158862D01*
X144194050Y-111163796D01*
X144177826Y-111179683D01*
X144115161Y-111213053D01*
X144044402Y-111207247D01*
X143988015Y-111164107D01*
X143963903Y-111097330D01*
X143971881Y-111044917D01*
X143988055Y-111002338D01*
X143990191Y-110987140D01*
X144012748Y-110826639D01*
X144012748Y-110826636D01*
X144013299Y-110822717D01*
X144013616Y-110800000D01*
X143993397Y-110619745D01*
X143990666Y-110611902D01*
X143936064Y-110455106D01*
X143936062Y-110455103D01*
X143933745Y-110448448D01*
X143877766Y-110358862D01*
X143841359Y-110300598D01*
X143837626Y-110294624D01*
X143809836Y-110266639D01*
X143714778Y-110170915D01*
X143714774Y-110170912D01*
X143709815Y-110165918D01*
X143698697Y-110158862D01*
X143608587Y-110101677D01*
X143556666Y-110068727D01*
X143512755Y-110053091D01*
X143392425Y-110010243D01*
X143392420Y-110010242D01*
X143385790Y-110007881D01*
X143378802Y-110007048D01*
X143378799Y-110007047D01*
X143255698Y-109992368D01*
X143205680Y-109986404D01*
X143198677Y-109987140D01*
X143198676Y-109987140D01*
X143032288Y-110004628D01*
X143032286Y-110004629D01*
X143025288Y-110005364D01*
X142853579Y-110063818D01*
X142805802Y-110093211D01*
X142705095Y-110155166D01*
X142705092Y-110155168D01*
X142699088Y-110158862D01*
X142694053Y-110163793D01*
X142694050Y-110163795D01*
X142589030Y-110266639D01*
X142569493Y-110285771D01*
X142471235Y-110438238D01*
X142468826Y-110444858D01*
X142468824Y-110444861D01*
X142423583Y-110569160D01*
X142409197Y-110608685D01*
X142386463Y-110788640D01*
X131956323Y-110788640D01*
X131983266Y-110762982D01*
X132083643Y-110611902D01*
X132148055Y-110442338D01*
X132153007Y-110407103D01*
X132172748Y-110266639D01*
X132172748Y-110266636D01*
X132173299Y-110262717D01*
X132173452Y-110251738D01*
X132173561Y-110243962D01*
X132173561Y-110243957D01*
X132173616Y-110240000D01*
X132153397Y-110059745D01*
X132151080Y-110053091D01*
X132096064Y-109895106D01*
X132096062Y-109895103D01*
X132093745Y-109888448D01*
X132020303Y-109770915D01*
X132001359Y-109740598D01*
X131997626Y-109734624D01*
X131934819Y-109671377D01*
X131874778Y-109610915D01*
X131874774Y-109610912D01*
X131869815Y-109605918D01*
X131858697Y-109598862D01*
X131795718Y-109558895D01*
X131716666Y-109508727D01*
X131687463Y-109498328D01*
X131552425Y-109450243D01*
X131552420Y-109450242D01*
X131545790Y-109447881D01*
X131538802Y-109447048D01*
X131538799Y-109447047D01*
X131468295Y-109438640D01*
X138136463Y-109438640D01*
X138154163Y-109619160D01*
X138211418Y-109791273D01*
X138215065Y-109797295D01*
X138215066Y-109797297D01*
X138275298Y-109896752D01*
X138305380Y-109946424D01*
X138310269Y-109951487D01*
X138310270Y-109951488D01*
X138344699Y-109987140D01*
X138431382Y-110076902D01*
X138437278Y-110080760D01*
X138564169Y-110163795D01*
X138583159Y-110176222D01*
X138589763Y-110178678D01*
X138589765Y-110178679D01*
X138746558Y-110236990D01*
X138746560Y-110236990D01*
X138753168Y-110239448D01*
X138836995Y-110250633D01*
X138925980Y-110262507D01*
X138925984Y-110262507D01*
X138932961Y-110263438D01*
X138939972Y-110262800D01*
X138939976Y-110262800D01*
X139082459Y-110249832D01*
X139113600Y-110246998D01*
X139120302Y-110244820D01*
X139120304Y-110244820D01*
X139279409Y-110193124D01*
X139279412Y-110193123D01*
X139286108Y-110190947D01*
X139441912Y-110098069D01*
X139573266Y-109972982D01*
X139673643Y-109821902D01*
X139730823Y-109671377D01*
X139735555Y-109658920D01*
X139735556Y-109658918D01*
X139738055Y-109652338D01*
X139739035Y-109645366D01*
X139762748Y-109476639D01*
X139762748Y-109476636D01*
X139763299Y-109472717D01*
X139763616Y-109450000D01*
X139743397Y-109269745D01*
X139741080Y-109263091D01*
X139686064Y-109105106D01*
X139686062Y-109105103D01*
X139683745Y-109098448D01*
X139587626Y-108944624D01*
X139537135Y-108893779D01*
X139464778Y-108820915D01*
X139464774Y-108820912D01*
X139459815Y-108815918D01*
X139448697Y-108808862D01*
X139398900Y-108777260D01*
X139306666Y-108718727D01*
X139244759Y-108696683D01*
X139142425Y-108660243D01*
X139142420Y-108660242D01*
X139135790Y-108657881D01*
X139128802Y-108657048D01*
X139128799Y-108657047D01*
X139005698Y-108642368D01*
X138955680Y-108636404D01*
X138948677Y-108637140D01*
X138948676Y-108637140D01*
X138782288Y-108654628D01*
X138782286Y-108654629D01*
X138775288Y-108655364D01*
X138603579Y-108713818D01*
X138597575Y-108717512D01*
X138455095Y-108805166D01*
X138455092Y-108805168D01*
X138449088Y-108808862D01*
X138444053Y-108813793D01*
X138444050Y-108813795D01*
X138324525Y-108930843D01*
X138319493Y-108935771D01*
X138221235Y-109088238D01*
X138218826Y-109094858D01*
X138218824Y-109094861D01*
X138179782Y-109202129D01*
X138159197Y-109258685D01*
X138136463Y-109438640D01*
X131468295Y-109438640D01*
X131409640Y-109431646D01*
X131365680Y-109426404D01*
X131358677Y-109427140D01*
X131358676Y-109427140D01*
X131192288Y-109444628D01*
X131192286Y-109444629D01*
X131185288Y-109445364D01*
X131013579Y-109503818D01*
X131007575Y-109507512D01*
X130865095Y-109595166D01*
X130865092Y-109595168D01*
X130859088Y-109598862D01*
X130854053Y-109603793D01*
X130854050Y-109603795D01*
X130790159Y-109666362D01*
X130729493Y-109725771D01*
X130631235Y-109878238D01*
X130628826Y-109884858D01*
X130628824Y-109884861D01*
X130583189Y-110010243D01*
X130569197Y-110048685D01*
X130568314Y-110055674D01*
X130564936Y-110082413D01*
X130536554Y-110147489D01*
X130477494Y-110186890D01*
X130453101Y-110191930D01*
X130332288Y-110204628D01*
X130332286Y-110204629D01*
X130325288Y-110205364D01*
X130153579Y-110263818D01*
X130117895Y-110285771D01*
X130005095Y-110355166D01*
X130005092Y-110355168D01*
X129999088Y-110358862D01*
X129994053Y-110363793D01*
X129994050Y-110363795D01*
X129874525Y-110480843D01*
X129869493Y-110485771D01*
X129771235Y-110638238D01*
X129768826Y-110644858D01*
X129768824Y-110644861D01*
X129714315Y-110794624D01*
X129709197Y-110808685D01*
X129686463Y-110988640D01*
X128184318Y-110988640D01*
X128253266Y-110922982D01*
X128353643Y-110771902D01*
X128412989Y-110615675D01*
X128415555Y-110608920D01*
X128415556Y-110608918D01*
X128418055Y-110602338D01*
X128419035Y-110595366D01*
X128442748Y-110426639D01*
X128442748Y-110426636D01*
X128443299Y-110422717D01*
X128443616Y-110400000D01*
X128423397Y-110219745D01*
X128421080Y-110213091D01*
X128366064Y-110055106D01*
X128366062Y-110055103D01*
X128363745Y-110048448D01*
X128336823Y-110005364D01*
X128271359Y-109900598D01*
X128267626Y-109894624D01*
X128170976Y-109797297D01*
X128144778Y-109770915D01*
X128144774Y-109770912D01*
X128139815Y-109765918D01*
X128128697Y-109758862D01*
X128068788Y-109720843D01*
X127986666Y-109668727D01*
X127940640Y-109652338D01*
X127822425Y-109610243D01*
X127822420Y-109610242D01*
X127815790Y-109607881D01*
X127808802Y-109607048D01*
X127808799Y-109607047D01*
X127685698Y-109592368D01*
X127635680Y-109586404D01*
X127628677Y-109587140D01*
X127628676Y-109587140D01*
X127462288Y-109604628D01*
X127462286Y-109604629D01*
X127455288Y-109605364D01*
X127283579Y-109663818D01*
X127269457Y-109672506D01*
X127135095Y-109755166D01*
X127135092Y-109755168D01*
X127129088Y-109758862D01*
X127124053Y-109763793D01*
X127124050Y-109763795D01*
X127013237Y-109872312D01*
X126999493Y-109885771D01*
X126901235Y-110038238D01*
X126898826Y-110044858D01*
X126898824Y-110044861D01*
X126850118Y-110178679D01*
X126839197Y-110208685D01*
X126816463Y-110388640D01*
X107498178Y-110388640D01*
X107496825Y-107398640D01*
X136096463Y-107398640D01*
X136114163Y-107579160D01*
X136171418Y-107751273D01*
X136175065Y-107757295D01*
X136175066Y-107757297D01*
X136223542Y-107837340D01*
X136265380Y-107906424D01*
X136270269Y-107911487D01*
X136270270Y-107911488D01*
X136291027Y-107932982D01*
X136391382Y-108036902D01*
X136397278Y-108040760D01*
X136527939Y-108126262D01*
X136543159Y-108136222D01*
X136549763Y-108138678D01*
X136549765Y-108138679D01*
X136706558Y-108196990D01*
X136706560Y-108196990D01*
X136713168Y-108199448D01*
X136796995Y-108210633D01*
X136885980Y-108222507D01*
X136885984Y-108222507D01*
X136892961Y-108223438D01*
X136899972Y-108222800D01*
X136899976Y-108222800D01*
X137042459Y-108209832D01*
X137073600Y-108206998D01*
X137080302Y-108204820D01*
X137080304Y-108204820D01*
X137239409Y-108153124D01*
X137239412Y-108153123D01*
X137246108Y-108150947D01*
X137401912Y-108058069D01*
X137533266Y-107932982D01*
X137633643Y-107781902D01*
X137698055Y-107612338D01*
X137699580Y-107601488D01*
X137722748Y-107436639D01*
X137722748Y-107436636D01*
X137723299Y-107432717D01*
X137723616Y-107410000D01*
X137703397Y-107229745D01*
X137699571Y-107218757D01*
X137689083Y-107188640D01*
X138086463Y-107188640D01*
X138104163Y-107369160D01*
X138161418Y-107541273D01*
X138165065Y-107547295D01*
X138165066Y-107547297D01*
X138207347Y-107617111D01*
X138255380Y-107696424D01*
X138260269Y-107701487D01*
X138260270Y-107701488D01*
X138314165Y-107757297D01*
X138381382Y-107826902D01*
X138387278Y-107830760D01*
X138489477Y-107897637D01*
X138533159Y-107926222D01*
X138539763Y-107928678D01*
X138539765Y-107928679D01*
X138696558Y-107986990D01*
X138696560Y-107986990D01*
X138703168Y-107989448D01*
X138786995Y-108000633D01*
X138875980Y-108012507D01*
X138875984Y-108012507D01*
X138882961Y-108013438D01*
X138889972Y-108012800D01*
X138889976Y-108012800D01*
X139032459Y-107999832D01*
X139063600Y-107996998D01*
X139070302Y-107994820D01*
X139070304Y-107994820D01*
X139229409Y-107943124D01*
X139229412Y-107943123D01*
X139236108Y-107940947D01*
X139391912Y-107848069D01*
X139523266Y-107722982D01*
X139623643Y-107571902D01*
X139665423Y-107461917D01*
X139685555Y-107408920D01*
X139685556Y-107408918D01*
X139688055Y-107402338D01*
X139690271Y-107386572D01*
X139712748Y-107226639D01*
X139712748Y-107226636D01*
X139713299Y-107222717D01*
X139713616Y-107200000D01*
X139701125Y-107088640D01*
X144286463Y-107088640D01*
X144304163Y-107269160D01*
X144361418Y-107441273D01*
X144365065Y-107447295D01*
X144365066Y-107447297D01*
X144448973Y-107585844D01*
X144455380Y-107596424D01*
X144581382Y-107726902D01*
X144733159Y-107826222D01*
X144739763Y-107828678D01*
X144739765Y-107828679D01*
X144896558Y-107886990D01*
X144896560Y-107886990D01*
X144903168Y-107889448D01*
X144975850Y-107899146D01*
X145075980Y-107912507D01*
X145075984Y-107912507D01*
X145082961Y-107913438D01*
X145089972Y-107912800D01*
X145089976Y-107912800D01*
X145239998Y-107899146D01*
X145263600Y-107896998D01*
X145270302Y-107894820D01*
X145270304Y-107894820D01*
X145429409Y-107843124D01*
X145429412Y-107843123D01*
X145436108Y-107840947D01*
X145591912Y-107748069D01*
X145723266Y-107622982D01*
X145823643Y-107471902D01*
X145888055Y-107302338D01*
X145890143Y-107287484D01*
X145912748Y-107126639D01*
X145912748Y-107126636D01*
X145913299Y-107122717D01*
X145913616Y-107100000D01*
X145893397Y-106919745D01*
X145890212Y-106910598D01*
X145836064Y-106755106D01*
X145836062Y-106755103D01*
X145833745Y-106748448D01*
X145788701Y-106676362D01*
X145741359Y-106600598D01*
X145737626Y-106594624D01*
X145709120Y-106565918D01*
X145614778Y-106470915D01*
X145614774Y-106470912D01*
X145609815Y-106465918D01*
X145602928Y-106461547D01*
X145503965Y-106398744D01*
X145456666Y-106368727D01*
X145427463Y-106358328D01*
X145292425Y-106310243D01*
X145292420Y-106310242D01*
X145285790Y-106307881D01*
X145278802Y-106307048D01*
X145278799Y-106307047D01*
X145139023Y-106290380D01*
X145105680Y-106286404D01*
X145098677Y-106287140D01*
X145098676Y-106287140D01*
X144932288Y-106304628D01*
X144932286Y-106304629D01*
X144925288Y-106305364D01*
X144753579Y-106363818D01*
X144747575Y-106367512D01*
X144605095Y-106455166D01*
X144605092Y-106455168D01*
X144599088Y-106458862D01*
X144594053Y-106463793D01*
X144594050Y-106463795D01*
X144493621Y-106562143D01*
X144469493Y-106585771D01*
X144371235Y-106738238D01*
X144368826Y-106744858D01*
X144368824Y-106744861D01*
X144328698Y-106855106D01*
X144309197Y-106908685D01*
X144286463Y-107088640D01*
X139701125Y-107088640D01*
X139693397Y-107019745D01*
X139691080Y-107013091D01*
X139636064Y-106855106D01*
X139636062Y-106855103D01*
X139633745Y-106848448D01*
X139537626Y-106694624D01*
X139528835Y-106685771D01*
X139414778Y-106570915D01*
X139414774Y-106570912D01*
X139409815Y-106565918D01*
X139398697Y-106558862D01*
X139350538Y-106528300D01*
X139256666Y-106468727D01*
X139218582Y-106455166D01*
X139092425Y-106410243D01*
X139092420Y-106410242D01*
X139085790Y-106407881D01*
X139078802Y-106407048D01*
X139078799Y-106407047D01*
X138929270Y-106389217D01*
X138905680Y-106386404D01*
X138898677Y-106387140D01*
X138898676Y-106387140D01*
X138732288Y-106404628D01*
X138732286Y-106404629D01*
X138725288Y-106405364D01*
X138553579Y-106463818D01*
X138491109Y-106502250D01*
X138405095Y-106555166D01*
X138405092Y-106555168D01*
X138399088Y-106558862D01*
X138394053Y-106563793D01*
X138394050Y-106563795D01*
X138276686Y-106678727D01*
X138269493Y-106685771D01*
X138171235Y-106838238D01*
X138168826Y-106844858D01*
X138168824Y-106844861D01*
X138133794Y-106941105D01*
X138109197Y-107008685D01*
X138086463Y-107188640D01*
X137689083Y-107188640D01*
X137646064Y-107065106D01*
X137646062Y-107065103D01*
X137643745Y-107058448D01*
X137570422Y-106941105D01*
X137551359Y-106910598D01*
X137547626Y-106904624D01*
X137533941Y-106890843D01*
X137424778Y-106780915D01*
X137424774Y-106780912D01*
X137419815Y-106775918D01*
X137408697Y-106768862D01*
X137311575Y-106707227D01*
X137266666Y-106678727D01*
X137237463Y-106668328D01*
X137102425Y-106620243D01*
X137102420Y-106620242D01*
X137095790Y-106617881D01*
X137088802Y-106617048D01*
X137088799Y-106617047D01*
X136965698Y-106602368D01*
X136915680Y-106596404D01*
X136908677Y-106597140D01*
X136908676Y-106597140D01*
X136742288Y-106614628D01*
X136742286Y-106614629D01*
X136735288Y-106615364D01*
X136563579Y-106673818D01*
X136509274Y-106707227D01*
X136415095Y-106765166D01*
X136415092Y-106765168D01*
X136409088Y-106768862D01*
X136404053Y-106773793D01*
X136404050Y-106773795D01*
X136284525Y-106890843D01*
X136279493Y-106895771D01*
X136181235Y-107048238D01*
X136178826Y-107054858D01*
X136178824Y-107054861D01*
X136127580Y-107195653D01*
X136119197Y-107218685D01*
X136096463Y-107398640D01*
X107496825Y-107398640D01*
X107495960Y-105488640D01*
X113586463Y-105488640D01*
X113604163Y-105669160D01*
X113661418Y-105841273D01*
X113665065Y-105847295D01*
X113665066Y-105847297D01*
X113749982Y-105987510D01*
X113755380Y-105996424D01*
X113760269Y-106001487D01*
X113760270Y-106001488D01*
X113781027Y-106022982D01*
X113881382Y-106126902D01*
X113887278Y-106130760D01*
X113988019Y-106196683D01*
X114033159Y-106226222D01*
X114039763Y-106228678D01*
X114039765Y-106228679D01*
X114196558Y-106286990D01*
X114196560Y-106286990D01*
X114203168Y-106289448D01*
X114286995Y-106300633D01*
X114375980Y-106312507D01*
X114375984Y-106312507D01*
X114382961Y-106313438D01*
X114389972Y-106312800D01*
X114389976Y-106312800D01*
X114532459Y-106299832D01*
X114563600Y-106296998D01*
X114570302Y-106294820D01*
X114570304Y-106294820D01*
X114729409Y-106243124D01*
X114729412Y-106243123D01*
X114736108Y-106240947D01*
X114891912Y-106148069D01*
X115023266Y-106022982D01*
X115123643Y-105871902D01*
X115188055Y-105702338D01*
X115189326Y-105693296D01*
X115212748Y-105526639D01*
X115212748Y-105526636D01*
X115213299Y-105522717D01*
X115213616Y-105500000D01*
X115193397Y-105319745D01*
X115191080Y-105313091D01*
X115136064Y-105155106D01*
X115136062Y-105155103D01*
X115133745Y-105148448D01*
X115064560Y-105037728D01*
X115045424Y-104969359D01*
X115066289Y-104901498D01*
X115120531Y-104855690D01*
X115190928Y-104846479D01*
X115240407Y-104865527D01*
X115295377Y-104901498D01*
X115333159Y-104926222D01*
X115339763Y-104928678D01*
X115339765Y-104928679D01*
X115496558Y-104986990D01*
X115496560Y-104986990D01*
X115503168Y-104989448D01*
X115586995Y-105000633D01*
X115675980Y-105012507D01*
X115675984Y-105012507D01*
X115682961Y-105013438D01*
X115689972Y-105012800D01*
X115689976Y-105012800D01*
X115832459Y-104999832D01*
X115863600Y-104996998D01*
X115870302Y-104994820D01*
X115870304Y-104994820D01*
X116029409Y-104943124D01*
X116029412Y-104943123D01*
X116036108Y-104940947D01*
X116162626Y-104865527D01*
X116185860Y-104851677D01*
X116185862Y-104851676D01*
X116191912Y-104848069D01*
X116323266Y-104722982D01*
X116423643Y-104571902D01*
X116470716Y-104447982D01*
X116485555Y-104408920D01*
X116485556Y-104408918D01*
X116488055Y-104402338D01*
X116489733Y-104390401D01*
X116512748Y-104226639D01*
X116512748Y-104226636D01*
X116513299Y-104222717D01*
X116513616Y-104200000D01*
X116493397Y-104019745D01*
X116491080Y-104013091D01*
X116436064Y-103855106D01*
X116436062Y-103855103D01*
X116433745Y-103848448D01*
X116337626Y-103694624D01*
X116305379Y-103662151D01*
X116214778Y-103570915D01*
X116214774Y-103570912D01*
X116209815Y-103565918D01*
X116198697Y-103558862D01*
X116135501Y-103518757D01*
X116056666Y-103468727D01*
X116027463Y-103458328D01*
X115892425Y-103410243D01*
X115892420Y-103410242D01*
X115885790Y-103407881D01*
X115878802Y-103407048D01*
X115878799Y-103407047D01*
X115755698Y-103392368D01*
X115705680Y-103386404D01*
X115698677Y-103387140D01*
X115698676Y-103387140D01*
X115532288Y-103404628D01*
X115532286Y-103404629D01*
X115525288Y-103405364D01*
X115353579Y-103463818D01*
X115347575Y-103467512D01*
X115205095Y-103555166D01*
X115205092Y-103555168D01*
X115199088Y-103558862D01*
X115194053Y-103563793D01*
X115194050Y-103563795D01*
X115079630Y-103675844D01*
X115069493Y-103685771D01*
X114971235Y-103838238D01*
X114968826Y-103844858D01*
X114968824Y-103844861D01*
X114911606Y-104002066D01*
X114909197Y-104008685D01*
X114886463Y-104188640D01*
X114904163Y-104369160D01*
X114961418Y-104541273D01*
X114965065Y-104547295D01*
X114965066Y-104547297D01*
X115034697Y-104662272D01*
X115052876Y-104730902D01*
X115031065Y-104798465D01*
X114976190Y-104843511D01*
X114905671Y-104851738D01*
X114859410Y-104833930D01*
X114756666Y-104768727D01*
X114727463Y-104758328D01*
X114592425Y-104710243D01*
X114592420Y-104710242D01*
X114585790Y-104707881D01*
X114578802Y-104707048D01*
X114578799Y-104707047D01*
X114455698Y-104692368D01*
X114405680Y-104686404D01*
X114398677Y-104687140D01*
X114398676Y-104687140D01*
X114232288Y-104704628D01*
X114232286Y-104704629D01*
X114225288Y-104705364D01*
X114053579Y-104763818D01*
X113997261Y-104798465D01*
X113905095Y-104855166D01*
X113905092Y-104855168D01*
X113899088Y-104858862D01*
X113894053Y-104863793D01*
X113894050Y-104863795D01*
X113786252Y-104969359D01*
X113769493Y-104985771D01*
X113671235Y-105138238D01*
X113668826Y-105144858D01*
X113668824Y-105144861D01*
X113628787Y-105254861D01*
X113609197Y-105308685D01*
X113586463Y-105488640D01*
X107495960Y-105488640D01*
X107495247Y-103913640D01*
X110661463Y-103913640D01*
X110679163Y-104094160D01*
X110736418Y-104266273D01*
X110740065Y-104272295D01*
X110740066Y-104272297D01*
X110815240Y-104396424D01*
X110830380Y-104421424D01*
X110956382Y-104551902D01*
X110962278Y-104555760D01*
X111073710Y-104628679D01*
X111108159Y-104651222D01*
X111114763Y-104653678D01*
X111114765Y-104653679D01*
X111271558Y-104711990D01*
X111271560Y-104711990D01*
X111278168Y-104714448D01*
X111361995Y-104725633D01*
X111450980Y-104737507D01*
X111450984Y-104737507D01*
X111457961Y-104738438D01*
X111464972Y-104737800D01*
X111464976Y-104737800D01*
X111607459Y-104724832D01*
X111638600Y-104721998D01*
X111645302Y-104719820D01*
X111645304Y-104719820D01*
X111804409Y-104668124D01*
X111804412Y-104668123D01*
X111811108Y-104665947D01*
X111966912Y-104573069D01*
X112098266Y-104447982D01*
X112198643Y-104296902D01*
X112242425Y-104181646D01*
X112260555Y-104133920D01*
X112260556Y-104133918D01*
X112263055Y-104127338D01*
X112264035Y-104120366D01*
X112287748Y-103951639D01*
X112287748Y-103951636D01*
X112288299Y-103947717D01*
X112288616Y-103925000D01*
X112268397Y-103744745D01*
X112265803Y-103737296D01*
X112211064Y-103580106D01*
X112211062Y-103580103D01*
X112208745Y-103573448D01*
X112143309Y-103468727D01*
X112116359Y-103425598D01*
X112112626Y-103419624D01*
X112103835Y-103410771D01*
X111989778Y-103295915D01*
X111989774Y-103295912D01*
X111984815Y-103290918D01*
X111978626Y-103286990D01*
X111900389Y-103237340D01*
X111831666Y-103193727D01*
X111802463Y-103183328D01*
X111667425Y-103135243D01*
X111667420Y-103135242D01*
X111660790Y-103132881D01*
X111653802Y-103132048D01*
X111653799Y-103132047D01*
X111530698Y-103117368D01*
X111480680Y-103111404D01*
X111473677Y-103112140D01*
X111473676Y-103112140D01*
X111307288Y-103129628D01*
X111307286Y-103129629D01*
X111300288Y-103130364D01*
X111128579Y-103188818D01*
X111090400Y-103212306D01*
X110980095Y-103280166D01*
X110980092Y-103280168D01*
X110974088Y-103283862D01*
X110969053Y-103288793D01*
X110969050Y-103288795D01*
X110854881Y-103400598D01*
X110844493Y-103410771D01*
X110746235Y-103563238D01*
X110743826Y-103569858D01*
X110743824Y-103569861D01*
X110690752Y-103715675D01*
X110684197Y-103733685D01*
X110661463Y-103913640D01*
X107495247Y-103913640D01*
X107494874Y-103088640D01*
X122486463Y-103088640D01*
X122504163Y-103269160D01*
X122561418Y-103441273D01*
X122565065Y-103447295D01*
X122565066Y-103447297D01*
X122645498Y-103580106D01*
X122655380Y-103596424D01*
X122781382Y-103726902D01*
X122933159Y-103826222D01*
X122939763Y-103828678D01*
X122939765Y-103828679D01*
X123096558Y-103886990D01*
X123096560Y-103886990D01*
X123103168Y-103889448D01*
X123182250Y-103900000D01*
X123275980Y-103912507D01*
X123275984Y-103912507D01*
X123282961Y-103913438D01*
X123289972Y-103912800D01*
X123289976Y-103912800D01*
X123432459Y-103899832D01*
X123463600Y-103896998D01*
X123470302Y-103894820D01*
X123470304Y-103894820D01*
X123489324Y-103888640D01*
X132186463Y-103888640D01*
X132204163Y-104069160D01*
X132261418Y-104241273D01*
X132265065Y-104247295D01*
X132265066Y-104247297D01*
X132334624Y-104362151D01*
X132355380Y-104396424D01*
X132360269Y-104401487D01*
X132360270Y-104401488D01*
X132385719Y-104427841D01*
X132481382Y-104526902D01*
X132633159Y-104626222D01*
X132639763Y-104628678D01*
X132639765Y-104628679D01*
X132796558Y-104686990D01*
X132796560Y-104686990D01*
X132803168Y-104689448D01*
X132886995Y-104700633D01*
X132975980Y-104712507D01*
X132975984Y-104712507D01*
X132982961Y-104713438D01*
X132989972Y-104712800D01*
X132989976Y-104712800D01*
X133132459Y-104699832D01*
X133163600Y-104696998D01*
X133170302Y-104694820D01*
X133170304Y-104694820D01*
X133329409Y-104643124D01*
X133329412Y-104643123D01*
X133336108Y-104640947D01*
X133458124Y-104568211D01*
X133485860Y-104551677D01*
X133485862Y-104551676D01*
X133491912Y-104548069D01*
X133623266Y-104422982D01*
X133723643Y-104271902D01*
X133776058Y-104133920D01*
X133785555Y-104108920D01*
X133785556Y-104108918D01*
X133788055Y-104102338D01*
X133789204Y-104094160D01*
X133812748Y-103926639D01*
X133812748Y-103926636D01*
X133813299Y-103922717D01*
X133813616Y-103900000D01*
X133793397Y-103719745D01*
X133791080Y-103713091D01*
X133736064Y-103555106D01*
X133736062Y-103555103D01*
X133733745Y-103548448D01*
X133696373Y-103488640D01*
X141186463Y-103488640D01*
X141204163Y-103669160D01*
X141261418Y-103841273D01*
X141265065Y-103847295D01*
X141265066Y-103847297D01*
X141309740Y-103921062D01*
X141355380Y-103996424D01*
X141360269Y-104001487D01*
X141360270Y-104001488D01*
X141375357Y-104017111D01*
X141481382Y-104126902D01*
X141487278Y-104130760D01*
X141593088Y-104200000D01*
X141633159Y-104226222D01*
X141639763Y-104228678D01*
X141639765Y-104228679D01*
X141796558Y-104286990D01*
X141796560Y-104286990D01*
X141803168Y-104289448D01*
X141886995Y-104300633D01*
X141975980Y-104312507D01*
X141975984Y-104312507D01*
X141982961Y-104313438D01*
X141989972Y-104312800D01*
X141989976Y-104312800D01*
X142132459Y-104299832D01*
X142163600Y-104296998D01*
X142170302Y-104294820D01*
X142170304Y-104294820D01*
X142329409Y-104243124D01*
X142329412Y-104243123D01*
X142336108Y-104240947D01*
X142423854Y-104188640D01*
X144086463Y-104188640D01*
X144104163Y-104369160D01*
X144161418Y-104541273D01*
X144165065Y-104547295D01*
X144165066Y-104547297D01*
X144251720Y-104690380D01*
X144255380Y-104696424D01*
X144260269Y-104701487D01*
X144260270Y-104701488D01*
X144295953Y-104738438D01*
X144381382Y-104826902D01*
X144533159Y-104926222D01*
X144539763Y-104928678D01*
X144539765Y-104928679D01*
X144696558Y-104986990D01*
X144696560Y-104986990D01*
X144703168Y-104989448D01*
X144786995Y-105000633D01*
X144875980Y-105012507D01*
X144875984Y-105012507D01*
X144882961Y-105013438D01*
X144889972Y-105012800D01*
X144889976Y-105012800D01*
X145032459Y-104999832D01*
X145063600Y-104996998D01*
X145070302Y-104994820D01*
X145070304Y-104994820D01*
X145229409Y-104943124D01*
X145229412Y-104943123D01*
X145236108Y-104940947D01*
X145362626Y-104865527D01*
X145385860Y-104851677D01*
X145385862Y-104851676D01*
X145391912Y-104848069D01*
X145523266Y-104722982D01*
X145623643Y-104571902D01*
X145670716Y-104447982D01*
X145685555Y-104408920D01*
X145685556Y-104408918D01*
X145688055Y-104402338D01*
X145689733Y-104390401D01*
X145712748Y-104226639D01*
X145712748Y-104226636D01*
X145713299Y-104222717D01*
X145713616Y-104200000D01*
X145693397Y-104019745D01*
X145691080Y-104013091D01*
X145636064Y-103855106D01*
X145636062Y-103855103D01*
X145633745Y-103848448D01*
X145537626Y-103694624D01*
X145505379Y-103662151D01*
X145414778Y-103570915D01*
X145414774Y-103570912D01*
X145409815Y-103565918D01*
X145398697Y-103558862D01*
X145335501Y-103518757D01*
X145256666Y-103468727D01*
X145227463Y-103458328D01*
X145092425Y-103410243D01*
X145092420Y-103410242D01*
X145085790Y-103407881D01*
X145078802Y-103407048D01*
X145078799Y-103407047D01*
X144955698Y-103392368D01*
X144905680Y-103386404D01*
X144898677Y-103387140D01*
X144898676Y-103387140D01*
X144732288Y-103404628D01*
X144732286Y-103404629D01*
X144725288Y-103405364D01*
X144553579Y-103463818D01*
X144547575Y-103467512D01*
X144405095Y-103555166D01*
X144405092Y-103555168D01*
X144399088Y-103558862D01*
X144394053Y-103563793D01*
X144394050Y-103563795D01*
X144279630Y-103675844D01*
X144269493Y-103685771D01*
X144171235Y-103838238D01*
X144168826Y-103844858D01*
X144168824Y-103844861D01*
X144111606Y-104002066D01*
X144109197Y-104008685D01*
X144086463Y-104188640D01*
X142423854Y-104188640D01*
X142491912Y-104148069D01*
X142623266Y-104022982D01*
X142723643Y-103871902D01*
X142776147Y-103733685D01*
X142785555Y-103708920D01*
X142785556Y-103708918D01*
X142788055Y-103702338D01*
X142789551Y-103691693D01*
X142812748Y-103526639D01*
X142812748Y-103526636D01*
X142813299Y-103522717D01*
X142813616Y-103500000D01*
X142793397Y-103319745D01*
X142791080Y-103313091D01*
X142736064Y-103155106D01*
X142736062Y-103155103D01*
X142733745Y-103148448D01*
X142729608Y-103141828D01*
X142641359Y-103000598D01*
X142637626Y-102994624D01*
X142623941Y-102980843D01*
X142514778Y-102870915D01*
X142514774Y-102870912D01*
X142509815Y-102865918D01*
X142498697Y-102858862D01*
X142450538Y-102828300D01*
X142356666Y-102768727D01*
X142299716Y-102748448D01*
X142192425Y-102710243D01*
X142192420Y-102710242D01*
X142185790Y-102707881D01*
X142178802Y-102707048D01*
X142178799Y-102707047D01*
X142055698Y-102692368D01*
X142005680Y-102686404D01*
X141998677Y-102687140D01*
X141998676Y-102687140D01*
X141832288Y-102704628D01*
X141832286Y-102704629D01*
X141825288Y-102705364D01*
X141653579Y-102763818D01*
X141647575Y-102767512D01*
X141505095Y-102855166D01*
X141505092Y-102855168D01*
X141499088Y-102858862D01*
X141494053Y-102863793D01*
X141494050Y-102863795D01*
X141436916Y-102919745D01*
X141369493Y-102985771D01*
X141271235Y-103138238D01*
X141268826Y-103144858D01*
X141268824Y-103144861D01*
X141215664Y-103290918D01*
X141209197Y-103308685D01*
X141186463Y-103488640D01*
X133696373Y-103488640D01*
X133683171Y-103467512D01*
X133641359Y-103400598D01*
X133637626Y-103394624D01*
X133632664Y-103389627D01*
X133514778Y-103270915D01*
X133514774Y-103270912D01*
X133509815Y-103265918D01*
X133498697Y-103258862D01*
X133424420Y-103211725D01*
X133356666Y-103168727D01*
X133308784Y-103151677D01*
X133192425Y-103110243D01*
X133192420Y-103110242D01*
X133185790Y-103107881D01*
X133178802Y-103107048D01*
X133178799Y-103107047D01*
X133024431Y-103088640D01*
X133005680Y-103086404D01*
X132998677Y-103087140D01*
X132998676Y-103087140D01*
X132832288Y-103104628D01*
X132832286Y-103104629D01*
X132825288Y-103105364D01*
X132653579Y-103163818D01*
X132647575Y-103167512D01*
X132505095Y-103255166D01*
X132505092Y-103255168D01*
X132499088Y-103258862D01*
X132494053Y-103263793D01*
X132494050Y-103263795D01*
X132436916Y-103319745D01*
X132369493Y-103385771D01*
X132271235Y-103538238D01*
X132268826Y-103544858D01*
X132268824Y-103544861D01*
X132214315Y-103694624D01*
X132209197Y-103708685D01*
X132186463Y-103888640D01*
X123489324Y-103888640D01*
X123629409Y-103843124D01*
X123629412Y-103843123D01*
X123636108Y-103840947D01*
X123785355Y-103751978D01*
X123785860Y-103751677D01*
X123785862Y-103751676D01*
X123791912Y-103748069D01*
X123923266Y-103622982D01*
X124023643Y-103471902D01*
X124082989Y-103315675D01*
X124085555Y-103308920D01*
X124085556Y-103308918D01*
X124088055Y-103302338D01*
X124091171Y-103280166D01*
X124112748Y-103126639D01*
X124112748Y-103126636D01*
X124113299Y-103122717D01*
X124113506Y-103107881D01*
X124113561Y-103103962D01*
X124113561Y-103103957D01*
X124113616Y-103100000D01*
X124093397Y-102919745D01*
X124091080Y-102913091D01*
X124036064Y-102755106D01*
X124036062Y-102755103D01*
X124033745Y-102748448D01*
X124006823Y-102705364D01*
X123941359Y-102600598D01*
X123937626Y-102594624D01*
X123870114Y-102526639D01*
X123832380Y-102488640D01*
X130586463Y-102488640D01*
X130604163Y-102669160D01*
X130661418Y-102841273D01*
X130665065Y-102847295D01*
X130665066Y-102847297D01*
X130751264Y-102989627D01*
X130755380Y-102996424D01*
X130881382Y-103126902D01*
X130923793Y-103154655D01*
X131006001Y-103208450D01*
X131033159Y-103226222D01*
X131039763Y-103228678D01*
X131039765Y-103228679D01*
X131196558Y-103286990D01*
X131196560Y-103286990D01*
X131203168Y-103289448D01*
X131286995Y-103300633D01*
X131375980Y-103312507D01*
X131375984Y-103312507D01*
X131382961Y-103313438D01*
X131389972Y-103312800D01*
X131389976Y-103312800D01*
X131532459Y-103299832D01*
X131563600Y-103296998D01*
X131570302Y-103294820D01*
X131570304Y-103294820D01*
X131729409Y-103243124D01*
X131729412Y-103243123D01*
X131736108Y-103240947D01*
X131859296Y-103167512D01*
X131885860Y-103151677D01*
X131885862Y-103151676D01*
X131891912Y-103148069D01*
X132023266Y-103022982D01*
X132123643Y-102871902D01*
X132188055Y-102702338D01*
X132190191Y-102687140D01*
X132212748Y-102526639D01*
X132212748Y-102526636D01*
X132213299Y-102522717D01*
X132213616Y-102500000D01*
X132193397Y-102319745D01*
X132190088Y-102310243D01*
X132136064Y-102155106D01*
X132136062Y-102155103D01*
X132133745Y-102148448D01*
X132037626Y-101994624D01*
X132023941Y-101980843D01*
X131914778Y-101870915D01*
X131914774Y-101870912D01*
X131909815Y-101865918D01*
X131898697Y-101858862D01*
X131850538Y-101828300D01*
X131756666Y-101768727D01*
X131727463Y-101758328D01*
X131592425Y-101710243D01*
X131592420Y-101710242D01*
X131585790Y-101707881D01*
X131578802Y-101707048D01*
X131578799Y-101707047D01*
X131455698Y-101692368D01*
X131405680Y-101686404D01*
X131398677Y-101687140D01*
X131398676Y-101687140D01*
X131232288Y-101704628D01*
X131232286Y-101704629D01*
X131225288Y-101705364D01*
X131053579Y-101763818D01*
X131047575Y-101767512D01*
X130905095Y-101855166D01*
X130905092Y-101855168D01*
X130899088Y-101858862D01*
X130894053Y-101863793D01*
X130894050Y-101863795D01*
X130774525Y-101980843D01*
X130769493Y-101985771D01*
X130671235Y-102138238D01*
X130668826Y-102144858D01*
X130668824Y-102144861D01*
X130617307Y-102286404D01*
X130609197Y-102308685D01*
X130586463Y-102488640D01*
X123832380Y-102488640D01*
X123814778Y-102470915D01*
X123814774Y-102470912D01*
X123809815Y-102465918D01*
X123798697Y-102458862D01*
X123750538Y-102428300D01*
X123656666Y-102368727D01*
X123627463Y-102358328D01*
X123492425Y-102310243D01*
X123492420Y-102310242D01*
X123485790Y-102307881D01*
X123478802Y-102307048D01*
X123478799Y-102307047D01*
X123355698Y-102292368D01*
X123305680Y-102286404D01*
X123298677Y-102287140D01*
X123298676Y-102287140D01*
X123132288Y-102304628D01*
X123132286Y-102304629D01*
X123125288Y-102305364D01*
X122953579Y-102363818D01*
X122947575Y-102367512D01*
X122805095Y-102455166D01*
X122805092Y-102455168D01*
X122799088Y-102458862D01*
X122794053Y-102463793D01*
X122794050Y-102463795D01*
X122674525Y-102580843D01*
X122669493Y-102585771D01*
X122571235Y-102738238D01*
X122568826Y-102744858D01*
X122568824Y-102744861D01*
X122528676Y-102855166D01*
X122509197Y-102908685D01*
X122486463Y-103088640D01*
X107494874Y-103088640D01*
X107493833Y-100788640D01*
X135586463Y-100788640D01*
X135604163Y-100969160D01*
X135661418Y-101141273D01*
X135665065Y-101147295D01*
X135665066Y-101147297D01*
X135751720Y-101290380D01*
X135755380Y-101296424D01*
X135881382Y-101426902D01*
X136033159Y-101526222D01*
X136039763Y-101528678D01*
X136039765Y-101528679D01*
X136196558Y-101586990D01*
X136196560Y-101586990D01*
X136203168Y-101589448D01*
X136286995Y-101600633D01*
X136375980Y-101612507D01*
X136375984Y-101612507D01*
X136382961Y-101613438D01*
X136389972Y-101612800D01*
X136389976Y-101612800D01*
X136532459Y-101599832D01*
X136563600Y-101596998D01*
X136570302Y-101594820D01*
X136570304Y-101594820D01*
X136729409Y-101543124D01*
X136729412Y-101543123D01*
X136736108Y-101540947D01*
X136891912Y-101448069D01*
X137023266Y-101322982D01*
X137123643Y-101171902D01*
X137188055Y-101002338D01*
X137189733Y-100990401D01*
X137212748Y-100826639D01*
X137212748Y-100826636D01*
X137213299Y-100822717D01*
X137213616Y-100800000D01*
X137193397Y-100619745D01*
X137191080Y-100613091D01*
X137136064Y-100455106D01*
X137136062Y-100455103D01*
X137133745Y-100448448D01*
X137037626Y-100294624D01*
X137005379Y-100262151D01*
X136914778Y-100170915D01*
X136914774Y-100170912D01*
X136909815Y-100165918D01*
X136898697Y-100158862D01*
X136835501Y-100118757D01*
X136788044Y-100088640D01*
X140586463Y-100088640D01*
X140604163Y-100269160D01*
X140661418Y-100441273D01*
X140665065Y-100447295D01*
X140665066Y-100447297D01*
X140708344Y-100518757D01*
X140755380Y-100596424D01*
X140760269Y-100601487D01*
X140760270Y-100601488D01*
X140775357Y-100617111D01*
X140881382Y-100726902D01*
X140887278Y-100730760D01*
X140993088Y-100800000D01*
X141033159Y-100826222D01*
X141039763Y-100828678D01*
X141039765Y-100828679D01*
X141196558Y-100886990D01*
X141196560Y-100886990D01*
X141203168Y-100889448D01*
X141286995Y-100900633D01*
X141375980Y-100912507D01*
X141375984Y-100912507D01*
X141382961Y-100913438D01*
X141389972Y-100912800D01*
X141389976Y-100912800D01*
X141532459Y-100899832D01*
X141563600Y-100896998D01*
X141570302Y-100894820D01*
X141570304Y-100894820D01*
X141729409Y-100843124D01*
X141729412Y-100843123D01*
X141736108Y-100840947D01*
X141891912Y-100748069D01*
X142023266Y-100622982D01*
X142112522Y-100488640D01*
X149686463Y-100488640D01*
X149704163Y-100669160D01*
X149761418Y-100841273D01*
X149765065Y-100847295D01*
X149765066Y-100847297D01*
X149834624Y-100962151D01*
X149855380Y-100996424D01*
X149981382Y-101126902D01*
X150133159Y-101226222D01*
X150139763Y-101228678D01*
X150139765Y-101228679D01*
X150296558Y-101286990D01*
X150296560Y-101286990D01*
X150303168Y-101289448D01*
X150386995Y-101300633D01*
X150475980Y-101312507D01*
X150475984Y-101312507D01*
X150482961Y-101313438D01*
X150489972Y-101312800D01*
X150489976Y-101312800D01*
X150632459Y-101299832D01*
X150663600Y-101296998D01*
X150670302Y-101294820D01*
X150670304Y-101294820D01*
X150829409Y-101243124D01*
X150829412Y-101243123D01*
X150836108Y-101240947D01*
X150951932Y-101171902D01*
X150985860Y-101151677D01*
X150985862Y-101151676D01*
X150991912Y-101148069D01*
X151123266Y-101022982D01*
X151223643Y-100871902D01*
X151272529Y-100743211D01*
X151285555Y-100708920D01*
X151285556Y-100708918D01*
X151288055Y-100702338D01*
X151289035Y-100695366D01*
X151312748Y-100526639D01*
X151312748Y-100526636D01*
X151313299Y-100522717D01*
X151313616Y-100500000D01*
X151293397Y-100319745D01*
X151291080Y-100313091D01*
X151236064Y-100155106D01*
X151236062Y-100155103D01*
X151233745Y-100148448D01*
X151183171Y-100067512D01*
X151141359Y-100000598D01*
X151137626Y-99994624D01*
X151132486Y-99989448D01*
X151014778Y-99870915D01*
X151014774Y-99870912D01*
X151009815Y-99865918D01*
X150998697Y-99858862D01*
X150941185Y-99822364D01*
X150856666Y-99768727D01*
X150799716Y-99748448D01*
X150692425Y-99710243D01*
X150692420Y-99710242D01*
X150685790Y-99707881D01*
X150678802Y-99707048D01*
X150678799Y-99707047D01*
X150555698Y-99692368D01*
X150505680Y-99686404D01*
X150498677Y-99687140D01*
X150498676Y-99687140D01*
X150332288Y-99704628D01*
X150332286Y-99704629D01*
X150325288Y-99705364D01*
X150153579Y-99763818D01*
X150147575Y-99767512D01*
X150005095Y-99855166D01*
X150005092Y-99855168D01*
X149999088Y-99858862D01*
X149994053Y-99863793D01*
X149994050Y-99863795D01*
X149874525Y-99980843D01*
X149869493Y-99985771D01*
X149771235Y-100138238D01*
X149768826Y-100144858D01*
X149768824Y-100144861D01*
X149714315Y-100294624D01*
X149709197Y-100308685D01*
X149686463Y-100488640D01*
X142112522Y-100488640D01*
X142123643Y-100471902D01*
X142182989Y-100315675D01*
X142185555Y-100308920D01*
X142185556Y-100308918D01*
X142188055Y-100302338D01*
X142189551Y-100291693D01*
X142212748Y-100126639D01*
X142212748Y-100126636D01*
X142213299Y-100122717D01*
X142213616Y-100100000D01*
X142193397Y-99919745D01*
X142191080Y-99913091D01*
X142136064Y-99755106D01*
X142136062Y-99755103D01*
X142133745Y-99748448D01*
X142106823Y-99705364D01*
X142041359Y-99600598D01*
X142037626Y-99594624D01*
X142008520Y-99565314D01*
X141914778Y-99470915D01*
X141914774Y-99470912D01*
X141909815Y-99465918D01*
X141898697Y-99458862D01*
X141820000Y-99408920D01*
X141756666Y-99368727D01*
X141727463Y-99358328D01*
X141592425Y-99310243D01*
X141592420Y-99310242D01*
X141585790Y-99307881D01*
X141578802Y-99307048D01*
X141578799Y-99307047D01*
X141455698Y-99292368D01*
X141405680Y-99286404D01*
X141398677Y-99287140D01*
X141398676Y-99287140D01*
X141232288Y-99304628D01*
X141232286Y-99304629D01*
X141225288Y-99305364D01*
X141053579Y-99363818D01*
X141039457Y-99372506D01*
X140905095Y-99455166D01*
X140905092Y-99455168D01*
X140899088Y-99458862D01*
X140894053Y-99463793D01*
X140894050Y-99463795D01*
X140777660Y-99577773D01*
X140769493Y-99585771D01*
X140671235Y-99738238D01*
X140668826Y-99744858D01*
X140668824Y-99744861D01*
X140614243Y-99894820D01*
X140609197Y-99908685D01*
X140586463Y-100088640D01*
X136788044Y-100088640D01*
X136756666Y-100068727D01*
X136727463Y-100058328D01*
X136592425Y-100010243D01*
X136592420Y-100010242D01*
X136585790Y-100007881D01*
X136578802Y-100007048D01*
X136578799Y-100007047D01*
X136455698Y-99992368D01*
X136405680Y-99986404D01*
X136398677Y-99987140D01*
X136398676Y-99987140D01*
X136232288Y-100004628D01*
X136232286Y-100004629D01*
X136225288Y-100005364D01*
X136053579Y-100063818D01*
X136047575Y-100067512D01*
X135905095Y-100155166D01*
X135905092Y-100155168D01*
X135899088Y-100158862D01*
X135894053Y-100163793D01*
X135894050Y-100163795D01*
X135779630Y-100275844D01*
X135769493Y-100285771D01*
X135671235Y-100438238D01*
X135668826Y-100444858D01*
X135668824Y-100444861D01*
X135611606Y-100602066D01*
X135609197Y-100608685D01*
X135586463Y-100788640D01*
X107493833Y-100788640D01*
X107492577Y-98013640D01*
X113261463Y-98013640D01*
X113279163Y-98194160D01*
X113336418Y-98366273D01*
X113340065Y-98372295D01*
X113340066Y-98372297D01*
X113397034Y-98466362D01*
X113430380Y-98521424D01*
X113435269Y-98526487D01*
X113435270Y-98526488D01*
X113445666Y-98537253D01*
X113556382Y-98651902D01*
X113562278Y-98655760D01*
X113656639Y-98717508D01*
X113708159Y-98751222D01*
X113714763Y-98753678D01*
X113714765Y-98753679D01*
X113871558Y-98811990D01*
X113871560Y-98811990D01*
X113878168Y-98814448D01*
X113961995Y-98825633D01*
X114050980Y-98837507D01*
X114050984Y-98837507D01*
X114057961Y-98838438D01*
X114064972Y-98837800D01*
X114064976Y-98837800D01*
X114165029Y-98828694D01*
X114234682Y-98842439D01*
X114285847Y-98891660D01*
X114302278Y-98960729D01*
X114301455Y-98969967D01*
X114286463Y-99088640D01*
X114304163Y-99269160D01*
X114361418Y-99441273D01*
X114365065Y-99447295D01*
X114365066Y-99447297D01*
X114451264Y-99589627D01*
X114455380Y-99596424D01*
X114581382Y-99726902D01*
X114733159Y-99826222D01*
X114739763Y-99828678D01*
X114739765Y-99828679D01*
X114896558Y-99886990D01*
X114896560Y-99886990D01*
X114903168Y-99889448D01*
X114986995Y-99900633D01*
X115075980Y-99912507D01*
X115075984Y-99912507D01*
X115082961Y-99913438D01*
X115089972Y-99912800D01*
X115089976Y-99912800D01*
X115232459Y-99899832D01*
X115263600Y-99896998D01*
X115270302Y-99894820D01*
X115270304Y-99894820D01*
X115429409Y-99843124D01*
X115429412Y-99843123D01*
X115436108Y-99840947D01*
X115559296Y-99767512D01*
X115585860Y-99751677D01*
X115585862Y-99751676D01*
X115591912Y-99748069D01*
X115723266Y-99622982D01*
X115823643Y-99471902D01*
X115888055Y-99302338D01*
X115890191Y-99287140D01*
X115912748Y-99126639D01*
X115912748Y-99126636D01*
X115913299Y-99122717D01*
X115913616Y-99100000D01*
X115893397Y-98919745D01*
X115891004Y-98912874D01*
X115836064Y-98755106D01*
X115836062Y-98755103D01*
X115833745Y-98748448D01*
X115811951Y-98713570D01*
X115807313Y-98706148D01*
X129486463Y-98706148D01*
X129504163Y-98886668D01*
X129561418Y-99058781D01*
X129565065Y-99064803D01*
X129565066Y-99064805D01*
X129646943Y-99200000D01*
X129655380Y-99213932D01*
X129660269Y-99218995D01*
X129660270Y-99218996D01*
X129667651Y-99226639D01*
X129781382Y-99344410D01*
X129787278Y-99348268D01*
X129919192Y-99434590D01*
X129933159Y-99443730D01*
X129939763Y-99446186D01*
X129939765Y-99446187D01*
X130096558Y-99504498D01*
X130096560Y-99504498D01*
X130103168Y-99506956D01*
X130186995Y-99518141D01*
X130275980Y-99530015D01*
X130275984Y-99530015D01*
X130282961Y-99530946D01*
X130289972Y-99530308D01*
X130289976Y-99530308D01*
X130432459Y-99517340D01*
X130463600Y-99514506D01*
X130470302Y-99512328D01*
X130470304Y-99512328D01*
X130629409Y-99460632D01*
X130629412Y-99460631D01*
X130636108Y-99458455D01*
X130791912Y-99365577D01*
X130923266Y-99240490D01*
X130957715Y-99188640D01*
X152786463Y-99188640D01*
X152804163Y-99369160D01*
X152861418Y-99541273D01*
X152865065Y-99547295D01*
X152865066Y-99547297D01*
X152949817Y-99687238D01*
X152955380Y-99696424D01*
X152960269Y-99701487D01*
X152960270Y-99701488D01*
X153012049Y-99755106D01*
X153081382Y-99826902D01*
X153141005Y-99865918D01*
X153213093Y-99913091D01*
X153233159Y-99926222D01*
X153239763Y-99928678D01*
X153239765Y-99928679D01*
X153396558Y-99986990D01*
X153396560Y-99986990D01*
X153403168Y-99989448D01*
X153486732Y-100000598D01*
X153575980Y-100012507D01*
X153575984Y-100012507D01*
X153582961Y-100013438D01*
X153589972Y-100012800D01*
X153589976Y-100012800D01*
X153732459Y-99999832D01*
X153763600Y-99996998D01*
X153770302Y-99994820D01*
X153770304Y-99994820D01*
X153929409Y-99943124D01*
X153929412Y-99943123D01*
X153936108Y-99940947D01*
X154061970Y-99865918D01*
X154085860Y-99851677D01*
X154085862Y-99851676D01*
X154091912Y-99848069D01*
X154223266Y-99722982D01*
X154323643Y-99571902D01*
X154368108Y-99454848D01*
X154385555Y-99408920D01*
X154385556Y-99408918D01*
X154388055Y-99402338D01*
X154389035Y-99395366D01*
X154412748Y-99226639D01*
X154412748Y-99226636D01*
X154413299Y-99222717D01*
X154413616Y-99200000D01*
X154393397Y-99019745D01*
X154391080Y-99013091D01*
X154336064Y-98855106D01*
X154336062Y-98855103D01*
X154333745Y-98848448D01*
X154327365Y-98838238D01*
X154241359Y-98700598D01*
X154237626Y-98694624D01*
X154223941Y-98680843D01*
X154114778Y-98570915D01*
X154114774Y-98570912D01*
X154109815Y-98565918D01*
X154098697Y-98558862D01*
X154030213Y-98515401D01*
X153956666Y-98468727D01*
X153927463Y-98458328D01*
X153792425Y-98410243D01*
X153792420Y-98410242D01*
X153785790Y-98407881D01*
X153778802Y-98407048D01*
X153778799Y-98407047D01*
X153655698Y-98392368D01*
X153605680Y-98386404D01*
X153598677Y-98387140D01*
X153598676Y-98387140D01*
X153432288Y-98404628D01*
X153432286Y-98404629D01*
X153425288Y-98405364D01*
X153253579Y-98463818D01*
X153247575Y-98467512D01*
X153105095Y-98555166D01*
X153105092Y-98555168D01*
X153099088Y-98558862D01*
X153094053Y-98563793D01*
X153094050Y-98563795D01*
X153000139Y-98655760D01*
X152969493Y-98685771D01*
X152871235Y-98838238D01*
X152868826Y-98844858D01*
X152868824Y-98844861D01*
X152823289Y-98969967D01*
X152809197Y-99008685D01*
X152786463Y-99188640D01*
X130957715Y-99188640D01*
X131023643Y-99089410D01*
X131088055Y-98919846D01*
X131089624Y-98908685D01*
X131112748Y-98744147D01*
X131112748Y-98744144D01*
X131113299Y-98740225D01*
X131113616Y-98717508D01*
X131093397Y-98537253D01*
X131089648Y-98526488D01*
X131036064Y-98372614D01*
X131036062Y-98372611D01*
X131033745Y-98365956D01*
X130937626Y-98212132D01*
X130928835Y-98203279D01*
X130814778Y-98088423D01*
X130814774Y-98088420D01*
X130809815Y-98083426D01*
X130798697Y-98076370D01*
X130717750Y-98025000D01*
X130656666Y-97986235D01*
X130627463Y-97975836D01*
X130492425Y-97927751D01*
X130492420Y-97927750D01*
X130485790Y-97925389D01*
X130478802Y-97924556D01*
X130478799Y-97924555D01*
X130355698Y-97909876D01*
X130305680Y-97903912D01*
X130298677Y-97904648D01*
X130298676Y-97904648D01*
X130132288Y-97922136D01*
X130132286Y-97922137D01*
X130125288Y-97922872D01*
X129953579Y-97981326D01*
X129947575Y-97985020D01*
X129805095Y-98072674D01*
X129805092Y-98072676D01*
X129799088Y-98076370D01*
X129794053Y-98081301D01*
X129794050Y-98081303D01*
X129685962Y-98187151D01*
X129669493Y-98203279D01*
X129571235Y-98355746D01*
X129568826Y-98362366D01*
X129568824Y-98362369D01*
X129513125Y-98515401D01*
X129509197Y-98526193D01*
X129486463Y-98706148D01*
X115807313Y-98706148D01*
X115741359Y-98600598D01*
X115737626Y-98594624D01*
X115709120Y-98565918D01*
X115614778Y-98470915D01*
X115614774Y-98470912D01*
X115609815Y-98465918D01*
X115602928Y-98461547D01*
X115513237Y-98404628D01*
X115456666Y-98368727D01*
X115379600Y-98341285D01*
X115292425Y-98310243D01*
X115292420Y-98310242D01*
X115285790Y-98307881D01*
X115278802Y-98307048D01*
X115278799Y-98307047D01*
X115155698Y-98292368D01*
X115105680Y-98286404D01*
X115098677Y-98287140D01*
X115098675Y-98287140D01*
X115011381Y-98296315D01*
X114941543Y-98283543D01*
X114889696Y-98235041D01*
X114872302Y-98166208D01*
X114873437Y-98153470D01*
X114887748Y-98051642D01*
X114887749Y-98051632D01*
X114888299Y-98047717D01*
X114888616Y-98025000D01*
X114868397Y-97844745D01*
X114865818Y-97837340D01*
X114811064Y-97680106D01*
X114811062Y-97680103D01*
X114808745Y-97673448D01*
X114786182Y-97637340D01*
X114716359Y-97525598D01*
X114712626Y-97519624D01*
X114634820Y-97441273D01*
X114589778Y-97395915D01*
X114589774Y-97395912D01*
X114584815Y-97390918D01*
X114573697Y-97383862D01*
X114455606Y-97308920D01*
X114431666Y-97293727D01*
X114351873Y-97265314D01*
X114267425Y-97235243D01*
X114267420Y-97235242D01*
X114260790Y-97232881D01*
X114253802Y-97232048D01*
X114253799Y-97232047D01*
X114130698Y-97217368D01*
X114080680Y-97211404D01*
X114073677Y-97212140D01*
X114073676Y-97212140D01*
X113907288Y-97229628D01*
X113907286Y-97229629D01*
X113900288Y-97230364D01*
X113728579Y-97288818D01*
X113714457Y-97297506D01*
X113580095Y-97380166D01*
X113580092Y-97380168D01*
X113574088Y-97383862D01*
X113569053Y-97388793D01*
X113569050Y-97388795D01*
X113478189Y-97477773D01*
X113444493Y-97510771D01*
X113346235Y-97663238D01*
X113343826Y-97669858D01*
X113343824Y-97669861D01*
X113286913Y-97826222D01*
X113284197Y-97833685D01*
X113261463Y-98013640D01*
X107492577Y-98013640D01*
X107492158Y-97088640D01*
X125986463Y-97088640D01*
X126004163Y-97269160D01*
X126061418Y-97441273D01*
X126065065Y-97447295D01*
X126065066Y-97447297D01*
X126115613Y-97530760D01*
X126155380Y-97596424D01*
X126160269Y-97601487D01*
X126160270Y-97601488D01*
X126194892Y-97637340D01*
X126281382Y-97726902D01*
X126433159Y-97826222D01*
X126439763Y-97828678D01*
X126439765Y-97828679D01*
X126596558Y-97886990D01*
X126596560Y-97886990D01*
X126603168Y-97889448D01*
X126686995Y-97900633D01*
X126775980Y-97912507D01*
X126775984Y-97912507D01*
X126782961Y-97913438D01*
X126789972Y-97912800D01*
X126789976Y-97912800D01*
X126932459Y-97899832D01*
X126963600Y-97896998D01*
X126970302Y-97894820D01*
X126970304Y-97894820D01*
X127129409Y-97843124D01*
X127129412Y-97843123D01*
X127136108Y-97840947D01*
X127291912Y-97748069D01*
X127423266Y-97622982D01*
X127523643Y-97471902D01*
X127588055Y-97302338D01*
X127590274Y-97286547D01*
X127612748Y-97126639D01*
X127612748Y-97126636D01*
X127613299Y-97122717D01*
X127613616Y-97100000D01*
X127593397Y-96919745D01*
X127591080Y-96913091D01*
X127582565Y-96888640D01*
X146986463Y-96888640D01*
X147004163Y-97069160D01*
X147061418Y-97241273D01*
X147065065Y-97247295D01*
X147065066Y-97247297D01*
X147150760Y-97388795D01*
X147155380Y-97396424D01*
X147281382Y-97526902D01*
X147433159Y-97626222D01*
X147439763Y-97628678D01*
X147439765Y-97628679D01*
X147596558Y-97686990D01*
X147596560Y-97686990D01*
X147603168Y-97689448D01*
X147686995Y-97700633D01*
X147775980Y-97712507D01*
X147775984Y-97712507D01*
X147782961Y-97713438D01*
X147789972Y-97712800D01*
X147789976Y-97712800D01*
X147932459Y-97699832D01*
X147963600Y-97696998D01*
X147970302Y-97694820D01*
X147970304Y-97694820D01*
X148129409Y-97643124D01*
X148129412Y-97643123D01*
X148136108Y-97640947D01*
X148291912Y-97548069D01*
X148423266Y-97422982D01*
X148523643Y-97271902D01*
X148588055Y-97102338D01*
X148590963Y-97081646D01*
X148612748Y-96926639D01*
X148612748Y-96926636D01*
X148613299Y-96922717D01*
X148613616Y-96900000D01*
X148593397Y-96719745D01*
X148591080Y-96713091D01*
X148536064Y-96555106D01*
X148536062Y-96555103D01*
X148533745Y-96548448D01*
X148523662Y-96532312D01*
X148441359Y-96400598D01*
X148437626Y-96394624D01*
X148409561Y-96366362D01*
X148314778Y-96270915D01*
X148314774Y-96270912D01*
X148309815Y-96265918D01*
X148298697Y-96258862D01*
X148250538Y-96228300D01*
X148156666Y-96168727D01*
X148127463Y-96158328D01*
X147992425Y-96110243D01*
X147992420Y-96110242D01*
X147985790Y-96107881D01*
X147978802Y-96107048D01*
X147978799Y-96107047D01*
X147855698Y-96092368D01*
X147805680Y-96086404D01*
X147798677Y-96087140D01*
X147798676Y-96087140D01*
X147632288Y-96104628D01*
X147632286Y-96104629D01*
X147625288Y-96105364D01*
X147453579Y-96163818D01*
X147447575Y-96167512D01*
X147305095Y-96255166D01*
X147305092Y-96255168D01*
X147299088Y-96258862D01*
X147294053Y-96263793D01*
X147294050Y-96263795D01*
X147174525Y-96380843D01*
X147169493Y-96385771D01*
X147071235Y-96538238D01*
X147068826Y-96544858D01*
X147068824Y-96544861D01*
X147011606Y-96702066D01*
X147009197Y-96708685D01*
X146986463Y-96888640D01*
X127582565Y-96888640D01*
X127536064Y-96755106D01*
X127536062Y-96755103D01*
X127533745Y-96748448D01*
X127437626Y-96594624D01*
X127398383Y-96555106D01*
X127314778Y-96470915D01*
X127314774Y-96470912D01*
X127309815Y-96465918D01*
X127298697Y-96458862D01*
X127250538Y-96428300D01*
X127156666Y-96368727D01*
X127127463Y-96358328D01*
X126992425Y-96310243D01*
X126992420Y-96310242D01*
X126985790Y-96307881D01*
X126978802Y-96307048D01*
X126978799Y-96307047D01*
X126855698Y-96292368D01*
X126805680Y-96286404D01*
X126798677Y-96287140D01*
X126798676Y-96287140D01*
X126632288Y-96304628D01*
X126632286Y-96304629D01*
X126625288Y-96305364D01*
X126453579Y-96363818D01*
X126417895Y-96385771D01*
X126305095Y-96455166D01*
X126305092Y-96455168D01*
X126299088Y-96458862D01*
X126294053Y-96463793D01*
X126294050Y-96463795D01*
X126207606Y-96548448D01*
X126169493Y-96585771D01*
X126071235Y-96738238D01*
X126068826Y-96744858D01*
X126068824Y-96744861D01*
X126019038Y-96881646D01*
X126009197Y-96908685D01*
X125986463Y-97088640D01*
X107492158Y-97088640D01*
X107490846Y-94188640D01*
X119686463Y-94188640D01*
X119704163Y-94369160D01*
X119761418Y-94541273D01*
X119765065Y-94547295D01*
X119765066Y-94547297D01*
X119844126Y-94677841D01*
X119855380Y-94696424D01*
X119981382Y-94826902D01*
X120133159Y-94926222D01*
X120139763Y-94928678D01*
X120139765Y-94928679D01*
X120296558Y-94986990D01*
X120296560Y-94986990D01*
X120303168Y-94989448D01*
X120386995Y-95000633D01*
X120475980Y-95012507D01*
X120475984Y-95012507D01*
X120482961Y-95013438D01*
X120489972Y-95012800D01*
X120489976Y-95012800D01*
X120632459Y-94999832D01*
X120663600Y-94996998D01*
X120670302Y-94994820D01*
X120670304Y-94994820D01*
X120829409Y-94943124D01*
X120829412Y-94943123D01*
X120836108Y-94940947D01*
X120956532Y-94869160D01*
X120985860Y-94851677D01*
X120985862Y-94851676D01*
X120991912Y-94848069D01*
X121123266Y-94722982D01*
X121146083Y-94688640D01*
X137486463Y-94688640D01*
X137504163Y-94869160D01*
X137561418Y-95041273D01*
X137565065Y-95047295D01*
X137565066Y-95047297D01*
X137575978Y-95065314D01*
X137655380Y-95196424D01*
X137781382Y-95326902D01*
X137933159Y-95426222D01*
X137939763Y-95428678D01*
X137939765Y-95428679D01*
X138096558Y-95486990D01*
X138096560Y-95486990D01*
X138103168Y-95489448D01*
X138186995Y-95500633D01*
X138275980Y-95512507D01*
X138275984Y-95512507D01*
X138282961Y-95513438D01*
X138289972Y-95512800D01*
X138289976Y-95512800D01*
X138432459Y-95499832D01*
X138463600Y-95496998D01*
X138470302Y-95494820D01*
X138470304Y-95494820D01*
X138629409Y-95443124D01*
X138629412Y-95443123D01*
X138636108Y-95440947D01*
X138791912Y-95348069D01*
X138923266Y-95222982D01*
X139023643Y-95071902D01*
X139071090Y-94946998D01*
X139085555Y-94908920D01*
X139085556Y-94908918D01*
X139088055Y-94902338D01*
X139091380Y-94878679D01*
X139112748Y-94726639D01*
X139112748Y-94726636D01*
X139113299Y-94722717D01*
X139113616Y-94700000D01*
X139093397Y-94519745D01*
X139091080Y-94513091D01*
X139036064Y-94355106D01*
X139036062Y-94355103D01*
X139033745Y-94348448D01*
X138937626Y-94194624D01*
X138928835Y-94185771D01*
X138814778Y-94070915D01*
X138814774Y-94070912D01*
X138809815Y-94065918D01*
X138798697Y-94058862D01*
X138730644Y-94015675D01*
X138656666Y-93968727D01*
X138627463Y-93958328D01*
X138492425Y-93910243D01*
X138492420Y-93910242D01*
X138485790Y-93907881D01*
X138478802Y-93907048D01*
X138478799Y-93907047D01*
X138355698Y-93892368D01*
X138305680Y-93886404D01*
X138298677Y-93887140D01*
X138298676Y-93887140D01*
X138132288Y-93904628D01*
X138132286Y-93904629D01*
X138125288Y-93905364D01*
X137953579Y-93963818D01*
X137891408Y-94002066D01*
X137805095Y-94055166D01*
X137805092Y-94055168D01*
X137799088Y-94058862D01*
X137794053Y-94063793D01*
X137794050Y-94063795D01*
X137710460Y-94145653D01*
X137669493Y-94185771D01*
X137571235Y-94338238D01*
X137568826Y-94344858D01*
X137568824Y-94344861D01*
X137517967Y-94484590D01*
X137509197Y-94508685D01*
X137486463Y-94688640D01*
X121146083Y-94688640D01*
X121223643Y-94571902D01*
X121288055Y-94402338D01*
X121289035Y-94395366D01*
X121312748Y-94226639D01*
X121312748Y-94226636D01*
X121313299Y-94222717D01*
X121313616Y-94200000D01*
X121293397Y-94019745D01*
X121291080Y-94013091D01*
X121236064Y-93855106D01*
X121236062Y-93855103D01*
X121233745Y-93848448D01*
X121202502Y-93798448D01*
X121141359Y-93700598D01*
X121137626Y-93694624D01*
X121123941Y-93680843D01*
X121014778Y-93570915D01*
X121014774Y-93570912D01*
X121009815Y-93565918D01*
X120998697Y-93558862D01*
X120941185Y-93522364D01*
X120856666Y-93468727D01*
X120808784Y-93451677D01*
X120692425Y-93410243D01*
X120692420Y-93410242D01*
X120685790Y-93407881D01*
X120678802Y-93407048D01*
X120678799Y-93407047D01*
X120555698Y-93392368D01*
X120505680Y-93386404D01*
X120498677Y-93387140D01*
X120498676Y-93387140D01*
X120332288Y-93404628D01*
X120332286Y-93404629D01*
X120325288Y-93405364D01*
X120153579Y-93463818D01*
X120133417Y-93476222D01*
X120005095Y-93555166D01*
X120005092Y-93555168D01*
X119999088Y-93558862D01*
X119994053Y-93563793D01*
X119994050Y-93563795D01*
X119905410Y-93650598D01*
X119869493Y-93685771D01*
X119771235Y-93838238D01*
X119768826Y-93844858D01*
X119768824Y-93844861D01*
X119711606Y-94002066D01*
X119709197Y-94008685D01*
X119686463Y-94188640D01*
X107490846Y-94188640D01*
X107490213Y-92788640D01*
X108786463Y-92788640D01*
X108804163Y-92969160D01*
X108861418Y-93141273D01*
X108865065Y-93147295D01*
X108865066Y-93147297D01*
X108944126Y-93277841D01*
X108955380Y-93296424D01*
X108960269Y-93301487D01*
X108960270Y-93301488D01*
X108995461Y-93337929D01*
X109081382Y-93426902D01*
X109233159Y-93526222D01*
X109239763Y-93528678D01*
X109239765Y-93528679D01*
X109396558Y-93586990D01*
X109396560Y-93586990D01*
X109403168Y-93589448D01*
X109486995Y-93600633D01*
X109575980Y-93612507D01*
X109575984Y-93612507D01*
X109582961Y-93613438D01*
X109589972Y-93612800D01*
X109589976Y-93612800D01*
X109732459Y-93599832D01*
X109763600Y-93596998D01*
X109770302Y-93594820D01*
X109770304Y-93594820D01*
X109929409Y-93543124D01*
X109929412Y-93543123D01*
X109936108Y-93540947D01*
X110059296Y-93467512D01*
X110085860Y-93451677D01*
X110085862Y-93451676D01*
X110091912Y-93448069D01*
X110223266Y-93322982D01*
X110323643Y-93171902D01*
X110374394Y-93038300D01*
X110385555Y-93008920D01*
X110385556Y-93008918D01*
X110388055Y-93002338D01*
X110389035Y-92995366D01*
X110412748Y-92826639D01*
X110412748Y-92826636D01*
X110413299Y-92822717D01*
X110413616Y-92800000D01*
X110406733Y-92738640D01*
X139436463Y-92738640D01*
X139454163Y-92919160D01*
X139511418Y-93091273D01*
X139515065Y-93097295D01*
X139515066Y-93097297D01*
X139595894Y-93230760D01*
X139605380Y-93246424D01*
X139610269Y-93251487D01*
X139610270Y-93251488D01*
X139635719Y-93277841D01*
X139731382Y-93376902D01*
X139783089Y-93410738D01*
X139869849Y-93467512D01*
X139883159Y-93476222D01*
X139889763Y-93478678D01*
X139889765Y-93478679D01*
X140046558Y-93536990D01*
X140046560Y-93536990D01*
X140053168Y-93539448D01*
X140136995Y-93550633D01*
X140225980Y-93562507D01*
X140225984Y-93562507D01*
X140232961Y-93563438D01*
X140239972Y-93562800D01*
X140239976Y-93562800D01*
X140382459Y-93549832D01*
X140413600Y-93546998D01*
X140420302Y-93544820D01*
X140420304Y-93544820D01*
X140579409Y-93493124D01*
X140579412Y-93493123D01*
X140586108Y-93490947D01*
X140715493Y-93413818D01*
X140735860Y-93401677D01*
X140735862Y-93401676D01*
X140741912Y-93398069D01*
X140873266Y-93272982D01*
X140973643Y-93121902D01*
X141031665Y-92969160D01*
X141035555Y-92958920D01*
X141035556Y-92958918D01*
X141038055Y-92952338D01*
X141041667Y-92926639D01*
X141062748Y-92776639D01*
X141062748Y-92776636D01*
X141063299Y-92772717D01*
X141063616Y-92750000D01*
X141043397Y-92569745D01*
X141040035Y-92560090D01*
X140986064Y-92405106D01*
X140986062Y-92405103D01*
X140983745Y-92398448D01*
X140942961Y-92333179D01*
X140891359Y-92250598D01*
X140887626Y-92244624D01*
X140882664Y-92239627D01*
X140857354Y-92214140D01*
X142207262Y-92214140D01*
X142224962Y-92394660D01*
X142282217Y-92566773D01*
X142285864Y-92572795D01*
X142285865Y-92572797D01*
X142372395Y-92715675D01*
X142376179Y-92721924D01*
X142381068Y-92726987D01*
X142381069Y-92726988D01*
X142428249Y-92775844D01*
X142502181Y-92852402D01*
X142508077Y-92856260D01*
X142627778Y-92934590D01*
X142653958Y-92951722D01*
X142660562Y-92954178D01*
X142660564Y-92954179D01*
X142817357Y-93012490D01*
X142817359Y-93012490D01*
X142823967Y-93014948D01*
X142907794Y-93026133D01*
X142996779Y-93038007D01*
X142996783Y-93038007D01*
X143003760Y-93038938D01*
X143010771Y-93038300D01*
X143010775Y-93038300D01*
X143153258Y-93025332D01*
X143184399Y-93022498D01*
X143191101Y-93020320D01*
X143191103Y-93020320D01*
X143350208Y-92968624D01*
X143350211Y-92968623D01*
X143356907Y-92966447D01*
X143475665Y-92895653D01*
X143487430Y-92888640D01*
X148386463Y-92888640D01*
X148404163Y-93069160D01*
X148461418Y-93241273D01*
X148465065Y-93247295D01*
X148465066Y-93247297D01*
X148549817Y-93387238D01*
X148555380Y-93396424D01*
X148560269Y-93401487D01*
X148560270Y-93401488D01*
X148618269Y-93461547D01*
X148681382Y-93526902D01*
X148741005Y-93565918D01*
X148789477Y-93597637D01*
X148833159Y-93626222D01*
X148839763Y-93628678D01*
X148839765Y-93628679D01*
X148996558Y-93686990D01*
X148996560Y-93686990D01*
X149003168Y-93689448D01*
X149086732Y-93700598D01*
X149175980Y-93712507D01*
X149175984Y-93712507D01*
X149182961Y-93713438D01*
X149189972Y-93712800D01*
X149189976Y-93712800D01*
X149332459Y-93699832D01*
X149363600Y-93696998D01*
X149370302Y-93694820D01*
X149370304Y-93694820D01*
X149529409Y-93643124D01*
X149529412Y-93643123D01*
X149536108Y-93640947D01*
X149661970Y-93565918D01*
X149685860Y-93551677D01*
X149685862Y-93551676D01*
X149691912Y-93548069D01*
X149823266Y-93422982D01*
X149923643Y-93271902D01*
X149965423Y-93161917D01*
X149985555Y-93108920D01*
X149985556Y-93108918D01*
X149988055Y-93102338D01*
X149990549Y-93084590D01*
X150012748Y-92926639D01*
X150012748Y-92926636D01*
X150013299Y-92922717D01*
X150013616Y-92900000D01*
X149993397Y-92719745D01*
X149991080Y-92713091D01*
X149947742Y-92588640D01*
X153586463Y-92588640D01*
X153604163Y-92769160D01*
X153661418Y-92941273D01*
X153665065Y-92947295D01*
X153665066Y-92947297D01*
X153734624Y-93062151D01*
X153755380Y-93096424D01*
X153760269Y-93101487D01*
X153760270Y-93101488D01*
X153785725Y-93127847D01*
X153881382Y-93226902D01*
X154033159Y-93326222D01*
X154039763Y-93328678D01*
X154039765Y-93328679D01*
X154138736Y-93365486D01*
X154195612Y-93407978D01*
X154220486Y-93474475D01*
X154205461Y-93543863D01*
X154182974Y-93573606D01*
X154119493Y-93635771D01*
X154021235Y-93788238D01*
X154018826Y-93794858D01*
X154018824Y-93794861D01*
X153961606Y-93952066D01*
X153959197Y-93958685D01*
X153936463Y-94138640D01*
X153954163Y-94319160D01*
X154011418Y-94491273D01*
X154015065Y-94497295D01*
X154015066Y-94497297D01*
X154025978Y-94515314D01*
X154105380Y-94646424D01*
X154231382Y-94776902D01*
X154383159Y-94876222D01*
X154389763Y-94878678D01*
X154389765Y-94878679D01*
X154546558Y-94936990D01*
X154546560Y-94936990D01*
X154553168Y-94939448D01*
X154636995Y-94950633D01*
X154725980Y-94962507D01*
X154725984Y-94962507D01*
X154732961Y-94963438D01*
X154739972Y-94962800D01*
X154739976Y-94962800D01*
X154882459Y-94949832D01*
X154913600Y-94946998D01*
X154920302Y-94944820D01*
X154920304Y-94944820D01*
X155079409Y-94893124D01*
X155079412Y-94893123D01*
X155086108Y-94890947D01*
X155241912Y-94798069D01*
X155373266Y-94672982D01*
X155473643Y-94521902D01*
X155531665Y-94369160D01*
X155535555Y-94358920D01*
X155535556Y-94358918D01*
X155538055Y-94352338D01*
X155540037Y-94338238D01*
X155562748Y-94176639D01*
X155562748Y-94176636D01*
X155563299Y-94172717D01*
X155563616Y-94150000D01*
X155543397Y-93969745D01*
X155540542Y-93961547D01*
X155486064Y-93805106D01*
X155486062Y-93805103D01*
X155483745Y-93798448D01*
X155387626Y-93644624D01*
X155356657Y-93613438D01*
X155264778Y-93520915D01*
X155264774Y-93520912D01*
X155259815Y-93515918D01*
X155248697Y-93508862D01*
X155158587Y-93451677D01*
X155106666Y-93418727D01*
X155012864Y-93385326D01*
X154955403Y-93343634D01*
X154929602Y-93277491D01*
X154943657Y-93207899D01*
X154968241Y-93175383D01*
X155018159Y-93127847D01*
X155018166Y-93127839D01*
X155023266Y-93122982D01*
X155123643Y-92971902D01*
X155169037Y-92852402D01*
X155185555Y-92808920D01*
X155185556Y-92808918D01*
X155188055Y-92802338D01*
X155191667Y-92776639D01*
X155212748Y-92626639D01*
X155212748Y-92626636D01*
X155213299Y-92622717D01*
X155213616Y-92600000D01*
X155193397Y-92419745D01*
X155191080Y-92413091D01*
X155136064Y-92255106D01*
X155136062Y-92255103D01*
X155133745Y-92248448D01*
X155086292Y-92172506D01*
X155041359Y-92100598D01*
X155037626Y-92094624D01*
X155032664Y-92089627D01*
X154914778Y-91970915D01*
X154914774Y-91970912D01*
X154909815Y-91965918D01*
X154898697Y-91958862D01*
X154775384Y-91880606D01*
X154756666Y-91868727D01*
X154726013Y-91857812D01*
X154592425Y-91810243D01*
X154592420Y-91810242D01*
X154585790Y-91807881D01*
X154578802Y-91807048D01*
X154578799Y-91807047D01*
X154455698Y-91792368D01*
X154405680Y-91786404D01*
X154398677Y-91787140D01*
X154398676Y-91787140D01*
X154232288Y-91804628D01*
X154232286Y-91804629D01*
X154225288Y-91805364D01*
X154053579Y-91863818D01*
X154047575Y-91867512D01*
X153905095Y-91955166D01*
X153905092Y-91955168D01*
X153899088Y-91958862D01*
X153894053Y-91963793D01*
X153894050Y-91963795D01*
X153774525Y-92080843D01*
X153769493Y-92085771D01*
X153671235Y-92238238D01*
X153668826Y-92244858D01*
X153668824Y-92244861D01*
X153612140Y-92400598D01*
X153609197Y-92408685D01*
X153586463Y-92588640D01*
X149947742Y-92588640D01*
X149936064Y-92555106D01*
X149936062Y-92555103D01*
X149933745Y-92548448D01*
X149837626Y-92394624D01*
X149832664Y-92389627D01*
X149714778Y-92270915D01*
X149714774Y-92270912D01*
X149709815Y-92265918D01*
X149698697Y-92258862D01*
X149639276Y-92221153D01*
X149556666Y-92168727D01*
X149518582Y-92155166D01*
X149392425Y-92110243D01*
X149392420Y-92110242D01*
X149385790Y-92107881D01*
X149378802Y-92107048D01*
X149378799Y-92107047D01*
X149255698Y-92092368D01*
X149205680Y-92086404D01*
X149198677Y-92087140D01*
X149198676Y-92087140D01*
X149032288Y-92104628D01*
X149032286Y-92104629D01*
X149025288Y-92105364D01*
X148853579Y-92163818D01*
X148847575Y-92167512D01*
X148705095Y-92255166D01*
X148705092Y-92255168D01*
X148699088Y-92258862D01*
X148694053Y-92263793D01*
X148694050Y-92263795D01*
X148610670Y-92345447D01*
X148569493Y-92385771D01*
X148471235Y-92538238D01*
X148468826Y-92544858D01*
X148468824Y-92544861D01*
X148440487Y-92622717D01*
X148409197Y-92708685D01*
X148386463Y-92888640D01*
X143487430Y-92888640D01*
X143506659Y-92877177D01*
X143506661Y-92877176D01*
X143512711Y-92873569D01*
X143644065Y-92748482D01*
X143744442Y-92597402D01*
X143803296Y-92442469D01*
X143806354Y-92434420D01*
X143806355Y-92434418D01*
X143808854Y-92427838D01*
X143809834Y-92420866D01*
X143833547Y-92252139D01*
X143833547Y-92252136D01*
X143834098Y-92248217D01*
X143834333Y-92231402D01*
X143834360Y-92229462D01*
X143834360Y-92229457D01*
X143834415Y-92225500D01*
X143814196Y-92045245D01*
X143811879Y-92038591D01*
X143756863Y-91880606D01*
X143756861Y-91880603D01*
X143754544Y-91873948D01*
X143711688Y-91805364D01*
X143662158Y-91726098D01*
X143658425Y-91720124D01*
X143570059Y-91631139D01*
X143535577Y-91596415D01*
X143535573Y-91596412D01*
X143530614Y-91591418D01*
X143519496Y-91584362D01*
X143471337Y-91553800D01*
X143377465Y-91494227D01*
X143348262Y-91483828D01*
X143213224Y-91435743D01*
X143213219Y-91435742D01*
X143206589Y-91433381D01*
X143199601Y-91432548D01*
X143199598Y-91432547D01*
X143074171Y-91417591D01*
X143026479Y-91411904D01*
X143019476Y-91412640D01*
X143019475Y-91412640D01*
X142853087Y-91430128D01*
X142853085Y-91430129D01*
X142846087Y-91430864D01*
X142674378Y-91489318D01*
X142668374Y-91493012D01*
X142525894Y-91580666D01*
X142525891Y-91580668D01*
X142519887Y-91584362D01*
X142514852Y-91589293D01*
X142514849Y-91589295D01*
X142395324Y-91706343D01*
X142390292Y-91711271D01*
X142292034Y-91863738D01*
X142289625Y-91870358D01*
X142289623Y-91870361D01*
X142235622Y-92018727D01*
X142229996Y-92034185D01*
X142207262Y-92214140D01*
X140857354Y-92214140D01*
X140764778Y-92120915D01*
X140764774Y-92120912D01*
X140759815Y-92115918D01*
X140748697Y-92108862D01*
X140674140Y-92061547D01*
X140606666Y-92018727D01*
X140567071Y-92004628D01*
X140442425Y-91960243D01*
X140442420Y-91960242D01*
X140435790Y-91957881D01*
X140428802Y-91957048D01*
X140428799Y-91957047D01*
X140278205Y-91939090D01*
X140255680Y-91936404D01*
X140248677Y-91937140D01*
X140248676Y-91937140D01*
X140082288Y-91954628D01*
X140082286Y-91954629D01*
X140075288Y-91955364D01*
X139903579Y-92013818D01*
X139841119Y-92052244D01*
X139755095Y-92105166D01*
X139755092Y-92105168D01*
X139749088Y-92108862D01*
X139744053Y-92113793D01*
X139744050Y-92113795D01*
X139624525Y-92230843D01*
X139619493Y-92235771D01*
X139521235Y-92388238D01*
X139518826Y-92394858D01*
X139518824Y-92394861D01*
X139462923Y-92548448D01*
X139459197Y-92558685D01*
X139436463Y-92738640D01*
X110406733Y-92738640D01*
X110393397Y-92619745D01*
X110391080Y-92613091D01*
X110336064Y-92455106D01*
X110336062Y-92455103D01*
X110333745Y-92448448D01*
X110300272Y-92394880D01*
X110241359Y-92300598D01*
X110237626Y-92294624D01*
X110209120Y-92265918D01*
X110114778Y-92170915D01*
X110114774Y-92170912D01*
X110109815Y-92165918D01*
X110102928Y-92161547D01*
X110013237Y-92104628D01*
X109956666Y-92068727D01*
X109879291Y-92041175D01*
X109792425Y-92010243D01*
X109792420Y-92010242D01*
X109785790Y-92007881D01*
X109778802Y-92007048D01*
X109778799Y-92007047D01*
X109655698Y-91992368D01*
X109605680Y-91986404D01*
X109598677Y-91987140D01*
X109598676Y-91987140D01*
X109432288Y-92004628D01*
X109432286Y-92004629D01*
X109425288Y-92005364D01*
X109253579Y-92063818D01*
X109217895Y-92085771D01*
X109105095Y-92155166D01*
X109105092Y-92155168D01*
X109099088Y-92158862D01*
X109094053Y-92163793D01*
X109094050Y-92163795D01*
X108993621Y-92262143D01*
X108969493Y-92285771D01*
X108871235Y-92438238D01*
X108868826Y-92444858D01*
X108868824Y-92444861D01*
X108813940Y-92595653D01*
X108809197Y-92608685D01*
X108786463Y-92788640D01*
X107490213Y-92788640D01*
X107489672Y-91593140D01*
X134986463Y-91593140D01*
X135004163Y-91773660D01*
X135061418Y-91945773D01*
X135065065Y-91951795D01*
X135065066Y-91951797D01*
X135151565Y-92094624D01*
X135155380Y-92100924D01*
X135160269Y-92105987D01*
X135160270Y-92105988D01*
X135174685Y-92120915D01*
X135281382Y-92231402D01*
X135433159Y-92330722D01*
X135439763Y-92333178D01*
X135439765Y-92333179D01*
X135596558Y-92391490D01*
X135596560Y-92391490D01*
X135603168Y-92393948D01*
X135686792Y-92405106D01*
X135775980Y-92417007D01*
X135775984Y-92417007D01*
X135782961Y-92417938D01*
X135789972Y-92417300D01*
X135789976Y-92417300D01*
X135932459Y-92404332D01*
X135963600Y-92401498D01*
X135970302Y-92399320D01*
X135970304Y-92399320D01*
X136129409Y-92347624D01*
X136129412Y-92347623D01*
X136136108Y-92345447D01*
X136244482Y-92280843D01*
X136285860Y-92256177D01*
X136285862Y-92256176D01*
X136291912Y-92252569D01*
X136423266Y-92127482D01*
X136523643Y-91976402D01*
X136566410Y-91863818D01*
X136585555Y-91813420D01*
X136585556Y-91813418D01*
X136588055Y-91806838D01*
X136590810Y-91787238D01*
X136612748Y-91631139D01*
X136612748Y-91631136D01*
X136613299Y-91627217D01*
X136613616Y-91604500D01*
X136593397Y-91424245D01*
X136591080Y-91417591D01*
X136536064Y-91259606D01*
X136536062Y-91259603D01*
X136533745Y-91252948D01*
X136437626Y-91099124D01*
X136423941Y-91085343D01*
X136314778Y-90975415D01*
X136314774Y-90975412D01*
X136309815Y-90970418D01*
X136298697Y-90963362D01*
X136250538Y-90932800D01*
X136156666Y-90873227D01*
X136084801Y-90847637D01*
X135992425Y-90814743D01*
X135992420Y-90814742D01*
X135985790Y-90812381D01*
X135978802Y-90811548D01*
X135978799Y-90811547D01*
X135824297Y-90793124D01*
X135805680Y-90790904D01*
X135798677Y-90791640D01*
X135798676Y-90791640D01*
X135632288Y-90809128D01*
X135632286Y-90809129D01*
X135625288Y-90809864D01*
X135453579Y-90868318D01*
X135447575Y-90872012D01*
X135305095Y-90959666D01*
X135305092Y-90959668D01*
X135299088Y-90963362D01*
X135294053Y-90968293D01*
X135294050Y-90968295D01*
X135174525Y-91085343D01*
X135169493Y-91090271D01*
X135071235Y-91242738D01*
X135068826Y-91249358D01*
X135068824Y-91249361D01*
X135011606Y-91406566D01*
X135009197Y-91413185D01*
X134986463Y-91593140D01*
X107489672Y-91593140D01*
X107488905Y-89898134D01*
X109566500Y-89898134D01*
X109573255Y-89960316D01*
X109624385Y-90096705D01*
X109711739Y-90213261D01*
X109828295Y-90300615D01*
X109964684Y-90351745D01*
X110026866Y-90358500D01*
X111823134Y-90358500D01*
X111885316Y-90351745D01*
X112021705Y-90300615D01*
X112138261Y-90213261D01*
X112225615Y-90096705D01*
X112250005Y-90031646D01*
X112269598Y-89979382D01*
X112312240Y-89922618D01*
X112378802Y-89897918D01*
X112448150Y-89913126D01*
X112482817Y-89941114D01*
X112511250Y-89973938D01*
X112683126Y-90116632D01*
X112876000Y-90229338D01*
X113084692Y-90309030D01*
X113089760Y-90310061D01*
X113089763Y-90310062D01*
X113197017Y-90331883D01*
X113303597Y-90353567D01*
X113308772Y-90353757D01*
X113308774Y-90353757D01*
X113521673Y-90361564D01*
X113521677Y-90361564D01*
X113526837Y-90361753D01*
X113531957Y-90361097D01*
X113531959Y-90361097D01*
X113743288Y-90334025D01*
X113743289Y-90334025D01*
X113748416Y-90333368D01*
X113753366Y-90331883D01*
X113957429Y-90270661D01*
X113957434Y-90270659D01*
X113962384Y-90269174D01*
X114162994Y-90170896D01*
X114344860Y-90041173D01*
X114354421Y-90031646D01*
X114488616Y-89897918D01*
X114503096Y-89883489D01*
X114517754Y-89863091D01*
X114633453Y-89702077D01*
X114634776Y-89703028D01*
X114681645Y-89659857D01*
X114751580Y-89647625D01*
X114817026Y-89675144D01*
X114844875Y-89706994D01*
X114904987Y-89805088D01*
X115051250Y-89973938D01*
X115223126Y-90116632D01*
X115416000Y-90229338D01*
X115624692Y-90309030D01*
X115629760Y-90310061D01*
X115629763Y-90310062D01*
X115737017Y-90331883D01*
X115843597Y-90353567D01*
X115848772Y-90353757D01*
X115848774Y-90353757D01*
X116061673Y-90361564D01*
X116061677Y-90361564D01*
X116066837Y-90361753D01*
X116071957Y-90361097D01*
X116071959Y-90361097D01*
X116283288Y-90334025D01*
X116283289Y-90334025D01*
X116288416Y-90333368D01*
X116293366Y-90331883D01*
X116497429Y-90270661D01*
X116497434Y-90270659D01*
X116502384Y-90269174D01*
X116702994Y-90170896D01*
X116884860Y-90041173D01*
X116894421Y-90031646D01*
X117028616Y-89897918D01*
X117043096Y-89883489D01*
X117057754Y-89863091D01*
X117173453Y-89702077D01*
X117174776Y-89703028D01*
X117221645Y-89659857D01*
X117291580Y-89647625D01*
X117357026Y-89675144D01*
X117384875Y-89706994D01*
X117444987Y-89805088D01*
X117591250Y-89973938D01*
X117763126Y-90116632D01*
X117956000Y-90229338D01*
X118164692Y-90309030D01*
X118169760Y-90310061D01*
X118169763Y-90310062D01*
X118277017Y-90331883D01*
X118383597Y-90353567D01*
X118388772Y-90353757D01*
X118388774Y-90353757D01*
X118601673Y-90361564D01*
X118601677Y-90361564D01*
X118606837Y-90361753D01*
X118611957Y-90361097D01*
X118611959Y-90361097D01*
X118823288Y-90334025D01*
X118823289Y-90334025D01*
X118828416Y-90333368D01*
X118833366Y-90331883D01*
X119037429Y-90270661D01*
X119037434Y-90270659D01*
X119042384Y-90269174D01*
X119242994Y-90170896D01*
X119424860Y-90041173D01*
X119434421Y-90031646D01*
X119568616Y-89897918D01*
X119583096Y-89883489D01*
X119597754Y-89863091D01*
X119713453Y-89702077D01*
X119714776Y-89703028D01*
X119761645Y-89659857D01*
X119831580Y-89647625D01*
X119897026Y-89675144D01*
X119924875Y-89706994D01*
X119984987Y-89805088D01*
X120131250Y-89973938D01*
X120303126Y-90116632D01*
X120496000Y-90229338D01*
X120704692Y-90309030D01*
X120709760Y-90310061D01*
X120709763Y-90310062D01*
X120817017Y-90331883D01*
X120923597Y-90353567D01*
X120928772Y-90353757D01*
X120928774Y-90353757D01*
X121141673Y-90361564D01*
X121141677Y-90361564D01*
X121146837Y-90361753D01*
X121151957Y-90361097D01*
X121151959Y-90361097D01*
X121363288Y-90334025D01*
X121363289Y-90334025D01*
X121368416Y-90333368D01*
X121373366Y-90331883D01*
X121577429Y-90270661D01*
X121577434Y-90270659D01*
X121582384Y-90269174D01*
X121782994Y-90170896D01*
X121964860Y-90041173D01*
X121967402Y-90038640D01*
X149936463Y-90038640D01*
X149954163Y-90219160D01*
X150011418Y-90391273D01*
X150015065Y-90397295D01*
X150015066Y-90397297D01*
X150025978Y-90415314D01*
X150105380Y-90546424D01*
X150231382Y-90676902D01*
X150383159Y-90776222D01*
X150389763Y-90778678D01*
X150389765Y-90778679D01*
X150546558Y-90836990D01*
X150546560Y-90836990D01*
X150553168Y-90839448D01*
X150636995Y-90850633D01*
X150725980Y-90862507D01*
X150725984Y-90862507D01*
X150732961Y-90863438D01*
X150739972Y-90862800D01*
X150739976Y-90862800D01*
X150882459Y-90849832D01*
X150913600Y-90846998D01*
X150920302Y-90844820D01*
X150920304Y-90844820D01*
X151079409Y-90793124D01*
X151079412Y-90793123D01*
X151086108Y-90790947D01*
X151241912Y-90698069D01*
X151373266Y-90572982D01*
X151473643Y-90421902D01*
X151531660Y-90269174D01*
X151535555Y-90258920D01*
X151535556Y-90258918D01*
X151538055Y-90252338D01*
X151539035Y-90245366D01*
X151562748Y-90076639D01*
X151562748Y-90076636D01*
X151563299Y-90072717D01*
X151563616Y-90050000D01*
X151543397Y-89869745D01*
X151541080Y-89863091D01*
X151486064Y-89705106D01*
X151486062Y-89705103D01*
X151483745Y-89698448D01*
X151451988Y-89647625D01*
X151391359Y-89550598D01*
X151387626Y-89544624D01*
X151373941Y-89530843D01*
X151264778Y-89420915D01*
X151264774Y-89420912D01*
X151259815Y-89415918D01*
X151248697Y-89408862D01*
X151200538Y-89378300D01*
X151106666Y-89318727D01*
X151077463Y-89308328D01*
X150942425Y-89260243D01*
X150942420Y-89260242D01*
X150935790Y-89257881D01*
X150928802Y-89257048D01*
X150928799Y-89257047D01*
X150793778Y-89240947D01*
X150755680Y-89236404D01*
X150748677Y-89237140D01*
X150748676Y-89237140D01*
X150582288Y-89254628D01*
X150582286Y-89254629D01*
X150575288Y-89255364D01*
X150403579Y-89313818D01*
X150397575Y-89317512D01*
X150255095Y-89405166D01*
X150255092Y-89405168D01*
X150249088Y-89408862D01*
X150244053Y-89413793D01*
X150244050Y-89413795D01*
X150124525Y-89530843D01*
X150119493Y-89535771D01*
X150021235Y-89688238D01*
X150018826Y-89694858D01*
X150018824Y-89694861D01*
X149961606Y-89852066D01*
X149959197Y-89858685D01*
X149936463Y-90038640D01*
X121967402Y-90038640D01*
X121974421Y-90031646D01*
X122108616Y-89897918D01*
X122123096Y-89883489D01*
X122137754Y-89863091D01*
X122250435Y-89706277D01*
X122253453Y-89702077D01*
X122257020Y-89694861D01*
X122350136Y-89506453D01*
X122350137Y-89506451D01*
X122352430Y-89501811D01*
X122417370Y-89288069D01*
X122446529Y-89066590D01*
X122447476Y-89027841D01*
X122448074Y-89003365D01*
X122448074Y-89003361D01*
X122448156Y-89000000D01*
X122429852Y-88777361D01*
X122375431Y-88560702D01*
X122344097Y-88488640D01*
X131386463Y-88488640D01*
X131404163Y-88669160D01*
X131461418Y-88841273D01*
X131465065Y-88847295D01*
X131465066Y-88847297D01*
X131475978Y-88865314D01*
X131555380Y-88996424D01*
X131681382Y-89126902D01*
X131833159Y-89226222D01*
X131839763Y-89228678D01*
X131839765Y-89228679D01*
X131996558Y-89286990D01*
X131996560Y-89286990D01*
X132003168Y-89289448D01*
X132086995Y-89300633D01*
X132175980Y-89312507D01*
X132175984Y-89312507D01*
X132182961Y-89313438D01*
X132189972Y-89312800D01*
X132189976Y-89312800D01*
X132332459Y-89299832D01*
X132363600Y-89296998D01*
X132370302Y-89294820D01*
X132370304Y-89294820D01*
X132529409Y-89243124D01*
X132529412Y-89243123D01*
X132536108Y-89240947D01*
X132691912Y-89148069D01*
X132823266Y-89022982D01*
X132923643Y-88871902D01*
X132988055Y-88702338D01*
X132989035Y-88695366D01*
X133012748Y-88526639D01*
X133012748Y-88526636D01*
X133013299Y-88522717D01*
X133013616Y-88500000D01*
X132993397Y-88319745D01*
X132991080Y-88313091D01*
X132936064Y-88155106D01*
X132936062Y-88155103D01*
X132933745Y-88148448D01*
X132837626Y-87994624D01*
X132828835Y-87985771D01*
X132714778Y-87870915D01*
X132714774Y-87870912D01*
X132709815Y-87865918D01*
X132703801Y-87862101D01*
X132576569Y-87781358D01*
X132556666Y-87768727D01*
X132517869Y-87754912D01*
X132392425Y-87710243D01*
X132392420Y-87710242D01*
X132385790Y-87707881D01*
X132378802Y-87707048D01*
X132378799Y-87707047D01*
X132255698Y-87692368D01*
X132205680Y-87686404D01*
X132198677Y-87687140D01*
X132198676Y-87687140D01*
X132032288Y-87704628D01*
X132032286Y-87704629D01*
X132025288Y-87705364D01*
X131853579Y-87763818D01*
X131816322Y-87786739D01*
X131705095Y-87855166D01*
X131705092Y-87855168D01*
X131699088Y-87858862D01*
X131694053Y-87863793D01*
X131694050Y-87863795D01*
X131574525Y-87980843D01*
X131569493Y-87985771D01*
X131471235Y-88138238D01*
X131468826Y-88144858D01*
X131468824Y-88144861D01*
X131432619Y-88244333D01*
X131409197Y-88308685D01*
X131386463Y-88488640D01*
X122344097Y-88488640D01*
X122286354Y-88355840D01*
X122210772Y-88239008D01*
X122167822Y-88172617D01*
X122167820Y-88172614D01*
X122165014Y-88168277D01*
X122014670Y-88003051D01*
X122010619Y-87999852D01*
X122010615Y-87999848D01*
X121843414Y-87867800D01*
X121843410Y-87867798D01*
X121839359Y-87864598D01*
X121643789Y-87756638D01*
X121638920Y-87754914D01*
X121638916Y-87754912D01*
X121438087Y-87683795D01*
X121438083Y-87683794D01*
X121433212Y-87682069D01*
X121428119Y-87681162D01*
X121428116Y-87681161D01*
X121218373Y-87643800D01*
X121218367Y-87643799D01*
X121213284Y-87642894D01*
X121139452Y-87641992D01*
X120995081Y-87640228D01*
X120995079Y-87640228D01*
X120989911Y-87640165D01*
X120769091Y-87673955D01*
X120556756Y-87743357D01*
X120358607Y-87846507D01*
X120354474Y-87849610D01*
X120354471Y-87849612D01*
X120206959Y-87960367D01*
X120179965Y-87980635D01*
X120176393Y-87984373D01*
X120068729Y-88097037D01*
X120025629Y-88142138D01*
X119918201Y-88299621D01*
X119863293Y-88344621D01*
X119792768Y-88352792D01*
X119729021Y-88321538D01*
X119708324Y-88297054D01*
X119627822Y-88172617D01*
X119627820Y-88172614D01*
X119625014Y-88168277D01*
X119474670Y-88003051D01*
X119470619Y-87999852D01*
X119470615Y-87999848D01*
X119303414Y-87867800D01*
X119303410Y-87867798D01*
X119299359Y-87864598D01*
X119103789Y-87756638D01*
X119098920Y-87754914D01*
X119098916Y-87754912D01*
X118898087Y-87683795D01*
X118898083Y-87683794D01*
X118893212Y-87682069D01*
X118888119Y-87681162D01*
X118888116Y-87681161D01*
X118678373Y-87643800D01*
X118678367Y-87643799D01*
X118673284Y-87642894D01*
X118599452Y-87641992D01*
X118455081Y-87640228D01*
X118455079Y-87640228D01*
X118449911Y-87640165D01*
X118229091Y-87673955D01*
X118016756Y-87743357D01*
X117818607Y-87846507D01*
X117814474Y-87849610D01*
X117814471Y-87849612D01*
X117666959Y-87960367D01*
X117639965Y-87980635D01*
X117636393Y-87984373D01*
X117528729Y-88097037D01*
X117485629Y-88142138D01*
X117378201Y-88299621D01*
X117323293Y-88344621D01*
X117252768Y-88352792D01*
X117189021Y-88321538D01*
X117168324Y-88297054D01*
X117087822Y-88172617D01*
X117087820Y-88172614D01*
X117085014Y-88168277D01*
X116934670Y-88003051D01*
X116930619Y-87999852D01*
X116930615Y-87999848D01*
X116763414Y-87867800D01*
X116763410Y-87867798D01*
X116759359Y-87864598D01*
X116563789Y-87756638D01*
X116558920Y-87754914D01*
X116558916Y-87754912D01*
X116358087Y-87683795D01*
X116358083Y-87683794D01*
X116353212Y-87682069D01*
X116348119Y-87681162D01*
X116348116Y-87681161D01*
X116138373Y-87643800D01*
X116138367Y-87643799D01*
X116133284Y-87642894D01*
X116059452Y-87641992D01*
X115915081Y-87640228D01*
X115915079Y-87640228D01*
X115909911Y-87640165D01*
X115689091Y-87673955D01*
X115476756Y-87743357D01*
X115278607Y-87846507D01*
X115274474Y-87849610D01*
X115274471Y-87849612D01*
X115126959Y-87960367D01*
X115099965Y-87980635D01*
X115096393Y-87984373D01*
X114988729Y-88097037D01*
X114945629Y-88142138D01*
X114838201Y-88299621D01*
X114783293Y-88344621D01*
X114712768Y-88352792D01*
X114649021Y-88321538D01*
X114628324Y-88297054D01*
X114547822Y-88172617D01*
X114547820Y-88172614D01*
X114545014Y-88168277D01*
X114394670Y-88003051D01*
X114390619Y-87999852D01*
X114390615Y-87999848D01*
X114223414Y-87867800D01*
X114223410Y-87867798D01*
X114219359Y-87864598D01*
X114023789Y-87756638D01*
X114018920Y-87754914D01*
X114018916Y-87754912D01*
X113818087Y-87683795D01*
X113818083Y-87683794D01*
X113813212Y-87682069D01*
X113808119Y-87681162D01*
X113808116Y-87681161D01*
X113598373Y-87643800D01*
X113598367Y-87643799D01*
X113593284Y-87642894D01*
X113519452Y-87641992D01*
X113375081Y-87640228D01*
X113375079Y-87640228D01*
X113369911Y-87640165D01*
X113149091Y-87673955D01*
X112936756Y-87743357D01*
X112738607Y-87846507D01*
X112734474Y-87849610D01*
X112734471Y-87849612D01*
X112586959Y-87960367D01*
X112559965Y-87980635D01*
X112503537Y-88039684D01*
X112479283Y-88065064D01*
X112417759Y-88100494D01*
X112346846Y-88097037D01*
X112289060Y-88055791D01*
X112270207Y-88022243D01*
X112228767Y-87911703D01*
X112225615Y-87903295D01*
X112138261Y-87786739D01*
X112021705Y-87699385D01*
X111885316Y-87648255D01*
X111823134Y-87641500D01*
X110026866Y-87641500D01*
X109964684Y-87648255D01*
X109828295Y-87699385D01*
X109711739Y-87786739D01*
X109624385Y-87903295D01*
X109573255Y-88039684D01*
X109566500Y-88101866D01*
X109566500Y-89898134D01*
X107488905Y-89898134D01*
X107488421Y-88829174D01*
X107489920Y-88809746D01*
X107493590Y-88786175D01*
X107491341Y-88768976D01*
X107490508Y-88745036D01*
X107504647Y-88511296D01*
X107506481Y-88496192D01*
X107538816Y-88319745D01*
X107553613Y-88239002D01*
X107557252Y-88224234D01*
X107575880Y-88164457D01*
X107635045Y-87974589D01*
X107640440Y-87960367D01*
X107683542Y-87864598D01*
X107747752Y-87721929D01*
X107754814Y-87708473D01*
X107890089Y-87484702D01*
X107898731Y-87472181D01*
X108059991Y-87266348D01*
X108070081Y-87254960D01*
X108254960Y-87070081D01*
X108266348Y-87059991D01*
X108472181Y-86898731D01*
X108484703Y-86890088D01*
X108579894Y-86832543D01*
X108708473Y-86754814D01*
X108721929Y-86747752D01*
X108960370Y-86640439D01*
X108974589Y-86635045D01*
X109224240Y-86557251D01*
X109239002Y-86553613D01*
X109432910Y-86518078D01*
X109496192Y-86506481D01*
X109511296Y-86504647D01*
X109737803Y-86490946D01*
X109764620Y-86492207D01*
X109764751Y-86492209D01*
X109773623Y-86493590D01*
X109782525Y-86492426D01*
X109782530Y-86492426D01*
X109805041Y-86489482D01*
X109821434Y-86488418D01*
X154150547Y-86508478D01*
G37*
G04 #@! TD.AperFunction*
M02*
