G04 #@! TF.GenerationSoftware,KiCad,Pcbnew,(6.0.9)*
G04 #@! TF.CreationDate,2023-02-25T19:24:10-07:00*
G04 #@! TF.ProjectId,AutoDischarger,4175746f-4469-4736-9368-61726765722e,rev?*
G04 #@! TF.SameCoordinates,Original*
G04 #@! TF.FileFunction,Copper,L2,Inr*
G04 #@! TF.FilePolarity,Positive*
%FSLAX46Y46*%
G04 Gerber Fmt 4.6, Leading zero omitted, Abs format (unit mm)*
G04 Created by KiCad (PCBNEW (6.0.9)) date 2023-02-25 19:24:10*
%MOMM*%
%LPD*%
G01*
G04 APERTURE LIST*
G04 Aperture macros list*
%AMRoundRect*
0 Rectangle with rounded corners*
0 $1 Rounding radius*
0 $2 $3 $4 $5 $6 $7 $8 $9 X,Y pos of 4 corners*
0 Add a 4 corners polygon primitive as box body*
4,1,4,$2,$3,$4,$5,$6,$7,$8,$9,$2,$3,0*
0 Add four circle primitives for the rounded corners*
1,1,$1+$1,$2,$3*
1,1,$1+$1,$4,$5*
1,1,$1+$1,$6,$7*
1,1,$1+$1,$8,$9*
0 Add four rect primitives between the rounded corners*
20,1,$1+$1,$2,$3,$4,$5,0*
20,1,$1+$1,$4,$5,$6,$7,0*
20,1,$1+$1,$6,$7,$8,$9,0*
20,1,$1+$1,$8,$9,$2,$3,0*%
G04 Aperture macros list end*
G04 #@! TA.AperFunction,ComponentPad*
%ADD10R,1.700000X1.700000*%
G04 #@! TD*
G04 #@! TA.AperFunction,ComponentPad*
%ADD11O,1.700000X1.700000*%
G04 #@! TD*
G04 #@! TA.AperFunction,ComponentPad*
%ADD12RoundRect,0.250000X-0.725000X0.600000X-0.725000X-0.600000X0.725000X-0.600000X0.725000X0.600000X0*%
G04 #@! TD*
G04 #@! TA.AperFunction,ComponentPad*
%ADD13O,1.950000X1.700000*%
G04 #@! TD*
G04 #@! TA.AperFunction,ViaPad*
%ADD14C,0.600000*%
G04 #@! TD*
G04 APERTURE END LIST*
D10*
X110925000Y-89000000D03*
D11*
X113465000Y-89000000D03*
X116005000Y-89000000D03*
X118545000Y-89000000D03*
X121085000Y-89000000D03*
D12*
X153000000Y-104500000D03*
D13*
X153000000Y-107000000D03*
X153000000Y-109500000D03*
X153000000Y-112000000D03*
X153000000Y-114500000D03*
X153000000Y-117000000D03*
X153000000Y-119500000D03*
D14*
X128904043Y-123462287D03*
X128585000Y-107915000D03*
X128665000Y-95535000D03*
X154200000Y-125500000D03*
X136700000Y-128600000D03*
X108300000Y-114400000D03*
X108525000Y-120175000D03*
X129950000Y-132350000D03*
X144284459Y-130747967D03*
X130800000Y-126300000D03*
X132200000Y-88500000D03*
X140700000Y-128800000D03*
X137832500Y-134567500D03*
X123300000Y-103100000D03*
X127000000Y-133800000D03*
X124350000Y-133250000D03*
X109800000Y-118200000D03*
X108825000Y-112375000D03*
X130800000Y-118900000D03*
X122500000Y-113200000D03*
X133000000Y-103900000D03*
X127600000Y-126200000D03*
X141400000Y-100100000D03*
X151400000Y-134600000D03*
X135800000Y-91604500D03*
X133700000Y-134100000D03*
X150500000Y-100500000D03*
X111475000Y-103925000D03*
X113900000Y-131600000D03*
X130300000Y-98717508D03*
X130500000Y-111000000D03*
X117800000Y-125000000D03*
X120500000Y-94200000D03*
X136095000Y-116395000D03*
X127630000Y-110400000D03*
X137139751Y-122181507D03*
X149200000Y-92900000D03*
X126800000Y-97100000D03*
X112050000Y-119150000D03*
X136200000Y-112400000D03*
X114500000Y-115900000D03*
X147800000Y-130200000D03*
X109600000Y-92800000D03*
X112200000Y-111300000D03*
X135300000Y-123875500D03*
X145100000Y-124000000D03*
X120600000Y-120500000D03*
X112800000Y-112600000D03*
X114075000Y-98025000D03*
X143020799Y-92225500D03*
X136400000Y-100800000D03*
X115700000Y-104200000D03*
X147800000Y-96900000D03*
X115100000Y-99100000D03*
X114075000Y-112375000D03*
X135300000Y-130400000D03*
X120400000Y-115700000D03*
X144400000Y-126100000D03*
X115000000Y-112000000D03*
X149100000Y-133900000D03*
X131360000Y-110240000D03*
X132300000Y-123200000D03*
X114400000Y-105500000D03*
X131400000Y-102500000D03*
X138300000Y-94700000D03*
X140250000Y-92750000D03*
X144900000Y-104200000D03*
X150750000Y-90050000D03*
X138900000Y-107200000D03*
X145100000Y-107100000D03*
X154750000Y-94150000D03*
X136910000Y-107410000D03*
X144700000Y-111800000D03*
X138950000Y-109450000D03*
X144800000Y-116100000D03*
X137800000Y-117700000D03*
X142700000Y-123400000D03*
X154400000Y-92600000D03*
X142000000Y-103500000D03*
X153600000Y-99200000D03*
X143200000Y-110800000D03*
X144400000Y-120300000D03*
X152600000Y-127400000D03*
X144150000Y-122650000D03*
X154800000Y-132400000D03*
G04 #@! TA.AperFunction,Conductor*
G36*
X154150547Y-86508478D02*
G01*
X154169872Y-86509978D01*
X154184158Y-86512202D01*
X154193724Y-86513691D01*
X154210923Y-86511442D01*
X154234863Y-86510609D01*
X154468603Y-86524748D01*
X154483707Y-86526582D01*
X154740894Y-86573713D01*
X154755667Y-86577354D01*
X155005308Y-86655145D01*
X155019526Y-86660537D01*
X155257962Y-86767850D01*
X155271431Y-86774919D01*
X155495197Y-86910190D01*
X155507720Y-86918833D01*
X155713552Y-87080092D01*
X155724940Y-87090182D01*
X155909818Y-87275060D01*
X155919908Y-87286448D01*
X156081167Y-87492280D01*
X156089810Y-87504803D01*
X156225081Y-87728569D01*
X156232150Y-87742038D01*
X156338307Y-87977905D01*
X156339461Y-87980470D01*
X156344855Y-87994692D01*
X156392229Y-88146722D01*
X156422646Y-88244333D01*
X156426287Y-88259106D01*
X156473418Y-88516293D01*
X156475252Y-88531397D01*
X156488953Y-88757904D01*
X156487692Y-88784721D01*
X156487690Y-88784852D01*
X156486309Y-88793724D01*
X156487473Y-88802626D01*
X156487473Y-88802628D01*
X156490436Y-88825283D01*
X156491500Y-88841621D01*
X156491500Y-133150633D01*
X156490000Y-133170018D01*
X156487690Y-133184851D01*
X156487690Y-133184855D01*
X156486309Y-133193724D01*
X156488136Y-133207692D01*
X156488558Y-133210919D01*
X156489391Y-133234863D01*
X156475252Y-133468603D01*
X156473418Y-133483707D01*
X156426287Y-133740894D01*
X156422646Y-133755667D01*
X156370592Y-133922717D01*
X156344857Y-134005303D01*
X156339463Y-134019526D01*
X156232152Y-134257959D01*
X156225081Y-134271431D01*
X156089810Y-134495197D01*
X156081167Y-134507720D01*
X155919908Y-134713552D01*
X155909818Y-134724940D01*
X155724940Y-134909818D01*
X155713552Y-134919908D01*
X155507720Y-135081167D01*
X155495197Y-135089810D01*
X155271431Y-135225081D01*
X155257962Y-135232150D01*
X155019526Y-135339463D01*
X155005308Y-135344855D01*
X154775056Y-135416604D01*
X154755667Y-135422646D01*
X154740894Y-135426287D01*
X154483707Y-135473418D01*
X154468603Y-135475252D01*
X154242096Y-135488953D01*
X154215279Y-135487692D01*
X154215148Y-135487690D01*
X154206276Y-135486309D01*
X154197374Y-135487473D01*
X154197372Y-135487473D01*
X154182707Y-135489391D01*
X154174714Y-135490436D01*
X154158379Y-135491500D01*
X109849367Y-135491500D01*
X109829982Y-135490000D01*
X109815149Y-135487690D01*
X109815145Y-135487690D01*
X109806276Y-135486309D01*
X109789077Y-135488558D01*
X109765137Y-135489391D01*
X109531397Y-135475252D01*
X109516293Y-135473418D01*
X109259106Y-135426287D01*
X109244333Y-135422646D01*
X109224944Y-135416604D01*
X108994692Y-135344855D01*
X108980474Y-135339463D01*
X108742038Y-135232150D01*
X108728569Y-135225081D01*
X108504803Y-135089810D01*
X108492280Y-135081167D01*
X108286448Y-134919908D01*
X108275060Y-134909818D01*
X108090182Y-134724940D01*
X108080092Y-134713552D01*
X107918833Y-134507720D01*
X107910190Y-134495197D01*
X107774919Y-134271431D01*
X107767848Y-134257959D01*
X107660537Y-134019526D01*
X107655143Y-134005303D01*
X107629409Y-133922717D01*
X107618790Y-133888640D01*
X148286463Y-133888640D01*
X148304163Y-134069160D01*
X148361418Y-134241273D01*
X148365065Y-134247295D01*
X148365066Y-134247297D01*
X148375978Y-134265314D01*
X148455380Y-134396424D01*
X148581382Y-134526902D01*
X148733159Y-134626222D01*
X148739763Y-134628678D01*
X148739765Y-134628679D01*
X148896558Y-134686990D01*
X148896560Y-134686990D01*
X148903168Y-134689448D01*
X148986995Y-134700633D01*
X149075980Y-134712507D01*
X149075984Y-134712507D01*
X149082961Y-134713438D01*
X149089972Y-134712800D01*
X149089976Y-134712800D01*
X149232459Y-134699832D01*
X149263600Y-134696998D01*
X149270302Y-134694820D01*
X149270304Y-134694820D01*
X149429409Y-134643124D01*
X149429412Y-134643123D01*
X149436108Y-134640947D01*
X149591912Y-134548069D01*
X149723266Y-134422982D01*
X149823643Y-134271902D01*
X149888055Y-134102338D01*
X149889035Y-134095366D01*
X149912748Y-133926639D01*
X149912748Y-133926636D01*
X149913299Y-133922717D01*
X149913616Y-133900000D01*
X149893397Y-133719745D01*
X149891080Y-133713091D01*
X149836064Y-133555106D01*
X149836062Y-133555103D01*
X149833745Y-133548448D01*
X149737626Y-133394624D01*
X149723941Y-133380843D01*
X149614778Y-133270915D01*
X149614774Y-133270912D01*
X149609815Y-133265918D01*
X149598697Y-133258862D01*
X149518065Y-133207692D01*
X149456666Y-133168727D01*
X149405852Y-133150633D01*
X149292425Y-133110243D01*
X149292420Y-133110242D01*
X149285790Y-133107881D01*
X149278802Y-133107048D01*
X149278799Y-133107047D01*
X149143778Y-133090947D01*
X149105680Y-133086404D01*
X149098677Y-133087140D01*
X149098676Y-133087140D01*
X148932288Y-133104628D01*
X148932286Y-133104629D01*
X148925288Y-133105364D01*
X148820763Y-133140947D01*
X148763332Y-133160498D01*
X148753579Y-133163818D01*
X148739457Y-133172506D01*
X148605095Y-133255166D01*
X148605092Y-133255168D01*
X148599088Y-133258862D01*
X148594053Y-133263793D01*
X148594050Y-133263795D01*
X148474525Y-133380843D01*
X148469493Y-133385771D01*
X148371235Y-133538238D01*
X148368826Y-133544858D01*
X148368824Y-133544861D01*
X148311606Y-133702066D01*
X148309197Y-133708685D01*
X148286463Y-133888640D01*
X107618790Y-133888640D01*
X107577354Y-133755667D01*
X107573713Y-133740894D01*
X107526582Y-133483707D01*
X107524748Y-133468603D01*
X107511269Y-133245768D01*
X107512520Y-133222218D01*
X107512334Y-133222201D01*
X107512769Y-133217348D01*
X107513576Y-133212552D01*
X107513729Y-133200000D01*
X107509752Y-133172227D01*
X107508480Y-133154423D01*
X107508111Y-132338640D01*
X129136463Y-132338640D01*
X129154163Y-132519160D01*
X129211418Y-132691273D01*
X129215065Y-132697295D01*
X129215066Y-132697297D01*
X129225978Y-132715314D01*
X129305380Y-132846424D01*
X129431382Y-132976902D01*
X129583159Y-133076222D01*
X129589763Y-133078678D01*
X129589765Y-133078679D01*
X129746558Y-133136990D01*
X129746560Y-133136990D01*
X129753168Y-133139448D01*
X129836995Y-133150633D01*
X129925980Y-133162507D01*
X129925984Y-133162507D01*
X129932961Y-133163438D01*
X129939972Y-133162800D01*
X129939976Y-133162800D01*
X130082459Y-133149832D01*
X130113600Y-133146998D01*
X130120302Y-133144820D01*
X130120304Y-133144820D01*
X130279409Y-133093124D01*
X130279412Y-133093123D01*
X130286108Y-133090947D01*
X130441912Y-132998069D01*
X130573266Y-132872982D01*
X130673643Y-132721902D01*
X130731665Y-132569160D01*
X130735555Y-132558920D01*
X130735556Y-132558918D01*
X130738055Y-132552338D01*
X130739035Y-132545366D01*
X130761061Y-132388640D01*
X153986463Y-132388640D01*
X154004163Y-132569160D01*
X154061418Y-132741273D01*
X154065065Y-132747295D01*
X154065066Y-132747297D01*
X154144126Y-132877841D01*
X154155380Y-132896424D01*
X154281382Y-133026902D01*
X154287278Y-133030760D01*
X154408741Y-133110243D01*
X154433159Y-133126222D01*
X154439763Y-133128678D01*
X154439765Y-133128679D01*
X154596558Y-133186990D01*
X154596560Y-133186990D01*
X154603168Y-133189448D01*
X154682250Y-133200000D01*
X154775980Y-133212507D01*
X154775984Y-133212507D01*
X154782961Y-133213438D01*
X154789972Y-133212800D01*
X154789976Y-133212800D01*
X154932459Y-133199832D01*
X154963600Y-133196998D01*
X154970302Y-133194820D01*
X154970304Y-133194820D01*
X155129409Y-133143124D01*
X155129412Y-133143123D01*
X155136108Y-133140947D01*
X155291912Y-133048069D01*
X155423266Y-132922982D01*
X155523643Y-132771902D01*
X155588055Y-132602338D01*
X155589035Y-132595366D01*
X155612748Y-132426639D01*
X155612748Y-132426636D01*
X155613299Y-132422717D01*
X155613616Y-132400000D01*
X155593397Y-132219745D01*
X155591080Y-132213091D01*
X155536064Y-132055106D01*
X155536062Y-132055103D01*
X155533745Y-132048448D01*
X155502502Y-131998448D01*
X155441359Y-131900598D01*
X155437626Y-131894624D01*
X155423941Y-131880843D01*
X155314778Y-131770915D01*
X155314774Y-131770912D01*
X155309815Y-131765918D01*
X155298697Y-131758862D01*
X155214085Y-131705166D01*
X155156666Y-131668727D01*
X155127463Y-131658328D01*
X154992425Y-131610243D01*
X154992420Y-131610242D01*
X154985790Y-131607881D01*
X154978802Y-131607048D01*
X154978799Y-131607047D01*
X154855698Y-131592368D01*
X154805680Y-131586404D01*
X154798677Y-131587140D01*
X154798676Y-131587140D01*
X154632288Y-131604628D01*
X154632286Y-131604629D01*
X154625288Y-131605364D01*
X154453579Y-131663818D01*
X154447575Y-131667512D01*
X154305095Y-131755166D01*
X154305092Y-131755168D01*
X154299088Y-131758862D01*
X154294053Y-131763793D01*
X154294050Y-131763795D01*
X154205410Y-131850598D01*
X154169493Y-131885771D01*
X154071235Y-132038238D01*
X154068826Y-132044858D01*
X154068824Y-132044861D01*
X154011606Y-132202066D01*
X154009197Y-132208685D01*
X153986463Y-132388640D01*
X130761061Y-132388640D01*
X130762748Y-132376639D01*
X130762748Y-132376636D01*
X130763299Y-132372717D01*
X130763616Y-132350000D01*
X130743397Y-132169745D01*
X130741080Y-132163091D01*
X130686064Y-132005106D01*
X130686062Y-132005103D01*
X130683745Y-131998448D01*
X130587626Y-131844624D01*
X130514430Y-131770915D01*
X130464778Y-131720915D01*
X130464774Y-131720912D01*
X130459815Y-131715918D01*
X130448697Y-131708862D01*
X130374140Y-131661547D01*
X130306666Y-131618727D01*
X130267071Y-131604628D01*
X130142425Y-131560243D01*
X130142420Y-131560242D01*
X130135790Y-131557881D01*
X130128802Y-131557048D01*
X130128799Y-131557047D01*
X129971974Y-131538347D01*
X129955680Y-131536404D01*
X129948677Y-131537140D01*
X129948676Y-131537140D01*
X129782288Y-131554628D01*
X129782286Y-131554629D01*
X129775288Y-131555364D01*
X129603579Y-131613818D01*
X129597575Y-131617512D01*
X129455095Y-131705166D01*
X129455092Y-131705168D01*
X129449088Y-131708862D01*
X129444053Y-131713793D01*
X129444050Y-131713795D01*
X129324525Y-131830843D01*
X129319493Y-131835771D01*
X129221235Y-131988238D01*
X129218826Y-131994858D01*
X129218824Y-131994861D01*
X129199320Y-132048448D01*
X129159197Y-132158685D01*
X129136463Y-132338640D01*
X107508111Y-132338640D01*
X107507229Y-130388640D01*
X134486463Y-130388640D01*
X134504163Y-130569160D01*
X134561418Y-130741273D01*
X134565065Y-130747295D01*
X134565066Y-130747297D01*
X134576832Y-130766724D01*
X134655380Y-130896424D01*
X134781382Y-131026902D01*
X134787278Y-131030760D01*
X134923451Y-131119869D01*
X134933159Y-131126222D01*
X134939763Y-131128678D01*
X134939765Y-131128679D01*
X135096558Y-131186990D01*
X135096560Y-131186990D01*
X135103168Y-131189448D01*
X135186995Y-131200633D01*
X135275980Y-131212507D01*
X135275984Y-131212507D01*
X135282961Y-131213438D01*
X135289972Y-131212800D01*
X135289976Y-131212800D01*
X135432459Y-131199832D01*
X135463600Y-131196998D01*
X135470302Y-131194820D01*
X135470304Y-131194820D01*
X135629409Y-131143124D01*
X135629412Y-131143123D01*
X135636108Y-131140947D01*
X135791912Y-131048069D01*
X135923266Y-130922982D01*
X136023643Y-130771902D01*
X136037050Y-130736607D01*
X143470922Y-130736607D01*
X143488622Y-130917127D01*
X143545877Y-131089240D01*
X143549524Y-131095262D01*
X143549525Y-131095264D01*
X143620530Y-131212507D01*
X143639839Y-131244391D01*
X143765841Y-131374869D01*
X143917618Y-131474189D01*
X143924222Y-131476645D01*
X143924224Y-131476646D01*
X144081017Y-131534957D01*
X144081019Y-131534957D01*
X144087627Y-131537415D01*
X144171454Y-131548600D01*
X144260439Y-131560474D01*
X144260443Y-131560474D01*
X144267420Y-131561405D01*
X144274431Y-131560767D01*
X144274435Y-131560767D01*
X144416918Y-131547799D01*
X144448059Y-131544965D01*
X144454761Y-131542787D01*
X144454763Y-131542787D01*
X144613868Y-131491091D01*
X144613871Y-131491090D01*
X144620567Y-131488914D01*
X144776371Y-131396036D01*
X144907725Y-131270949D01*
X145008102Y-131119869D01*
X145072514Y-130950305D01*
X145075671Y-130927841D01*
X145097207Y-130774606D01*
X145097207Y-130774603D01*
X145097758Y-130770684D01*
X145098075Y-130747967D01*
X145077856Y-130567712D01*
X145075539Y-130561058D01*
X145020523Y-130403073D01*
X145020521Y-130403070D01*
X145018204Y-130396415D01*
X144922085Y-130242591D01*
X144899398Y-130219745D01*
X144799237Y-130118882D01*
X144799233Y-130118879D01*
X144794274Y-130113885D01*
X144783156Y-130106829D01*
X144681740Y-130042469D01*
X144641125Y-130016694D01*
X144611922Y-130006295D01*
X144476884Y-129958210D01*
X144476879Y-129958209D01*
X144470249Y-129955848D01*
X144463261Y-129955015D01*
X144463258Y-129955014D01*
X144340157Y-129940335D01*
X144290139Y-129934371D01*
X144283136Y-129935107D01*
X144283135Y-129935107D01*
X144116747Y-129952595D01*
X144116745Y-129952596D01*
X144109747Y-129953331D01*
X143938038Y-130011785D01*
X143888162Y-130042469D01*
X143789554Y-130103133D01*
X143789551Y-130103135D01*
X143783547Y-130106829D01*
X143778512Y-130111760D01*
X143778509Y-130111762D01*
X143686294Y-130202066D01*
X143653952Y-130233738D01*
X143555694Y-130386205D01*
X143553285Y-130392825D01*
X143553283Y-130392828D01*
X143540977Y-130426639D01*
X143493656Y-130556652D01*
X143470922Y-130736607D01*
X136037050Y-130736607D01*
X136088055Y-130602338D01*
X136089035Y-130595366D01*
X136112748Y-130426639D01*
X136112748Y-130426636D01*
X136113299Y-130422717D01*
X136113616Y-130400000D01*
X136093397Y-130219745D01*
X136091080Y-130213091D01*
X136036064Y-130055106D01*
X136036062Y-130055103D01*
X136033745Y-130048448D01*
X136023662Y-130032312D01*
X135941359Y-129900598D01*
X135937626Y-129894624D01*
X135923941Y-129880843D01*
X135814778Y-129770915D01*
X135814774Y-129770912D01*
X135809815Y-129765918D01*
X135798697Y-129758862D01*
X135750538Y-129728300D01*
X135656666Y-129668727D01*
X135627463Y-129658328D01*
X135492425Y-129610243D01*
X135492420Y-129610242D01*
X135485790Y-129607881D01*
X135478802Y-129607048D01*
X135478799Y-129607047D01*
X135355698Y-129592368D01*
X135305680Y-129586404D01*
X135298677Y-129587140D01*
X135298676Y-129587140D01*
X135132288Y-129604628D01*
X135132286Y-129604629D01*
X135125288Y-129605364D01*
X134953579Y-129663818D01*
X134947575Y-129667512D01*
X134805095Y-129755166D01*
X134805092Y-129755168D01*
X134799088Y-129758862D01*
X134794053Y-129763793D01*
X134794050Y-129763795D01*
X134674525Y-129880843D01*
X134669493Y-129885771D01*
X134571235Y-130038238D01*
X134568826Y-130044858D01*
X134568824Y-130044861D01*
X134541883Y-130118882D01*
X134509197Y-130208685D01*
X134486463Y-130388640D01*
X107507229Y-130388640D01*
X107506414Y-128588640D01*
X135886463Y-128588640D01*
X135904163Y-128769160D01*
X135961418Y-128941273D01*
X135965065Y-128947295D01*
X135965066Y-128947297D01*
X135975978Y-128965314D01*
X136055380Y-129096424D01*
X136181382Y-129226902D01*
X136333159Y-129326222D01*
X136339763Y-129328678D01*
X136339765Y-129328679D01*
X136496558Y-129386990D01*
X136496560Y-129386990D01*
X136503168Y-129389448D01*
X136586995Y-129400633D01*
X136675980Y-129412507D01*
X136675984Y-129412507D01*
X136682961Y-129413438D01*
X136689972Y-129412800D01*
X136689976Y-129412800D01*
X136832459Y-129399832D01*
X136863600Y-129396998D01*
X136870302Y-129394820D01*
X136870304Y-129394820D01*
X137029409Y-129343124D01*
X137029412Y-129343123D01*
X137036108Y-129340947D01*
X137191912Y-129248069D01*
X137323266Y-129122982D01*
X137423643Y-128971902D01*
X137488055Y-128802338D01*
X137489035Y-128795366D01*
X137512748Y-128626639D01*
X137512748Y-128626636D01*
X137513299Y-128622717D01*
X137513616Y-128600000D01*
X137493397Y-128419745D01*
X137491080Y-128413091D01*
X137436064Y-128255106D01*
X137436062Y-128255103D01*
X137433745Y-128248448D01*
X137358906Y-128128679D01*
X137341359Y-128100598D01*
X137337626Y-128094624D01*
X137286571Y-128043211D01*
X137214778Y-127970915D01*
X137214774Y-127970912D01*
X137209815Y-127965918D01*
X137198697Y-127958862D01*
X137108289Y-127901488D01*
X137056666Y-127868727D01*
X137027463Y-127858328D01*
X136892425Y-127810243D01*
X136892420Y-127810242D01*
X136885790Y-127807881D01*
X136878802Y-127807048D01*
X136878799Y-127807047D01*
X136755698Y-127792368D01*
X136705680Y-127786404D01*
X136698677Y-127787140D01*
X136698676Y-127787140D01*
X136532288Y-127804628D01*
X136532286Y-127804629D01*
X136525288Y-127805364D01*
X136353579Y-127863818D01*
X136347575Y-127867512D01*
X136205095Y-127955166D01*
X136205092Y-127955168D01*
X136199088Y-127958862D01*
X136194053Y-127963793D01*
X136194050Y-127963795D01*
X136074525Y-128080843D01*
X136069493Y-128085771D01*
X135971235Y-128238238D01*
X135968826Y-128244858D01*
X135968824Y-128244861D01*
X135911606Y-128402066D01*
X135909197Y-128408685D01*
X135886463Y-128588640D01*
X107506414Y-128588640D01*
X107505871Y-127388640D01*
X151786463Y-127388640D01*
X151804163Y-127569160D01*
X151861418Y-127741273D01*
X151865065Y-127747295D01*
X151865066Y-127747297D01*
X151901607Y-127807633D01*
X151955380Y-127896424D01*
X151960269Y-127901487D01*
X151960270Y-127901488D01*
X152020440Y-127963795D01*
X152081382Y-128026902D01*
X152233159Y-128126222D01*
X152239763Y-128128678D01*
X152239765Y-128128679D01*
X152396558Y-128186990D01*
X152396560Y-128186990D01*
X152403168Y-128189448D01*
X152486995Y-128200633D01*
X152575980Y-128212507D01*
X152575984Y-128212507D01*
X152582961Y-128213438D01*
X152589972Y-128212800D01*
X152589976Y-128212800D01*
X152732459Y-128199832D01*
X152763600Y-128196998D01*
X152770302Y-128194820D01*
X152770304Y-128194820D01*
X152929409Y-128143124D01*
X152929412Y-128143123D01*
X152936108Y-128140947D01*
X153091912Y-128048069D01*
X153223266Y-127922982D01*
X153323643Y-127771902D01*
X153388055Y-127602338D01*
X153389035Y-127595366D01*
X153412748Y-127426639D01*
X153412748Y-127426636D01*
X153413299Y-127422717D01*
X153413616Y-127400000D01*
X153393397Y-127219745D01*
X153391080Y-127213091D01*
X153336064Y-127055106D01*
X153336062Y-127055103D01*
X153333745Y-127048448D01*
X153237626Y-126894624D01*
X153223941Y-126880843D01*
X153114778Y-126770915D01*
X153114774Y-126770912D01*
X153109815Y-126765918D01*
X153098697Y-126758862D01*
X153048335Y-126726902D01*
X152956666Y-126668727D01*
X152927463Y-126658328D01*
X152792425Y-126610243D01*
X152792420Y-126610242D01*
X152785790Y-126607881D01*
X152778802Y-126607048D01*
X152778799Y-126607047D01*
X152655698Y-126592368D01*
X152605680Y-126586404D01*
X152598677Y-126587140D01*
X152598676Y-126587140D01*
X152432288Y-126604628D01*
X152432286Y-126604629D01*
X152425288Y-126605364D01*
X152253579Y-126663818D01*
X152247575Y-126667512D01*
X152105095Y-126755166D01*
X152105092Y-126755168D01*
X152099088Y-126758862D01*
X152094053Y-126763793D01*
X152094050Y-126763795D01*
X151974525Y-126880843D01*
X151969493Y-126885771D01*
X151871235Y-127038238D01*
X151868826Y-127044858D01*
X151868824Y-127044861D01*
X151811606Y-127202066D01*
X151809197Y-127208685D01*
X151786463Y-127388640D01*
X107505871Y-127388640D01*
X107505283Y-126088640D01*
X143586463Y-126088640D01*
X143604163Y-126269160D01*
X143661418Y-126441273D01*
X143665065Y-126447295D01*
X143665066Y-126447297D01*
X143749817Y-126587238D01*
X143755380Y-126596424D01*
X143760269Y-126601487D01*
X143760270Y-126601488D01*
X143766204Y-126607633D01*
X143881382Y-126726902D01*
X144033159Y-126826222D01*
X144039763Y-126828678D01*
X144039765Y-126828679D01*
X144196558Y-126886990D01*
X144196560Y-126886990D01*
X144203168Y-126889448D01*
X144286732Y-126900598D01*
X144375980Y-126912507D01*
X144375984Y-126912507D01*
X144382961Y-126913438D01*
X144389972Y-126912800D01*
X144389976Y-126912800D01*
X144532459Y-126899832D01*
X144563600Y-126896998D01*
X144570302Y-126894820D01*
X144570304Y-126894820D01*
X144729409Y-126843124D01*
X144729412Y-126843123D01*
X144736108Y-126840947D01*
X144861970Y-126765918D01*
X144885860Y-126751677D01*
X144885862Y-126751676D01*
X144891912Y-126748069D01*
X145023266Y-126622982D01*
X145123643Y-126471902D01*
X145165423Y-126361917D01*
X145185555Y-126308920D01*
X145185556Y-126308918D01*
X145188055Y-126302338D01*
X145190212Y-126286990D01*
X145212748Y-126126639D01*
X145212748Y-126126636D01*
X145213299Y-126122717D01*
X145213616Y-126100000D01*
X145193397Y-125919745D01*
X145191080Y-125913091D01*
X145136064Y-125755106D01*
X145136062Y-125755103D01*
X145133745Y-125748448D01*
X145037626Y-125594624D01*
X144970114Y-125526639D01*
X144932380Y-125488640D01*
X153386463Y-125488640D01*
X153404163Y-125669160D01*
X153461418Y-125841273D01*
X153465065Y-125847295D01*
X153465066Y-125847297D01*
X153513181Y-125926744D01*
X153555380Y-125996424D01*
X153681382Y-126126902D01*
X153833159Y-126226222D01*
X153839763Y-126228678D01*
X153839765Y-126228679D01*
X153996558Y-126286990D01*
X153996560Y-126286990D01*
X154003168Y-126289448D01*
X154086995Y-126300633D01*
X154175980Y-126312507D01*
X154175984Y-126312507D01*
X154182961Y-126313438D01*
X154189972Y-126312800D01*
X154189976Y-126312800D01*
X154332459Y-126299832D01*
X154363600Y-126296998D01*
X154370302Y-126294820D01*
X154370304Y-126294820D01*
X154529409Y-126243124D01*
X154529412Y-126243123D01*
X154536108Y-126240947D01*
X154691912Y-126148069D01*
X154823266Y-126022982D01*
X154923643Y-125871902D01*
X154988055Y-125702338D01*
X154989035Y-125695366D01*
X155012748Y-125526639D01*
X155012748Y-125526636D01*
X155013299Y-125522717D01*
X155013616Y-125500000D01*
X154993397Y-125319745D01*
X154990088Y-125310243D01*
X154936064Y-125155106D01*
X154936062Y-125155103D01*
X154933745Y-125148448D01*
X154837626Y-124994624D01*
X154823941Y-124980843D01*
X154714778Y-124870915D01*
X154714774Y-124870912D01*
X154709815Y-124865918D01*
X154698697Y-124858862D01*
X154597782Y-124794820D01*
X154556666Y-124768727D01*
X154527463Y-124758328D01*
X154392425Y-124710243D01*
X154392420Y-124710242D01*
X154385790Y-124707881D01*
X154378802Y-124707048D01*
X154378799Y-124707047D01*
X154255698Y-124692368D01*
X154205680Y-124686404D01*
X154198677Y-124687140D01*
X154198676Y-124687140D01*
X154032288Y-124704628D01*
X154032286Y-124704629D01*
X154025288Y-124705364D01*
X153853579Y-124763818D01*
X153847575Y-124767512D01*
X153705095Y-124855166D01*
X153705092Y-124855168D01*
X153699088Y-124858862D01*
X153694053Y-124863793D01*
X153694050Y-124863795D01*
X153574525Y-124980843D01*
X153569493Y-124985771D01*
X153471235Y-125138238D01*
X153468826Y-125144858D01*
X153468824Y-125144861D01*
X153417307Y-125286404D01*
X153409197Y-125308685D01*
X153386463Y-125488640D01*
X144932380Y-125488640D01*
X144914778Y-125470915D01*
X144914774Y-125470912D01*
X144909815Y-125465918D01*
X144898697Y-125458862D01*
X144850538Y-125428300D01*
X144756666Y-125368727D01*
X144727463Y-125358328D01*
X144592425Y-125310243D01*
X144592420Y-125310242D01*
X144585790Y-125307881D01*
X144578802Y-125307048D01*
X144578799Y-125307047D01*
X144455698Y-125292368D01*
X144405680Y-125286404D01*
X144398677Y-125287140D01*
X144398676Y-125287140D01*
X144232288Y-125304628D01*
X144232286Y-125304629D01*
X144225288Y-125305364D01*
X144053579Y-125363818D01*
X144047575Y-125367512D01*
X143905095Y-125455166D01*
X143905092Y-125455168D01*
X143899088Y-125458862D01*
X143894053Y-125463793D01*
X143894050Y-125463795D01*
X143774525Y-125580843D01*
X143769493Y-125585771D01*
X143671235Y-125738238D01*
X143668826Y-125744858D01*
X143668824Y-125744861D01*
X143624983Y-125865314D01*
X143609197Y-125908685D01*
X143586463Y-126088640D01*
X107505283Y-126088640D01*
X107504089Y-123450927D01*
X128090506Y-123450927D01*
X128108206Y-123631447D01*
X128165461Y-123803560D01*
X128169108Y-123809582D01*
X128169109Y-123809584D01*
X128248665Y-123940947D01*
X128259423Y-123958711D01*
X128264312Y-123963774D01*
X128264313Y-123963775D01*
X128311656Y-124012800D01*
X128385425Y-124089189D01*
X128445772Y-124128679D01*
X128507634Y-124169160D01*
X128537202Y-124188509D01*
X128543806Y-124190965D01*
X128543808Y-124190966D01*
X128700601Y-124249277D01*
X128700603Y-124249277D01*
X128707211Y-124251735D01*
X128791038Y-124262920D01*
X128880023Y-124274794D01*
X128880027Y-124274794D01*
X128887004Y-124275725D01*
X128894015Y-124275087D01*
X128894019Y-124275087D01*
X129036502Y-124262119D01*
X129067643Y-124259285D01*
X129074345Y-124257107D01*
X129074347Y-124257107D01*
X129233452Y-124205411D01*
X129233455Y-124205410D01*
X129240151Y-124203234D01*
X129369340Y-124126222D01*
X129389903Y-124113964D01*
X129389905Y-124113963D01*
X129395955Y-124110356D01*
X129527309Y-123985269D01*
X129627686Y-123834189D01*
X129680019Y-123696424D01*
X129689598Y-123671207D01*
X129689599Y-123671205D01*
X129692098Y-123664625D01*
X129695212Y-123642469D01*
X129716791Y-123488926D01*
X129716791Y-123488923D01*
X129717342Y-123485004D01*
X129717495Y-123474025D01*
X129717604Y-123466249D01*
X129717604Y-123466244D01*
X129717659Y-123462287D01*
X129697440Y-123282032D01*
X129694123Y-123272506D01*
X129664918Y-123188640D01*
X131486463Y-123188640D01*
X131504163Y-123369160D01*
X131561418Y-123541273D01*
X131565065Y-123547295D01*
X131565066Y-123547297D01*
X131647968Y-123684185D01*
X131655380Y-123696424D01*
X131781382Y-123826902D01*
X131933159Y-123926222D01*
X131939763Y-123928678D01*
X131939765Y-123928679D01*
X132096558Y-123986990D01*
X132096560Y-123986990D01*
X132103168Y-123989448D01*
X132182250Y-124000000D01*
X132275980Y-124012507D01*
X132275984Y-124012507D01*
X132282961Y-124013438D01*
X132289972Y-124012800D01*
X132289976Y-124012800D01*
X132432459Y-123999832D01*
X132463600Y-123996998D01*
X132470302Y-123994820D01*
X132470304Y-123994820D01*
X132629409Y-123943124D01*
X132629412Y-123943123D01*
X132636108Y-123940947D01*
X132764953Y-123864140D01*
X134486463Y-123864140D01*
X134504163Y-124044660D01*
X134561418Y-124216773D01*
X134565065Y-124222795D01*
X134565066Y-124222797D01*
X134582592Y-124251735D01*
X134655380Y-124371924D01*
X134781382Y-124502402D01*
X134933159Y-124601722D01*
X134939763Y-124604178D01*
X134939765Y-124604179D01*
X135096558Y-124662490D01*
X135096560Y-124662490D01*
X135103168Y-124664948D01*
X135186995Y-124676133D01*
X135275980Y-124688007D01*
X135275984Y-124688007D01*
X135282961Y-124688938D01*
X135289972Y-124688300D01*
X135289976Y-124688300D01*
X135432459Y-124675332D01*
X135463600Y-124672498D01*
X135470302Y-124670320D01*
X135470304Y-124670320D01*
X135629409Y-124618624D01*
X135629412Y-124618623D01*
X135636108Y-124616447D01*
X135791912Y-124523569D01*
X135923266Y-124398482D01*
X136023643Y-124247402D01*
X136068742Y-124128679D01*
X136085555Y-124084420D01*
X136085556Y-124084418D01*
X136088055Y-124077838D01*
X136091732Y-124051677D01*
X136112748Y-123902139D01*
X136112748Y-123902136D01*
X136113299Y-123898217D01*
X136113616Y-123875500D01*
X136093397Y-123695245D01*
X136091080Y-123688591D01*
X136036064Y-123530606D01*
X136036062Y-123530603D01*
X136033745Y-123523948D01*
X135972932Y-123426626D01*
X135949196Y-123388640D01*
X141886463Y-123388640D01*
X141904163Y-123569160D01*
X141961418Y-123741273D01*
X141965065Y-123747295D01*
X141965066Y-123747297D01*
X142045108Y-123879462D01*
X142055380Y-123896424D01*
X142060269Y-123901487D01*
X142060270Y-123901488D01*
X142135508Y-123979398D01*
X142181382Y-124026902D01*
X142219242Y-124051677D01*
X142276567Y-124089189D01*
X142333159Y-124126222D01*
X142339763Y-124128678D01*
X142339765Y-124128679D01*
X142496558Y-124186990D01*
X142496560Y-124186990D01*
X142503168Y-124189448D01*
X142586995Y-124200633D01*
X142675980Y-124212507D01*
X142675984Y-124212507D01*
X142682961Y-124213438D01*
X142689972Y-124212800D01*
X142689976Y-124212800D01*
X142834713Y-124199627D01*
X142863600Y-124196998D01*
X142870302Y-124194820D01*
X142870304Y-124194820D01*
X143029409Y-124143124D01*
X143029412Y-124143123D01*
X143036108Y-124140947D01*
X143191912Y-124048069D01*
X143323266Y-123922982D01*
X143423643Y-123771902D01*
X143474418Y-123638238D01*
X143485555Y-123608920D01*
X143485556Y-123608918D01*
X143488055Y-123602338D01*
X143490514Y-123584841D01*
X143512750Y-123426626D01*
X143512750Y-123426620D01*
X143513299Y-123422717D01*
X143513310Y-123421934D01*
X143538230Y-123356208D01*
X143595295Y-123313970D01*
X143666137Y-123309288D01*
X143707676Y-123326828D01*
X143783159Y-123376222D01*
X143789763Y-123378678D01*
X143789765Y-123378679D01*
X143946558Y-123436990D01*
X143946560Y-123436990D01*
X143953168Y-123439448D01*
X144036995Y-123450633D01*
X144125980Y-123462507D01*
X144125984Y-123462507D01*
X144132961Y-123463438D01*
X144139972Y-123462800D01*
X144139976Y-123462800D01*
X144230691Y-123454544D01*
X144249782Y-123452806D01*
X144319435Y-123466551D01*
X144370600Y-123515772D01*
X144387031Y-123584841D01*
X144374263Y-123633539D01*
X144371235Y-123638238D01*
X144368827Y-123644854D01*
X144368825Y-123644858D01*
X144324983Y-123765314D01*
X144309197Y-123808685D01*
X144286463Y-123988640D01*
X144304163Y-124169160D01*
X144361418Y-124341273D01*
X144365065Y-124347295D01*
X144365066Y-124347297D01*
X144396065Y-124398482D01*
X144455380Y-124496424D01*
X144460269Y-124501487D01*
X144460270Y-124501488D01*
X144475357Y-124517111D01*
X144581382Y-124626902D01*
X144640947Y-124665880D01*
X144708741Y-124710243D01*
X144733159Y-124726222D01*
X144739763Y-124728678D01*
X144739765Y-124728679D01*
X144896558Y-124786990D01*
X144896560Y-124786990D01*
X144903168Y-124789448D01*
X144986995Y-124800633D01*
X145075980Y-124812507D01*
X145075984Y-124812507D01*
X145082961Y-124813438D01*
X145089972Y-124812800D01*
X145089976Y-124812800D01*
X145232459Y-124799832D01*
X145263600Y-124796998D01*
X145270302Y-124794820D01*
X145270304Y-124794820D01*
X145429409Y-124743124D01*
X145429412Y-124743123D01*
X145436108Y-124740947D01*
X145562034Y-124665880D01*
X145585860Y-124651677D01*
X145585862Y-124651676D01*
X145591912Y-124648069D01*
X145723266Y-124522982D01*
X145823643Y-124371902D01*
X145882572Y-124216773D01*
X145885555Y-124208920D01*
X145885556Y-124208918D01*
X145888055Y-124202338D01*
X145890541Y-124184651D01*
X145912748Y-124026639D01*
X145912748Y-124026636D01*
X145913299Y-124022717D01*
X145913616Y-124000000D01*
X145893397Y-123819745D01*
X145889859Y-123809584D01*
X145836064Y-123655106D01*
X145836062Y-123655103D01*
X145833745Y-123648448D01*
X145760110Y-123530606D01*
X145741359Y-123500598D01*
X145737626Y-123494624D01*
X145728073Y-123485004D01*
X145614778Y-123370915D01*
X145614774Y-123370912D01*
X145609815Y-123365918D01*
X145602493Y-123361271D01*
X145520580Y-123309288D01*
X145456666Y-123268727D01*
X145427463Y-123258328D01*
X145292425Y-123210243D01*
X145292420Y-123210242D01*
X145285790Y-123207881D01*
X145278802Y-123207048D01*
X145278799Y-123207047D01*
X145124431Y-123188640D01*
X145105680Y-123186404D01*
X145098677Y-123187140D01*
X145098675Y-123187140D01*
X145001846Y-123197317D01*
X144932008Y-123184545D01*
X144880161Y-123136043D01*
X144862767Y-123067210D01*
X144874555Y-123022248D01*
X144873643Y-123021902D01*
X144935555Y-122858920D01*
X144935556Y-122858918D01*
X144938055Y-122852338D01*
X144940037Y-122838238D01*
X144962748Y-122676639D01*
X144962748Y-122676636D01*
X144963299Y-122672717D01*
X144963616Y-122650000D01*
X144943397Y-122469745D01*
X144940542Y-122461547D01*
X144886064Y-122305106D01*
X144886062Y-122305103D01*
X144883745Y-122298448D01*
X144787626Y-122144624D01*
X144773941Y-122130843D01*
X144664778Y-122020915D01*
X144664774Y-122020912D01*
X144659815Y-122015918D01*
X144648697Y-122008862D01*
X144600538Y-121978300D01*
X144506666Y-121918727D01*
X144477463Y-121908328D01*
X144342425Y-121860243D01*
X144342420Y-121860242D01*
X144335790Y-121857881D01*
X144328802Y-121857048D01*
X144328799Y-121857047D01*
X144205698Y-121842368D01*
X144155680Y-121836404D01*
X144148677Y-121837140D01*
X144148676Y-121837140D01*
X143982288Y-121854628D01*
X143982286Y-121854629D01*
X143975288Y-121855364D01*
X143803579Y-121913818D01*
X143797575Y-121917512D01*
X143655095Y-122005166D01*
X143655092Y-122005168D01*
X143649088Y-122008862D01*
X143644053Y-122013793D01*
X143644050Y-122013795D01*
X143524525Y-122130843D01*
X143519493Y-122135771D01*
X143421235Y-122288238D01*
X143418826Y-122294858D01*
X143418824Y-122294861D01*
X143361606Y-122452066D01*
X143359197Y-122458685D01*
X143340051Y-122610243D01*
X143337062Y-122633901D01*
X143308680Y-122698978D01*
X143249621Y-122738379D01*
X143178634Y-122739596D01*
X143144543Y-122724495D01*
X143062618Y-122672504D01*
X143062616Y-122672503D01*
X143056666Y-122668727D01*
X143015201Y-122653962D01*
X142892425Y-122610243D01*
X142892420Y-122610242D01*
X142885790Y-122607881D01*
X142878802Y-122607048D01*
X142878799Y-122607047D01*
X142755698Y-122592368D01*
X142705680Y-122586404D01*
X142698677Y-122587140D01*
X142698676Y-122587140D01*
X142532288Y-122604628D01*
X142532286Y-122604629D01*
X142525288Y-122605364D01*
X142353579Y-122663818D01*
X142317895Y-122685771D01*
X142205095Y-122755166D01*
X142205092Y-122755168D01*
X142199088Y-122758862D01*
X142194053Y-122763793D01*
X142194050Y-122763795D01*
X142100807Y-122855106D01*
X142069493Y-122885771D01*
X141971235Y-123038238D01*
X141968826Y-123044858D01*
X141968824Y-123044861D01*
X141912358Y-123200000D01*
X141909197Y-123208685D01*
X141886463Y-123388640D01*
X135949196Y-123388640D01*
X135941359Y-123376098D01*
X135937626Y-123370124D01*
X135932664Y-123365127D01*
X135814778Y-123246415D01*
X135814774Y-123246412D01*
X135809815Y-123241418D01*
X135798697Y-123234362D01*
X135726650Y-123188640D01*
X135656666Y-123144227D01*
X135627463Y-123133828D01*
X135492425Y-123085743D01*
X135492420Y-123085742D01*
X135485790Y-123083381D01*
X135478802Y-123082548D01*
X135478799Y-123082547D01*
X135350177Y-123067210D01*
X135305680Y-123061904D01*
X135298677Y-123062640D01*
X135298676Y-123062640D01*
X135132288Y-123080128D01*
X135132286Y-123080129D01*
X135125288Y-123080864D01*
X134953579Y-123139318D01*
X134939457Y-123148006D01*
X134805095Y-123230666D01*
X134805092Y-123230668D01*
X134799088Y-123234362D01*
X134794053Y-123239293D01*
X134794050Y-123239295D01*
X134722576Y-123309288D01*
X134669493Y-123361271D01*
X134571235Y-123513738D01*
X134568826Y-123520358D01*
X134568824Y-123520361D01*
X134511606Y-123677566D01*
X134509197Y-123684185D01*
X134486463Y-123864140D01*
X132764953Y-123864140D01*
X132785860Y-123851677D01*
X132785862Y-123851676D01*
X132791912Y-123848069D01*
X132923266Y-123722982D01*
X133023643Y-123571902D01*
X133088055Y-123402338D01*
X133091380Y-123378679D01*
X133112748Y-123226639D01*
X133112748Y-123226636D01*
X133113299Y-123222717D01*
X133113616Y-123200000D01*
X133093397Y-123019745D01*
X133091080Y-123013091D01*
X133036064Y-122855106D01*
X133036062Y-122855103D01*
X133033745Y-122848448D01*
X132977766Y-122758862D01*
X132941359Y-122700598D01*
X132937626Y-122694624D01*
X132919766Y-122676639D01*
X132814778Y-122570915D01*
X132814774Y-122570912D01*
X132809815Y-122565918D01*
X132798697Y-122558862D01*
X132750538Y-122528300D01*
X132656666Y-122468727D01*
X132627463Y-122458328D01*
X132492425Y-122410243D01*
X132492420Y-122410242D01*
X132485790Y-122407881D01*
X132478802Y-122407048D01*
X132478799Y-122407047D01*
X132355698Y-122392368D01*
X132305680Y-122386404D01*
X132298677Y-122387140D01*
X132298676Y-122387140D01*
X132132288Y-122404628D01*
X132132286Y-122404629D01*
X132125288Y-122405364D01*
X131953579Y-122463818D01*
X131891109Y-122502250D01*
X131805095Y-122555166D01*
X131805092Y-122555168D01*
X131799088Y-122558862D01*
X131794053Y-122563793D01*
X131794050Y-122563795D01*
X131683014Y-122672530D01*
X131669493Y-122685771D01*
X131571235Y-122838238D01*
X131568826Y-122844858D01*
X131568824Y-122844861D01*
X131529860Y-122951914D01*
X131509197Y-123008685D01*
X131486463Y-123188640D01*
X129664918Y-123188640D01*
X129640107Y-123117393D01*
X129640105Y-123117390D01*
X129637788Y-123110735D01*
X129622171Y-123085743D01*
X129545402Y-122962885D01*
X129541669Y-122956911D01*
X129527984Y-122943130D01*
X129418821Y-122833202D01*
X129418817Y-122833199D01*
X129413858Y-122828205D01*
X129402740Y-122821149D01*
X129315709Y-122765918D01*
X129260709Y-122731014D01*
X129175291Y-122700598D01*
X129096468Y-122672530D01*
X129096463Y-122672529D01*
X129089833Y-122670168D01*
X129082845Y-122669335D01*
X129082842Y-122669334D01*
X128959741Y-122654655D01*
X128909723Y-122648691D01*
X128902720Y-122649427D01*
X128902719Y-122649427D01*
X128736331Y-122666915D01*
X128736329Y-122666916D01*
X128729331Y-122667651D01*
X128557622Y-122726105D01*
X128551618Y-122729799D01*
X128409138Y-122817453D01*
X128409135Y-122817455D01*
X128403131Y-122821149D01*
X128398096Y-122826080D01*
X128398093Y-122826082D01*
X128278568Y-122943130D01*
X128273536Y-122948058D01*
X128175278Y-123100525D01*
X128172869Y-123107145D01*
X128172867Y-123107148D01*
X128123997Y-123241418D01*
X128113240Y-123270972D01*
X128090506Y-123450927D01*
X107504089Y-123450927D01*
X107502727Y-120441470D01*
X107522698Y-120373340D01*
X107576333Y-120326823D01*
X107646602Y-120316687D01*
X107711196Y-120346151D01*
X107748284Y-120401640D01*
X107786418Y-120516273D01*
X107790065Y-120522295D01*
X107790066Y-120522297D01*
X107876680Y-120665314D01*
X107880380Y-120671424D01*
X107885269Y-120676487D01*
X107885270Y-120676488D01*
X107910719Y-120702841D01*
X108006382Y-120801902D01*
X108158159Y-120901222D01*
X108164763Y-120903678D01*
X108164765Y-120903679D01*
X108321558Y-120961990D01*
X108321560Y-120961990D01*
X108328168Y-120964448D01*
X108411995Y-120975633D01*
X108500980Y-120987507D01*
X108500984Y-120987507D01*
X108507961Y-120988438D01*
X108514972Y-120987800D01*
X108514976Y-120987800D01*
X108657459Y-120974832D01*
X108688600Y-120971998D01*
X108695302Y-120969820D01*
X108695304Y-120969820D01*
X108854409Y-120918124D01*
X108854412Y-120918123D01*
X108861108Y-120915947D01*
X108992788Y-120837450D01*
X109010860Y-120826677D01*
X109010862Y-120826676D01*
X109016912Y-120823069D01*
X109148266Y-120697982D01*
X109248643Y-120546902D01*
X109270775Y-120488640D01*
X119786463Y-120488640D01*
X119804163Y-120669160D01*
X119861418Y-120841273D01*
X119865065Y-120847295D01*
X119865066Y-120847297D01*
X119950544Y-120988438D01*
X119955380Y-120996424D01*
X119960269Y-121001487D01*
X119960270Y-121001488D01*
X119994892Y-121037340D01*
X120081382Y-121126902D01*
X120233159Y-121226222D01*
X120239763Y-121228678D01*
X120239765Y-121228679D01*
X120396558Y-121286990D01*
X120396560Y-121286990D01*
X120403168Y-121289448D01*
X120486995Y-121300633D01*
X120575980Y-121312507D01*
X120575984Y-121312507D01*
X120582961Y-121313438D01*
X120589972Y-121312800D01*
X120589976Y-121312800D01*
X120732459Y-121299832D01*
X120763600Y-121296998D01*
X120770302Y-121294820D01*
X120770304Y-121294820D01*
X120929409Y-121243124D01*
X120929412Y-121243123D01*
X120936108Y-121240947D01*
X121091912Y-121148069D01*
X121223266Y-121022982D01*
X121323643Y-120871902D01*
X121388055Y-120702338D01*
X121390085Y-120687894D01*
X121412748Y-120526639D01*
X121412748Y-120526636D01*
X121413299Y-120522717D01*
X121413616Y-120500000D01*
X121393397Y-120319745D01*
X121391080Y-120313091D01*
X121382565Y-120288640D01*
X143586463Y-120288640D01*
X143604163Y-120469160D01*
X143661418Y-120641273D01*
X143665065Y-120647295D01*
X143665066Y-120647297D01*
X143698705Y-120702841D01*
X143755380Y-120796424D01*
X143760269Y-120801487D01*
X143760270Y-120801488D01*
X143810502Y-120853504D01*
X143881382Y-120926902D01*
X144033159Y-121026222D01*
X144039763Y-121028678D01*
X144039765Y-121028679D01*
X144196558Y-121086990D01*
X144196560Y-121086990D01*
X144203168Y-121089448D01*
X144286995Y-121100633D01*
X144375980Y-121112507D01*
X144375984Y-121112507D01*
X144382961Y-121113438D01*
X144389972Y-121112800D01*
X144389976Y-121112800D01*
X144532459Y-121099832D01*
X144563600Y-121096998D01*
X144570302Y-121094820D01*
X144570304Y-121094820D01*
X144729409Y-121043124D01*
X144729412Y-121043123D01*
X144736108Y-121040947D01*
X144851771Y-120971998D01*
X144885860Y-120951677D01*
X144885862Y-120951676D01*
X144891912Y-120948069D01*
X145023266Y-120822982D01*
X145123643Y-120671902D01*
X145188055Y-120502338D01*
X145191128Y-120480472D01*
X145212748Y-120326639D01*
X145212748Y-120326636D01*
X145213299Y-120322717D01*
X145213616Y-120300000D01*
X145193397Y-120119745D01*
X145190199Y-120110561D01*
X145136064Y-119955106D01*
X145136062Y-119955103D01*
X145133745Y-119948448D01*
X145094987Y-119886421D01*
X145041359Y-119800598D01*
X145037626Y-119794624D01*
X145032664Y-119789627D01*
X145011763Y-119768580D01*
X151543752Y-119768580D01*
X151568477Y-119886421D01*
X151571537Y-119896617D01*
X151652263Y-120101029D01*
X151656994Y-120110561D01*
X151771016Y-120298462D01*
X151777280Y-120307052D01*
X151921327Y-120473052D01*
X151928958Y-120480472D01*
X152098911Y-120619826D01*
X152107678Y-120625850D01*
X152298682Y-120734576D01*
X152308346Y-120739041D01*
X152514941Y-120814031D01*
X152525208Y-120816802D01*
X152728174Y-120853504D01*
X152741414Y-120852085D01*
X152746000Y-120837450D01*
X152746000Y-120833849D01*
X153254000Y-120833849D01*
X153258310Y-120848527D01*
X153270193Y-120850590D01*
X153349325Y-120843876D01*
X153359797Y-120842086D01*
X153572535Y-120786870D01*
X153582575Y-120783335D01*
X153782970Y-120693063D01*
X153792256Y-120687894D01*
X153974575Y-120565150D01*
X153982870Y-120558481D01*
X154141900Y-120406772D01*
X154148941Y-120398814D01*
X154280141Y-120222475D01*
X154285745Y-120213438D01*
X154385357Y-120017516D01*
X154389357Y-120007665D01*
X154454534Y-119797760D01*
X154456817Y-119787376D01*
X154458861Y-119771957D01*
X154456665Y-119757793D01*
X154443478Y-119754000D01*
X153272115Y-119754000D01*
X153256876Y-119758475D01*
X153255671Y-119759865D01*
X153254000Y-119767548D01*
X153254000Y-120833849D01*
X152746000Y-120833849D01*
X152746000Y-119772115D01*
X152741525Y-119756876D01*
X152740135Y-119755671D01*
X152732452Y-119754000D01*
X151558808Y-119754000D01*
X151545277Y-119757973D01*
X151543752Y-119768580D01*
X145011763Y-119768580D01*
X144914778Y-119670915D01*
X144914774Y-119670912D01*
X144909815Y-119665918D01*
X144898697Y-119658862D01*
X144850538Y-119628300D01*
X144756666Y-119568727D01*
X144727463Y-119558328D01*
X144592425Y-119510243D01*
X144592420Y-119510242D01*
X144585790Y-119507881D01*
X144578802Y-119507048D01*
X144578799Y-119507047D01*
X144455698Y-119492368D01*
X144405680Y-119486404D01*
X144398677Y-119487140D01*
X144398676Y-119487140D01*
X144232288Y-119504628D01*
X144232286Y-119504629D01*
X144225288Y-119505364D01*
X144053579Y-119563818D01*
X144047575Y-119567512D01*
X143905095Y-119655166D01*
X143905092Y-119655168D01*
X143899088Y-119658862D01*
X143894053Y-119663793D01*
X143894050Y-119663795D01*
X143774525Y-119780843D01*
X143769493Y-119785771D01*
X143671235Y-119938238D01*
X143668826Y-119944858D01*
X143668824Y-119944861D01*
X143611606Y-120102066D01*
X143609197Y-120108685D01*
X143586463Y-120288640D01*
X121382565Y-120288640D01*
X121336064Y-120155106D01*
X121336062Y-120155103D01*
X121333745Y-120148448D01*
X121237626Y-119994624D01*
X121232664Y-119989627D01*
X121114778Y-119870915D01*
X121114774Y-119870912D01*
X121109815Y-119865918D01*
X121098697Y-119858862D01*
X121042893Y-119823448D01*
X120956666Y-119768727D01*
X120915308Y-119754000D01*
X120792425Y-119710243D01*
X120792420Y-119710242D01*
X120785790Y-119707881D01*
X120778802Y-119707048D01*
X120778799Y-119707047D01*
X120655698Y-119692368D01*
X120605680Y-119686404D01*
X120598677Y-119687140D01*
X120598676Y-119687140D01*
X120432288Y-119704628D01*
X120432286Y-119704629D01*
X120425288Y-119705364D01*
X120253579Y-119763818D01*
X120217895Y-119785771D01*
X120105095Y-119855166D01*
X120105092Y-119855168D01*
X120099088Y-119858862D01*
X120094053Y-119863793D01*
X120094050Y-119863795D01*
X120007606Y-119948448D01*
X119969493Y-119985771D01*
X119871235Y-120138238D01*
X119868826Y-120144858D01*
X119868824Y-120144861D01*
X119843864Y-120213438D01*
X119809197Y-120308685D01*
X119786463Y-120488640D01*
X109270775Y-120488640D01*
X109313055Y-120377338D01*
X109317718Y-120344160D01*
X109337748Y-120201639D01*
X109337748Y-120201636D01*
X109338299Y-120197717D01*
X109338616Y-120175000D01*
X109318397Y-119994745D01*
X109315272Y-119985771D01*
X109261064Y-119830106D01*
X109261062Y-119830103D01*
X109258745Y-119823448D01*
X109240734Y-119794624D01*
X109166359Y-119675598D01*
X109162626Y-119669624D01*
X109148269Y-119655166D01*
X109039778Y-119545915D01*
X109039774Y-119545912D01*
X109034815Y-119540918D01*
X109023697Y-119533862D01*
X108975538Y-119503300D01*
X108881666Y-119443727D01*
X108852463Y-119433328D01*
X108717425Y-119385243D01*
X108717420Y-119385242D01*
X108710790Y-119382881D01*
X108703802Y-119382048D01*
X108703799Y-119382047D01*
X108580698Y-119367368D01*
X108530680Y-119361404D01*
X108523677Y-119362140D01*
X108523676Y-119362140D01*
X108357288Y-119379628D01*
X108357286Y-119379629D01*
X108350288Y-119380364D01*
X108178579Y-119438818D01*
X108172575Y-119442512D01*
X108030095Y-119530166D01*
X108030092Y-119530168D01*
X108024088Y-119533862D01*
X108019053Y-119538793D01*
X108019050Y-119538795D01*
X107899525Y-119655843D01*
X107894493Y-119660771D01*
X107796235Y-119813238D01*
X107793826Y-119819858D01*
X107793824Y-119819861D01*
X107746885Y-119948825D01*
X107704791Y-120005996D01*
X107638469Y-120031334D01*
X107568978Y-120016793D01*
X107518379Y-119966991D01*
X107502484Y-119905787D01*
X107502440Y-119807312D01*
X107501751Y-118286001D01*
X107501481Y-117688640D01*
X136986463Y-117688640D01*
X137004163Y-117869160D01*
X137061418Y-118041273D01*
X137065065Y-118047295D01*
X137065066Y-118047297D01*
X137124079Y-118144739D01*
X137155380Y-118196424D01*
X137281382Y-118326902D01*
X137433159Y-118426222D01*
X137439763Y-118428678D01*
X137439765Y-118428679D01*
X137596558Y-118486990D01*
X137596560Y-118486990D01*
X137603168Y-118489448D01*
X137686995Y-118500633D01*
X137775980Y-118512507D01*
X137775984Y-118512507D01*
X137782961Y-118513438D01*
X137789972Y-118512800D01*
X137789976Y-118512800D01*
X137932459Y-118499832D01*
X137963600Y-118496998D01*
X137970302Y-118494820D01*
X137970304Y-118494820D01*
X138129409Y-118443124D01*
X138129412Y-118443123D01*
X138136108Y-118440947D01*
X138232513Y-118383478D01*
X138285860Y-118351677D01*
X138285862Y-118351676D01*
X138291912Y-118348069D01*
X138423266Y-118222982D01*
X138523643Y-118071902D01*
X138588055Y-117902338D01*
X138589035Y-117895366D01*
X138612748Y-117726639D01*
X138612748Y-117726636D01*
X138613299Y-117722717D01*
X138613616Y-117700000D01*
X138593397Y-117519745D01*
X138591080Y-117513091D01*
X138536064Y-117355106D01*
X138536062Y-117355103D01*
X138533745Y-117348448D01*
X138437626Y-117194624D01*
X138404064Y-117160827D01*
X138314778Y-117070915D01*
X138314774Y-117070912D01*
X138309815Y-117065918D01*
X138298749Y-117058895D01*
X138250538Y-117028300D01*
X138156666Y-116968727D01*
X138127463Y-116958328D01*
X138064124Y-116935774D01*
X151513102Y-116935774D01*
X151513302Y-116941103D01*
X151513302Y-116941105D01*
X151514155Y-116963818D01*
X151521751Y-117166158D01*
X151569093Y-117391791D01*
X151653776Y-117606221D01*
X151656543Y-117610780D01*
X151656544Y-117610783D01*
X151713087Y-117703962D01*
X151773377Y-117803317D01*
X151776874Y-117807347D01*
X151863438Y-117907103D01*
X151924477Y-117977445D01*
X151928608Y-117980832D01*
X152098627Y-118120240D01*
X152098633Y-118120244D01*
X152102755Y-118123624D01*
X152107398Y-118126267D01*
X152134735Y-118141829D01*
X152184041Y-118192912D01*
X152197902Y-118262542D01*
X152171918Y-118328613D01*
X152142768Y-118355851D01*
X152025422Y-118434852D01*
X152017130Y-118441519D01*
X151858100Y-118593228D01*
X151851059Y-118601186D01*
X151719859Y-118777525D01*
X151714255Y-118786562D01*
X151614643Y-118982484D01*
X151610643Y-118992335D01*
X151545466Y-119202240D01*
X151543183Y-119212624D01*
X151541139Y-119228043D01*
X151543335Y-119242207D01*
X151556522Y-119246000D01*
X154441192Y-119246000D01*
X154454723Y-119242027D01*
X154456248Y-119231420D01*
X154431523Y-119113579D01*
X154428463Y-119103383D01*
X154347737Y-118898971D01*
X154343006Y-118889439D01*
X154228984Y-118701538D01*
X154222720Y-118692948D01*
X154078673Y-118526948D01*
X154071042Y-118519528D01*
X153901089Y-118380174D01*
X153892326Y-118374152D01*
X153865289Y-118358762D01*
X153815982Y-118307680D01*
X153802120Y-118238049D01*
X153828103Y-118171978D01*
X153857253Y-118144739D01*
X153910532Y-118108869D01*
X153979319Y-118062559D01*
X154001633Y-118041273D01*
X154072769Y-117973412D01*
X154146135Y-117903424D01*
X154283754Y-117718458D01*
X154291125Y-117703962D01*
X154381226Y-117526744D01*
X154388240Y-117512949D01*
X154391620Y-117502066D01*
X154455024Y-117297871D01*
X154456607Y-117292773D01*
X154468824Y-117200598D01*
X154486198Y-117069511D01*
X154486198Y-117069506D01*
X154486898Y-117064226D01*
X154478249Y-116833842D01*
X154430907Y-116608209D01*
X154387240Y-116497637D01*
X154348185Y-116398744D01*
X154348184Y-116398742D01*
X154346224Y-116393779D01*
X154318487Y-116348069D01*
X154229390Y-116201243D01*
X154226623Y-116196683D01*
X154138954Y-116095653D01*
X154079023Y-116026588D01*
X154079021Y-116026586D01*
X154075523Y-116022555D01*
X154033970Y-115988484D01*
X153901373Y-115879760D01*
X153901367Y-115879756D01*
X153897245Y-115876376D01*
X153865750Y-115858448D01*
X153816445Y-115807368D01*
X153802583Y-115737738D01*
X153828566Y-115671667D01*
X153857716Y-115644427D01*
X153893642Y-115620240D01*
X153979319Y-115562559D01*
X154146135Y-115403424D01*
X154283754Y-115218458D01*
X154286307Y-115213438D01*
X154343342Y-115101256D01*
X154388240Y-115012949D01*
X154401972Y-114968727D01*
X154455024Y-114797871D01*
X154456607Y-114792773D01*
X154463433Y-114741273D01*
X154486198Y-114569511D01*
X154486198Y-114569506D01*
X154486898Y-114564226D01*
X154485509Y-114527213D01*
X154481733Y-114426639D01*
X154478249Y-114333842D01*
X154430907Y-114108209D01*
X154428948Y-114103248D01*
X154348185Y-113898744D01*
X154348184Y-113898742D01*
X154346224Y-113893779D01*
X154331729Y-113869891D01*
X154229390Y-113701243D01*
X154226623Y-113696683D01*
X154196134Y-113661547D01*
X154079023Y-113526588D01*
X154079021Y-113526586D01*
X154075523Y-113522555D01*
X154033970Y-113488484D01*
X153901373Y-113379760D01*
X153901367Y-113379756D01*
X153897245Y-113376376D01*
X153865750Y-113358448D01*
X153816445Y-113307368D01*
X153802583Y-113237738D01*
X153828566Y-113171667D01*
X153857716Y-113144427D01*
X153900019Y-113115947D01*
X153979319Y-113062559D01*
X153996267Y-113046392D01*
X154106459Y-112941273D01*
X154146135Y-112903424D01*
X154283754Y-112718458D01*
X154322012Y-112643211D01*
X154380242Y-112528679D01*
X154388240Y-112512949D01*
X154409895Y-112443211D01*
X154455024Y-112297871D01*
X154456607Y-112292773D01*
X154472627Y-112171902D01*
X154486198Y-112069511D01*
X154486198Y-112069506D01*
X154486898Y-112064226D01*
X154485327Y-112022364D01*
X154480390Y-111890884D01*
X154478249Y-111833842D01*
X154430907Y-111608209D01*
X154426480Y-111596998D01*
X154348185Y-111398744D01*
X154348184Y-111398742D01*
X154346224Y-111393779D01*
X154305483Y-111326639D01*
X154229390Y-111201243D01*
X154226623Y-111196683D01*
X154139755Y-111096576D01*
X154079023Y-111026588D01*
X154079021Y-111026586D01*
X154075523Y-111022555D01*
X154031434Y-110986404D01*
X153901373Y-110879760D01*
X153901367Y-110879756D01*
X153897245Y-110876376D01*
X153865750Y-110858448D01*
X153816445Y-110807368D01*
X153802583Y-110737738D01*
X153828566Y-110671667D01*
X153857716Y-110644427D01*
X153894377Y-110619745D01*
X153979319Y-110562559D01*
X154146135Y-110403424D01*
X154283754Y-110218458D01*
X154296635Y-110193124D01*
X154353763Y-110080760D01*
X154388240Y-110012949D01*
X154390596Y-110005364D01*
X154455024Y-109797871D01*
X154456607Y-109792773D01*
X154464314Y-109734624D01*
X154486198Y-109569511D01*
X154486198Y-109569506D01*
X154486898Y-109564226D01*
X154484815Y-109508727D01*
X154478449Y-109339173D01*
X154478249Y-109333842D01*
X154430907Y-109108209D01*
X154365146Y-108941693D01*
X154348185Y-108898744D01*
X154348184Y-108898742D01*
X154346224Y-108893779D01*
X154297689Y-108813795D01*
X154239262Y-108717512D01*
X154226623Y-108696683D01*
X154193163Y-108658124D01*
X154079023Y-108526588D01*
X154079021Y-108526586D01*
X154075523Y-108522555D01*
X153978305Y-108442841D01*
X153901373Y-108379760D01*
X153901367Y-108379756D01*
X153897245Y-108376376D01*
X153865750Y-108358448D01*
X153816445Y-108307368D01*
X153802583Y-108237738D01*
X153828566Y-108171667D01*
X153857716Y-108144427D01*
X153897953Y-108117338D01*
X153979319Y-108062559D01*
X153989119Y-108053211D01*
X154055959Y-107989448D01*
X154146135Y-107903424D01*
X154156534Y-107889448D01*
X154280568Y-107722740D01*
X154283754Y-107718458D01*
X154388240Y-107512949D01*
X154412572Y-107434590D01*
X154455024Y-107297871D01*
X154456607Y-107292773D01*
X154465500Y-107225675D01*
X154486198Y-107069511D01*
X154486198Y-107069506D01*
X154486898Y-107064226D01*
X154486547Y-107054861D01*
X154478449Y-106839173D01*
X154478249Y-106833842D01*
X154463840Y-106765166D01*
X154432002Y-106613428D01*
X154430907Y-106608209D01*
X154427901Y-106600598D01*
X154348185Y-106398744D01*
X154348184Y-106398742D01*
X154346224Y-106393779D01*
X154342196Y-106387140D01*
X154229390Y-106201243D01*
X154226623Y-106196683D01*
X154169418Y-106130760D01*
X154079023Y-106026588D01*
X154079021Y-106026586D01*
X154075523Y-106022555D01*
X154039880Y-105993330D01*
X153999886Y-105934671D01*
X153997954Y-105863701D01*
X154034698Y-105802952D01*
X154053468Y-105788752D01*
X154193120Y-105702332D01*
X154199348Y-105698478D01*
X154324305Y-105573303D01*
X154371917Y-105496062D01*
X154413275Y-105428968D01*
X154413276Y-105428966D01*
X154417115Y-105422738D01*
X154453483Y-105313091D01*
X154470632Y-105261389D01*
X154470632Y-105261387D01*
X154472797Y-105254861D01*
X154483500Y-105150400D01*
X154483500Y-103849600D01*
X154483163Y-103846350D01*
X154473238Y-103750692D01*
X154473237Y-103750688D01*
X154472526Y-103743834D01*
X154455131Y-103691693D01*
X154418868Y-103583002D01*
X154416550Y-103576054D01*
X154323478Y-103425652D01*
X154198303Y-103300695D01*
X154180057Y-103289448D01*
X154053968Y-103211725D01*
X154053966Y-103211724D01*
X154047738Y-103207885D01*
X153967995Y-103181436D01*
X153886389Y-103154368D01*
X153886387Y-103154368D01*
X153879861Y-103152203D01*
X153873025Y-103151503D01*
X153873022Y-103151502D01*
X153829969Y-103147091D01*
X153775400Y-103141500D01*
X152224600Y-103141500D01*
X152221354Y-103141837D01*
X152221350Y-103141837D01*
X152125692Y-103151762D01*
X152125688Y-103151763D01*
X152118834Y-103152474D01*
X152112298Y-103154655D01*
X152112296Y-103154655D01*
X151980194Y-103198728D01*
X151951054Y-103208450D01*
X151800652Y-103301522D01*
X151675695Y-103426697D01*
X151671855Y-103432927D01*
X151671854Y-103432928D01*
X151589878Y-103565918D01*
X151582885Y-103577262D01*
X151580581Y-103584209D01*
X151541977Y-103700598D01*
X151527203Y-103745139D01*
X151516500Y-103849600D01*
X151516500Y-105150400D01*
X151527474Y-105256166D01*
X151583450Y-105423946D01*
X151676522Y-105574348D01*
X151801697Y-105699305D01*
X151947340Y-105789081D01*
X151994832Y-105841852D01*
X152006256Y-105911924D01*
X151977982Y-105977048D01*
X151968195Y-105987510D01*
X151935007Y-106019170D01*
X151853865Y-106096576D01*
X151716246Y-106281542D01*
X151713830Y-106286293D01*
X151713828Y-106286297D01*
X151700029Y-106313438D01*
X151611760Y-106487051D01*
X151610178Y-106492145D01*
X151610177Y-106492148D01*
X151551069Y-106682506D01*
X151543393Y-106707227D01*
X151542692Y-106712516D01*
X151514299Y-106926744D01*
X151513102Y-106935774D01*
X151521751Y-107166158D01*
X151569093Y-107391791D01*
X151571051Y-107396750D01*
X151571052Y-107396752D01*
X151645729Y-107585844D01*
X151653776Y-107606221D01*
X151656543Y-107610780D01*
X151656544Y-107610783D01*
X151739852Y-107748069D01*
X151773377Y-107803317D01*
X151776874Y-107807347D01*
X151892806Y-107940947D01*
X151924477Y-107977445D01*
X151945667Y-107994820D01*
X152098627Y-108120240D01*
X152098633Y-108120244D01*
X152102755Y-108123624D01*
X152134250Y-108141552D01*
X152183555Y-108192632D01*
X152197417Y-108262262D01*
X152171434Y-108328333D01*
X152142284Y-108355573D01*
X152020681Y-108437441D01*
X151853865Y-108596576D01*
X151850682Y-108600854D01*
X151823518Y-108637364D01*
X151716246Y-108781542D01*
X151713830Y-108786293D01*
X151713828Y-108786297D01*
X151664003Y-108884296D01*
X151611760Y-108987051D01*
X151610178Y-108992145D01*
X151610177Y-108992148D01*
X151548115Y-109192020D01*
X151543393Y-109207227D01*
X151542692Y-109212516D01*
X151514344Y-109426404D01*
X151513102Y-109435774D01*
X151513302Y-109441103D01*
X151513302Y-109441105D01*
X151513636Y-109450000D01*
X151521751Y-109666158D01*
X151569093Y-109891791D01*
X151571051Y-109896750D01*
X151571052Y-109896752D01*
X151650557Y-110098069D01*
X151653776Y-110106221D01*
X151656543Y-110110780D01*
X151656544Y-110110783D01*
X151696254Y-110176222D01*
X151773377Y-110303317D01*
X151776874Y-110307347D01*
X151899315Y-110448448D01*
X151924477Y-110477445D01*
X151957629Y-110504628D01*
X152098627Y-110620240D01*
X152098633Y-110620244D01*
X152102755Y-110623624D01*
X152134250Y-110641552D01*
X152183555Y-110692632D01*
X152197417Y-110762262D01*
X152171434Y-110828333D01*
X152142284Y-110855573D01*
X152020681Y-110937441D01*
X152016824Y-110941120D01*
X152016822Y-110941122D01*
X152002163Y-110955106D01*
X151853865Y-111096576D01*
X151716246Y-111281542D01*
X151713830Y-111286293D01*
X151713828Y-111286297D01*
X151675266Y-111362143D01*
X151611760Y-111487051D01*
X151610178Y-111492145D01*
X151610177Y-111492148D01*
X151560571Y-111651905D01*
X151543393Y-111707227D01*
X151542692Y-111712516D01*
X151514278Y-111926902D01*
X151513102Y-111935774D01*
X151513302Y-111941103D01*
X151513302Y-111941105D01*
X151514092Y-111962151D01*
X151521751Y-112166158D01*
X151569093Y-112391791D01*
X151571051Y-112396750D01*
X151571052Y-112396752D01*
X151650134Y-112596998D01*
X151653776Y-112606221D01*
X151773377Y-112803317D01*
X151776874Y-112807347D01*
X151893089Y-112941273D01*
X151924477Y-112977445D01*
X151966030Y-113011516D01*
X152098627Y-113120240D01*
X152098633Y-113120244D01*
X152102755Y-113123624D01*
X152134250Y-113141552D01*
X152183555Y-113192632D01*
X152197417Y-113262262D01*
X152171434Y-113328333D01*
X152142284Y-113355573D01*
X152020681Y-113437441D01*
X151853865Y-113596576D01*
X151850682Y-113600854D01*
X151846074Y-113607047D01*
X151716246Y-113781542D01*
X151713830Y-113786293D01*
X151713828Y-113786297D01*
X151685341Y-113842327D01*
X151611760Y-113987051D01*
X151610178Y-113992145D01*
X151610177Y-113992148D01*
X151548115Y-114192020D01*
X151543393Y-114207227D01*
X151542692Y-114212516D01*
X151514313Y-114426639D01*
X151513102Y-114435774D01*
X151521751Y-114666158D01*
X151569093Y-114891791D01*
X151571051Y-114896750D01*
X151571052Y-114896752D01*
X151636369Y-115062143D01*
X151653776Y-115106221D01*
X151656543Y-115110780D01*
X151656544Y-115110783D01*
X151674848Y-115140947D01*
X151773377Y-115303317D01*
X151776874Y-115307347D01*
X151918811Y-115470915D01*
X151924477Y-115477445D01*
X151962577Y-115508685D01*
X152098627Y-115620240D01*
X152098633Y-115620244D01*
X152102755Y-115623624D01*
X152134250Y-115641552D01*
X152183555Y-115692632D01*
X152197417Y-115762262D01*
X152171434Y-115828333D01*
X152142284Y-115855573D01*
X152020681Y-115937441D01*
X151853865Y-116096576D01*
X151716246Y-116281542D01*
X151713830Y-116286293D01*
X151713828Y-116286297D01*
X151664003Y-116384297D01*
X151611760Y-116487051D01*
X151610178Y-116492145D01*
X151610177Y-116492148D01*
X151571375Y-116617111D01*
X151543393Y-116707227D01*
X151542692Y-116712516D01*
X151516147Y-116912800D01*
X151513102Y-116935774D01*
X138064124Y-116935774D01*
X137992425Y-116910243D01*
X137992420Y-116910242D01*
X137985790Y-116907881D01*
X137978802Y-116907048D01*
X137978799Y-116907047D01*
X137839023Y-116890380D01*
X137805680Y-116886404D01*
X137798677Y-116887140D01*
X137798676Y-116887140D01*
X137632288Y-116904628D01*
X137632286Y-116904629D01*
X137625288Y-116905364D01*
X137453579Y-116963818D01*
X137447575Y-116967512D01*
X137305095Y-117055166D01*
X137305092Y-117055168D01*
X137299088Y-117058862D01*
X137294053Y-117063793D01*
X137294050Y-117063795D01*
X137174525Y-117180843D01*
X137169493Y-117185771D01*
X137071235Y-117338238D01*
X137068826Y-117344858D01*
X137068824Y-117344861D01*
X137011606Y-117502066D01*
X137009197Y-117508685D01*
X136986463Y-117688640D01*
X107501481Y-117688640D01*
X107500576Y-115688640D01*
X119586463Y-115688640D01*
X119604163Y-115869160D01*
X119661418Y-116041273D01*
X119665065Y-116047295D01*
X119665066Y-116047297D01*
X119708344Y-116118757D01*
X119755380Y-116196424D01*
X119881382Y-116326902D01*
X120033159Y-116426222D01*
X120039763Y-116428678D01*
X120039765Y-116428679D01*
X120196558Y-116486990D01*
X120196560Y-116486990D01*
X120203168Y-116489448D01*
X120286995Y-116500633D01*
X120375980Y-116512507D01*
X120375984Y-116512507D01*
X120382961Y-116513438D01*
X120389972Y-116512800D01*
X120389976Y-116512800D01*
X120532459Y-116499832D01*
X120563600Y-116496998D01*
X120570302Y-116494820D01*
X120570304Y-116494820D01*
X120729409Y-116443124D01*
X120729412Y-116443123D01*
X120736108Y-116440947D01*
X120891912Y-116348069D01*
X121023266Y-116222982D01*
X121112522Y-116088640D01*
X143986463Y-116088640D01*
X144004163Y-116269160D01*
X144061418Y-116441273D01*
X144065065Y-116447295D01*
X144065066Y-116447297D01*
X144092229Y-116492148D01*
X144155380Y-116596424D01*
X144160269Y-116601487D01*
X144160270Y-116601488D01*
X144175357Y-116617111D01*
X144281382Y-116726902D01*
X144433159Y-116826222D01*
X144439763Y-116828678D01*
X144439765Y-116828679D01*
X144596558Y-116886990D01*
X144596560Y-116886990D01*
X144603168Y-116889448D01*
X144686995Y-116900633D01*
X144775980Y-116912507D01*
X144775984Y-116912507D01*
X144782961Y-116913438D01*
X144789972Y-116912800D01*
X144789976Y-116912800D01*
X144932459Y-116899832D01*
X144963600Y-116896998D01*
X144970302Y-116894820D01*
X144970304Y-116894820D01*
X145129409Y-116843124D01*
X145129412Y-116843123D01*
X145136108Y-116840947D01*
X145291912Y-116748069D01*
X145423266Y-116622982D01*
X145523643Y-116471902D01*
X145572529Y-116343211D01*
X145585555Y-116308920D01*
X145585556Y-116308918D01*
X145588055Y-116302338D01*
X145589035Y-116295366D01*
X145612748Y-116126639D01*
X145612748Y-116126636D01*
X145613299Y-116122717D01*
X145613616Y-116100000D01*
X145593397Y-115919745D01*
X145591080Y-115913091D01*
X145536064Y-115755106D01*
X145536062Y-115755103D01*
X145533745Y-115748448D01*
X145437626Y-115594624D01*
X145423941Y-115580843D01*
X145314778Y-115470915D01*
X145314774Y-115470912D01*
X145309815Y-115465918D01*
X145298697Y-115458862D01*
X145211340Y-115403424D01*
X145156666Y-115368727D01*
X145099716Y-115348448D01*
X144992425Y-115310243D01*
X144992420Y-115310242D01*
X144985790Y-115307881D01*
X144978802Y-115307048D01*
X144978799Y-115307047D01*
X144855698Y-115292368D01*
X144805680Y-115286404D01*
X144798677Y-115287140D01*
X144798676Y-115287140D01*
X144632288Y-115304628D01*
X144632286Y-115304629D01*
X144625288Y-115305364D01*
X144453579Y-115363818D01*
X144391109Y-115402250D01*
X144305095Y-115455166D01*
X144305092Y-115455168D01*
X144299088Y-115458862D01*
X144294053Y-115463793D01*
X144294050Y-115463795D01*
X144236916Y-115519745D01*
X144169493Y-115585771D01*
X144071235Y-115738238D01*
X144068826Y-115744858D01*
X144068824Y-115744861D01*
X144019725Y-115879760D01*
X144009197Y-115908685D01*
X143986463Y-116088640D01*
X121112522Y-116088640D01*
X121123643Y-116071902D01*
X121173322Y-115941122D01*
X121185555Y-115908920D01*
X121185556Y-115908918D01*
X121188055Y-115902338D01*
X121191704Y-115876376D01*
X121212748Y-115726639D01*
X121212748Y-115726636D01*
X121213299Y-115722717D01*
X121213616Y-115700000D01*
X121193397Y-115519745D01*
X121191080Y-115513091D01*
X121136064Y-115355106D01*
X121136062Y-115355103D01*
X121133745Y-115348448D01*
X121108241Y-115307633D01*
X121041359Y-115200598D01*
X121037626Y-115194624D01*
X121023941Y-115180843D01*
X120914778Y-115070915D01*
X120914774Y-115070912D01*
X120909815Y-115065918D01*
X120898697Y-115058862D01*
X120848335Y-115026902D01*
X120756666Y-114968727D01*
X120710865Y-114952418D01*
X120592425Y-114910243D01*
X120592420Y-114910242D01*
X120585790Y-114907881D01*
X120578802Y-114907048D01*
X120578799Y-114907047D01*
X120450856Y-114891791D01*
X120405680Y-114886404D01*
X120398677Y-114887140D01*
X120398676Y-114887140D01*
X120232288Y-114904628D01*
X120232286Y-114904629D01*
X120225288Y-114905364D01*
X120053579Y-114963818D01*
X119991109Y-115002250D01*
X119905095Y-115055166D01*
X119905092Y-115055168D01*
X119899088Y-115058862D01*
X119894053Y-115063793D01*
X119894050Y-115063795D01*
X119774525Y-115180843D01*
X119769493Y-115185771D01*
X119671235Y-115338238D01*
X119668826Y-115344858D01*
X119668824Y-115344861D01*
X119658762Y-115372506D01*
X119609197Y-115508685D01*
X119586463Y-115688640D01*
X107500576Y-115688640D01*
X107500286Y-115047737D01*
X107520257Y-114979607D01*
X107573892Y-114933090D01*
X107644161Y-114922954D01*
X107708755Y-114952418D01*
X107716921Y-114960151D01*
X107781382Y-115026902D01*
X107841005Y-115065918D01*
X107909566Y-115110783D01*
X107933159Y-115126222D01*
X107939763Y-115128678D01*
X107939765Y-115128679D01*
X108096558Y-115186990D01*
X108096560Y-115186990D01*
X108103168Y-115189448D01*
X108186732Y-115200598D01*
X108275980Y-115212507D01*
X108275984Y-115212507D01*
X108282961Y-115213438D01*
X108289972Y-115212800D01*
X108289976Y-115212800D01*
X108432459Y-115199832D01*
X108463600Y-115196998D01*
X108470302Y-115194820D01*
X108470304Y-115194820D01*
X108629409Y-115143124D01*
X108629412Y-115143123D01*
X108636108Y-115140947D01*
X108761970Y-115065918D01*
X108785860Y-115051677D01*
X108785862Y-115051676D01*
X108791912Y-115048069D01*
X108923266Y-114922982D01*
X109023643Y-114771902D01*
X109088055Y-114602338D01*
X109093411Y-114564226D01*
X109112748Y-114426639D01*
X109112748Y-114426636D01*
X109113299Y-114422717D01*
X109113616Y-114400000D01*
X109093397Y-114219745D01*
X109090880Y-114212516D01*
X109036064Y-114055106D01*
X109036062Y-114055103D01*
X109033745Y-114048448D01*
X108937626Y-113894624D01*
X108870225Y-113826751D01*
X108814778Y-113770915D01*
X108814774Y-113770912D01*
X108809815Y-113765918D01*
X108800451Y-113759975D01*
X108707903Y-113701243D01*
X108656666Y-113668727D01*
X108627463Y-113658328D01*
X108492425Y-113610243D01*
X108492420Y-113610242D01*
X108485790Y-113607881D01*
X108478802Y-113607048D01*
X108478799Y-113607047D01*
X108355698Y-113592368D01*
X108305680Y-113586404D01*
X108298677Y-113587140D01*
X108298676Y-113587140D01*
X108132288Y-113604628D01*
X108132286Y-113604629D01*
X108125288Y-113605364D01*
X107953579Y-113663818D01*
X107947575Y-113667512D01*
X107805095Y-113755166D01*
X107805092Y-113755168D01*
X107799088Y-113758862D01*
X107756394Y-113800671D01*
X107713856Y-113842327D01*
X107651191Y-113875697D01*
X107580432Y-113869891D01*
X107524045Y-113826751D01*
X107499933Y-113759975D01*
X107499699Y-113752360D01*
X107499663Y-113672506D01*
X107498584Y-111288640D01*
X111386463Y-111288640D01*
X111404163Y-111469160D01*
X111461418Y-111641273D01*
X111555380Y-111796424D01*
X111560269Y-111801487D01*
X111560270Y-111801488D01*
X111612761Y-111855843D01*
X111681382Y-111926902D01*
X111712589Y-111947323D01*
X111803452Y-112006782D01*
X111833159Y-112026222D01*
X111993547Y-112085870D01*
X112050419Y-112128360D01*
X112075293Y-112194856D01*
X112068024Y-112247060D01*
X112017246Y-112386572D01*
X112009197Y-112408685D01*
X111986463Y-112588640D01*
X112004163Y-112769160D01*
X112061418Y-112941273D01*
X112065065Y-112947295D01*
X112065066Y-112947297D01*
X112136676Y-113065539D01*
X112155380Y-113096424D01*
X112160269Y-113101487D01*
X112160270Y-113101488D01*
X112178379Y-113120240D01*
X112281382Y-113226902D01*
X112433159Y-113326222D01*
X112439763Y-113328678D01*
X112439765Y-113328679D01*
X112596558Y-113386990D01*
X112596560Y-113386990D01*
X112603168Y-113389448D01*
X112686995Y-113400633D01*
X112775980Y-113412507D01*
X112775984Y-113412507D01*
X112782961Y-113413438D01*
X112789972Y-113412800D01*
X112789976Y-113412800D01*
X112932459Y-113399832D01*
X112963600Y-113396998D01*
X112970302Y-113394820D01*
X112970304Y-113394820D01*
X113129409Y-113343124D01*
X113129412Y-113343123D01*
X113136108Y-113340947D01*
X113232513Y-113283478D01*
X113285860Y-113251677D01*
X113285862Y-113251676D01*
X113291912Y-113248069D01*
X113423266Y-113122982D01*
X113437724Y-113101222D01*
X113450430Y-113082097D01*
X113504788Y-113036426D01*
X113575207Y-113027394D01*
X113624367Y-113046390D01*
X113708159Y-113101222D01*
X113714763Y-113103678D01*
X113714765Y-113103679D01*
X113871558Y-113161990D01*
X113871560Y-113161990D01*
X113878168Y-113164448D01*
X113961995Y-113175633D01*
X114050980Y-113187507D01*
X114050984Y-113187507D01*
X114057961Y-113188438D01*
X114064972Y-113187800D01*
X114064976Y-113187800D01*
X114207459Y-113174832D01*
X114238600Y-113171998D01*
X114245302Y-113169820D01*
X114245304Y-113169820D01*
X114404409Y-113118124D01*
X114404412Y-113118123D01*
X114411108Y-113115947D01*
X114507513Y-113058478D01*
X114560860Y-113026677D01*
X114560862Y-113026676D01*
X114566912Y-113023069D01*
X114698266Y-112897982D01*
X114729477Y-112851005D01*
X114783832Y-112805338D01*
X114851088Y-112795842D01*
X114975980Y-112812507D01*
X114975984Y-112812507D01*
X114982961Y-112813438D01*
X114989972Y-112812800D01*
X114989976Y-112812800D01*
X115132459Y-112799832D01*
X115163600Y-112796998D01*
X115170302Y-112794820D01*
X115170304Y-112794820D01*
X115329409Y-112743124D01*
X115329412Y-112743123D01*
X115336108Y-112740947D01*
X115491912Y-112648069D01*
X115623266Y-112522982D01*
X115723643Y-112371902D01*
X115788055Y-112202338D01*
X115789107Y-112194856D01*
X115812748Y-112026639D01*
X115812748Y-112026636D01*
X115813299Y-112022717D01*
X115813492Y-112008920D01*
X115813561Y-112003962D01*
X115813561Y-112003957D01*
X115813616Y-112000000D01*
X115793397Y-111819745D01*
X115783398Y-111791032D01*
X115736064Y-111655106D01*
X115736062Y-111655103D01*
X115733745Y-111648448D01*
X115727728Y-111638818D01*
X115641359Y-111500598D01*
X115637626Y-111494624D01*
X115594978Y-111451677D01*
X115514778Y-111370915D01*
X115514774Y-111370912D01*
X115509815Y-111365918D01*
X115498697Y-111358862D01*
X115435501Y-111318757D01*
X115356666Y-111268727D01*
X115327463Y-111258328D01*
X115192425Y-111210243D01*
X115192420Y-111210242D01*
X115185790Y-111207881D01*
X115178802Y-111207048D01*
X115178799Y-111207047D01*
X115055698Y-111192368D01*
X115005680Y-111186404D01*
X114998677Y-111187140D01*
X114998676Y-111187140D01*
X114832288Y-111204628D01*
X114832286Y-111204629D01*
X114825288Y-111205364D01*
X114653579Y-111263818D01*
X114624769Y-111281542D01*
X114505095Y-111355166D01*
X114505092Y-111355168D01*
X114499088Y-111358862D01*
X114494053Y-111363793D01*
X114494050Y-111363795D01*
X114379630Y-111475844D01*
X114369493Y-111485771D01*
X114346269Y-111521808D01*
X114292557Y-111568231D01*
X114225441Y-111578666D01*
X114080680Y-111561404D01*
X114073677Y-111562140D01*
X114073676Y-111562140D01*
X113907288Y-111579628D01*
X113907286Y-111579629D01*
X113900288Y-111580364D01*
X113728579Y-111638818D01*
X113674802Y-111671902D01*
X113580095Y-111730166D01*
X113580092Y-111730168D01*
X113574088Y-111733862D01*
X113569053Y-111738793D01*
X113569050Y-111738795D01*
X113502504Y-111803962D01*
X113444493Y-111860771D01*
X113425086Y-111890885D01*
X113371372Y-111937308D01*
X113301086Y-111947323D01*
X113251662Y-111929013D01*
X113236288Y-111919257D01*
X113156666Y-111868727D01*
X113038469Y-111826639D01*
X113006760Y-111815348D01*
X112949296Y-111773654D01*
X112923496Y-111707511D01*
X112931239Y-111651905D01*
X112932990Y-111647297D01*
X112988055Y-111502338D01*
X112989487Y-111492148D01*
X113012748Y-111326639D01*
X113012748Y-111326636D01*
X113013299Y-111322717D01*
X113013616Y-111300000D01*
X112993397Y-111119745D01*
X112991080Y-111113091D01*
X112936064Y-110955106D01*
X112936062Y-110955103D01*
X112933745Y-110948448D01*
X112888710Y-110876376D01*
X112841359Y-110800598D01*
X112837626Y-110794624D01*
X112828835Y-110785771D01*
X112714778Y-110670915D01*
X112714774Y-110670912D01*
X112709815Y-110665918D01*
X112698697Y-110658862D01*
X112630644Y-110615675D01*
X112556666Y-110568727D01*
X112527463Y-110558328D01*
X112392425Y-110510243D01*
X112392420Y-110510242D01*
X112385790Y-110507881D01*
X112378802Y-110507048D01*
X112378799Y-110507047D01*
X112255698Y-110492368D01*
X112205680Y-110486404D01*
X112198677Y-110487140D01*
X112198676Y-110487140D01*
X112032288Y-110504628D01*
X112032286Y-110504629D01*
X112025288Y-110505364D01*
X111853579Y-110563818D01*
X111815415Y-110587297D01*
X111705095Y-110655166D01*
X111705092Y-110655168D01*
X111699088Y-110658862D01*
X111694053Y-110663793D01*
X111694050Y-110663795D01*
X111593435Y-110762325D01*
X111569493Y-110785771D01*
X111471235Y-110938238D01*
X111468826Y-110944858D01*
X111468824Y-110944861D01*
X111422365Y-111072506D01*
X111409197Y-111108685D01*
X111386463Y-111288640D01*
X107498584Y-111288640D01*
X107498104Y-110228640D01*
X130546463Y-110228640D01*
X130564163Y-110409160D01*
X130621418Y-110581273D01*
X130625065Y-110587295D01*
X130625066Y-110587297D01*
X130675707Y-110670915D01*
X130715380Y-110736424D01*
X130720269Y-110741487D01*
X130720270Y-110741488D01*
X130780601Y-110803962D01*
X130841382Y-110866902D01*
X130847278Y-110870760D01*
X130956861Y-110942469D01*
X130993159Y-110966222D01*
X130999763Y-110968678D01*
X130999765Y-110968679D01*
X131156558Y-111026990D01*
X131156560Y-111026990D01*
X131163168Y-111029448D01*
X131246995Y-111040633D01*
X131335980Y-111052507D01*
X131335984Y-111052507D01*
X131342961Y-111053438D01*
X131349972Y-111052800D01*
X131349976Y-111052800D01*
X131492459Y-111039832D01*
X131523600Y-111036998D01*
X131530302Y-111034820D01*
X131530304Y-111034820D01*
X131689409Y-110983124D01*
X131689412Y-110983123D01*
X131696108Y-110980947D01*
X131851912Y-110888069D01*
X131956323Y-110788640D01*
X142386463Y-110788640D01*
X142404163Y-110969160D01*
X142461418Y-111141273D01*
X142465065Y-111147295D01*
X142465066Y-111147297D01*
X142551264Y-111289627D01*
X142555380Y-111296424D01*
X142560269Y-111301487D01*
X142560270Y-111301488D01*
X142620440Y-111363795D01*
X142681382Y-111426902D01*
X142705171Y-111442469D01*
X142826411Y-111521806D01*
X142833159Y-111526222D01*
X142839763Y-111528678D01*
X142839765Y-111528679D01*
X142996558Y-111586990D01*
X142996560Y-111586990D01*
X143003168Y-111589448D01*
X143086995Y-111600633D01*
X143175980Y-111612507D01*
X143175984Y-111612507D01*
X143182961Y-111613438D01*
X143189972Y-111612800D01*
X143189976Y-111612800D01*
X143332459Y-111599832D01*
X143363600Y-111596998D01*
X143370302Y-111594820D01*
X143370304Y-111594820D01*
X143529409Y-111543124D01*
X143529412Y-111543123D01*
X143536108Y-111540947D01*
X143656532Y-111469160D01*
X143685860Y-111451677D01*
X143685862Y-111451676D01*
X143691912Y-111448069D01*
X143724902Y-111416653D01*
X143788027Y-111384161D01*
X143858698Y-111390954D01*
X143914477Y-111434877D01*
X143937655Y-111501983D01*
X143930195Y-111550994D01*
X143915860Y-111590380D01*
X143909197Y-111608685D01*
X143886463Y-111788640D01*
X143904163Y-111969160D01*
X143961418Y-112141273D01*
X143965065Y-112147295D01*
X143965066Y-112147297D01*
X144049966Y-112287484D01*
X144055380Y-112296424D01*
X144181382Y-112426902D01*
X144187278Y-112430760D01*
X144312876Y-112512949D01*
X144333159Y-112526222D01*
X144339763Y-112528678D01*
X144339765Y-112528679D01*
X144496558Y-112586990D01*
X144496560Y-112586990D01*
X144503168Y-112589448D01*
X144586995Y-112600633D01*
X144675980Y-112612507D01*
X144675984Y-112612507D01*
X144682961Y-112613438D01*
X144689972Y-112612800D01*
X144689976Y-112612800D01*
X144832459Y-112599832D01*
X144863600Y-112596998D01*
X144870302Y-112594820D01*
X144870304Y-112594820D01*
X145029409Y-112543124D01*
X145029412Y-112543123D01*
X145036108Y-112540947D01*
X145191912Y-112448069D01*
X145323266Y-112322982D01*
X145423643Y-112171902D01*
X145466571Y-112058895D01*
X145485555Y-112008920D01*
X145485556Y-112008918D01*
X145488055Y-112002338D01*
X145489035Y-111995366D01*
X145512748Y-111826639D01*
X145512748Y-111826636D01*
X145513299Y-111822717D01*
X145513616Y-111800000D01*
X145493397Y-111619745D01*
X145491080Y-111613091D01*
X145436064Y-111455106D01*
X145436062Y-111455103D01*
X145433745Y-111448448D01*
X145417115Y-111421834D01*
X145341359Y-111300598D01*
X145337626Y-111294624D01*
X145328835Y-111285771D01*
X145214778Y-111170915D01*
X145214774Y-111170912D01*
X145209815Y-111165918D01*
X145198697Y-111158862D01*
X145130644Y-111115675D01*
X145056666Y-111068727D01*
X145027463Y-111058328D01*
X144892425Y-111010243D01*
X144892420Y-111010242D01*
X144885790Y-111007881D01*
X144878802Y-111007048D01*
X144878799Y-111007047D01*
X144755698Y-110992368D01*
X144705680Y-110986404D01*
X144698677Y-110987140D01*
X144698676Y-110987140D01*
X144532288Y-111004628D01*
X144532286Y-111004629D01*
X144525288Y-111005364D01*
X144353579Y-111063818D01*
X144347575Y-111067512D01*
X144205095Y-111155166D01*
X144205092Y-111155168D01*
X144199088Y-111158862D01*
X144194050Y-111163796D01*
X144177826Y-111179683D01*
X144115161Y-111213053D01*
X144044402Y-111207247D01*
X143988015Y-111164107D01*
X143963903Y-111097330D01*
X143971881Y-111044917D01*
X143988055Y-111002338D01*
X143990191Y-110987140D01*
X144012748Y-110826639D01*
X144012748Y-110826636D01*
X144013299Y-110822717D01*
X144013616Y-110800000D01*
X143993397Y-110619745D01*
X143990666Y-110611902D01*
X143936064Y-110455106D01*
X143936062Y-110455103D01*
X143933745Y-110448448D01*
X143837626Y-110294624D01*
X143806657Y-110263438D01*
X143714778Y-110170915D01*
X143714774Y-110170912D01*
X143709815Y-110165918D01*
X143698697Y-110158862D01*
X143608587Y-110101677D01*
X143556666Y-110068727D01*
X143512755Y-110053091D01*
X143392425Y-110010243D01*
X143392420Y-110010242D01*
X143385790Y-110007881D01*
X143378802Y-110007048D01*
X143378799Y-110007047D01*
X143255698Y-109992368D01*
X143205680Y-109986404D01*
X143198677Y-109987140D01*
X143198676Y-109987140D01*
X143032288Y-110004628D01*
X143032286Y-110004629D01*
X143025288Y-110005364D01*
X142853579Y-110063818D01*
X142805802Y-110093211D01*
X142705095Y-110155166D01*
X142705092Y-110155168D01*
X142699088Y-110158862D01*
X142694053Y-110163793D01*
X142694050Y-110163795D01*
X142589030Y-110266639D01*
X142569493Y-110285771D01*
X142471235Y-110438238D01*
X142468826Y-110444858D01*
X142468824Y-110444861D01*
X142411606Y-110602066D01*
X142409197Y-110608685D01*
X142386463Y-110788640D01*
X131956323Y-110788640D01*
X131983266Y-110762982D01*
X132083643Y-110611902D01*
X132148055Y-110442338D01*
X132149464Y-110432312D01*
X132172748Y-110266639D01*
X132172748Y-110266636D01*
X132173299Y-110262717D01*
X132173452Y-110251738D01*
X132173561Y-110243962D01*
X132173561Y-110243957D01*
X132173616Y-110240000D01*
X132153397Y-110059745D01*
X132151080Y-110053091D01*
X132096064Y-109895106D01*
X132096062Y-109895103D01*
X132093745Y-109888448D01*
X131997626Y-109734624D01*
X131934819Y-109671377D01*
X131874778Y-109610915D01*
X131874774Y-109610912D01*
X131869815Y-109605918D01*
X131858697Y-109598862D01*
X131795718Y-109558895D01*
X131716666Y-109508727D01*
X131687463Y-109498328D01*
X131552425Y-109450243D01*
X131552420Y-109450242D01*
X131545790Y-109447881D01*
X131538802Y-109447048D01*
X131538799Y-109447047D01*
X131468295Y-109438640D01*
X138136463Y-109438640D01*
X138154163Y-109619160D01*
X138211418Y-109791273D01*
X138215065Y-109797295D01*
X138215066Y-109797297D01*
X138275298Y-109896752D01*
X138305380Y-109946424D01*
X138310269Y-109951487D01*
X138310270Y-109951488D01*
X138344699Y-109987140D01*
X138431382Y-110076902D01*
X138437278Y-110080760D01*
X138564169Y-110163795D01*
X138583159Y-110176222D01*
X138589763Y-110178678D01*
X138589765Y-110178679D01*
X138746558Y-110236990D01*
X138746560Y-110236990D01*
X138753168Y-110239448D01*
X138836995Y-110250633D01*
X138925980Y-110262507D01*
X138925984Y-110262507D01*
X138932961Y-110263438D01*
X138939972Y-110262800D01*
X138939976Y-110262800D01*
X139082459Y-110249832D01*
X139113600Y-110246998D01*
X139120302Y-110244820D01*
X139120304Y-110244820D01*
X139279409Y-110193124D01*
X139279412Y-110193123D01*
X139286108Y-110190947D01*
X139441912Y-110098069D01*
X139573266Y-109972982D01*
X139673643Y-109821902D01*
X139732805Y-109666158D01*
X139735555Y-109658920D01*
X139735556Y-109658918D01*
X139738055Y-109652338D01*
X139739035Y-109645366D01*
X139762748Y-109476639D01*
X139762748Y-109476636D01*
X139763299Y-109472717D01*
X139763616Y-109450000D01*
X139743397Y-109269745D01*
X139741080Y-109263091D01*
X139686064Y-109105106D01*
X139686062Y-109105103D01*
X139683745Y-109098448D01*
X139587626Y-108944624D01*
X139537135Y-108893779D01*
X139464778Y-108820915D01*
X139464774Y-108820912D01*
X139459815Y-108815918D01*
X139448697Y-108808862D01*
X139398900Y-108777260D01*
X139306666Y-108718727D01*
X139244759Y-108696683D01*
X139142425Y-108660243D01*
X139142420Y-108660242D01*
X139135790Y-108657881D01*
X139128802Y-108657048D01*
X139128799Y-108657047D01*
X139005698Y-108642368D01*
X138955680Y-108636404D01*
X138948677Y-108637140D01*
X138948676Y-108637140D01*
X138782288Y-108654628D01*
X138782286Y-108654629D01*
X138775288Y-108655364D01*
X138603579Y-108713818D01*
X138597575Y-108717512D01*
X138455095Y-108805166D01*
X138455092Y-108805168D01*
X138449088Y-108808862D01*
X138444053Y-108813793D01*
X138444050Y-108813795D01*
X138324525Y-108930843D01*
X138319493Y-108935771D01*
X138221235Y-109088238D01*
X138218826Y-109094858D01*
X138218824Y-109094861D01*
X138179782Y-109202129D01*
X138159197Y-109258685D01*
X138136463Y-109438640D01*
X131468295Y-109438640D01*
X131409640Y-109431646D01*
X131365680Y-109426404D01*
X131358677Y-109427140D01*
X131358676Y-109427140D01*
X131192288Y-109444628D01*
X131192286Y-109444629D01*
X131185288Y-109445364D01*
X131013579Y-109503818D01*
X131007575Y-109507512D01*
X130865095Y-109595166D01*
X130865092Y-109595168D01*
X130859088Y-109598862D01*
X130854053Y-109603793D01*
X130854050Y-109603795D01*
X130785038Y-109671377D01*
X130729493Y-109725771D01*
X130631235Y-109878238D01*
X130628826Y-109884858D01*
X130628824Y-109884861D01*
X130583189Y-110010243D01*
X130569197Y-110048685D01*
X130546463Y-110228640D01*
X107498104Y-110228640D01*
X107497052Y-107903640D01*
X127771463Y-107903640D01*
X127789163Y-108084160D01*
X127846418Y-108256273D01*
X127850065Y-108262295D01*
X127850066Y-108262297D01*
X127921204Y-108379760D01*
X127940380Y-108411424D01*
X128066382Y-108541902D01*
X128072278Y-108545760D01*
X128212071Y-108637238D01*
X128218159Y-108641222D01*
X128224763Y-108643678D01*
X128224765Y-108643679D01*
X128381558Y-108701990D01*
X128381560Y-108701990D01*
X128388168Y-108704448D01*
X128471995Y-108715633D01*
X128560980Y-108727507D01*
X128560984Y-108727507D01*
X128567961Y-108728438D01*
X128574972Y-108727800D01*
X128574976Y-108727800D01*
X128728602Y-108713818D01*
X128748600Y-108711998D01*
X128755302Y-108709820D01*
X128755304Y-108709820D01*
X128914409Y-108658124D01*
X128914412Y-108658123D01*
X128921108Y-108655947D01*
X129076912Y-108563069D01*
X129208266Y-108437982D01*
X129308643Y-108286902D01*
X129373055Y-108117338D01*
X129374035Y-108110366D01*
X129397748Y-107941639D01*
X129397748Y-107941636D01*
X129398299Y-107937717D01*
X129398616Y-107915000D01*
X129378397Y-107734745D01*
X129375666Y-107726902D01*
X129321064Y-107570106D01*
X129321062Y-107570103D01*
X129318745Y-107563448D01*
X129257425Y-107465314D01*
X129226359Y-107415598D01*
X129222626Y-107409624D01*
X129213835Y-107400771D01*
X129211719Y-107398640D01*
X136096463Y-107398640D01*
X136114163Y-107579160D01*
X136171418Y-107751273D01*
X136175065Y-107757295D01*
X136175066Y-107757297D01*
X136223542Y-107837340D01*
X136265380Y-107906424D01*
X136270269Y-107911487D01*
X136270270Y-107911488D01*
X136295719Y-107937841D01*
X136391382Y-108036902D01*
X136397278Y-108040760D01*
X136527939Y-108126262D01*
X136543159Y-108136222D01*
X136549763Y-108138678D01*
X136549765Y-108138679D01*
X136706558Y-108196990D01*
X136706560Y-108196990D01*
X136713168Y-108199448D01*
X136796995Y-108210633D01*
X136885980Y-108222507D01*
X136885984Y-108222507D01*
X136892961Y-108223438D01*
X136899972Y-108222800D01*
X136899976Y-108222800D01*
X137042459Y-108209832D01*
X137073600Y-108206998D01*
X137080302Y-108204820D01*
X137080304Y-108204820D01*
X137239409Y-108153124D01*
X137239412Y-108153123D01*
X137246108Y-108150947D01*
X137401912Y-108058069D01*
X137533266Y-107932982D01*
X137633643Y-107781902D01*
X137698055Y-107612338D01*
X137699580Y-107601488D01*
X137722748Y-107436639D01*
X137722748Y-107436636D01*
X137723299Y-107432717D01*
X137723616Y-107410000D01*
X137703397Y-107229745D01*
X137699571Y-107218757D01*
X137689083Y-107188640D01*
X138086463Y-107188640D01*
X138104163Y-107369160D01*
X138161418Y-107541273D01*
X138165065Y-107547295D01*
X138165066Y-107547297D01*
X138207347Y-107617111D01*
X138255380Y-107696424D01*
X138260269Y-107701487D01*
X138260270Y-107701488D01*
X138314165Y-107757297D01*
X138381382Y-107826902D01*
X138387278Y-107830760D01*
X138522065Y-107918962D01*
X138533159Y-107926222D01*
X138539763Y-107928678D01*
X138539765Y-107928679D01*
X138696558Y-107986990D01*
X138696560Y-107986990D01*
X138703168Y-107989448D01*
X138786995Y-108000633D01*
X138875980Y-108012507D01*
X138875984Y-108012507D01*
X138882961Y-108013438D01*
X138889972Y-108012800D01*
X138889976Y-108012800D01*
X139032459Y-107999832D01*
X139063600Y-107996998D01*
X139070302Y-107994820D01*
X139070304Y-107994820D01*
X139229409Y-107943124D01*
X139229412Y-107943123D01*
X139236108Y-107940947D01*
X139391912Y-107848069D01*
X139523266Y-107722982D01*
X139623643Y-107571902D01*
X139665423Y-107461917D01*
X139685555Y-107408920D01*
X139685556Y-107408918D01*
X139688055Y-107402338D01*
X139690271Y-107386572D01*
X139712748Y-107226639D01*
X139712748Y-107226636D01*
X139713299Y-107222717D01*
X139713616Y-107200000D01*
X139701125Y-107088640D01*
X144286463Y-107088640D01*
X144304163Y-107269160D01*
X144361418Y-107441273D01*
X144365065Y-107447295D01*
X144365066Y-107447297D01*
X144448973Y-107585844D01*
X144455380Y-107596424D01*
X144581382Y-107726902D01*
X144733159Y-107826222D01*
X144739763Y-107828678D01*
X144739765Y-107828679D01*
X144896558Y-107886990D01*
X144896560Y-107886990D01*
X144903168Y-107889448D01*
X144975850Y-107899146D01*
X145075980Y-107912507D01*
X145075984Y-107912507D01*
X145082961Y-107913438D01*
X145089972Y-107912800D01*
X145089976Y-107912800D01*
X145239998Y-107899146D01*
X145263600Y-107896998D01*
X145270302Y-107894820D01*
X145270304Y-107894820D01*
X145429409Y-107843124D01*
X145429412Y-107843123D01*
X145436108Y-107840947D01*
X145591912Y-107748069D01*
X145723266Y-107622982D01*
X145823643Y-107471902D01*
X145888055Y-107302338D01*
X145890363Y-107285915D01*
X145912748Y-107126639D01*
X145912748Y-107126636D01*
X145913299Y-107122717D01*
X145913616Y-107100000D01*
X145893397Y-106919745D01*
X145890212Y-106910598D01*
X145836064Y-106755106D01*
X145836062Y-106755103D01*
X145833745Y-106748448D01*
X145788701Y-106676362D01*
X145741359Y-106600598D01*
X145737626Y-106594624D01*
X145709120Y-106565918D01*
X145614778Y-106470915D01*
X145614774Y-106470912D01*
X145609815Y-106465918D01*
X145602928Y-106461547D01*
X145503965Y-106398744D01*
X145456666Y-106368727D01*
X145427463Y-106358328D01*
X145292425Y-106310243D01*
X145292420Y-106310242D01*
X145285790Y-106307881D01*
X145278802Y-106307048D01*
X145278799Y-106307047D01*
X145139023Y-106290380D01*
X145105680Y-106286404D01*
X145098677Y-106287140D01*
X145098676Y-106287140D01*
X144932288Y-106304628D01*
X144932286Y-106304629D01*
X144925288Y-106305364D01*
X144753579Y-106363818D01*
X144747575Y-106367512D01*
X144605095Y-106455166D01*
X144605092Y-106455168D01*
X144599088Y-106458862D01*
X144594053Y-106463793D01*
X144594050Y-106463795D01*
X144493621Y-106562143D01*
X144469493Y-106585771D01*
X144371235Y-106738238D01*
X144368826Y-106744858D01*
X144368824Y-106744861D01*
X144328698Y-106855106D01*
X144309197Y-106908685D01*
X144286463Y-107088640D01*
X139701125Y-107088640D01*
X139693397Y-107019745D01*
X139691080Y-107013091D01*
X139636064Y-106855106D01*
X139636062Y-106855103D01*
X139633745Y-106848448D01*
X139537626Y-106694624D01*
X139528835Y-106685771D01*
X139414778Y-106570915D01*
X139414774Y-106570912D01*
X139409815Y-106565918D01*
X139398697Y-106558862D01*
X139350538Y-106528300D01*
X139256666Y-106468727D01*
X139218582Y-106455166D01*
X139092425Y-106410243D01*
X139092420Y-106410242D01*
X139085790Y-106407881D01*
X139078802Y-106407048D01*
X139078799Y-106407047D01*
X138929270Y-106389217D01*
X138905680Y-106386404D01*
X138898677Y-106387140D01*
X138898676Y-106387140D01*
X138732288Y-106404628D01*
X138732286Y-106404629D01*
X138725288Y-106405364D01*
X138553579Y-106463818D01*
X138491109Y-106502250D01*
X138405095Y-106555166D01*
X138405092Y-106555168D01*
X138399088Y-106558862D01*
X138394053Y-106563793D01*
X138394050Y-106563795D01*
X138276686Y-106678727D01*
X138269493Y-106685771D01*
X138171235Y-106838238D01*
X138168826Y-106844858D01*
X138168824Y-106844861D01*
X138133794Y-106941105D01*
X138109197Y-107008685D01*
X138086463Y-107188640D01*
X137689083Y-107188640D01*
X137646064Y-107065106D01*
X137646062Y-107065103D01*
X137643745Y-107058448D01*
X137570422Y-106941105D01*
X137551359Y-106910598D01*
X137547626Y-106904624D01*
X137533941Y-106890843D01*
X137424778Y-106780915D01*
X137424774Y-106780912D01*
X137419815Y-106775918D01*
X137408697Y-106768862D01*
X137311575Y-106707227D01*
X137266666Y-106678727D01*
X137237463Y-106668328D01*
X137102425Y-106620243D01*
X137102420Y-106620242D01*
X137095790Y-106617881D01*
X137088802Y-106617048D01*
X137088799Y-106617047D01*
X136965698Y-106602368D01*
X136915680Y-106596404D01*
X136908677Y-106597140D01*
X136908676Y-106597140D01*
X136742288Y-106614628D01*
X136742286Y-106614629D01*
X136735288Y-106615364D01*
X136563579Y-106673818D01*
X136509274Y-106707227D01*
X136415095Y-106765166D01*
X136415092Y-106765168D01*
X136409088Y-106768862D01*
X136404053Y-106773793D01*
X136404050Y-106773795D01*
X136284525Y-106890843D01*
X136279493Y-106895771D01*
X136181235Y-107048238D01*
X136178826Y-107054858D01*
X136178824Y-107054861D01*
X136127580Y-107195653D01*
X136119197Y-107218685D01*
X136096463Y-107398640D01*
X129211719Y-107398640D01*
X129099778Y-107285915D01*
X129099774Y-107285912D01*
X129094815Y-107280918D01*
X129083697Y-107273862D01*
X129014179Y-107229745D01*
X128941666Y-107183727D01*
X128906983Y-107171377D01*
X128777425Y-107125243D01*
X128777420Y-107125242D01*
X128770790Y-107122881D01*
X128763802Y-107122048D01*
X128763799Y-107122047D01*
X128640698Y-107107368D01*
X128590680Y-107101404D01*
X128583677Y-107102140D01*
X128583676Y-107102140D01*
X128417288Y-107119628D01*
X128417286Y-107119629D01*
X128410288Y-107120364D01*
X128238579Y-107178818D01*
X128176109Y-107217250D01*
X128090095Y-107270166D01*
X128090092Y-107270168D01*
X128084088Y-107273862D01*
X128079053Y-107278793D01*
X128079050Y-107278795D01*
X127963811Y-107391646D01*
X127954493Y-107400771D01*
X127856235Y-107553238D01*
X127853826Y-107559858D01*
X127853824Y-107559861D01*
X127806311Y-107690401D01*
X127794197Y-107723685D01*
X127771463Y-107903640D01*
X107497052Y-107903640D01*
X107495959Y-105488640D01*
X113586463Y-105488640D01*
X113604163Y-105669160D01*
X113661418Y-105841273D01*
X113665065Y-105847295D01*
X113665066Y-105847297D01*
X113749982Y-105987510D01*
X113755380Y-105996424D01*
X113760269Y-106001487D01*
X113760270Y-106001488D01*
X113781027Y-106022982D01*
X113881382Y-106126902D01*
X113887278Y-106130760D01*
X113988019Y-106196683D01*
X114033159Y-106226222D01*
X114039763Y-106228678D01*
X114039765Y-106228679D01*
X114196558Y-106286990D01*
X114196560Y-106286990D01*
X114203168Y-106289448D01*
X114286995Y-106300633D01*
X114375980Y-106312507D01*
X114375984Y-106312507D01*
X114382961Y-106313438D01*
X114389972Y-106312800D01*
X114389976Y-106312800D01*
X114532459Y-106299832D01*
X114563600Y-106296998D01*
X114570302Y-106294820D01*
X114570304Y-106294820D01*
X114729409Y-106243124D01*
X114729412Y-106243123D01*
X114736108Y-106240947D01*
X114891912Y-106148069D01*
X115023266Y-106022982D01*
X115123643Y-105871902D01*
X115188055Y-105702338D01*
X115189326Y-105693296D01*
X115212748Y-105526639D01*
X115212748Y-105526636D01*
X115213299Y-105522717D01*
X115213616Y-105500000D01*
X115193397Y-105319745D01*
X115191080Y-105313091D01*
X115136064Y-105155106D01*
X115136062Y-105155103D01*
X115133745Y-105148448D01*
X115064560Y-105037728D01*
X115045424Y-104969359D01*
X115066289Y-104901498D01*
X115120531Y-104855690D01*
X115190928Y-104846479D01*
X115240407Y-104865527D01*
X115295377Y-104901498D01*
X115333159Y-104926222D01*
X115339763Y-104928678D01*
X115339765Y-104928679D01*
X115496558Y-104986990D01*
X115496560Y-104986990D01*
X115503168Y-104989448D01*
X115586995Y-105000633D01*
X115675980Y-105012507D01*
X115675984Y-105012507D01*
X115682961Y-105013438D01*
X115689972Y-105012800D01*
X115689976Y-105012800D01*
X115832459Y-104999832D01*
X115863600Y-104996998D01*
X115870302Y-104994820D01*
X115870304Y-104994820D01*
X116029409Y-104943124D01*
X116029412Y-104943123D01*
X116036108Y-104940947D01*
X116162626Y-104865527D01*
X116185860Y-104851677D01*
X116185862Y-104851676D01*
X116191912Y-104848069D01*
X116323266Y-104722982D01*
X116423643Y-104571902D01*
X116488055Y-104402338D01*
X116489035Y-104395366D01*
X116512748Y-104226639D01*
X116512748Y-104226636D01*
X116513299Y-104222717D01*
X116513616Y-104200000D01*
X116493397Y-104019745D01*
X116491080Y-104013091D01*
X116436064Y-103855106D01*
X116436062Y-103855103D01*
X116433745Y-103848448D01*
X116337626Y-103694624D01*
X116305379Y-103662151D01*
X116214778Y-103570915D01*
X116214774Y-103570912D01*
X116209815Y-103565918D01*
X116198697Y-103558862D01*
X116135501Y-103518757D01*
X116088044Y-103488640D01*
X141186463Y-103488640D01*
X141204163Y-103669160D01*
X141261418Y-103841273D01*
X141265065Y-103847295D01*
X141265066Y-103847297D01*
X141275978Y-103865314D01*
X141355380Y-103996424D01*
X141360269Y-104001487D01*
X141360270Y-104001488D01*
X141375357Y-104017111D01*
X141481382Y-104126902D01*
X141487278Y-104130760D01*
X141593088Y-104200000D01*
X141633159Y-104226222D01*
X141639763Y-104228678D01*
X141639765Y-104228679D01*
X141796558Y-104286990D01*
X141796560Y-104286990D01*
X141803168Y-104289448D01*
X141886995Y-104300633D01*
X141975980Y-104312507D01*
X141975984Y-104312507D01*
X141982961Y-104313438D01*
X141989972Y-104312800D01*
X141989976Y-104312800D01*
X142132459Y-104299832D01*
X142163600Y-104296998D01*
X142170302Y-104294820D01*
X142170304Y-104294820D01*
X142329409Y-104243124D01*
X142329412Y-104243123D01*
X142336108Y-104240947D01*
X142423854Y-104188640D01*
X144086463Y-104188640D01*
X144104163Y-104369160D01*
X144161418Y-104541273D01*
X144165065Y-104547295D01*
X144165066Y-104547297D01*
X144249817Y-104687238D01*
X144255380Y-104696424D01*
X144260269Y-104701487D01*
X144260270Y-104701488D01*
X144266204Y-104707633D01*
X144381382Y-104826902D01*
X144533159Y-104926222D01*
X144539763Y-104928678D01*
X144539765Y-104928679D01*
X144696558Y-104986990D01*
X144696560Y-104986990D01*
X144703168Y-104989448D01*
X144786995Y-105000633D01*
X144875980Y-105012507D01*
X144875984Y-105012507D01*
X144882961Y-105013438D01*
X144889972Y-105012800D01*
X144889976Y-105012800D01*
X145032459Y-104999832D01*
X145063600Y-104996998D01*
X145070302Y-104994820D01*
X145070304Y-104994820D01*
X145229409Y-104943124D01*
X145229412Y-104943123D01*
X145236108Y-104940947D01*
X145362626Y-104865527D01*
X145385860Y-104851677D01*
X145385862Y-104851676D01*
X145391912Y-104848069D01*
X145523266Y-104722982D01*
X145623643Y-104571902D01*
X145688055Y-104402338D01*
X145689035Y-104395366D01*
X145712748Y-104226639D01*
X145712748Y-104226636D01*
X145713299Y-104222717D01*
X145713616Y-104200000D01*
X145693397Y-104019745D01*
X145691080Y-104013091D01*
X145636064Y-103855106D01*
X145636062Y-103855103D01*
X145633745Y-103848448D01*
X145537626Y-103694624D01*
X145505379Y-103662151D01*
X145414778Y-103570915D01*
X145414774Y-103570912D01*
X145409815Y-103565918D01*
X145398697Y-103558862D01*
X145335501Y-103518757D01*
X145256666Y-103468727D01*
X145227463Y-103458328D01*
X145092425Y-103410243D01*
X145092420Y-103410242D01*
X145085790Y-103407881D01*
X145078802Y-103407048D01*
X145078799Y-103407047D01*
X144955698Y-103392368D01*
X144905680Y-103386404D01*
X144898677Y-103387140D01*
X144898676Y-103387140D01*
X144732288Y-103404628D01*
X144732286Y-103404629D01*
X144725288Y-103405364D01*
X144553579Y-103463818D01*
X144547575Y-103467512D01*
X144405095Y-103555166D01*
X144405092Y-103555168D01*
X144399088Y-103558862D01*
X144394053Y-103563793D01*
X144394050Y-103563795D01*
X144279630Y-103675844D01*
X144269493Y-103685771D01*
X144171235Y-103838238D01*
X144168826Y-103844858D01*
X144168824Y-103844861D01*
X144111606Y-104002066D01*
X144109197Y-104008685D01*
X144086463Y-104188640D01*
X142423854Y-104188640D01*
X142491912Y-104148069D01*
X142623266Y-104022982D01*
X142723643Y-103871902D01*
X142788055Y-103702338D01*
X142789551Y-103691693D01*
X142812748Y-103526639D01*
X142812748Y-103526636D01*
X142813299Y-103522717D01*
X142813616Y-103500000D01*
X142793397Y-103319745D01*
X142791080Y-103313091D01*
X142736064Y-103155106D01*
X142736062Y-103155103D01*
X142733745Y-103148448D01*
X142729608Y-103141828D01*
X142641359Y-103000598D01*
X142637626Y-102994624D01*
X142521588Y-102877773D01*
X142514778Y-102870915D01*
X142514774Y-102870912D01*
X142509815Y-102865918D01*
X142498697Y-102858862D01*
X142450538Y-102828300D01*
X142356666Y-102768727D01*
X142327463Y-102758328D01*
X142192425Y-102710243D01*
X142192420Y-102710242D01*
X142185790Y-102707881D01*
X142178802Y-102707048D01*
X142178799Y-102707047D01*
X142055698Y-102692368D01*
X142005680Y-102686404D01*
X141998677Y-102687140D01*
X141998676Y-102687140D01*
X141832288Y-102704628D01*
X141832286Y-102704629D01*
X141825288Y-102705364D01*
X141653579Y-102763818D01*
X141647575Y-102767512D01*
X141505095Y-102855166D01*
X141505092Y-102855168D01*
X141499088Y-102858862D01*
X141494053Y-102863793D01*
X141494050Y-102863795D01*
X141374525Y-102980843D01*
X141369493Y-102985771D01*
X141271235Y-103138238D01*
X141268826Y-103144858D01*
X141268824Y-103144861D01*
X141214243Y-103294820D01*
X141209197Y-103308685D01*
X141186463Y-103488640D01*
X116088044Y-103488640D01*
X116056666Y-103468727D01*
X116027463Y-103458328D01*
X115892425Y-103410243D01*
X115892420Y-103410242D01*
X115885790Y-103407881D01*
X115878802Y-103407048D01*
X115878799Y-103407047D01*
X115755698Y-103392368D01*
X115705680Y-103386404D01*
X115698677Y-103387140D01*
X115698676Y-103387140D01*
X115532288Y-103404628D01*
X115532286Y-103404629D01*
X115525288Y-103405364D01*
X115353579Y-103463818D01*
X115347575Y-103467512D01*
X115205095Y-103555166D01*
X115205092Y-103555168D01*
X115199088Y-103558862D01*
X115194053Y-103563793D01*
X115194050Y-103563795D01*
X115079630Y-103675844D01*
X115069493Y-103685771D01*
X114971235Y-103838238D01*
X114968826Y-103844858D01*
X114968824Y-103844861D01*
X114911606Y-104002066D01*
X114909197Y-104008685D01*
X114886463Y-104188640D01*
X114904163Y-104369160D01*
X114961418Y-104541273D01*
X114965065Y-104547295D01*
X114965066Y-104547297D01*
X115034697Y-104662272D01*
X115052876Y-104730902D01*
X115031065Y-104798465D01*
X114976190Y-104843511D01*
X114905671Y-104851738D01*
X114859410Y-104833930D01*
X114756666Y-104768727D01*
X114727463Y-104758328D01*
X114592425Y-104710243D01*
X114592420Y-104710242D01*
X114585790Y-104707881D01*
X114578802Y-104707048D01*
X114578799Y-104707047D01*
X114455698Y-104692368D01*
X114405680Y-104686404D01*
X114398677Y-104687140D01*
X114398676Y-104687140D01*
X114232288Y-104704628D01*
X114232286Y-104704629D01*
X114225288Y-104705364D01*
X114053579Y-104763818D01*
X113997261Y-104798465D01*
X113905095Y-104855166D01*
X113905092Y-104855168D01*
X113899088Y-104858862D01*
X113894053Y-104863793D01*
X113894050Y-104863795D01*
X113786252Y-104969359D01*
X113769493Y-104985771D01*
X113671235Y-105138238D01*
X113668826Y-105144858D01*
X113668824Y-105144861D01*
X113628787Y-105254861D01*
X113609197Y-105308685D01*
X113586463Y-105488640D01*
X107495959Y-105488640D01*
X107494602Y-102488640D01*
X130586463Y-102488640D01*
X130604163Y-102669160D01*
X130661418Y-102841273D01*
X130665065Y-102847295D01*
X130665066Y-102847297D01*
X130751264Y-102989627D01*
X130755380Y-102996424D01*
X130881382Y-103126902D01*
X130923793Y-103154655D01*
X131006001Y-103208450D01*
X131033159Y-103226222D01*
X131039763Y-103228678D01*
X131039765Y-103228679D01*
X131196558Y-103286990D01*
X131196560Y-103286990D01*
X131203168Y-103289448D01*
X131286995Y-103300633D01*
X131375980Y-103312507D01*
X131375984Y-103312507D01*
X131382961Y-103313438D01*
X131389972Y-103312800D01*
X131389976Y-103312800D01*
X131532459Y-103299832D01*
X131563600Y-103296998D01*
X131570302Y-103294820D01*
X131570304Y-103294820D01*
X131729409Y-103243124D01*
X131729412Y-103243123D01*
X131736108Y-103240947D01*
X131832513Y-103183478D01*
X131885860Y-103151677D01*
X131885862Y-103151676D01*
X131891912Y-103148069D01*
X132023266Y-103022982D01*
X132123643Y-102871902D01*
X132188055Y-102702338D01*
X132190191Y-102687140D01*
X132212748Y-102526639D01*
X132212748Y-102526636D01*
X132213299Y-102522717D01*
X132213616Y-102500000D01*
X132193397Y-102319745D01*
X132191080Y-102313091D01*
X132136064Y-102155106D01*
X132136062Y-102155103D01*
X132133745Y-102148448D01*
X132037626Y-101994624D01*
X132023941Y-101980843D01*
X131914778Y-101870915D01*
X131914774Y-101870912D01*
X131909815Y-101865918D01*
X131898697Y-101858862D01*
X131850538Y-101828300D01*
X131756666Y-101768727D01*
X131727463Y-101758328D01*
X131592425Y-101710243D01*
X131592420Y-101710242D01*
X131585790Y-101707881D01*
X131578802Y-101707048D01*
X131578799Y-101707047D01*
X131455698Y-101692368D01*
X131405680Y-101686404D01*
X131398677Y-101687140D01*
X131398676Y-101687140D01*
X131232288Y-101704628D01*
X131232286Y-101704629D01*
X131225288Y-101705364D01*
X131053579Y-101763818D01*
X131047575Y-101767512D01*
X130905095Y-101855166D01*
X130905092Y-101855168D01*
X130899088Y-101858862D01*
X130894053Y-101863793D01*
X130894050Y-101863795D01*
X130774525Y-101980843D01*
X130769493Y-101985771D01*
X130671235Y-102138238D01*
X130668826Y-102144858D01*
X130668824Y-102144861D01*
X130611606Y-102302066D01*
X130609197Y-102308685D01*
X130586463Y-102488640D01*
X107494602Y-102488640D01*
X107493833Y-100788640D01*
X135586463Y-100788640D01*
X135604163Y-100969160D01*
X135661418Y-101141273D01*
X135665065Y-101147295D01*
X135665066Y-101147297D01*
X135675978Y-101165314D01*
X135755380Y-101296424D01*
X135881382Y-101426902D01*
X136033159Y-101526222D01*
X136039763Y-101528678D01*
X136039765Y-101528679D01*
X136196558Y-101586990D01*
X136196560Y-101586990D01*
X136203168Y-101589448D01*
X136286995Y-101600633D01*
X136375980Y-101612507D01*
X136375984Y-101612507D01*
X136382961Y-101613438D01*
X136389972Y-101612800D01*
X136389976Y-101612800D01*
X136532459Y-101599832D01*
X136563600Y-101596998D01*
X136570302Y-101594820D01*
X136570304Y-101594820D01*
X136729409Y-101543124D01*
X136729412Y-101543123D01*
X136736108Y-101540947D01*
X136891912Y-101448069D01*
X137023266Y-101322982D01*
X137123643Y-101171902D01*
X137188055Y-101002338D01*
X137189035Y-100995366D01*
X137212748Y-100826639D01*
X137212748Y-100826636D01*
X137213299Y-100822717D01*
X137213616Y-100800000D01*
X137193397Y-100619745D01*
X137191080Y-100613091D01*
X137136064Y-100455106D01*
X137136062Y-100455103D01*
X137133745Y-100448448D01*
X137037626Y-100294624D01*
X137023941Y-100280843D01*
X136914778Y-100170915D01*
X136914774Y-100170912D01*
X136909815Y-100165918D01*
X136898697Y-100158862D01*
X136850538Y-100128300D01*
X136756666Y-100068727D01*
X136727463Y-100058328D01*
X136592425Y-100010243D01*
X136592420Y-100010242D01*
X136585790Y-100007881D01*
X136578802Y-100007048D01*
X136578799Y-100007047D01*
X136439023Y-99990380D01*
X136405680Y-99986404D01*
X136398677Y-99987140D01*
X136398676Y-99987140D01*
X136232288Y-100004628D01*
X136232286Y-100004629D01*
X136225288Y-100005364D01*
X136053579Y-100063818D01*
X136047575Y-100067512D01*
X135905095Y-100155166D01*
X135905092Y-100155168D01*
X135899088Y-100158862D01*
X135894053Y-100163793D01*
X135894050Y-100163795D01*
X135774525Y-100280843D01*
X135769493Y-100285771D01*
X135671235Y-100438238D01*
X135668826Y-100444858D01*
X135668824Y-100444861D01*
X135611606Y-100602066D01*
X135609197Y-100608685D01*
X135586463Y-100788640D01*
X107493833Y-100788640D01*
X107492577Y-98013640D01*
X113261463Y-98013640D01*
X113279163Y-98194160D01*
X113336418Y-98366273D01*
X113340065Y-98372295D01*
X113340066Y-98372297D01*
X113397034Y-98466362D01*
X113430380Y-98521424D01*
X113556382Y-98651902D01*
X113708159Y-98751222D01*
X113714763Y-98753678D01*
X113714765Y-98753679D01*
X113871558Y-98811990D01*
X113871560Y-98811990D01*
X113878168Y-98814448D01*
X113961995Y-98825633D01*
X114050980Y-98837507D01*
X114050984Y-98837507D01*
X114057961Y-98838438D01*
X114064972Y-98837800D01*
X114064976Y-98837800D01*
X114165029Y-98828694D01*
X114234682Y-98842439D01*
X114285847Y-98891660D01*
X114302278Y-98960729D01*
X114301455Y-98969967D01*
X114286463Y-99088640D01*
X114304163Y-99269160D01*
X114361418Y-99441273D01*
X114365065Y-99447295D01*
X114365066Y-99447297D01*
X114444085Y-99577773D01*
X114455380Y-99596424D01*
X114581382Y-99726902D01*
X114733159Y-99826222D01*
X114739763Y-99828678D01*
X114739765Y-99828679D01*
X114896558Y-99886990D01*
X114896560Y-99886990D01*
X114903168Y-99889448D01*
X114986995Y-99900633D01*
X115075980Y-99912507D01*
X115075984Y-99912507D01*
X115082961Y-99913438D01*
X115089972Y-99912800D01*
X115089976Y-99912800D01*
X115232459Y-99899832D01*
X115263600Y-99896998D01*
X115270302Y-99894820D01*
X115270304Y-99894820D01*
X115429409Y-99843124D01*
X115429412Y-99843123D01*
X115436108Y-99840947D01*
X115591912Y-99748069D01*
X115723266Y-99622982D01*
X115823643Y-99471902D01*
X115888055Y-99302338D01*
X115889035Y-99295366D01*
X115904034Y-99188640D01*
X152786463Y-99188640D01*
X152804163Y-99369160D01*
X152861418Y-99541273D01*
X152865065Y-99547295D01*
X152865066Y-99547297D01*
X152907347Y-99617111D01*
X152955380Y-99696424D01*
X152960269Y-99701487D01*
X152960270Y-99701488D01*
X153037121Y-99781068D01*
X153081382Y-99826902D01*
X153087278Y-99830760D01*
X153189477Y-99897637D01*
X153233159Y-99926222D01*
X153239763Y-99928678D01*
X153239765Y-99928679D01*
X153396558Y-99986990D01*
X153396560Y-99986990D01*
X153403168Y-99989448D01*
X153486995Y-100000633D01*
X153575980Y-100012507D01*
X153575984Y-100012507D01*
X153582961Y-100013438D01*
X153589972Y-100012800D01*
X153589976Y-100012800D01*
X153732459Y-99999832D01*
X153763600Y-99996998D01*
X153770302Y-99994820D01*
X153770304Y-99994820D01*
X153929409Y-99943124D01*
X153929412Y-99943123D01*
X153936108Y-99940947D01*
X154091912Y-99848069D01*
X154223266Y-99722982D01*
X154323643Y-99571902D01*
X154365423Y-99461917D01*
X154385555Y-99408920D01*
X154385556Y-99408918D01*
X154388055Y-99402338D01*
X154389035Y-99395366D01*
X154412748Y-99226639D01*
X154412748Y-99226636D01*
X154413299Y-99222717D01*
X154413616Y-99200000D01*
X154393397Y-99019745D01*
X154391080Y-99013091D01*
X154336064Y-98855106D01*
X154336062Y-98855103D01*
X154333745Y-98848448D01*
X154327365Y-98838238D01*
X154241359Y-98700598D01*
X154237626Y-98694624D01*
X154223941Y-98680843D01*
X154114778Y-98570915D01*
X154114774Y-98570912D01*
X154109815Y-98565918D01*
X154098697Y-98558862D01*
X154030213Y-98515401D01*
X153956666Y-98468727D01*
X153927463Y-98458328D01*
X153792425Y-98410243D01*
X153792420Y-98410242D01*
X153785790Y-98407881D01*
X153778802Y-98407048D01*
X153778799Y-98407047D01*
X153655698Y-98392368D01*
X153605680Y-98386404D01*
X153598677Y-98387140D01*
X153598676Y-98387140D01*
X153432288Y-98404628D01*
X153432286Y-98404629D01*
X153425288Y-98405364D01*
X153253579Y-98463818D01*
X153247575Y-98467512D01*
X153105095Y-98555166D01*
X153105092Y-98555168D01*
X153099088Y-98558862D01*
X153094053Y-98563793D01*
X153094050Y-98563795D01*
X153000139Y-98655760D01*
X152969493Y-98685771D01*
X152871235Y-98838238D01*
X152868826Y-98844858D01*
X152868824Y-98844861D01*
X152823289Y-98969967D01*
X152809197Y-99008685D01*
X152786463Y-99188640D01*
X115904034Y-99188640D01*
X115912748Y-99126639D01*
X115912748Y-99126636D01*
X115913299Y-99122717D01*
X115913616Y-99100000D01*
X115893397Y-98919745D01*
X115891080Y-98913091D01*
X115836064Y-98755106D01*
X115836062Y-98755103D01*
X115833745Y-98748448D01*
X115737626Y-98594624D01*
X115709120Y-98565918D01*
X115614778Y-98470915D01*
X115614774Y-98470912D01*
X115609815Y-98465918D01*
X115602928Y-98461547D01*
X115513237Y-98404628D01*
X115456666Y-98368727D01*
X115379600Y-98341285D01*
X115292425Y-98310243D01*
X115292420Y-98310242D01*
X115285790Y-98307881D01*
X115278802Y-98307048D01*
X115278799Y-98307047D01*
X115155698Y-98292368D01*
X115105680Y-98286404D01*
X115098677Y-98287140D01*
X115098675Y-98287140D01*
X115011381Y-98296315D01*
X114941543Y-98283543D01*
X114889696Y-98235041D01*
X114872302Y-98166208D01*
X114873437Y-98153470D01*
X114887748Y-98051642D01*
X114887749Y-98051632D01*
X114888299Y-98047717D01*
X114888616Y-98025000D01*
X114868397Y-97844745D01*
X114866080Y-97838091D01*
X114811064Y-97680106D01*
X114811062Y-97680103D01*
X114808745Y-97673448D01*
X114786182Y-97637340D01*
X114716359Y-97525598D01*
X114712626Y-97519624D01*
X114698941Y-97505843D01*
X114589778Y-97395915D01*
X114589774Y-97395912D01*
X114584815Y-97390918D01*
X114573697Y-97383862D01*
X114525538Y-97353300D01*
X114431666Y-97293727D01*
X114351873Y-97265314D01*
X114267425Y-97235243D01*
X114267420Y-97235242D01*
X114260790Y-97232881D01*
X114253802Y-97232048D01*
X114253799Y-97232047D01*
X114130698Y-97217368D01*
X114080680Y-97211404D01*
X114073677Y-97212140D01*
X114073676Y-97212140D01*
X113907288Y-97229628D01*
X113907286Y-97229629D01*
X113900288Y-97230364D01*
X113728579Y-97288818D01*
X113722575Y-97292512D01*
X113580095Y-97380166D01*
X113580092Y-97380168D01*
X113574088Y-97383862D01*
X113569053Y-97388793D01*
X113569050Y-97388795D01*
X113540135Y-97417111D01*
X113444493Y-97510771D01*
X113346235Y-97663238D01*
X113343826Y-97669858D01*
X113343824Y-97669861D01*
X113286606Y-97827066D01*
X113284197Y-97833685D01*
X113261463Y-98013640D01*
X107492577Y-98013640D01*
X107492068Y-96888640D01*
X146986463Y-96888640D01*
X147004163Y-97069160D01*
X147061418Y-97241273D01*
X147065065Y-97247295D01*
X147065066Y-97247297D01*
X147150760Y-97388795D01*
X147155380Y-97396424D01*
X147281382Y-97526902D01*
X147433159Y-97626222D01*
X147439763Y-97628678D01*
X147439765Y-97628679D01*
X147596558Y-97686990D01*
X147596560Y-97686990D01*
X147603168Y-97689448D01*
X147686995Y-97700633D01*
X147775980Y-97712507D01*
X147775984Y-97712507D01*
X147782961Y-97713438D01*
X147789972Y-97712800D01*
X147789976Y-97712800D01*
X147932459Y-97699832D01*
X147963600Y-97696998D01*
X147970302Y-97694820D01*
X147970304Y-97694820D01*
X148129409Y-97643124D01*
X148129412Y-97643123D01*
X148136108Y-97640947D01*
X148291912Y-97548069D01*
X148423266Y-97422982D01*
X148523643Y-97271902D01*
X148588055Y-97102338D01*
X148589035Y-97095366D01*
X148612748Y-96926639D01*
X148612748Y-96926636D01*
X148613299Y-96922717D01*
X148613616Y-96900000D01*
X148593397Y-96719745D01*
X148591080Y-96713091D01*
X148536064Y-96555106D01*
X148536062Y-96555103D01*
X148533745Y-96548448D01*
X148437626Y-96394624D01*
X148423941Y-96380843D01*
X148314778Y-96270915D01*
X148314774Y-96270912D01*
X148309815Y-96265918D01*
X148302416Y-96261222D01*
X148250538Y-96228300D01*
X148156666Y-96168727D01*
X148127463Y-96158328D01*
X147992425Y-96110243D01*
X147992420Y-96110242D01*
X147985790Y-96107881D01*
X147978802Y-96107048D01*
X147978799Y-96107047D01*
X147855698Y-96092368D01*
X147805680Y-96086404D01*
X147798677Y-96087140D01*
X147798676Y-96087140D01*
X147632288Y-96104628D01*
X147632286Y-96104629D01*
X147625288Y-96105364D01*
X147453579Y-96163818D01*
X147391109Y-96202250D01*
X147305095Y-96255166D01*
X147305092Y-96255168D01*
X147299088Y-96258862D01*
X147294053Y-96263793D01*
X147294050Y-96263795D01*
X147207616Y-96348438D01*
X147169493Y-96385771D01*
X147071235Y-96538238D01*
X147068826Y-96544858D01*
X147068824Y-96544861D01*
X147011606Y-96702066D01*
X147009197Y-96708685D01*
X146986463Y-96888640D01*
X107492068Y-96888640D01*
X107491450Y-95523640D01*
X127851463Y-95523640D01*
X127869163Y-95704160D01*
X127926418Y-95876273D01*
X127930065Y-95882295D01*
X127930066Y-95882297D01*
X127940978Y-95900314D01*
X128020380Y-96031424D01*
X128025269Y-96036487D01*
X128025270Y-96036488D01*
X128093409Y-96107047D01*
X128146382Y-96161902D01*
X128298159Y-96261222D01*
X128304763Y-96263678D01*
X128304765Y-96263679D01*
X128461558Y-96321990D01*
X128461560Y-96321990D01*
X128468168Y-96324448D01*
X128551995Y-96335633D01*
X128640980Y-96347507D01*
X128640984Y-96347507D01*
X128647961Y-96348438D01*
X128654972Y-96347800D01*
X128654976Y-96347800D01*
X128797459Y-96334832D01*
X128828600Y-96331998D01*
X128835302Y-96329820D01*
X128835304Y-96329820D01*
X128994409Y-96278124D01*
X128994412Y-96278123D01*
X129001108Y-96275947D01*
X129156912Y-96183069D01*
X129288266Y-96057982D01*
X129388643Y-95906902D01*
X129453055Y-95737338D01*
X129454035Y-95730366D01*
X129477748Y-95561639D01*
X129477748Y-95561636D01*
X129478299Y-95557717D01*
X129478616Y-95535000D01*
X129458397Y-95354745D01*
X129456072Y-95348069D01*
X129401064Y-95190106D01*
X129401062Y-95190103D01*
X129398745Y-95183448D01*
X129302626Y-95029624D01*
X129288941Y-95015843D01*
X129179778Y-94905915D01*
X129179774Y-94905912D01*
X129174815Y-94900918D01*
X129166067Y-94895366D01*
X129113728Y-94862151D01*
X129021666Y-94803727D01*
X128957167Y-94780760D01*
X128857425Y-94745243D01*
X128857420Y-94745242D01*
X128850790Y-94742881D01*
X128843802Y-94742048D01*
X128843799Y-94742047D01*
X128714582Y-94726639D01*
X128670680Y-94721404D01*
X128663677Y-94722140D01*
X128663676Y-94722140D01*
X128497288Y-94739628D01*
X128497286Y-94739629D01*
X128490288Y-94740364D01*
X128318579Y-94798818D01*
X128312575Y-94802512D01*
X128170095Y-94890166D01*
X128170092Y-94890168D01*
X128164088Y-94893862D01*
X128159053Y-94898793D01*
X128159050Y-94898795D01*
X128093990Y-94962507D01*
X128034493Y-95020771D01*
X127936235Y-95173238D01*
X127933826Y-95179858D01*
X127933824Y-95179861D01*
X127878901Y-95330760D01*
X127874197Y-95343685D01*
X127851463Y-95523640D01*
X107491450Y-95523640D01*
X107491072Y-94688640D01*
X137486463Y-94688640D01*
X137504163Y-94869160D01*
X137561418Y-95041273D01*
X137565065Y-95047295D01*
X137565066Y-95047297D01*
X137651554Y-95190106D01*
X137655380Y-95196424D01*
X137781382Y-95326902D01*
X137933159Y-95426222D01*
X137939763Y-95428678D01*
X137939765Y-95428679D01*
X138096558Y-95486990D01*
X138096560Y-95486990D01*
X138103168Y-95489448D01*
X138186995Y-95500633D01*
X138275980Y-95512507D01*
X138275984Y-95512507D01*
X138282961Y-95513438D01*
X138289972Y-95512800D01*
X138289976Y-95512800D01*
X138432459Y-95499832D01*
X138463600Y-95496998D01*
X138470302Y-95494820D01*
X138470304Y-95494820D01*
X138629409Y-95443124D01*
X138629412Y-95443123D01*
X138636108Y-95440947D01*
X138791912Y-95348069D01*
X138923266Y-95222982D01*
X139023643Y-95071902D01*
X139071090Y-94946998D01*
X139085555Y-94908920D01*
X139085556Y-94908918D01*
X139088055Y-94902338D01*
X139091380Y-94878679D01*
X139112748Y-94726639D01*
X139112748Y-94726636D01*
X139113299Y-94722717D01*
X139113616Y-94700000D01*
X139093397Y-94519745D01*
X139091080Y-94513091D01*
X139036064Y-94355106D01*
X139036062Y-94355103D01*
X139033745Y-94348448D01*
X138937626Y-94194624D01*
X138919766Y-94176639D01*
X138814778Y-94070915D01*
X138814774Y-94070912D01*
X138809815Y-94065918D01*
X138798697Y-94058862D01*
X138750538Y-94028300D01*
X138656666Y-93968727D01*
X138627463Y-93958328D01*
X138492425Y-93910243D01*
X138492420Y-93910242D01*
X138485790Y-93907881D01*
X138478802Y-93907048D01*
X138478799Y-93907047D01*
X138355698Y-93892368D01*
X138305680Y-93886404D01*
X138298677Y-93887140D01*
X138298676Y-93887140D01*
X138132288Y-93904628D01*
X138132286Y-93904629D01*
X138125288Y-93905364D01*
X137953579Y-93963818D01*
X137891109Y-94002250D01*
X137805095Y-94055166D01*
X137805092Y-94055168D01*
X137799088Y-94058862D01*
X137794053Y-94063793D01*
X137794050Y-94063795D01*
X137710460Y-94145653D01*
X137669493Y-94185771D01*
X137571235Y-94338238D01*
X137568826Y-94344858D01*
X137568824Y-94344861D01*
X137563707Y-94358920D01*
X137509197Y-94508685D01*
X137486463Y-94688640D01*
X107491072Y-94688640D01*
X107490213Y-92788640D01*
X108786463Y-92788640D01*
X108804163Y-92969160D01*
X108861418Y-93141273D01*
X108865065Y-93147295D01*
X108865066Y-93147297D01*
X108944126Y-93277841D01*
X108955380Y-93296424D01*
X108960269Y-93301487D01*
X108960270Y-93301488D01*
X108995461Y-93337929D01*
X109081382Y-93426902D01*
X109233159Y-93526222D01*
X109239763Y-93528678D01*
X109239765Y-93528679D01*
X109396558Y-93586990D01*
X109396560Y-93586990D01*
X109403168Y-93589448D01*
X109486995Y-93600633D01*
X109575980Y-93612507D01*
X109575984Y-93612507D01*
X109582961Y-93613438D01*
X109589972Y-93612800D01*
X109589976Y-93612800D01*
X109732459Y-93599832D01*
X109763600Y-93596998D01*
X109770302Y-93594820D01*
X109770304Y-93594820D01*
X109929409Y-93543124D01*
X109929412Y-93543123D01*
X109936108Y-93540947D01*
X110091912Y-93448069D01*
X110223266Y-93322982D01*
X110323643Y-93171902D01*
X110374394Y-93038300D01*
X110385555Y-93008920D01*
X110385556Y-93008918D01*
X110388055Y-93002338D01*
X110389035Y-92995366D01*
X110412748Y-92826639D01*
X110412748Y-92826636D01*
X110413299Y-92822717D01*
X110413616Y-92800000D01*
X110406733Y-92738640D01*
X139436463Y-92738640D01*
X139454163Y-92919160D01*
X139511418Y-93091273D01*
X139515065Y-93097295D01*
X139515066Y-93097297D01*
X139595894Y-93230760D01*
X139605380Y-93246424D01*
X139731382Y-93376902D01*
X139883159Y-93476222D01*
X139889763Y-93478678D01*
X139889765Y-93478679D01*
X140046558Y-93536990D01*
X140046560Y-93536990D01*
X140053168Y-93539448D01*
X140136995Y-93550633D01*
X140225980Y-93562507D01*
X140225984Y-93562507D01*
X140232961Y-93563438D01*
X140239972Y-93562800D01*
X140239976Y-93562800D01*
X140382459Y-93549832D01*
X140413600Y-93546998D01*
X140420302Y-93544820D01*
X140420304Y-93544820D01*
X140579409Y-93493124D01*
X140579412Y-93493123D01*
X140586108Y-93490947D01*
X140715493Y-93413818D01*
X140735860Y-93401677D01*
X140735862Y-93401676D01*
X140741912Y-93398069D01*
X140873266Y-93272982D01*
X140973643Y-93121902D01*
X141031665Y-92969160D01*
X141035555Y-92958920D01*
X141035556Y-92958918D01*
X141038055Y-92952338D01*
X141040549Y-92934590D01*
X141062748Y-92776639D01*
X141062748Y-92776636D01*
X141063299Y-92772717D01*
X141063616Y-92750000D01*
X141043397Y-92569745D01*
X141040035Y-92560090D01*
X140986064Y-92405106D01*
X140986062Y-92405103D01*
X140983745Y-92398448D01*
X140887626Y-92244624D01*
X140882664Y-92239627D01*
X140857354Y-92214140D01*
X142207262Y-92214140D01*
X142224962Y-92394660D01*
X142282217Y-92566773D01*
X142285864Y-92572795D01*
X142285865Y-92572797D01*
X142316098Y-92622717D01*
X142376179Y-92721924D01*
X142381068Y-92726987D01*
X142381069Y-92726988D01*
X142428249Y-92775844D01*
X142502181Y-92852402D01*
X142508077Y-92856260D01*
X142627778Y-92934590D01*
X142653958Y-92951722D01*
X142660562Y-92954178D01*
X142660564Y-92954179D01*
X142817357Y-93012490D01*
X142817359Y-93012490D01*
X142823967Y-93014948D01*
X142907794Y-93026133D01*
X142996779Y-93038007D01*
X142996783Y-93038007D01*
X143003760Y-93038938D01*
X143010771Y-93038300D01*
X143010775Y-93038300D01*
X143153258Y-93025332D01*
X143184399Y-93022498D01*
X143191101Y-93020320D01*
X143191103Y-93020320D01*
X143350208Y-92968624D01*
X143350211Y-92968623D01*
X143356907Y-92966447D01*
X143512711Y-92873569D01*
X143644065Y-92748482D01*
X143744442Y-92597402D01*
X143747770Y-92588640D01*
X153586463Y-92588640D01*
X153604163Y-92769160D01*
X153661418Y-92941273D01*
X153665065Y-92947295D01*
X153665066Y-92947297D01*
X153720566Y-93038938D01*
X153755380Y-93096424D01*
X153760269Y-93101487D01*
X153760270Y-93101488D01*
X153785725Y-93127847D01*
X153881382Y-93226902D01*
X154033159Y-93326222D01*
X154039763Y-93328678D01*
X154039765Y-93328679D01*
X154138736Y-93365486D01*
X154195612Y-93407978D01*
X154220486Y-93474475D01*
X154205461Y-93543863D01*
X154182974Y-93573606D01*
X154119493Y-93635771D01*
X154021235Y-93788238D01*
X154018826Y-93794858D01*
X154018824Y-93794861D01*
X153961606Y-93952066D01*
X153959197Y-93958685D01*
X153936463Y-94138640D01*
X153954163Y-94319160D01*
X154011418Y-94491273D01*
X154015065Y-94497295D01*
X154015066Y-94497297D01*
X154025978Y-94515314D01*
X154105380Y-94646424D01*
X154231382Y-94776902D01*
X154383159Y-94876222D01*
X154389763Y-94878678D01*
X154389765Y-94878679D01*
X154546558Y-94936990D01*
X154546560Y-94936990D01*
X154553168Y-94939448D01*
X154636995Y-94950633D01*
X154725980Y-94962507D01*
X154725984Y-94962507D01*
X154732961Y-94963438D01*
X154739972Y-94962800D01*
X154739976Y-94962800D01*
X154882459Y-94949832D01*
X154913600Y-94946998D01*
X154920302Y-94944820D01*
X154920304Y-94944820D01*
X155079409Y-94893124D01*
X155079412Y-94893123D01*
X155086108Y-94890947D01*
X155182513Y-94833478D01*
X155235860Y-94801677D01*
X155235862Y-94801676D01*
X155241912Y-94798069D01*
X155373266Y-94672982D01*
X155473643Y-94521902D01*
X155538055Y-94352338D01*
X155540037Y-94338238D01*
X155562748Y-94176639D01*
X155562748Y-94176636D01*
X155563299Y-94172717D01*
X155563616Y-94150000D01*
X155543397Y-93969745D01*
X155540542Y-93961547D01*
X155486064Y-93805106D01*
X155486062Y-93805103D01*
X155483745Y-93798448D01*
X155387626Y-93644624D01*
X155356657Y-93613438D01*
X155264778Y-93520915D01*
X155264774Y-93520912D01*
X155259815Y-93515918D01*
X155248697Y-93508862D01*
X155158587Y-93451677D01*
X155106666Y-93418727D01*
X155012864Y-93385326D01*
X154955403Y-93343634D01*
X154929602Y-93277491D01*
X154943657Y-93207899D01*
X154968241Y-93175383D01*
X155018159Y-93127847D01*
X155018166Y-93127839D01*
X155023266Y-93122982D01*
X155123643Y-92971902D01*
X155169037Y-92852402D01*
X155185555Y-92808920D01*
X155185556Y-92808918D01*
X155188055Y-92802338D01*
X155191667Y-92776639D01*
X155212748Y-92626639D01*
X155212748Y-92626636D01*
X155213299Y-92622717D01*
X155213616Y-92600000D01*
X155193397Y-92419745D01*
X155191080Y-92413091D01*
X155136064Y-92255106D01*
X155136062Y-92255103D01*
X155133745Y-92248448D01*
X155107937Y-92207146D01*
X155041359Y-92100598D01*
X155037626Y-92094624D01*
X155009561Y-92066362D01*
X154914778Y-91970915D01*
X154914774Y-91970912D01*
X154909815Y-91965918D01*
X154898697Y-91958862D01*
X154775384Y-91880606D01*
X154756666Y-91868727D01*
X154726013Y-91857812D01*
X154592425Y-91810243D01*
X154592420Y-91810242D01*
X154585790Y-91807881D01*
X154578802Y-91807048D01*
X154578799Y-91807047D01*
X154455698Y-91792368D01*
X154405680Y-91786404D01*
X154398677Y-91787140D01*
X154398676Y-91787140D01*
X154232288Y-91804628D01*
X154232286Y-91804629D01*
X154225288Y-91805364D01*
X154053579Y-91863818D01*
X154047575Y-91867512D01*
X153905095Y-91955166D01*
X153905092Y-91955168D01*
X153899088Y-91958862D01*
X153894053Y-91963793D01*
X153894050Y-91963795D01*
X153774525Y-92080843D01*
X153769493Y-92085771D01*
X153671235Y-92238238D01*
X153668826Y-92244858D01*
X153668824Y-92244861D01*
X153612923Y-92398448D01*
X153609197Y-92408685D01*
X153586463Y-92588640D01*
X143747770Y-92588640D01*
X143803296Y-92442469D01*
X143806354Y-92434420D01*
X143806355Y-92434418D01*
X143808854Y-92427838D01*
X143809834Y-92420866D01*
X143833547Y-92252139D01*
X143833547Y-92252136D01*
X143834098Y-92248217D01*
X143834320Y-92232312D01*
X143834360Y-92229462D01*
X143834360Y-92229457D01*
X143834415Y-92225500D01*
X143814196Y-92045245D01*
X143811879Y-92038591D01*
X143756863Y-91880606D01*
X143756861Y-91880603D01*
X143754544Y-91873948D01*
X143711688Y-91805364D01*
X143662158Y-91726098D01*
X143658425Y-91720124D01*
X143644740Y-91706343D01*
X143535577Y-91596415D01*
X143535573Y-91596412D01*
X143530614Y-91591418D01*
X143519496Y-91584362D01*
X143471337Y-91553800D01*
X143377465Y-91494227D01*
X143348262Y-91483828D01*
X143213224Y-91435743D01*
X143213219Y-91435742D01*
X143206589Y-91433381D01*
X143199601Y-91432548D01*
X143199598Y-91432547D01*
X143076497Y-91417868D01*
X143026479Y-91411904D01*
X143019476Y-91412640D01*
X143019475Y-91412640D01*
X142853087Y-91430128D01*
X142853085Y-91430129D01*
X142846087Y-91430864D01*
X142674378Y-91489318D01*
X142668374Y-91493012D01*
X142525894Y-91580666D01*
X142525891Y-91580668D01*
X142519887Y-91584362D01*
X142514852Y-91589293D01*
X142514849Y-91589295D01*
X142395324Y-91706343D01*
X142390292Y-91711271D01*
X142292034Y-91863738D01*
X142289625Y-91870358D01*
X142289623Y-91870361D01*
X142235622Y-92018727D01*
X142229996Y-92034185D01*
X142207262Y-92214140D01*
X140857354Y-92214140D01*
X140764778Y-92120915D01*
X140764774Y-92120912D01*
X140759815Y-92115918D01*
X140748697Y-92108862D01*
X140674140Y-92061547D01*
X140606666Y-92018727D01*
X140567071Y-92004628D01*
X140442425Y-91960243D01*
X140442420Y-91960242D01*
X140435790Y-91957881D01*
X140428802Y-91957048D01*
X140428799Y-91957047D01*
X140305698Y-91942368D01*
X140255680Y-91936404D01*
X140248677Y-91937140D01*
X140248676Y-91937140D01*
X140082288Y-91954628D01*
X140082286Y-91954629D01*
X140075288Y-91955364D01*
X139903579Y-92013818D01*
X139841119Y-92052244D01*
X139755095Y-92105166D01*
X139755092Y-92105168D01*
X139749088Y-92108862D01*
X139744053Y-92113793D01*
X139744050Y-92113795D01*
X139624525Y-92230843D01*
X139619493Y-92235771D01*
X139521235Y-92388238D01*
X139518826Y-92394858D01*
X139518824Y-92394861D01*
X139499320Y-92448448D01*
X139459197Y-92558685D01*
X139436463Y-92738640D01*
X110406733Y-92738640D01*
X110393397Y-92619745D01*
X110391080Y-92613091D01*
X110336064Y-92455106D01*
X110336062Y-92455103D01*
X110333745Y-92448448D01*
X110302502Y-92398448D01*
X110241359Y-92300598D01*
X110237626Y-92294624D01*
X110198383Y-92255106D01*
X110114778Y-92170915D01*
X110114774Y-92170912D01*
X110109815Y-92165918D01*
X110098697Y-92158862D01*
X110014085Y-92105166D01*
X109956666Y-92068727D01*
X109879291Y-92041175D01*
X109792425Y-92010243D01*
X109792420Y-92010242D01*
X109785790Y-92007881D01*
X109778802Y-92007048D01*
X109778799Y-92007047D01*
X109655698Y-91992368D01*
X109605680Y-91986404D01*
X109598677Y-91987140D01*
X109598676Y-91987140D01*
X109432288Y-92004628D01*
X109432286Y-92004629D01*
X109425288Y-92005364D01*
X109253579Y-92063818D01*
X109217895Y-92085771D01*
X109105095Y-92155166D01*
X109105092Y-92155168D01*
X109099088Y-92158862D01*
X109094053Y-92163793D01*
X109094050Y-92163795D01*
X109000807Y-92255106D01*
X108969493Y-92285771D01*
X108871235Y-92438238D01*
X108868826Y-92444858D01*
X108868824Y-92444861D01*
X108813940Y-92595653D01*
X108809197Y-92608685D01*
X108786463Y-92788640D01*
X107490213Y-92788640D01*
X107488905Y-89898134D01*
X109566500Y-89898134D01*
X109573255Y-89960316D01*
X109624385Y-90096705D01*
X109711739Y-90213261D01*
X109828295Y-90300615D01*
X109964684Y-90351745D01*
X110026866Y-90358500D01*
X111823134Y-90358500D01*
X111885316Y-90351745D01*
X112021705Y-90300615D01*
X112138261Y-90213261D01*
X112225615Y-90096705D01*
X112247799Y-90037529D01*
X112269598Y-89979382D01*
X112312240Y-89922618D01*
X112378802Y-89897918D01*
X112448150Y-89913126D01*
X112482817Y-89941114D01*
X112511250Y-89973938D01*
X112683126Y-90116632D01*
X112876000Y-90229338D01*
X113084692Y-90309030D01*
X113089760Y-90310061D01*
X113089763Y-90310062D01*
X113184862Y-90329410D01*
X113303597Y-90353567D01*
X113308772Y-90353757D01*
X113308774Y-90353757D01*
X113521673Y-90361564D01*
X113521677Y-90361564D01*
X113526837Y-90361753D01*
X113531957Y-90361097D01*
X113531959Y-90361097D01*
X113743288Y-90334025D01*
X113743289Y-90334025D01*
X113748416Y-90333368D01*
X113753366Y-90331883D01*
X113957429Y-90270661D01*
X113957434Y-90270659D01*
X113962384Y-90269174D01*
X114162994Y-90170896D01*
X114344860Y-90041173D01*
X114354421Y-90031646D01*
X114488616Y-89897918D01*
X114503096Y-89883489D01*
X114517754Y-89863091D01*
X114633453Y-89702077D01*
X114634640Y-89702930D01*
X114681960Y-89659362D01*
X114751897Y-89647145D01*
X114817338Y-89674678D01*
X114845166Y-89706511D01*
X114902694Y-89800388D01*
X114908777Y-89808699D01*
X115048213Y-89969667D01*
X115055580Y-89976883D01*
X115219434Y-90112916D01*
X115227881Y-90118831D01*
X115411756Y-90226279D01*
X115421042Y-90230729D01*
X115620001Y-90306703D01*
X115629899Y-90309579D01*
X115733250Y-90330606D01*
X115747299Y-90329410D01*
X115751000Y-90319065D01*
X115751000Y-90318517D01*
X116259000Y-90318517D01*
X116263064Y-90332359D01*
X116276478Y-90334393D01*
X116283184Y-90333534D01*
X116293262Y-90331392D01*
X116497255Y-90270191D01*
X116506842Y-90266433D01*
X116698095Y-90172739D01*
X116706945Y-90167464D01*
X116880328Y-90043792D01*
X116888200Y-90037139D01*
X117039052Y-89886812D01*
X117045730Y-89878965D01*
X117173022Y-89701819D01*
X117174279Y-89702722D01*
X117221373Y-89659362D01*
X117291311Y-89647145D01*
X117356751Y-89674678D01*
X117384579Y-89706511D01*
X117444987Y-89805088D01*
X117591250Y-89973938D01*
X117763126Y-90116632D01*
X117956000Y-90229338D01*
X118164692Y-90309030D01*
X118169760Y-90310061D01*
X118169763Y-90310062D01*
X118264862Y-90329410D01*
X118383597Y-90353567D01*
X118388772Y-90353757D01*
X118388774Y-90353757D01*
X118601673Y-90361564D01*
X118601677Y-90361564D01*
X118606837Y-90361753D01*
X118611957Y-90361097D01*
X118611959Y-90361097D01*
X118823288Y-90334025D01*
X118823289Y-90334025D01*
X118828416Y-90333368D01*
X118833366Y-90331883D01*
X119037429Y-90270661D01*
X119037434Y-90270659D01*
X119042384Y-90269174D01*
X119242994Y-90170896D01*
X119424860Y-90041173D01*
X119434421Y-90031646D01*
X119568616Y-89897918D01*
X119583096Y-89883489D01*
X119597754Y-89863091D01*
X119713453Y-89702077D01*
X119714776Y-89703028D01*
X119761645Y-89659857D01*
X119831580Y-89647625D01*
X119897026Y-89675144D01*
X119924875Y-89706994D01*
X119984987Y-89805088D01*
X120131250Y-89973938D01*
X120303126Y-90116632D01*
X120496000Y-90229338D01*
X120704692Y-90309030D01*
X120709760Y-90310061D01*
X120709763Y-90310062D01*
X120804862Y-90329410D01*
X120923597Y-90353567D01*
X120928772Y-90353757D01*
X120928774Y-90353757D01*
X121141673Y-90361564D01*
X121141677Y-90361564D01*
X121146837Y-90361753D01*
X121151957Y-90361097D01*
X121151959Y-90361097D01*
X121363288Y-90334025D01*
X121363289Y-90334025D01*
X121368416Y-90333368D01*
X121373366Y-90331883D01*
X121577429Y-90270661D01*
X121577434Y-90270659D01*
X121582384Y-90269174D01*
X121782994Y-90170896D01*
X121964860Y-90041173D01*
X121967402Y-90038640D01*
X149936463Y-90038640D01*
X149954163Y-90219160D01*
X150011418Y-90391273D01*
X150015065Y-90397295D01*
X150015066Y-90397297D01*
X150025978Y-90415314D01*
X150105380Y-90546424D01*
X150231382Y-90676902D01*
X150383159Y-90776222D01*
X150389763Y-90778678D01*
X150389765Y-90778679D01*
X150546558Y-90836990D01*
X150546560Y-90836990D01*
X150553168Y-90839448D01*
X150636995Y-90850633D01*
X150725980Y-90862507D01*
X150725984Y-90862507D01*
X150732961Y-90863438D01*
X150739972Y-90862800D01*
X150739976Y-90862800D01*
X150882459Y-90849832D01*
X150913600Y-90846998D01*
X150920302Y-90844820D01*
X150920304Y-90844820D01*
X151079409Y-90793124D01*
X151079412Y-90793123D01*
X151086108Y-90790947D01*
X151241912Y-90698069D01*
X151373266Y-90572982D01*
X151473643Y-90421902D01*
X151531660Y-90269174D01*
X151535555Y-90258920D01*
X151535556Y-90258918D01*
X151538055Y-90252338D01*
X151539035Y-90245366D01*
X151562748Y-90076639D01*
X151562748Y-90076636D01*
X151563299Y-90072717D01*
X151563616Y-90050000D01*
X151543397Y-89869745D01*
X151541080Y-89863091D01*
X151486064Y-89705106D01*
X151486062Y-89705103D01*
X151483745Y-89698448D01*
X151451688Y-89647145D01*
X151391359Y-89550598D01*
X151387626Y-89544624D01*
X151373941Y-89530843D01*
X151264778Y-89420915D01*
X151264774Y-89420912D01*
X151259815Y-89415918D01*
X151248697Y-89408862D01*
X151200538Y-89378300D01*
X151106666Y-89318727D01*
X151034481Y-89293023D01*
X150942425Y-89260243D01*
X150942420Y-89260242D01*
X150935790Y-89257881D01*
X150928802Y-89257048D01*
X150928799Y-89257047D01*
X150805698Y-89242368D01*
X150755680Y-89236404D01*
X150748677Y-89237140D01*
X150748676Y-89237140D01*
X150582288Y-89254628D01*
X150582286Y-89254629D01*
X150575288Y-89255364D01*
X150403579Y-89313818D01*
X150397575Y-89317512D01*
X150255095Y-89405166D01*
X150255092Y-89405168D01*
X150249088Y-89408862D01*
X150244053Y-89413793D01*
X150244050Y-89413795D01*
X150124525Y-89530843D01*
X150119493Y-89535771D01*
X150021235Y-89688238D01*
X150018826Y-89694858D01*
X150018824Y-89694861D01*
X149961606Y-89852066D01*
X149959197Y-89858685D01*
X149936463Y-90038640D01*
X121967402Y-90038640D01*
X121974421Y-90031646D01*
X122108616Y-89897918D01*
X122123096Y-89883489D01*
X122137754Y-89863091D01*
X122250435Y-89706277D01*
X122253453Y-89702077D01*
X122257020Y-89694861D01*
X122350136Y-89506453D01*
X122350137Y-89506451D01*
X122352430Y-89501811D01*
X122417370Y-89288069D01*
X122446529Y-89066590D01*
X122448156Y-89000000D01*
X122429852Y-88777361D01*
X122375431Y-88560702D01*
X122286354Y-88355840D01*
X122210772Y-88239008D01*
X122167822Y-88172617D01*
X122167820Y-88172614D01*
X122165014Y-88168277D01*
X122014670Y-88003051D01*
X122010619Y-87999852D01*
X122010615Y-87999848D01*
X121843414Y-87867800D01*
X121843410Y-87867798D01*
X121839359Y-87864598D01*
X121803028Y-87844542D01*
X121787136Y-87835769D01*
X121643789Y-87756638D01*
X121638920Y-87754914D01*
X121638916Y-87754912D01*
X121438087Y-87683795D01*
X121438083Y-87683794D01*
X121433212Y-87682069D01*
X121428119Y-87681162D01*
X121428116Y-87681161D01*
X121218373Y-87643800D01*
X121218367Y-87643799D01*
X121213284Y-87642894D01*
X121139452Y-87641992D01*
X120995081Y-87640228D01*
X120995079Y-87640228D01*
X120989911Y-87640165D01*
X120769091Y-87673955D01*
X120556756Y-87743357D01*
X120358607Y-87846507D01*
X120354474Y-87849610D01*
X120354471Y-87849612D01*
X120206959Y-87960367D01*
X120179965Y-87980635D01*
X120176393Y-87984373D01*
X120068729Y-88097037D01*
X120025629Y-88142138D01*
X119918201Y-88299621D01*
X119863293Y-88344621D01*
X119792768Y-88352792D01*
X119729021Y-88321538D01*
X119708324Y-88297054D01*
X119627822Y-88172617D01*
X119627820Y-88172614D01*
X119625014Y-88168277D01*
X119474670Y-88003051D01*
X119470619Y-87999852D01*
X119470615Y-87999848D01*
X119303414Y-87867800D01*
X119303410Y-87867798D01*
X119299359Y-87864598D01*
X119263028Y-87844542D01*
X119247136Y-87835769D01*
X119103789Y-87756638D01*
X119098920Y-87754914D01*
X119098916Y-87754912D01*
X118898087Y-87683795D01*
X118898083Y-87683794D01*
X118893212Y-87682069D01*
X118888119Y-87681162D01*
X118888116Y-87681161D01*
X118678373Y-87643800D01*
X118678367Y-87643799D01*
X118673284Y-87642894D01*
X118599452Y-87641992D01*
X118455081Y-87640228D01*
X118455079Y-87640228D01*
X118449911Y-87640165D01*
X118229091Y-87673955D01*
X118016756Y-87743357D01*
X117818607Y-87846507D01*
X117814474Y-87849610D01*
X117814471Y-87849612D01*
X117666959Y-87960367D01*
X117639965Y-87980635D01*
X117636393Y-87984373D01*
X117528729Y-88097037D01*
X117485629Y-88142138D01*
X117378204Y-88299618D01*
X117377898Y-88300066D01*
X117322987Y-88345069D01*
X117252462Y-88353240D01*
X117188715Y-88321986D01*
X117168018Y-88297502D01*
X117087426Y-88172926D01*
X117081136Y-88164757D01*
X116937806Y-88007240D01*
X116930273Y-88000215D01*
X116763139Y-87868222D01*
X116754552Y-87862517D01*
X116568117Y-87759599D01*
X116558705Y-87755369D01*
X116357959Y-87684280D01*
X116347988Y-87681646D01*
X116276837Y-87668972D01*
X116263540Y-87670432D01*
X116259000Y-87684989D01*
X116259000Y-90318517D01*
X115751000Y-90318517D01*
X115751000Y-87683102D01*
X115747082Y-87669758D01*
X115732806Y-87667771D01*
X115694324Y-87673660D01*
X115684288Y-87676051D01*
X115481868Y-87742212D01*
X115472359Y-87746209D01*
X115283463Y-87844542D01*
X115274738Y-87850036D01*
X115104433Y-87977905D01*
X115096726Y-87984748D01*
X114949590Y-88138717D01*
X114943109Y-88146722D01*
X114838498Y-88300074D01*
X114783587Y-88345076D01*
X114713062Y-88353247D01*
X114649315Y-88321993D01*
X114628618Y-88297509D01*
X114547822Y-88172617D01*
X114547820Y-88172614D01*
X114545014Y-88168277D01*
X114394670Y-88003051D01*
X114390619Y-87999852D01*
X114390615Y-87999848D01*
X114223414Y-87867800D01*
X114223410Y-87867798D01*
X114219359Y-87864598D01*
X114183028Y-87844542D01*
X114167136Y-87835769D01*
X114023789Y-87756638D01*
X114018920Y-87754914D01*
X114018916Y-87754912D01*
X113818087Y-87683795D01*
X113818083Y-87683794D01*
X113813212Y-87682069D01*
X113808119Y-87681162D01*
X113808116Y-87681161D01*
X113598373Y-87643800D01*
X113598367Y-87643799D01*
X113593284Y-87642894D01*
X113519452Y-87641992D01*
X113375081Y-87640228D01*
X113375079Y-87640228D01*
X113369911Y-87640165D01*
X113149091Y-87673955D01*
X112936756Y-87743357D01*
X112738607Y-87846507D01*
X112734474Y-87849610D01*
X112734471Y-87849612D01*
X112586959Y-87960367D01*
X112559965Y-87980635D01*
X112503537Y-88039684D01*
X112479283Y-88065064D01*
X112417759Y-88100494D01*
X112346846Y-88097037D01*
X112289060Y-88055791D01*
X112270207Y-88022243D01*
X112228767Y-87911703D01*
X112225615Y-87903295D01*
X112138261Y-87786739D01*
X112021705Y-87699385D01*
X111885316Y-87648255D01*
X111823134Y-87641500D01*
X110026866Y-87641500D01*
X109964684Y-87648255D01*
X109828295Y-87699385D01*
X109711739Y-87786739D01*
X109624385Y-87903295D01*
X109573255Y-88039684D01*
X109566500Y-88101866D01*
X109566500Y-89898134D01*
X107488905Y-89898134D01*
X107488421Y-88829174D01*
X107489920Y-88809746D01*
X107493590Y-88786175D01*
X107491341Y-88768976D01*
X107490508Y-88745036D01*
X107504647Y-88511296D01*
X107506481Y-88496192D01*
X107538554Y-88321172D01*
X107553613Y-88239002D01*
X107557252Y-88224234D01*
X107573241Y-88172926D01*
X107635045Y-87974589D01*
X107640440Y-87960367D01*
X107683542Y-87864598D01*
X107747752Y-87721929D01*
X107754814Y-87708473D01*
X107890089Y-87484702D01*
X107898731Y-87472181D01*
X108059991Y-87266348D01*
X108070081Y-87254960D01*
X108254960Y-87070081D01*
X108266348Y-87059991D01*
X108472181Y-86898731D01*
X108484703Y-86890088D01*
X108579894Y-86832543D01*
X108708473Y-86754814D01*
X108721929Y-86747752D01*
X108960370Y-86640439D01*
X108974589Y-86635045D01*
X109224240Y-86557251D01*
X109239002Y-86553613D01*
X109432910Y-86518078D01*
X109496192Y-86506481D01*
X109511296Y-86504647D01*
X109737803Y-86490946D01*
X109764620Y-86492207D01*
X109764751Y-86492209D01*
X109773623Y-86493590D01*
X109782525Y-86492426D01*
X109782530Y-86492426D01*
X109805041Y-86489482D01*
X109821434Y-86488418D01*
X154150547Y-86508478D01*
G37*
G04 #@! TD.AperFunction*
M02*
