M48
; DRILL file {KiCad (6.0.9)} date Sat Feb 25 19:24:13 2023
; FORMAT={-:-/ absolute / metric / decimal}
; #@! TF.CreationDate,2023-02-25T19:24:13-07:00
; #@! TF.GenerationSoftware,Kicad,Pcbnew,(6.0.9)
; #@! TF.FileFunction,Plated,1,4,PTH
FMAT,2
METRIC
; #@! TA.AperFunction,Plated,PTH,ViaDrill
T1C0.300
; #@! TA.AperFunction,Plated,PTH,ComponentDrill
T2C0.950
; #@! TA.AperFunction,Plated,PTH,ComponentDrill
T3C1.000
%
G90
G05
T1
X108.3Y-114.4
X108.525Y-120.175
X108.825Y-112.375
X109.6Y-92.8
X109.8Y-118.2
X111.475Y-103.925
X112.05Y-119.15
X112.2Y-111.3
X112.8Y-112.6
X113.9Y-131.6
X114.075Y-98.025
X114.075Y-112.375
X114.4Y-105.5
X114.5Y-115.9
X115.0Y-112.0
X115.1Y-99.1
X115.7Y-104.2
X117.8Y-125.0
X120.4Y-115.7
X120.5Y-94.2
X120.6Y-120.5
X122.5Y-113.2
X123.3Y-103.1
X124.35Y-133.25
X126.8Y-97.1
X127.0Y-133.8
X127.6Y-126.2
X127.63Y-110.4
X128.585Y-107.915
X128.665Y-95.535
X128.904Y-123.462
X129.95Y-132.35
X130.3Y-98.718
X130.5Y-111.0
X130.8Y-118.9
X130.8Y-126.3
X131.36Y-110.24
X131.4Y-102.5
X132.2Y-88.5
X132.3Y-123.2
X133.0Y-103.9
X133.7Y-134.1
X135.3Y-123.875
X135.3Y-130.4
X135.8Y-91.605
X136.095Y-116.395
X136.2Y-112.4
X136.4Y-100.8
X136.7Y-128.6
X136.91Y-107.41
X137.14Y-122.182
X137.8Y-117.7
X137.832Y-134.567
X138.3Y-94.7
X138.9Y-107.2
X138.95Y-109.45
X140.25Y-92.75
X140.7Y-128.8
X141.4Y-100.1
X142.0Y-103.5
X142.7Y-123.4
X143.021Y-92.225
X143.2Y-110.8
X144.15Y-122.65
X144.284Y-130.748
X144.4Y-120.3
X144.4Y-126.1
X144.7Y-111.8
X144.8Y-116.1
X144.9Y-104.2
X145.1Y-107.1
X145.1Y-124.0
X147.8Y-96.9
X147.8Y-130.2
X149.1Y-133.9
X149.2Y-92.9
X150.5Y-100.5
X150.75Y-90.05
X151.4Y-134.6
X152.6Y-127.4
X153.6Y-99.2
X154.2Y-125.5
X154.4Y-92.6
X154.75Y-94.15
X154.8Y-132.4
T2
X153.0Y-104.5
X153.0Y-107.0
X153.0Y-109.5
X153.0Y-112.0
X153.0Y-114.5
X153.0Y-117.0
X153.0Y-119.5
T3
X110.925Y-89.0
X113.465Y-89.0
X116.005Y-89.0
X118.545Y-89.0
X121.085Y-89.0
T0
M30
